<?xml version="1.0" encoding="utf-8"?>
<!-- Generator: Adobe Illustrator 17.0.0, SVG Export Plug-In . SVG Version: 6.00 Build 0)  -->
<!DOCTYPE svg PUBLIC "-//W3C//DTD SVG 1.1//EN" "http://www.w3.org/Graphics/SVG/1.1/DTD/svg11.dtd">
<svg version="1.1" id="Layer_1" xmlns="http://www.w3.org/2000/svg" xmlns:xlink="http://www.w3.org/1999/xlink" x="0px" y="0px"
	 width="180px" height="117px" viewBox="0 0 180 117" enable-background="new 0 0 180 117" xml:space="preserve">
<g>
	<path fill="#737F83" d="M40.98,7.936c1.821-2.124,76.473-1.214,78.294,0c0.674,0.449,1.14,6.928,1.352,15.001
		c4.35-2.26,17.822-9.036,19.108-6.969c1.536,2.469-4.456,30.171-6.224,31.542c-1.406,1.09-9.569-3.525-12.859-5.464
		c-0.187,7.534-0.633,13.503-1.378,14.141c-2.124,1.821-76.777,2.124-78.294,0C39.463,54.063,39.159,10.061,40.98,7.936z"/>
	<ellipse fill="#8C989B" cx="48.375" cy="39.255" rx="2.781" ry="4.756"/>
	<path fill="#3F3F3F" d="M48.375,34.498c0.782,0,1.486,0.556,1.991,1.445c-0.155-0.067-0.317-0.117-0.491-0.117
		c-0.792,0-1.434,0.756-1.434,1.689c0,0.932,0.642,1.688,1.434,1.688c0.533,0,0.98-0.358,1.227-0.867
		c0.034,0.297,0.054,0.603,0.054,0.918c0,2.627-1.245,4.756-2.781,4.756c-1.536,0-2.781-2.129-2.781-4.756
		S46.839,34.498,48.375,34.498z"/>
	<path fill="#5B5A5C" d="M40.661,8.816C52.632,22.897,81.493,34.11,81.493,34.11c19.346-6.828,38.141-25.294,38.141-25.294
		c-8.155,9.202-15.164,15.459-20.871,19.718c0.477-0.225,0.911-0.419,1.279-0.569c2.947-1.202,4.154,1.422,3.983,4.2
		c-0.133,2.39-0.543,5.369-1.017,8.196c6.117,5.993,8.198,10.591,8.198,10.591c-2.316-2.891-5.449-5.773-8.594-8.337
		c-0.639,3.483-1.289,6.368-1.49,7.028c-0.28,0.919-1.336,3.067-3.054,2.826c-3.848-0.759-5.625-1.613-8.004-2.693
		c-1.615-0.858-2.975-2-2.975-2s10.442,4.153,11.771,3.126c1.33-1.027,4.549-19.671,3.181-21.186
		c-1.116-1.236-11.037,3.87-14.658,5.795c-3.845,1.774-6.073,2.014-6.073,2.014C78.028,36.288,74,34.994,72,33.671
		c0,0.003,0,0.005,0,0.007c0,0-12.458,8.626-18.608,17.274c0,0,3.751-9.228,16.166-18.598C47.57,21.322,40.661,8.816,40.661,8.816z"
		/>
</g>
<g>
	<path fill="#5B5A5C" d="M9.904,69.092c1.481-1.728,62.209-0.987,63.69,0c0.548,0.365,0.927,5.636,1.1,12.203
		c3.539-1.838,14.498-7.351,15.544-5.669c1.25,2.008-3.625,24.543-5.063,25.659c-1.143,0.887-7.784-2.868-10.46-4.445
		c-0.152,6.129-0.515,10.984-1.121,11.503c-1.728,1.481-62.456,1.728-63.69,0C8.67,106.615,8.423,70.82,9.904,69.092z"/>
	<ellipse fill="#737F83" cx="15.919" cy="94.569" rx="2.262" ry="3.869"/>
	<path fill="#3F3F3F" d="M15.919,90.7c0.636,0,1.209,0.452,1.62,1.175c-0.126-0.055-0.258-0.095-0.4-0.095
		c-0.644,0-1.166,0.615-1.166,1.374c0,0.759,0.522,1.373,1.166,1.373c0.434,0,0.797-0.291,0.998-0.705
		c0.028,0.242,0.044,0.491,0.044,0.746c0,2.137-1.013,3.869-2.262,3.869s-2.262-1.732-2.262-3.869
		C13.658,92.432,14.67,90.7,15.919,90.7z"/>
	<path fill="#3F3F3F" d="M9.645,69.808C19.383,81.262,42.86,90.384,42.86,90.384c15.737-5.554,31.027-20.576,31.027-20.576
		c-6.634,7.486-12.336,12.575-16.978,16.04c0.388-0.183,0.741-0.341,1.04-0.463c2.397-0.977,3.379,1.157,3.24,3.417
		c-0.108,1.944-0.442,4.367-0.827,6.667c4.976,4.875,6.669,8.616,6.669,8.616c-1.884-2.352-4.432-4.696-6.991-6.782
		c-0.52,2.833-1.049,5.18-1.212,5.717c-0.228,0.748-1.087,2.495-2.484,2.299c-3.13-0.617-4.576-1.312-6.511-2.191
		c-1.314-0.698-2.42-1.627-2.42-1.627s8.494,3.378,9.576,2.543c1.082-0.835,3.701-16.002,2.588-17.235
		c-0.908-1.005-8.979,3.148-11.924,4.714c-3.127,1.443-5.009,1.639-5.009,1.639C39.973,92.156,37,91.103,35,90.027
		c0,0.002,0,0.004,0,0.006c0,0-10.066,7.017-15.068,14.052c0,0,3.086-7.506,13.185-15.129C15.23,79.981,9.645,69.808,9.645,69.808z"
		/>
</g>
<g>
	<path fill="#737F83" d="M157.155,70.067c-0.578-0.675-24.285-0.385-24.863,0c-0.214,0.143-0.362,2.2-0.429,4.764
		c-1.381-0.718-5.66-2.87-6.068-2.213c-0.488,0.784,1.415,9.581,1.976,10.017c0.446,0.346,3.039-1.119,4.083-1.735
		c0.059,2.393,0.201,4.288,0.437,4.491c0.675,0.578,24.381,0.675,24.863,0C157.637,84.715,157.733,70.741,157.155,70.067z"/>
	<ellipse fill="#8C989B" cx="154.807" cy="80.012" rx="0.883" ry="1.51"/>
	<path fill="#3F3F3F" d="M154.807,78.502c-0.248,0-0.472,0.177-0.632,0.459c0.049-0.021,0.101-0.037,0.156-0.037
		c0.251,0,0.455,0.24,0.455,0.536c0,0.296-0.204,0.536-0.455,0.536c-0.169,0-0.311-0.114-0.39-0.275
		c-0.011,0.094-0.017,0.192-0.017,0.291c0,0.834,0.395,1.51,0.883,1.51s0.883-0.676,0.883-1.51S155.294,78.502,154.807,78.502z"/>
	<path fill="#5B5A5C" d="M157.256,70.346c-3.802,4.471-12.966,8.032-12.966,8.032c-6.143-2.168-12.112-8.032-12.112-8.032
		c2.59,2.922,4.816,4.909,6.628,6.261c-0.152-0.071-0.289-0.133-0.406-0.181c-0.936-0.382-1.319,0.452-1.265,1.334
		c0.042,0.759,0.172,1.705,0.323,2.603c-1.943,1.903-2.603,3.363-2.603,3.363c0.736-0.918,1.73-1.833,2.729-2.647
		c0.203,1.106,0.409,2.022,0.473,2.232c0.089,0.292,0.424,0.974,0.97,0.897c1.222-0.241,1.786-0.512,2.542-0.855
		c0.513-0.273,0.945-0.635,0.945-0.635s-3.316,1.319-3.738,0.993c-0.422-0.326-1.445-6.247-1.01-6.728
		c0.354-0.392,3.505,1.229,4.655,1.84c1.221,0.563,1.776,0.64,1.776,0.64c1.043-0.393,2.805-0.804,2.805-1.224
		c0,0.001,0,0.001,0,0.002c0,0,4.108,2.739,6.061,5.486c0,0-1.115-2.93-5.057-5.906C154.986,74.318,157.256,70.346,157.256,70.346z"
		/>
</g>
</svg>
