<?xml version="1.0" encoding="utf-8"?>
<!-- Generator: Adobe Illustrator 17.0.0, SVG Export Plug-In . SVG Version: 6.00 Build 0)  -->
<!DOCTYPE svg PUBLIC "-//W3C//DTD SVG 1.1//EN" "http://www.w3.org/Graphics/SVG/1.1/DTD/svg11.dtd">
<svg version="1.1" id="Layer_1" xmlns="http://www.w3.org/2000/svg" xmlns:xlink="http://www.w3.org/1999/xlink" x="0px" y="0px"
	 width="332px" height="173px" viewBox="0 0 332 173" enable-background="new 0 0 332 173" xml:space="preserve">
<g>
	<path fill="#5B5A5C" d="M285.051,29.848c-0.684-0.798-28.73-0.456-29.414,0c-0.253,0.169-0.428,2.603-0.508,5.636
		c-1.634-0.849-6.696-3.395-7.179-2.618c-0.577,0.927,1.674,11.335,2.338,11.85c0.528,0.41,3.595-1.324,4.831-2.053
		c0.07,2.831,0.238,5.073,0.518,5.313c0.798,0.684,28.844,0.798,29.414,0C285.621,47.177,285.735,30.646,285.051,29.848z"/>
	<ellipse fill="#737F83" cx="282.273" cy="41.614" rx="1.045" ry="1.787"/>
	<path fill="#3F3F3F" d="M282.273,39.827c-0.294,0-0.558,0.209-0.748,0.543c0.058-0.025,0.119-0.044,0.185-0.044
		c0.297,0,0.539,0.284,0.539,0.634c0,0.35-0.241,0.634-0.539,0.634c-0.2,0-0.368-0.135-0.461-0.326
		c-0.013,0.112-0.02,0.227-0.02,0.345c0,0.987,0.468,1.787,1.045,1.787c0.577,0,1.045-0.8,1.045-1.787S282.85,39.827,282.273,39.827
		z"/>
	<path fill="#3F3F3F" d="M285.171,30.178c-4.498,5.29-15.34,9.503-15.34,9.503c-7.268-2.565-14.329-9.503-14.329-9.503
		c3.064,3.457,5.697,5.808,7.841,7.408c-0.179-0.084-0.342-0.157-0.48-0.214c-1.107-0.451-1.561,0.534-1.496,1.578
		c0.05,0.898,0.204,2.017,0.382,3.079c-2.298,2.251-3.08,3.979-3.08,3.979c0.87-1.086,2.047-2.169,3.229-3.132
		c0.24,1.308,0.484,2.392,0.56,2.64c0.105,0.345,0.502,1.152,1.147,1.062c1.446-0.285,2.113-0.606,3.007-1.012
		c0.607-0.322,1.118-0.752,1.118-0.752s-3.923,1.56-4.422,1.174c-0.5-0.386-1.709-7.39-1.195-7.96
		c0.419-0.464,4.147,1.454,5.507,2.177c1.444,0.666,2.583,0.757,2.583,0.757c1.234-0.465,1.8-0.951,3.8-1.448
		c0,0.001,0,0.002,0,0.003c0,0,4.379,3.241,6.689,6.49c0,0-1.56-3.467-6.224-6.987C282.726,34.877,285.171,30.178,285.171,30.178z"
		/>
</g>
<g>
	<path fill="#737F83" d="M243.386,8.936c-1.821-2.124-76.473-1.214-78.294,0c-0.674,0.449-1.14,6.928-1.352,15.001
		c-4.35-2.26-17.822-9.036-19.108-6.969c-1.536,2.469,4.456,30.171,6.224,31.542c1.406,1.09,9.569-3.525,12.859-5.464
		c0.187,7.534,0.633,13.503,1.378,14.141c2.124,1.821,76.777,2.124,78.294,0C244.903,55.063,245.207,11.061,243.386,8.936z"/>
	<ellipse fill="#8C989B" cx="235.991" cy="40.255" rx="2.781" ry="4.756"/>
	<path fill="#3F3F3F" d="M235.991,35.498c-0.782,0-1.486,0.556-1.991,1.445c0.155-0.067,0.317-0.117,0.491-0.117
		c0.792,0,1.434,0.756,1.434,1.689c0,0.932-0.642,1.688-1.434,1.688c-0.533,0-0.98-0.358-1.227-0.867
		c-0.034,0.297-0.054,0.603-0.054,0.918c0,2.627,1.245,4.756,2.781,4.756c1.536,0,2.781-2.129,2.781-4.756
		S237.527,35.498,235.991,35.498z"/>
	<path fill="#5B5A5C" d="M243.705,9.816c-11.971,14.081-40.832,25.294-40.832,25.294c-19.346-6.828-38.141-25.294-38.141-25.294
		c8.155,9.202,15.164,15.459,20.871,19.718c-0.477-0.225-0.911-0.419-1.279-0.569c-2.947-1.202-4.154,1.422-3.983,4.2
		c0.133,2.39,0.543,5.369,1.017,8.196c-6.117,5.993-8.198,10.591-8.198,10.591c2.316-2.891,5.449-5.773,8.594-8.337
		c0.639,3.483,1.289,6.368,1.49,7.028c0.28,0.919,1.336,3.067,3.054,2.826c3.848-0.759,5.625-1.613,8.004-2.693
		c1.615-0.858,2.975-2,2.975-2s-10.442,4.153-11.771,3.126c-1.33-1.027-4.549-19.671-3.181-21.186
		c1.116-1.236,11.038,3.87,14.658,5.795c3.845,1.774,5.89,2.014,5.89,2.014c3.284-1.238,7.129-2.532,9.129-3.855
		c0,0.003,0,0.005,0,0.007c0,0,12.641,8.626,18.791,17.274c0,0-3.66-9.228-16.074-18.598
		C236.704,22.322,243.705,9.816,243.705,9.816z"/>
</g>
<g>
	<path fill="#737F83" d="M91.155,83.067c-0.578-0.675-24.285-0.385-24.863,0c-0.214,0.143-0.362,2.2-0.429,4.764
		c-1.381-0.718-5.659-2.87-6.068-2.213c-0.488,0.784,1.415,9.581,1.976,10.017c0.446,0.346,3.039-1.119,4.083-1.735
		c0.06,2.393,0.201,4.288,0.437,4.491c0.675,0.578,24.381,0.675,24.863,0C91.637,97.715,91.733,83.741,91.155,83.067z"/>
	<ellipse fill="#8C989B" cx="88.807" cy="93.012" rx="0.883" ry="1.51"/>
	<path fill="#3F3F3F" d="M88.807,91.502c-0.248,0-0.472,0.177-0.632,0.459c0.049-0.021,0.101-0.037,0.156-0.037
		c0.251,0,0.455,0.24,0.455,0.536c0,0.296-0.204,0.536-0.455,0.536c-0.169,0-0.311-0.114-0.39-0.275
		c-0.011,0.094-0.017,0.192-0.017,0.291c0,0.834,0.395,1.51,0.883,1.51s0.883-0.676,0.883-1.51S89.294,91.502,88.807,91.502z"/>
	<path fill="#5B5A5C" d="M91.256,83.346c-3.802,4.471-12.966,8.032-12.966,8.032c-6.143-2.168-12.112-8.032-12.112-8.032
		c2.59,2.922,4.816,4.909,6.628,6.261c-0.152-0.071-0.289-0.133-0.406-0.181c-0.936-0.382-1.319,0.452-1.265,1.334
		c0.042,0.759,0.172,1.705,0.323,2.603c-1.943,1.903-2.603,3.363-2.603,3.363c0.736-0.918,1.73-1.833,2.729-2.647
		c0.203,1.106,0.409,2.022,0.473,2.232c0.089,0.292,0.424,0.974,0.97,0.897c1.222-0.241,1.786-0.512,2.542-0.855
		c0.513-0.273,0.945-0.635,0.945-0.635s-3.316,1.319-3.738,0.993c-0.422-0.326-1.445-6.247-1.01-6.728
		c0.354-0.392,3.505,1.229,4.655,1.84c1.221,0.563,1.776,0.64,1.776,0.64C79.238,92.07,81,91.659,81,91.239c0,0.001,0,0.001,0,0.002
		c0,0,4.108,2.739,6.061,5.486c0,0-1.115-2.93-5.057-5.906C88.986,87.318,91.256,83.346,91.256,83.346z"/>
</g>
<g>
	<path fill="#5B5A5C" d="M183.5,65.407c-1.483-1.73-62.292-0.989-63.775,0c-0.549,0.366-0.928,5.643-1.101,12.219
		c-3.543-1.841-14.517-7.361-15.565-5.677c-1.251,2.011,3.629,24.576,5.069,25.693c1.145,0.888,7.795-2.871,10.474-4.451
		c0.153,6.137,0.516,10.999,1.122,11.519c1.73,1.483,62.539,1.73,63.775,0C184.736,102.98,184.983,67.137,183.5,65.407z"/>
	<ellipse fill="#737F83" cx="177.477" cy="90.918" rx="2.265" ry="3.874"/>
	<path fill="#3F3F3F" d="M177.477,87.043c-0.637,0-1.21,0.453-1.622,1.177c0.126-0.055,0.258-0.095,0.4-0.095
		c0.645,0,1.168,0.616,1.168,1.375c0,0.76-0.523,1.375-1.168,1.375c-0.434,0-0.798-0.292-0.999-0.706
		c-0.028,0.242-0.044,0.491-0.044,0.747c0,2.14,1.014,3.874,2.265,3.874c1.251,0,2.265-1.735,2.265-3.874
		C179.742,88.778,178.728,87.043,177.477,87.043z"/>
	<path fill="#3F3F3F" d="M183.76,66.124c-9.751,11.47-33.26,20.603-33.26,20.603c-15.758-5.562-31.068-20.603-31.068-20.603
		c6.643,7.496,12.352,12.592,17.001,16.061c-0.389-0.183-0.742-0.341-1.042-0.463c-2.4-0.979-3.383,1.159-3.244,3.421
		c0.108,1.947,0.442,4.373,0.828,6.676c-4.983,4.881-6.678,8.627-6.678,8.627c1.887-2.355,4.438-4.702,7-6.791
		c0.52,2.837,1.05,5.187,1.214,5.725c0.228,0.749,1.088,2.498,2.487,2.302c3.134-0.618,4.582-1.314,6.52-2.194
		c1.315-0.699,2.423-1.629,2.423-1.629s-8.505,3.383-9.588,2.546c-1.083-0.836-3.706-16.024-2.591-17.258
		c0.909-1.007,8.991,3.153,11.94,4.721c3.132,1.445,5.33,1.641,5.33,1.641c2.675-1.008,4.969-2.062,7.969-3.14
		c0,0.002,0,0.004,0,0.006c0,0,9.764,7.026,14.773,14.071c0,0-3.247-7.516-13.36-15.15C178.324,76.311,183.76,66.124,183.76,66.124z
		"/>
</g>
<g>
	<path fill="#5B5A5C" d="M98.487,117.766c-1.336-1.558-56.102-0.891-57.438,0c-0.494,0.33-0.836,5.082-0.992,11.005
		c-3.191-1.658-13.075-6.629-14.018-5.113c-1.127,1.811,3.269,22.134,4.566,23.14c1.031,0.8,7.02-2.586,9.434-4.009
		c0.137,5.527,0.465,9.906,1.011,10.374c1.558,1.336,56.325,1.558,57.438,0C99.6,151.605,99.823,119.324,98.487,117.766z"/>
	<ellipse fill="#737F83" cx="93.062" cy="140.741" rx="2.04" ry="3.489"/>
	<path fill="#3F3F3F" d="M93.062,137.252c-0.574,0-1.09,0.408-1.461,1.06c0.113-0.049,0.233-0.086,0.361-0.086
		c0.581,0,1.052,0.555,1.052,1.239c0,0.684-0.471,1.239-1.052,1.239c-0.391,0-0.719-0.263-0.9-0.636
		c-0.025,0.218-0.04,0.443-0.04,0.673c0,1.927,0.913,3.489,2.04,3.489c1.127,0,2.04-1.562,2.04-3.489
		C95.102,138.814,94.189,137.252,93.062,137.252z"/>
	<path fill="#3F3F3F" d="M98.721,118.411c-8.782,10.33-29.955,18.556-29.955,18.556c-14.193-5.009-27.981-18.556-27.981-18.556
		c5.983,6.751,11.125,11.341,15.311,14.465c-0.35-0.165-0.668-0.307-0.938-0.417c-2.162-0.882-3.047,1.044-2.922,3.082
		c0.098,1.753,0.398,3.939,0.746,6.013c-4.488,4.396-6.015,7.77-6.015,7.77c1.699-2.121,3.997-4.235,6.304-6.116
		c0.469,2.555,0.946,4.671,1.093,5.156c0.205,0.674,0.98,2.25,2.24,2.073c2.823-0.557,4.127-1.183,5.872-1.976
		c1.185-0.63,2.182-1.467,2.182-1.467s-7.66,3.047-8.636,2.293c-0.975-0.753-3.337-14.431-2.334-15.543
		c0.819-0.907,8.097,2.839,10.753,4.251c2.82,1.301,4.59,1.478,4.59,1.478c2.409-0.908,4.967-1.857,6.967-2.828
		c0,0.002,0,0.003,0,0.005c0,0,9.005,6.328,13.516,12.673c0,0-2.819-6.77-11.927-13.644
		C93.72,127.586,98.721,118.411,98.721,118.411z"/>
</g>
<g>
	<path fill="#737F83" d="M90.254,23.65c-1.441-1.682-60.536-0.961-61.977,0c-0.533,0.356-0.902,5.484-1.07,11.875
		c-3.444-1.789-14.108-7.153-15.126-5.517c-1.216,1.954,3.527,23.883,4.926,24.969c1.113,0.863,7.575-2.79,10.179-4.325
		c0.148,5.964,0.501,10.689,1.09,11.194c1.682,1.441,60.776,1.682,61.977,0C91.455,60.164,91.695,25.332,90.254,23.65z"/>
	<ellipse fill="#8C989B" cx="84.4" cy="48.441" rx="2.201" ry="3.765"/>
	<path fill="#3F3F3F" d="M84.4,44.676c-0.619,0-1.176,0.44-1.576,1.144c0.122-0.053,0.251-0.092,0.389-0.092
		c0.627,0,1.135,0.598,1.135,1.337c0,0.738-0.508,1.337-1.135,1.337c-0.422,0-0.776-0.283-0.971-0.686
		c-0.027,0.235-0.043,0.478-0.043,0.726c0,2.079,0.985,3.765,2.201,3.765s2.201-1.686,2.201-3.765
		C86.602,46.362,85.616,44.676,84.4,44.676z"/>
	<path fill="#5B5A5C" d="M90.507,24.347C81.03,35.493,58.185,44.369,58.185,44.369C42.87,38.964,27.992,24.347,27.992,24.347
		c6.456,7.284,12.004,12.237,16.521,15.608c-0.378-0.178-0.721-0.332-1.012-0.45c-2.333-0.951-3.288,1.126-3.153,3.325
		c0.105,1.892,0.43,4.25,0.805,6.488c-4.842,4.744-6.49,8.384-6.49,8.384c1.834-2.289,4.313-4.57,6.803-6.599
		c0.506,2.757,1.02,5.041,1.179,5.563c0.221,0.728,1.057,2.428,2.417,2.237c3.046-0.601,4.453-1.277,6.336-2.132
		c1.278-0.679,2.355-1.583,2.355-1.583s-8.266,3.287-9.318,2.475c-1.053-0.813-3.601-15.572-2.518-16.771
		c0.884-0.978,8.737,3.064,11.603,4.587c3.043,1.404,4.958,1.595,4.958,1.595c2.6-0.98,6.522-2.004,7.522-3.051
		c0,0.002,0,0.004,0,0.006c0,0,9.711,6.828,14.579,13.674c0,0-3.045-7.304-12.872-14.722C85.113,34.246,90.507,24.347,90.507,24.347
		z"/>
</g>
<g>
	<path fill="#737F83" d="M232.617,116.733c-1.462-1.705-61.383-0.974-62.844,0c-0.541,0.361-0.915,5.561-1.085,12.041
		c-3.492-1.814-14.305-7.253-15.338-5.594c-1.233,1.981,3.576,24.217,4.995,25.318c1.128,0.875,7.681-2.829,10.321-4.386
		c0.15,6.048,0.508,10.838,1.106,11.35c1.705,1.461,61.626,1.705,62.844,0C233.835,153.758,234.078,118.438,232.617,116.733z"/>
	<ellipse fill="#8C989B" cx="226.681" cy="141.871" rx="2.232" ry="3.818"/>
	<path fill="#3F3F3F" d="M226.681,138.054c-0.628,0-1.193,0.446-1.598,1.16c0.124-0.054,0.255-0.094,0.394-0.094
		c0.635,0,1.151,0.607,1.151,1.355c0,0.748-0.515,1.355-1.151,1.355c-0.428,0-0.786-0.287-0.985-0.696
		c-0.027,0.239-0.043,0.484-0.043,0.737c0,2.108,0.999,3.818,2.232,3.818s2.232-1.709,2.232-3.818S227.914,138.054,226.681,138.054z
		"/>
	<path fill="#5B5A5C" d="M232.873,117.44c-9.609,11.302-32.774,20.303-32.774,20.303c-15.528-5.481-30.615-20.303-30.615-20.303
		c6.546,7.386,12.172,12.408,16.752,15.827c-0.383-0.18-0.731-0.336-1.027-0.457c-2.365-0.964-3.334,1.142-3.197,3.372
		c0.107,1.918,0.436,4.309,0.816,6.579c-4.91,4.81-6.581,8.501-6.581,8.501c1.859-2.321,4.374-4.634,6.898-6.692
		c0.513,2.795,1.035,5.111,1.196,5.641c0.225,0.738,1.072,2.462,2.451,2.268c3.089-0.609,4.515-1.294,6.424-2.162
		c1.296-0.689,2.388-1.606,2.388-1.606s-8.381,3.333-9.449,2.509c-1.067-0.824-3.652-15.79-2.553-17.006
		c0.896-0.992,8.859,3.107,11.766,4.652c3.086,1.424,4.015,1.617,4.015,1.617c2.636-0.993,5.616-2.032,6.616-3.094
		c0,0.002,0,0.004,0,0.006c0,0,10.859,6.923,15.795,13.866c0,0-2.582-7.407-12.546-14.928
		C226.898,127.478,232.873,117.44,232.873,117.44z"/>
</g>
<g>
	<path fill="#5B5A5C" d="M319.462,81.092c-1.481-1.728-62.209-0.987-63.69,0c-0.548,0.365-0.927,5.636-1.1,12.203
		c-3.539-1.838-14.498-7.351-15.544-5.669c-1.25,2.008,3.625,24.543,5.063,25.659c1.143,0.887,7.784-2.868,10.46-4.445
		c0.152,6.129,0.515,10.984,1.121,11.503c1.728,1.481,62.456,1.728,63.69,0C320.696,118.615,320.943,82.82,319.462,81.092z"/>
	<ellipse fill="#737F83" cx="313.446" cy="106.569" rx="2.262" ry="3.869"/>
	<path fill="#3F3F3F" d="M313.446,102.7c-0.636,0-1.209,0.452-1.62,1.175c0.126-0.055,0.258-0.095,0.4-0.095
		c0.644,0,1.166,0.615,1.166,1.374c0,0.759-0.522,1.373-1.166,1.373c-0.434,0-0.797-0.291-0.998-0.705
		c-0.028,0.242-0.044,0.491-0.044,0.746c0,2.137,1.013,3.869,2.262,3.869c1.249,0,2.262-1.732,2.262-3.869
		C315.708,104.432,314.696,102.7,313.446,102.7z"/>
	<path fill="#3F3F3F" d="M319.721,81.808c-9.738,11.454-33.215,20.576-33.215,20.576c-15.737-5.554-31.027-20.576-31.027-20.576
		c6.634,7.486,12.336,12.575,16.978,16.04c-0.388-0.183-0.741-0.341-1.04-0.463c-2.397-0.977-3.379,1.157-3.24,3.417
		c0.108,1.944,0.442,4.367,0.827,6.667c-4.976,4.875-6.669,8.616-6.669,8.616c1.884-2.352,4.432-4.696,6.991-6.782
		c0.52,2.833,1.049,5.18,1.212,5.717c0.228,0.748,1.087,2.495,2.484,2.299c3.13-0.617,4.576-1.312,6.511-2.191
		c1.314-0.698,2.42-1.627,2.42-1.627s-8.494,3.378-9.576,2.543c-1.082-0.835-3.701-16.002-2.588-17.235
		c0.908-1.005,8.979,3.148,11.924,4.714c3.127,1.443,4.826,1.639,4.826,1.639c2.671-1.007,5.461-2.06,7.461-3.136
		c0,0.002,0,0.004,0,0.006c0,0,10.249,7.017,15.251,14.052c0,0-2.995-7.506-13.093-15.129
		C314.044,91.981,319.721,81.808,319.721,81.808z"/>
</g>
</svg>
