<?xml version="1.0" encoding="utf-8"?>
<!-- Generator: Adobe Illustrator 17.0.0, SVG Export Plug-In . SVG Version: 6.00 Build 0)  -->
<!DOCTYPE svg PUBLIC "-//W3C//DTD SVG 1.1//EN" "http://www.w3.org/Graphics/SVG/1.1/DTD/svg11.dtd">
<svg version="1.1" id="Layer_1" xmlns="http://www.w3.org/2000/svg" xmlns:xlink="http://www.w3.org/1999/xlink" x="0px" y="0px"
	 width="191px" height="126px" viewBox="0 0 191 126" enable-background="new 0 0 191 126" xml:space="preserve">
<g>
	<path fill="#5B5A5C" d="M76.051,44.848c-0.684-0.798-28.73-0.456-29.414,0c-0.253,0.169-0.428,2.603-0.508,5.636
		c-1.634-0.849-6.696-3.395-7.179-2.618c-0.577,0.927,1.674,11.335,2.338,11.85c0.528,0.41,3.595-1.324,4.831-2.053
		c0.07,2.831,0.238,5.073,0.518,5.313c0.798,0.684,28.844,0.798,29.414,0C76.621,62.177,76.735,45.646,76.051,44.848z"/>
	<ellipse fill="#737F83" cx="73.273" cy="56.614" rx="1.045" ry="1.787"/>
	<path fill="#3F3F3F" d="M73.273,54.827c-0.294,0-0.558,0.209-0.748,0.543c0.058-0.025,0.119-0.044,0.185-0.044
		c0.297,0,0.539,0.284,0.539,0.634c0,0.35-0.241,0.634-0.539,0.634c-0.2,0-0.368-0.135-0.461-0.326
		c-0.013,0.112-0.02,0.227-0.02,0.345c0,0.987,0.468,1.787,1.045,1.787s1.045-0.8,1.045-1.787S73.85,54.827,73.273,54.827z"/>
	<path fill="#3F3F3F" d="M76.171,45.178c-4.498,5.29-15.34,9.503-15.34,9.503c-7.268-2.565-14.329-9.503-14.329-9.503
		c3.064,3.457,5.697,5.808,7.841,7.408c-0.179-0.084-0.342-0.157-0.48-0.214c-1.107-0.451-1.561,0.534-1.496,1.578
		c0.05,0.898,0.204,2.017,0.382,3.079c-2.298,2.251-3.08,3.979-3.08,3.979c0.87-1.086,2.047-2.169,3.229-3.132
		c0.24,1.308,0.484,2.392,0.56,2.64c0.105,0.345,0.502,1.152,1.147,1.062c1.446-0.285,2.113-0.606,3.007-1.012
		c0.607-0.322,1.118-0.752,1.118-0.752s-3.923,1.56-4.422,1.174c-0.5-0.386-1.709-7.39-1.195-7.96
		c0.419-0.464,4.147,1.454,5.507,2.177c1.444,0.666,2.583,0.757,2.583,0.757c1.234-0.465,1.8-0.951,3.8-1.448
		c0,0.001,0,0.002,0,0.003c0,0,4.379,3.241,6.689,6.49c0,0-1.56-3.467-6.224-6.987C73.726,49.877,76.171,45.178,76.171,45.178z"/>
</g>
<g>
	<path fill="#737F83" d="M152.833,22.791c-1.204-1.404-50.556-0.802-51.76,0c-0.446,0.297-0.753,4.58-0.894,9.917
		c-2.876-1.494-11.782-5.974-12.632-4.607c-1.016,1.632,2.946,19.946,4.114,20.853c0.929,0.721,6.326-2.33,8.501-3.612
		c0.124,4.981,0.419,8.927,0.911,9.348c1.404,1.204,50.757,1.404,51.76,0C153.836,53.285,154.037,24.195,152.833,22.791z"/>
	<ellipse fill="#8C989B" cx="147.945" cy="43.495" rx="1.838" ry="3.144"/>
	<path fill="#3F3F3F" d="M147.945,40.351c-0.517,0-0.982,0.368-1.316,0.955c0.102-0.044,0.21-0.077,0.325-0.077
		c0.523,0,0.948,0.5,0.948,1.116c0,0.616-0.424,1.116-0.948,1.116c-0.352,0-0.648-0.237-0.811-0.573
		c-0.023,0.197-0.036,0.399-0.036,0.607c0,1.737,0.823,3.144,1.838,3.144s1.838-1.408,1.838-3.144
		C149.783,41.759,148.96,40.351,147.945,40.351z"/>
	<path fill="#5B5A5C" d="M153.044,23.373c-7.914,9.309-26.994,16.722-26.994,16.722c-12.79-4.514-25.215-16.722-25.215-16.722
		c5.392,6.084,10.025,10.22,13.798,13.035c-0.316-0.149-0.602-0.277-0.846-0.376c-1.948-0.794-2.746,0.94-2.633,2.777
		c0.088,1.58,0.359,3.549,0.672,5.418c-4.044,3.962-5.42,7.002-5.42,7.002c1.531-1.911,3.602-3.817,5.681-5.511
		c0.422,2.302,0.852,4.21,0.985,4.646c0.185,0.608,0.883,2.028,2.019,1.868c2.544-0.502,3.719-1.066,5.291-1.78
		c1.068-0.567,1.967-1.322,1.967-1.322s-6.903,2.745-7.782,2.067c-0.879-0.679-3.008-13.005-2.103-14.006
		c0.738-0.817,7.297,2.559,9.69,3.831c2.542,1.173,3.852,1.332,3.852,1.332c2.171-0.818,4.993-1.674,5.993-2.548
		c0,0.002,0,0.003,0,0.005c0,0,8.399,5.702,12.465,11.42c0,0-2.398-6.1-10.605-12.295C148.395,31.64,153.044,23.373,153.044,23.373z
		"/>
</g>
<g>
	<path fill="#5B5A5C" d="M179.363,68.951c-1.683-1.963-70.683-1.122-72.365,0c-0.623,0.415-1.053,6.403-1.249,13.865
		c-4.021-2.089-16.472-8.352-17.661-6.442c-1.42,2.282,4.118,27.886,5.752,29.154c1.299,1.008,8.845-3.258,11.885-5.05
		c0.173,6.964,0.585,12.48,1.273,13.07c1.963,1.683,70.963,1.963,72.365,0C180.765,111.584,181.046,70.914,179.363,68.951z"/>
	<ellipse fill="#737F83" cx="172.528" cy="97.897" rx="2.57" ry="4.396"/>
	<path fill="#3F3F3F" d="M172.528,93.501c-0.723,0-1.373,0.514-1.84,1.336c0.143-0.062,0.293-0.108,0.454-0.108
		c0.732,0,1.325,0.699,1.325,1.561c0,0.862-0.593,1.561-1.325,1.561c-0.493,0-0.906-0.331-1.134-0.801
		c-0.031,0.275-0.05,0.558-0.05,0.848c0,2.428,1.151,4.396,2.57,4.396c1.419,0,2.57-1.968,2.57-4.396S173.947,93.501,172.528,93.501
		z"/>
	<path fill="#3F3F3F" d="M179.658,69.764c-11.065,13.014-37.74,23.379-37.74,23.379c-17.881-6.311-35.253-23.379-35.253-23.379
		c7.538,8.505,14.016,14.288,19.29,18.224c-0.441-0.208-0.842-0.387-1.182-0.526c-2.724-1.111-3.839,1.315-3.681,3.882
		c0.123,2.209,0.502,4.962,0.94,7.575c-5.654,5.539-7.578,9.789-7.578,9.789c2.141-2.672,5.036-5.336,7.943-7.706
		c0.59,3.219,1.191,5.885,1.377,6.496c0.259,0.85,1.235,2.835,2.822,2.612c3.557-0.701,5.199-1.491,7.398-2.489
		c1.493-0.793,2.75-1.849,2.75-1.849s-9.651,3.838-10.88,2.889c-1.229-0.949-4.205-18.182-2.94-19.582
		c1.032-1.142,10.202,3.577,13.548,5.356c3.553,1.639,6.267,1.862,6.267,1.862c3.035-1.144,5.261-2.34,9.261-3.563
		c0,0.002,0,0.004,0,0.007c0,0,10.861,7.972,16.545,15.966c0,0-3.794-8.529-15.269-17.19
		C173.599,81.323,179.658,69.764,179.658,69.764z"/>
</g>
<g>
	<path fill="#737F83" d="M74.52,82.407c-0.995-1.161-41.783-0.663-42.778,0c-0.368,0.245-0.623,3.785-0.739,8.196
		c-2.377-1.235-9.737-4.937-10.44-3.808c-0.839,1.349,2.434,16.485,3.4,17.234c0.768,0.596,5.228-1.926,7.026-2.985
		c0.102,4.117,0.346,7.378,0.753,7.726c1.161,0.995,41.949,1.161,42.778,0C75.349,107.609,75.515,83.567,74.52,82.407z"/>
	<ellipse fill="#8C989B" cx="70.48" cy="99.518" rx="1.519" ry="2.599"/>
	<path fill="#3F3F3F" d="M70.48,96.919c-0.427,0-0.812,0.304-1.088,0.79c0.084-0.037,0.173-0.064,0.269-0.064
		c0.433,0,0.783,0.413,0.783,0.923c0,0.509-0.351,0.923-0.783,0.923c-0.291,0-0.535-0.196-0.67-0.473
		c-0.019,0.162-0.03,0.33-0.03,0.501c0,1.435,0.68,2.599,1.519,2.599s1.519-1.163,1.519-2.599S71.319,96.919,70.48,96.919z"/>
	<path fill="#5B5A5C" d="M74.694,82.887c-6.541,7.693-22.309,13.82-22.309,13.82c-10.57-3.731-20.839-13.82-20.839-13.82
		c4.456,5.028,8.285,8.446,11.403,10.773c-0.261-0.123-0.498-0.229-0.699-0.311c-1.61-0.657-2.269,0.777-2.176,2.295
		c0.073,1.306,0.297,2.933,0.556,4.478c-3.342,3.274-4.479,5.787-4.479,5.787c1.266-1.58,2.977-3.154,4.695-4.555
		c0.349,1.903,0.704,3.479,0.814,3.84c0.153,0.502,0.73,1.676,1.668,1.544c2.102-0.414,3.074-0.881,4.373-1.472
		c0.882-0.469,1.625-1.093,1.625-1.093s-5.705,2.269-6.432,1.708c-0.727-0.561-2.486-10.748-1.738-11.576
		c0.61-0.675,6.031,2.115,8.009,3.166c2.101,0.969,2.532,1.101,2.532,1.101C53.492,97.897,56,97.19,56,96.467
		c0,0.001,0,0.003,0,0.004c0,0,7.593,4.713,10.952,9.438c0,0-1.657-5.042-8.44-10.162C70.527,89.72,74.694,82.887,74.694,82.887z"/>
</g>
</svg>
