<?xml version="1.0" encoding="utf-8"?>
<!-- Generator: Adobe Illustrator 17.0.0, SVG Export Plug-In . SVG Version: 6.00 Build 0)  -->
<!DOCTYPE svg PUBLIC "-//W3C//DTD SVG 1.1//EN" "http://www.w3.org/Graphics/SVG/1.1/DTD/svg11.dtd">
<svg version="1.1" id="Layer_1" xmlns="http://www.w3.org/2000/svg" xmlns:xlink="http://www.w3.org/1999/xlink" x="0px" y="0px"
	 width="435.167px" height="117px" viewBox="0 0 435.167 117" enable-background="new 0 0 435.167 117" xml:space="preserve">
<path fill="none" stroke="#3F3F3F" stroke-width="2" stroke-miterlimit="10" d="M85.167,87.667c0,0,27,28.667,62.333,16
	s26.333-66,74.333-53.333s67.333,18,67.333,18"/>
<path fill="none" stroke="#3F3F3F" stroke-width="2" stroke-miterlimit="10" d="M287.833,68.333c-39-7-52.667,17-90.333,15.667
	s-41.333-22.333-46-39.667S131.833,29,131.833,29"/>
<path fill="none" stroke="#3F3F3F" stroke-width="2" stroke-miterlimit="10" d="M155.167,78c0,0,18.667,15.333,58.333-3
	s73-8.667,77-6"/>
<g>
	<path fill="#737F83" d="M40.98,7.936c1.821-2.124,76.473-1.214,78.294,0c0.674,0.449,1.14,6.928,1.352,15.001
		c4.35-2.26,17.822-9.036,19.108-6.969c1.536,2.469-4.456,30.171-6.224,31.542c-1.406,1.09-9.569-3.525-12.859-5.464
		c-0.187,7.534-0.633,13.503-1.378,14.141c-2.124,1.821-76.777,2.124-78.294,0C39.463,54.063,39.159,10.061,40.98,7.936z"/>
	<ellipse fill="#8C989B" cx="48.375" cy="39.255" rx="2.781" ry="4.756"/>
	<path fill="#3F3F3F" d="M48.375,34.498c0.782,0,1.486,0.556,1.991,1.445c-0.155-0.067-0.317-0.117-0.491-0.117
		c-0.792,0-1.434,0.756-1.434,1.689c0,0.932,0.642,1.688,1.434,1.688c0.533,0,0.98-0.358,1.227-0.867
		c0.034,0.297,0.054,0.603,0.054,0.918c0,2.627-1.245,4.756-2.781,4.756s-2.781-2.129-2.781-4.756S46.839,34.498,48.375,34.498z"/>
	<path fill="#5B5A5C" d="M40.661,8.816C52.632,22.897,81.493,34.11,81.493,34.11c19.346-6.828,38.141-25.294,38.141-25.294
		c-8.155,9.202-15.164,15.459-20.871,19.718c0.477-0.225,0.911-0.419,1.279-0.569c2.947-1.202,4.154,1.422,3.983,4.2
		c-0.133,2.39-0.543,5.369-1.017,8.196c6.117,5.993,8.198,10.591,8.198,10.591c-2.316-2.891-5.449-5.773-8.594-8.337
		c-0.639,3.483-1.289,6.368-1.49,7.028c-0.28,0.919-1.336,3.067-3.054,2.826c-3.848-0.759-5.625-1.613-8.004-2.693
		c-1.615-0.858-2.975-2-2.975-2s10.442,4.153,11.771,3.126c1.33-1.027,4.549-19.671,3.181-21.186
		c-1.116-1.236-11.037,3.87-14.658,5.795c-3.845,1.774-6.073,2.014-6.073,2.014C78.028,36.288,74,34.994,72,33.671
		c0,0.003,0,0.005,0,0.007c0,0-12.458,8.626-18.608,17.274c0,0,3.751-9.228,16.166-18.598C47.57,21.322,40.661,8.816,40.661,8.816z"
		/>
</g>
<g>
	<path fill="#5B5A5C" d="M9.904,69.092c1.481-1.728,62.209-0.987,63.69,0c0.548,0.365,0.927,5.636,1.1,12.203
		c3.539-1.838,14.498-7.351,15.544-5.669c1.25,2.008-3.625,24.543-5.063,25.659c-1.143,0.887-7.784-2.868-10.46-4.445
		c-0.152,6.129-0.515,10.984-1.121,11.503c-1.728,1.481-62.456,1.728-63.69,0C8.67,106.615,8.423,70.82,9.904,69.092z"/>
	<ellipse fill="#737F83" cx="15.919" cy="94.569" rx="2.262" ry="3.869"/>
	<path fill="#3F3F3F" d="M15.919,90.7c0.636,0,1.209,0.452,1.62,1.175c-0.126-0.055-0.258-0.095-0.4-0.095
		c-0.644,0-1.166,0.615-1.166,1.374s0.522,1.373,1.166,1.373c0.434,0,0.797-0.291,0.998-0.705c0.028,0.242,0.044,0.491,0.044,0.746
		c0,2.137-1.013,3.869-2.262,3.869s-2.262-1.732-2.262-3.869C13.658,92.432,14.67,90.7,15.919,90.7z"/>
	<path fill="#3F3F3F" d="M9.645,69.808C19.383,81.262,42.86,90.384,42.86,90.384c15.737-5.554,31.027-20.576,31.027-20.576
		c-6.634,7.486-12.336,12.575-16.978,16.04c0.388-0.183,0.741-0.341,1.04-0.463c2.397-0.977,3.379,1.157,3.24,3.417
		c-0.108,1.944-0.442,4.367-0.827,6.667c4.976,4.875,6.669,8.616,6.669,8.616c-1.884-2.352-4.432-4.696-6.991-6.782
		c-0.52,2.833-1.049,5.18-1.212,5.717c-0.228,0.748-1.087,2.495-2.484,2.299c-3.13-0.617-4.576-1.312-6.511-2.191
		c-1.314-0.698-2.42-1.627-2.42-1.627s8.494,3.378,9.576,2.543s3.701-16.002,2.588-17.235c-0.908-1.005-8.979,3.148-11.924,4.714
		c-3.127,1.443-5.009,1.639-5.009,1.639C39.973,92.156,37,91.103,35,90.027c0,0.002,0,0.004,0,0.006c0,0-10.066,7.017-15.068,14.052
		c0,0,3.086-7.506,13.185-15.129C15.23,79.981,9.645,69.808,9.645,69.808z"/>
</g>
<g>
	<path fill="#737F83" d="M126.115,85.391c0.482,0.675,24.188,0.578,24.863,0c0.236-0.203,0.378-2.098,0.437-4.491
		c1.044,0.616,3.637,2.081,4.083,1.735c0.561-0.436,2.464-9.233,1.976-10.017c-0.408-0.657-4.687,1.495-6.068,2.213
		c-0.067-2.564-0.215-4.621-0.429-4.764c-0.578-0.385-24.285-0.675-24.863,0C125.536,70.741,125.632,84.715,126.115,85.391z"/>
	<ellipse fill="#8C989B" cx="128.462" cy="80.012" rx="0.883" ry="1.51"/>
	<path fill="#3F3F3F" d="M127.579,80.012c0,0.834,0.395,1.51,0.883,1.51c0.488,0,0.883-0.676,0.883-1.51
		c0-0.099-0.006-0.197-0.017-0.291c-0.079,0.161-0.221,0.275-0.39,0.275c-0.251,0-0.455-0.24-0.455-0.536
		c0-0.296,0.204-0.536,0.455-0.536c0.055,0,0.107,0.016,0.156,0.037c-0.16-0.282-0.384-0.459-0.632-0.459
		C127.975,78.502,127.579,79.178,127.579,80.012z"/>
	<path fill="#5B5A5C" d="M135.263,77.821c-3.942,2.976-5.057,5.906-5.057,5.906c1.953-2.747,6.061-5.486,6.061-5.486
		c0-0.001,0-0.001,0-0.002c0,0.42,1.762,0.831,2.805,1.224c0,0,0.555-0.077,1.776-0.64c1.15-0.611,4.301-2.232,4.655-1.84
		c0.435,0.481-0.588,6.402-1.01,6.728c-0.422,0.326-3.738-0.993-3.738-0.993s0.432,0.362,0.945,0.635
		c0.756,0.343,1.32,0.614,2.542,0.855c0.546,0.077,0.881-0.605,0.97-0.897c0.064-0.21,0.27-1.126,0.473-2.232
		c0.999,0.814,1.993,1.729,2.729,2.647c0,0-0.66-1.46-2.603-3.363c0.151-0.898,0.281-1.844,0.323-2.603
		c0.054-0.882-0.329-1.716-1.265-1.334c-0.117,0.048-0.254,0.11-0.406,0.181c1.812-1.352,4.038-3.339,6.628-6.261
		c0,0-5.969,5.864-12.112,8.032c0,0-9.164-3.561-12.966-8.032C126.013,70.346,128.283,74.318,135.263,77.821z"/>
</g>
<path fill="#737F83" d="M273.833,19.833c0,0,143.167-2.833,144.5,0.5c1.333,3.333,1.833,83.833,0.167,84.667
	c-1.667,0.833-146.333,5.833-146.667-1.667C271.5,95.833,269.667,20.5,273.833,19.833z"/>
<g>
	
		<rect x="376.321" y="30.894" transform="matrix(0.9927 -0.1203 0.1203 0.9927 -3.1339 47.5759)" fill="#5B5A5C" width="32.044" height="37.683"/>
	<path fill="#E9BAA9" d="M386.173,69.307c-0.953-2.606-0.359-4.004,0.262-5.201c0.785-1.515,3.285-2.722,3.258-4.01
		c-0.027-1.288-1.414-4.477-3.316-3.923c0,0,0.972,0.56,1.358,1.352s0.393,2.18-0.91,3.144c-0.707,0.524-2.64,1.385-3.059,3.792
		c-0.247,1.419-0.218,3.318,0.195,5.027C384.697,69.414,385.435,69.358,386.173,69.307z"/>
	<path fill="#DFA696" d="M386.165,56.171c0,0,1.184,0.56,1.571,1.353s0.393,2.18-0.91,3.144c-0.707,0.524-2.64,1.385-3.059,3.792
		c-0.23,1.323-0.222,3.065,0.116,4.68c0.087-0.472,0.201-0.939,0.36-1.393c0.391-1.119,0.958-2.386,1.889-3.163
		c0.027-0.022,0.054-0.029,0.081-0.029c0.072-0.154,0.147-0.304,0.223-0.45c0.785-1.515,3.285-2.722,3.258-4.01
		C389.666,58.807,388.067,55.618,386.165,56.171z"/>
	<path fill="#E9BAA9" d="M389.707,36.154c0,0-4.023-1.234-5.295,1.761c-1.272,2.995,0.309,5.385-1.9,6.342
		c0,0,3.779,1.35,7.084-1.203S389.707,36.154,389.707,36.154z"/>
	<path fill="#DFA696" d="M389.707,36.154c0,0-0.595-0.182-1.4-0.236c-0.607,1.42-0.726,3.229-0.56,4.658
		c0.122,1.049,0.393,2.18,0.785,3.161c0.357-0.189,0.713-0.413,1.065-0.685C392.902,40.501,389.707,36.154,389.707,36.154z"/>
	<path fill="#CC7691" d="M391.783,50.793c0,0-2.119,1.333-0.68,3.267c0.257,0.346,0.842,0.509,1.628,0.546l0.383,3.726
		c-0.256-0.229-0.603-0.354-0.971-0.309c-0.679,0.082-1.163,0.7-1.081,1.379c0.082,0.679,0.7,1.163,1.379,1.081
		c0.068-0.008,0.133-0.026,0.197-0.044c0.058,0.452,0.25,1.309,0.882,2.085c0.122,0.702,0.585,3.907,0.444,5.767
		c3.378-0.411,6.756-0.827,10.132-1.258c-0.174-1.7-0.249-4.594-0.23-5.12c0.927-1.133,0.993-2.511,0.643-3.685
		c0.06,0.002,0.12,0.004,0.182-0.004c0.656-0.08,1.123-0.676,1.044-1.332c-0.079-0.656-0.676-1.123-1.332-1.044
		c-0.368,0.045-0.673,0.255-0.859,0.545c-0.1-1.057-0.28-2.837-0.379-3.814c0.66-0.196,1.06-0.324,1.06-0.324
		s1.014-1.931-0.79-2.616c0,0,0.6-3.214-3.045-6.302c-2.984-2.608-3.036-4.452-3.036-4.452s2.733-0.891,3.817-3.303
		c1.085-2.412,1.236-4.712-1.645-6.471c-2.882-1.76-4.577-0.478-6.665,1.109c-2.089,1.587-5.714,6.115-3.408,14.486
		C390.536,48.319,391.24,49.869,391.783,50.793z"/>
	<path fill="#CC7691" d="M380.624,63.334c0.517-1.662,0.566-3.395,1.686-4.83c0.886-1.136,2.369-2.238,3.855-2.333
		c0.989-0.063,1.668,0.203,2.072,0.89c0.367,0.465,0.587,1.092,0.745,1.62c0.047,0.156,0.074,0.302,0.089,0.444
		c0.251,0.95,0.024,2.037-2.219,3.54c-1.859,1.246-1.707,4.635-1.301,6.685c0.403-0.03,0.806-0.058,1.209-0.085
		c-0.146-0.594-0.212-1.253-0.254-1.996c-0.149-2.65,0.608-3.861,2.505-5.253c1.897-1.392,1.19-3.673,0.059-5.903
		c-1.131-2.23-1.969-3.463-6.18-2.694c-4.211,0.769-4.717,1.562-5.408,3.668c-0.691,2.107-0.64,3.951-0.162,5.055
		c0.478,1.104,1.173,3.645,0.343,4.606C377.664,66.75,379.737,65.676,380.624,63.334z"/>
	
		<ellipse transform="matrix(0.9779 -0.2092 0.2092 0.9779 -2.8668 83.6665)" fill="#FFFFFF" cx="394.031" cy="55.384" rx="3.26" ry="3.097"/>
	<ellipse transform="matrix(1 -0.0043 0.0043 1 -0.2287 1.7157)" fill="#FFFFFF" cx="401.868" cy="54.434" rx="3.26" ry="3.097"/>
	<path fill="#3A3A3A" d="M396.099,54.148c-0.086,0.432-0.436,0.78-0.897,0.836c-0.526,0.064-1.004-0.276-1.135-0.775
		c-0.499,0.343-0.795,0.912-0.722,1.516c0.108,0.894,0.983,1.523,1.953,1.405c0.97-0.118,1.669-0.938,1.561-1.831
		C396.8,54.809,396.509,54.399,396.099,54.148z"/>
	<path fill="#3A3A3A" d="M401.777,52.892c0.022,0.482-0.257,0.945-0.733,1.127c-0.543,0.207-1.141-0.028-1.412-0.524
		c-0.44,0.496-0.604,1.181-0.367,1.804c0.352,0.922,1.448,1.36,2.449,0.978c1.001-0.382,1.527-1.439,1.175-2.361
		C402.697,53.41,402.279,53.051,401.777,52.892z"/>
	<path fill="#3A3A3A" d="M405.628,52.02c0,0-0.368,0.7-1.149,0.563c-0.042-0.054-0.085-0.107-0.13-0.158
		c0.17-0.095,0.63-0.429,0.52-1.232c0,0-0.177,0.757-0.951,0.833c-0.056-0.043-0.114-0.082-0.172-0.121
		c0.14-0.118,0.542-0.54,0.265-1.319c0,0-0.018,0.812-0.808,1.024c-0.412-0.176-0.867-0.275-1.348-0.273
		c-1.127,0.005-2.118,0.553-2.7,1.381c-1.316-0.468-2.531,0.14-2.901,0.358c-0.743-0.648-1.798-0.95-2.87-0.721
		c-0.503,0.108-0.952,0.322-1.333,0.61c-0.832-0.006-1.047-0.803-1.047-0.803c-0.085,0.846,0.437,1.154,0.586,1.224
		c-0.044,0.049-0.087,0.098-0.128,0.149c-0.786,0.131-1.147-0.578-1.147-0.578c0.089,0.837,0.652,1.036,0.819,1.077
		c-0.029,0.056-0.057,0.112-0.083,0.169c-0.738,0.345-1.275-0.262-1.275-0.262c0.306,0.813,0.932,0.841,1.08,0.836
		c-0.096,0.414-0.107,0.851-0.013,1.289c0.358,1.673,2.075,2.723,3.836,2.347c1.761-0.377,2.898-2.038,2.54-3.711
		c-0.098-0.457-0.3-0.865-0.573-1.212c1.29-0.54,1.974-0.326,2.199-0.214c-0.154,0.362-0.24,0.758-0.238,1.172
		c0.007,1.711,1.473,3.091,3.274,3.083c1.801-0.008,3.254-1.401,3.247-3.111c-0.002-0.48-0.122-0.931-0.329-1.336
		C404.973,53.043,405.529,52.848,405.628,52.02z M394.525,57.717c-1.306,0.279-2.597-0.586-2.862-1.826
		c-0.265-1.241,0.581-2.477,1.887-2.757c1.306-0.279,2.584,0.503,2.85,1.743C396.665,56.118,395.831,57.437,394.525,57.717z
		 M401.873,56.819c-1.335,0.006-2.422-1.106-2.427-2.374c-0.005-1.269,1.077-2.305,2.412-2.311s2.426,1.022,2.432,2.291
		S403.208,56.813,401.873,56.819z"/>
	<path fill="#B75978" d="M396.675,61.508c0,0,2.251,0.728,4.624-0.464C401.299,61.045,400.058,63.584,396.675,61.508z"/>
	<path fill="#B75978" d="M394.105,49.637c-0.865-0.034-1.753,0.259-2.555,0.72l0.233,0.436c0,0,2.622-0.824,4.103-0.325
		C395.886,50.468,395.422,49.846,394.105,49.637z"/>
	<path fill="#B75978" d="M399.218,49.751c-0.266,0.27-0.327,0.482-0.327,0.482c2.439-1.312,4.544-0.594,4.544-0.594
		c0.049-0.157,0.041-0.491,0.027-0.735C402.051,48.494,400.417,48.846,399.218,49.751z"/>
	<path fill="#B75978" d="M380.9,58.079c-1.417,2.685-0.355,6.639-3.152,8.551c-0.027,0.041-0.052,0.084-0.084,0.12
		c0,0,2.073-1.074,2.96-3.416c0.517-1.662,0.566-3.395,1.686-4.83c0.886-1.136,2.369-2.238,3.855-2.333
		c0.345-0.022,0.651-0.001,0.922,0.061c-0.102-0.063-0.209-0.121-0.321-0.173c-0.004-0.001-0.007-0.002-0.01-0.003
		C384.684,55.622,381.989,56.018,380.9,58.079z"/>
	<path fill="#E9BAA9" d="M398.934,45.881c0,0-2.119-1.594-4.973-0.376c-2.548,1.084-2.08,3.254-2.08,3.254
		S392.966,46.002,398.934,45.881z"/>
	<path fill="#E9BAA9" d="M395.715,41.87c0,0-1.967-1.425-4.22-0.199c-1.908,1.038-1.056,3.001-1.056,3.001
		S391.3,41.663,395.715,41.87z"/>
	<path fill="#E9BAA9" d="M394.01,38.72c0,0-1.628-1.449-3.921-0.396c-1.561,0.706-0.959,2.473-0.959,2.473
		C389.228,40.817,390,38.658,394.01,38.72z"/>
	<path fill="#E9BAA9" d="M393.052,35.705c0,0-1.346-1.171-3.716-0.283c-0.114,0.354-0.213,0.727-0.299,1.116
		C390.558,35.653,393.052,35.705,393.052,35.705z"/>
	<path fill="#E9BAA9" d="M392.554,32.839c0,0-0.383-1.023-1.378-0.931c-0.189,0.242-0.375,0.503-0.557,0.785
		C391.808,32.539,392.554,32.839,392.554,32.839z"/>
	<path fill="#E9BAA9" d="M400.051,33.975c0,0,0.983,0.025,1.727-0.178c0.137-0.657,0.157-1.296,0.015-1.908
		C401.699,32.394,401.313,33.733,400.051,33.975z"/>
	<path fill="#E9BAA9" d="M398.33,35.926c0,0,0.677,0.946,1.71,1.267c0.363-0.362,0.702-0.791,0.972-1.291
		C400.727,36.023,399.554,36.452,398.33,35.926z"/>
	<path fill="#B75978" d="M397.357,38.906c0,0-0.944-4.593,0.06-6.076c0,0-0.702,2.732,1.419,5.315
		C398.836,38.146,398.229,38.553,397.357,38.906z"/>
	<path fill="#E9BAA9" d="M380.332,56.098c-1.129-0.607-1.968-0.446-2.325-0.324c-0.143,0.267-0.264,0.565-0.383,0.899
		C378.717,56.221,380.332,56.098,380.332,56.098z"/>
	<path fill="#E9BAA9" d="M377.366,57.465c-0.074,0.254-0.137,0.504-0.189,0.748c0.817-0.41,1.798-0.658,1.798-0.658
		C378.27,57.32,377.729,57.364,377.366,57.465z"/>
	<path fill="#E9BAA9" d="M377.022,59.152c-0.026,0.22-0.043,0.435-0.051,0.642c0.642-0.438,1.436-0.76,1.436-0.76
		C377.772,58.916,377.316,59.021,377.022,59.152z"/>
	<path fill="#3A3A3A" d="M400.255,58.417c0,0,0.235,0.034,0.506,0.132l0.017,0.052c0.021,0.176-0.075,0.264-0.143,0.305
		c-0.207,0.119-1.082,0.442-2.368,0.365c0,0,0.893,0.455,2.221,0.028c0,0,0.114-0.034,0.217-0.097
		c0.059-0.032,0.114-0.067,0.163-0.109c0.026-0.02,0.051-0.047,0.074-0.076c0.005-0.008,0.012-0.015,0.018-0.023l-0.001,0
		c0.054-0.078,0.094-0.184,0.095-0.339c0.159,0.089,0.318,0.188,0.446,0.371C401.498,59.025,401.304,57.978,400.255,58.417z"/>
	<path fill="#E9BAA9" d="M388.353,58.292c-0.197-0.012-0.228,0.194-0.243,0.496c-0.015,0.302-0.063,0.574,0.134,0.586
		c0.197,0.012,0.592-0.208,0.607-0.509C388.865,58.563,388.55,58.304,388.353,58.292z"/>
	
		<ellipse transform="matrix(-0.13 -0.9915 0.9915 -0.13 367.439 457.3737)" fill="#E9BAA9" cx="384.382" cy="67.481" rx="0.602" ry="0.552"/>
	<path fill="#E9BAA9" d="M384.434,65.19c-0.295-0.032-0.56,0.202-0.59,0.524c-0.03,0.321,0.184,0.608,0.48,0.64
		c0.295,0.032,0.56-0.202,0.59-0.524C384.944,65.508,384.73,65.222,384.434,65.19z"/>
	<path fill="#E9BAA9" d="M385.035,63.534c-0.283-0.117-0.607,0.036-0.725,0.343c-0.118,0.307,0.016,0.651,0.298,0.768
		c0.283,0.117,0.607-0.036,0.725-0.343C385.451,63.995,385.318,63.651,385.035,63.534z"/>
	<path fill="#E9BAA9" d="M386.192,62.218c-0.204-0.234-0.562-0.245-0.8-0.024c-0.238,0.22-0.265,0.589-0.061,0.822
		c0.204,0.234,0.562,0.245,0.8,0.024C386.369,62.82,386.396,62.452,386.192,62.218z"/>
	<path fill="#E9BAA9" d="M387.451,61.066c-0.194-0.222-0.544-0.224-0.782-0.003c-0.238,0.22-0.273,0.579-0.079,0.802
		c0.194,0.222,0.544,0.224,0.782,0.003C387.609,61.647,387.645,61.288,387.451,61.066z"/>
	<path fill="#E9BAA9" d="M388.273,59.708c-0.212-0.12-0.442,0.005-0.582,0.269c-0.14,0.265-0.137,0.568,0.075,0.689
		c0.212,0.12,0.497,0.004,0.637-0.261C388.543,60.141,388.485,59.829,388.273,59.708z"/>
	<path fill="#EAEAEA" d="M414.348,64.038c-1.112,0.052-2.093-0.761-2.23-1.884c-0.136-1.123,0.622-2.147,1.715-2.362l-0.195-1.607
		c-1.112,0.052-2.093-0.761-2.23-1.884c-0.136-1.123,0.622-2.147,1.715-2.362l-0.226-1.861c-1.112,0.052-2.093-0.761-2.23-1.884
		c-0.136-1.123,0.622-2.147,1.715-2.362l-0.226-1.861c-1.112,0.052-2.093-0.761-2.23-1.884c-0.136-1.123,0.622-2.147,1.715-2.362
		l-0.226-1.861c-1.112,0.052-2.093-0.761-2.23-1.884c-0.136-1.123,0.622-2.147,1.715-2.362l-0.195-1.607
		c-1.112,0.052-2.093-0.761-2.23-1.884c-0.136-1.123,0.622-2.147,1.715-2.362l-0.253-2.085c-0.339,0.426-0.838,0.724-1.421,0.795
		c-1.177,0.143-2.247-0.696-2.39-1.873c-0.079-0.65,0.143-1.267,0.554-1.713l-2.859,0.347c0.052,1.112-0.761,2.093-1.884,2.23
		c-1.123,0.136-2.147-0.622-2.362-1.715l-1.861,0.226c0.052,1.112-0.761,2.093-1.884,2.23c-1.123,0.136-2.147-0.622-2.362-1.715
		l-1.861,0.226c0.052,1.112-0.761,2.093-1.884,2.23c-1.123,0.136-2.147-0.622-2.362-1.715l-1.861,0.226
		c0.052,1.112-0.761,2.093-1.884,2.23c-1.123,0.136-2.147-0.622-2.362-1.715l-1.607,0.195c0.052,1.112-0.761,2.093-1.884,2.23
		c-1.123,0.136-2.147-0.622-2.362-1.715l-2.795,0.339c0.506,0.335,0.869,0.881,0.948,1.531c0.143,1.177-0.696,2.247-1.873,2.39
		c-0.65,0.079-1.267-0.143-1.713-0.554l0.269,2.219c1.139-0.087,2.155,0.735,2.294,1.88c0.139,1.145-0.652,2.186-1.778,2.373
		l0.194,1.6c1.139-0.087,2.155,0.735,2.294,1.88c0.139,1.145-0.652,2.186-1.778,2.373l0.225,1.855
		c1.139-0.087,2.155,0.735,2.294,1.88s-0.652,2.186-1.778,2.373l0.225,1.855c1.139-0.087,2.155,0.735,2.294,1.88
		c0.139,1.145-0.652,2.186-1.778,2.373l0.225,1.855c1.139-0.087,2.155,0.735,2.294,1.88c0.139,1.145-0.652,2.186-1.778,2.373
		l0.194,1.6c1.139-0.087,2.155,0.735,2.294,1.88s-0.652,2.186-1.778,2.373l0.286,2.359l0.176,0.192
		c0.338-0.412,0.829-0.701,1.4-0.77c1.177-0.143,2.247,0.696,2.39,1.873c0.053,0.435-0.029,0.856-0.212,1.22l2.422-0.294
		c0.045-1.03,0.827-1.908,1.884-2.036c1.058-0.128,2.026,0.537,2.316,1.527l1.653-0.2c0.045-1.03,0.827-1.908,1.884-2.036
		c1.058-0.128,2.026,0.537,2.316,1.527l1.907-0.231c0.045-1.03,0.827-1.908,1.884-2.036c1.058-0.128,2.026,0.537,2.316,1.527
		l1.907-0.231c0.045-1.031,0.827-1.908,1.884-2.036c1.058-0.128,2.026,0.537,2.316,1.527l1.907-0.231
		c0.045-1.031,0.827-1.908,1.884-2.036c1.058-0.128,2.026,0.537,2.316,1.527l2.486-0.301c-0.265-0.31-0.445-0.699-0.498-1.134
		c-0.143-1.177,0.696-2.247,1.873-2.39c0.477-0.058,0.935,0.047,1.322,0.269l0.189-0.323L414.348,64.038z M410.485,66.258
		l-31.811,3.856l-4.504-37.155l31.811-3.856L410.485,66.258z"/>
	<g opacity="0.8">
		<path d="M384.104,77.241c-4.917,0-8.918-4-8.918-8.918s4-8.918,8.918-8.918s8.918,4,8.918,8.918S389.021,77.241,384.104,77.241z
			 M384.104,59.662c-4.776,0-8.661,3.885-8.661,8.661c0,4.776,3.886,8.661,8.661,8.661c4.776,0,8.661-3.886,8.661-8.661
			C392.765,63.548,388.879,59.662,384.104,59.662z"/>
		<path d="M384.104,80.5c-6.714,0-12.177-5.462-12.177-12.177s5.462-12.177,12.177-12.177c6.714,0,12.177,5.462,12.177,12.177
			S390.818,80.5,384.104,80.5z M384.104,56.403c-6.573,0-11.92,5.347-11.92,11.92c0,6.573,5.347,11.92,11.92,11.92
			s11.92-5.347,11.92-11.92C396.024,61.751,390.677,56.403,384.104,56.403z"/>
		<path d="M365.332,65.507c-1.123,0-2.461-0.344-3.964-1.36c-4.461-3.018-8.184-0.037-8.221-0.007l-0.163-0.198
			c0.039-0.032,3.909-3.132,8.527-0.007c4.443,3.005,7.279,0.013,7.398-0.116c0.039-0.038,3.375-3.149,7.866-0.018
			c4.329,3.017,8.183,0.035,8.221,0.005l0.159,0.201c-0.04,0.032-4.043,3.13-8.527,0.005c-4.321-3.012-7.505-0.043-7.537-0.013
			C369.076,64.016,367.669,65.507,365.332,65.507z"/>
		<path d="M365.332,68.342c-1.123,0-2.461-0.344-3.964-1.36c-4.461-3.018-8.184-0.037-8.221-0.007l-0.163-0.198
			c0.039-0.032,3.909-3.131,8.527-0.007c4.449,3.01,7.368-0.084,7.398-0.115c0.039-0.038,3.375-3.149,7.866-0.019
			c4.324,3.014,8.183,0.035,8.221,0.005l0.159,0.201c-0.04,0.032-4.043,3.13-8.527,0.005c-4.321-3.012-7.505-0.043-7.537-0.013
			C369.076,66.851,367.669,68.342,365.332,68.342z"/>
		<path d="M379.497,70.678c-0.862-0.18-1.781-0.552-2.722-1.208c-4.492-3.131-7.828-0.019-7.866,0.019
			c-0.119,0.129-2.955,3.121-7.398,0.115c-4.619-3.125-8.489-0.025-8.527,0.007l0.163,0.198c0.037-0.031,3.76-3.011,8.221,0.007
			c1.503,1.017,2.841,1.361,3.964,1.361c2.338,0,3.744-1.491,3.76-1.509c0.032-0.031,3.216-2.999,7.537,0.013
			c0.988,0.689,1.953,1.075,2.858,1.258C379.487,70.851,379.49,70.764,379.497,70.678z"/>
		<path d="M365.331,74.012c-1.123,0-2.461-0.344-3.964-1.36c-4.461-3.018-8.184-0.037-8.221-0.007l-0.163-0.198
			c0.038-0.032,3.909-3.132,8.527-0.007c4.449,3.01,7.368-0.084,7.398-0.116c0.039-0.038,3.375-3.149,7.866-0.019
			c4.324,3.014,8.183,0.035,8.221,0.005l0.159,0.201c-0.04,0.032-4.043,3.13-8.527,0.005c-4.315-3.008-7.407-0.136-7.537-0.013
			C369.076,72.521,367.669,74.011,365.331,74.012z"/>
		<g>
			<path d="M380.884,70.704c0.09,0,0.18,0,0.27,0c2.837,0,5.674,0,8.511,0c0.303,0,0.304,0,0.304,0.375c0,0.461,0.002,0.923,0,1.384
				c-0.003,0.611-0.238,0.903-0.732,0.904c-2.937,0.001-5.874,0.003-8.811-0.001c-1.004-0.001-1.888-0.744-2.187-1.889
				c-0.264-1.01-0.04-1.982,0.741-2.759c0.413-0.411,0.917-0.546,1.409-0.72c0.965-0.341,1.932-0.675,2.898-1.01
				c0.946-0.328,1.892-0.655,2.838-0.983c0.322-0.111,0.645-0.222,0.967-0.335c0.023-0.008,0.04-0.04,0.103-0.106
				c-0.149-0.013-0.251-0.029-0.353-0.029c-2.78-0.001-5.56-0.001-8.34-0.001c-0.366,0-0.366,0-0.366-0.443
				c0-0.426-0.003-0.853,0.001-1.279c0.006-0.6,0.272-0.923,0.757-0.923c2.873-0.001,5.746-0.004,8.618,0.002
				c0.872,0.002,1.606,0.382,2.121,1.271c0.656,1.132,0.352,2.782-0.687,3.496c-0.433,0.298-0.935,0.459-1.417,0.636
				c-1.154,0.423-2.314,0.818-3.472,1.223c-1.034,0.362-2.069,0.721-3.104,1.082c-0.026,0.009-0.051,0.023-0.076,0.035
				C380.879,70.657,380.881,70.681,380.884,70.704z"/>
		</g>
	</g>
</g>
<polygon opacity="0.5" points="289.167,99.667 288.833,106.667 290.167,106.667 290.5,99.776 "/>
<polygon opacity="0.5" points="309.542,100.292 309.208,107.292 310.542,107.292 310.875,100.401 "/>
<polygon opacity="0.5" points="328.167,100.354 327.833,107.354 329.167,107.354 329.5,100.464 "/>
<polygon opacity="0.5" points="324.991,58.515 278.922,58.503 278.974,61.645 324.324,61.669 "/>
<polygon opacity="0.5" points="345.875,65.307 278.922,65.645 278.974,68.788 344.882,68.466 "/>
<polygon opacity="0.5" points="332.175,72.679 278.922,72.788 278.974,75.93 331.396,75.836 "/>
<polygon opacity="0.5" points="294.167,103.057 293.833,106.667 295.167,106.667 295.5,103.114 "/>
<polygon opacity="0.5" points="298,103.391 297.667,107 299,107 299.333,103.447 "/>
<polygon opacity="0.5" points="302.333,103.557 302,107.167 303.333,107.167 303.667,103.614 "/>
<polygon opacity="0.5" points="306,103.536 305.667,107.146 307,107.146 307.333,103.593 "/>
<polygon opacity="0.5" points="312.917,103.62 312.583,107.229 313.917,107.229 314.25,103.676 "/>
<polygon opacity="0.5" points="316.75,103.641 316.417,107.25 317.75,107.25 318.083,103.697 "/>
<polygon opacity="0.5" points="321.083,103.807 320.75,107.417 322.083,107.417 322.417,103.864 "/>
<polygon opacity="0.5" points="324.75,103.786 324.417,107.396 325.75,107.396 326.083,103.843 "/>
<polygon opacity="0.5" points="348.266,100.028 348.256,107.036 349.588,106.974 349.603,100.076 "/>
<polygon opacity="0.5" points="366.749,99.856 366.739,106.864 368.071,106.802 368.086,99.904 "/>
<polygon opacity="0.5" points="333.035,103.5 332.869,107.121 334.201,107.059 334.37,103.495 "/>
<polygon opacity="0.5" points="336.88,103.656 336.714,107.277 338.045,107.215 338.214,103.651 "/>
<polygon opacity="0.5" points="341.216,103.623 341.05,107.244 342.382,107.182 342.551,103.617 "/>
<polygon opacity="0.5" points="344.878,103.433 344.712,107.054 346.044,106.992 346.213,103.427 "/>
<polygon opacity="0.5" points="351.791,103.572 351.625,107.193 352.957,107.131 353.126,103.566 "/>
<polygon opacity="0.5" points="355.621,103.416 355.455,107.036 356.787,106.975 356.956,103.41 "/>
<polygon opacity="0.5" points="359.708,103.257 359.541,106.878 360.873,106.816 361.042,103.252 "/>
<polygon opacity="0.5" points="363.745,103.317 363.578,106.938 364.91,106.876 365.079,103.312 "/>
</svg>
