<?xml version="1.0" encoding="utf-8"?>
<!-- Generator: Adobe Illustrator 17.0.0, SVG Export Plug-In . SVG Version: 6.00 Build 0)  -->
<!DOCTYPE svg PUBLIC "-//W3C//DTD SVG 1.1//EN" "http://www.w3.org/Graphics/SVG/1.1/DTD/svg11.dtd">
<svg version="1.1" id="Layer_1" xmlns="http://www.w3.org/2000/svg" xmlns:xlink="http://www.w3.org/1999/xlink" x="0px" y="0px"
	 width="213px" height="231px" viewBox="0 0 213 231" enable-background="new 0 0 213 231" xml:space="preserve">
<g>
	<path fill="#5B5A5C" d="M6.315,3.848c0.684-0.798,28.73-0.456,29.414,0c0.253,0.169,0.428,2.603,0.508,5.636
		c1.634-0.849,6.696-3.395,7.179-2.618c0.577,0.927-1.674,11.335-2.338,11.85c-0.528,0.41-3.595-1.324-4.831-2.053
		c-0.07,2.831-0.238,5.073-0.518,5.313c-0.798,0.684-28.844,0.798-29.414,0C5.745,21.177,5.631,4.646,6.315,3.848z"/>
	<ellipse fill="#737F83" cx="9.093" cy="15.614" rx="1.045" ry="1.787"/>
	<path fill="#3F3F3F" d="M9.093,13.827c0.294,0,0.558,0.209,0.748,0.543c-0.058-0.025-0.119-0.044-0.185-0.044
		c-0.297,0-0.539,0.284-0.539,0.634c0,0.35,0.241,0.634,0.539,0.634c0.2,0,0.368-0.135,0.461-0.326
		c0.013,0.112,0.02,0.227,0.02,0.345c0,0.987-0.468,1.787-1.045,1.787s-1.045-0.8-1.045-1.787S8.516,13.827,9.093,13.827z"/>
	<path fill="#3F3F3F" d="M6.195,4.178c4.498,5.29,15.34,9.503,15.34,9.503c7.268-2.565,14.329-9.503,14.329-9.503
		c-3.064,3.457-5.697,5.808-7.841,7.408c0.179-0.084,0.342-0.157,0.48-0.214c1.107-0.451,1.561,0.534,1.496,1.578
		c-0.05,0.898-0.204,2.017-0.382,3.079c2.298,2.251,3.08,3.979,3.08,3.979c-0.87-1.086-2.047-2.169-3.229-3.132
		c-0.24,1.308-0.484,2.392-0.56,2.64c-0.105,0.345-0.502,1.152-1.147,1.062c-1.446-0.285-2.113-0.606-3.007-1.012
		c-0.607-0.322-1.118-0.752-1.118-0.752s3.923,1.56,4.422,1.174c0.5-0.386,1.709-7.39,1.195-7.96
		c-0.419-0.464-4.147,1.454-5.507,2.177c-1.444,0.666-2.766,0.757-2.766,0.757C19.749,14.499,19,14.013,17,13.516
		c0,0.001,0,0.002,0,0.003c0,0-4.196,3.241-6.506,6.49c0,0,1.652-3.467,6.316-6.987C8.549,8.877,6.195,4.178,6.195,4.178z"/>
</g>
<g>
	<path fill="#5B5A5C" d="M176.193,162.724c0.507-0.591,21.273-0.338,21.78,0c0.187,0.125,0.317,1.927,0.376,4.173
		c1.21-0.629,4.958-2.514,5.315-1.939c0.427,0.687-1.239,8.393-1.731,8.774c-0.391,0.303-2.662-0.981-3.577-1.52
		c-0.052,2.096-0.176,3.756-0.383,3.934c-0.591,0.507-21.358,0.591-21.78,0C175.771,175.555,175.686,163.314,176.193,162.724z"/>
	<ellipse fill="#737F83" cx="178.25" cy="171.436" rx="0.774" ry="1.323"/>
	<path fill="#3F3F3F" d="M178.25,170.113c0.218,0,0.413,0.155,0.554,0.402c-0.043-0.019-0.088-0.033-0.137-0.033
		c-0.22,0-0.399,0.21-0.399,0.47c0,0.259,0.179,0.47,0.399,0.47c0.148,0,0.273-0.1,0.341-0.241c0.009,0.083,0.015,0.168,0.015,0.255
		c0,0.731-0.346,1.323-0.774,1.323c-0.427,0-0.773-0.592-0.773-1.323S177.823,170.113,178.25,170.113z"/>
	<path fill="#3F3F3F" d="M176.104,162.968c3.33,3.917,11.358,7.036,11.358,7.036c5.382-1.899,10.61-7.036,10.61-7.036
		c-2.269,2.56-4.218,4.3-5.806,5.485c0.133-0.063,0.253-0.117,0.356-0.158c0.82-0.334,1.155,0.396,1.108,1.168
		c-0.037,0.665-0.151,1.493-0.283,2.28c1.702,1.667,2.281,2.946,2.281,2.946c-0.644-0.804-1.516-1.606-2.391-2.319
		c-0.178,0.969-0.359,1.771-0.414,1.955c-0.078,0.256-0.372,0.853-0.849,0.786c-1.07-0.211-1.565-0.449-2.226-0.749
		c-0.449-0.239-0.828-0.556-0.828-0.556s2.905,1.155,3.275,0.87c0.37-0.286,1.266-5.472,0.885-5.894
		c-0.311-0.344-3.07,1.077-4.078,1.612c-1.069,0.493-2.1,0.56-2.1,0.56c-0.914-0.344-1.001-0.704-3.001-1.072
		c0,0.001,0,0.001,0,0.002c0,0-3.055,2.399-4.765,4.805c0,0,1.249-2.567,4.702-5.174
		C177.82,166.447,176.104,162.968,176.104,162.968z"/>
</g>
<g>
	<path fill="#737F83" d="M10.361,43.593c2.09-2.438,87.766-1.393,89.855,0c0.773,0.516,1.308,7.951,1.551,17.216
		c4.993-2.594,20.454-10.371,21.93-7.999c1.763,2.833-5.114,34.626-7.143,36.2c-1.613,1.251-10.982-4.046-14.758-6.271
		c-0.215,8.647-0.727,15.497-1.581,16.229c-2.438,2.09-88.114,2.438-89.855,0C8.619,96.531,8.271,46.031,10.361,43.593z"/>
	<ellipse fill="#8C989B" cx="18.847" cy="79.535" rx="3.191" ry="5.459"/>
	<path fill="#3F3F3F" d="M18.847,74.077c0.898,0,1.705,0.638,2.285,1.658c-0.177-0.077-0.364-0.134-0.564-0.134
		c-0.909,0-1.645,0.868-1.645,1.938c0,1.07,0.737,1.938,1.645,1.938c0.612,0,1.124-0.411,1.408-0.995
		c0.039,0.341,0.062,0.692,0.062,1.053c0,3.015-1.429,5.459-3.191,5.459s-3.191-2.444-3.191-5.459S17.085,74.077,18.847,74.077z"/>
	<path fill="#5B5A5C" d="M9.995,44.603c13.739,16.16,46.861,29.029,46.861,29.029c22.203-7.836,43.773-29.029,43.773-29.029
		c-9.36,10.561-17.404,17.742-23.953,22.629c0.548-0.258,1.046-0.481,1.468-0.653c3.382-1.379,4.767,1.633,4.571,4.821
		c-0.153,2.743-0.623,6.162-1.167,9.406c7.021,6.878,9.409,12.155,9.409,12.155c-2.658-3.318-6.253-6.626-9.863-9.568
		c-0.733,3.997-1.479,7.308-1.71,8.066c-0.321,1.055-1.533,3.52-3.505,3.243c-4.416-0.871-6.456-1.851-9.186-3.091
		c-1.853-0.985-3.414-2.296-3.414-2.296s11.984,4.766,13.51,3.588c1.526-1.178,5.221-22.576,3.651-24.315
		c-1.281-1.418-12.667,4.442-16.823,6.651c-4.412,2.036-6.95,2.312-6.95,2.312C52.899,76.131,48,74.645,46,73.127
		c0,0.003,0,0.005,0,0.008c0,0-14.317,9.899-21.375,19.825c0,0,4.296-10.59,18.543-21.345C17.933,58.955,9.995,44.603,9.995,44.603z
		"/>
</g>
<g>
	<path fill="#737F83" d="M139.211,60.067c0.578-0.675,24.285-0.385,24.863,0c0.214,0.143,0.362,2.2,0.429,4.764
		c1.381-0.718,5.66-2.87,6.068-2.213c0.488,0.784-1.415,9.581-1.976,10.017c-0.446,0.346-3.039-1.119-4.083-1.735
		c-0.059,2.393-0.201,4.288-0.437,4.491c-0.675,0.578-24.381,0.675-24.863,0C138.729,74.715,138.633,60.741,139.211,60.067z"/>
	<ellipse fill="#8C989B" cx="141.559" cy="70.012" rx="0.883" ry="1.51"/>
	<path fill="#3F3F3F" d="M141.559,68.502c0.248,0,0.472,0.177,0.632,0.459c-0.049-0.021-0.101-0.037-0.156-0.037
		c-0.251,0-0.455,0.24-0.455,0.536c0,0.296,0.204,0.536,0.455,0.536c0.169,0,0.311-0.114,0.39-0.275
		c0.011,0.094,0.017,0.192,0.017,0.291c0,0.834-0.395,1.51-0.883,1.51s-0.883-0.676-0.883-1.51S141.071,68.502,141.559,68.502z"/>
	<path fill="#5B5A5C" d="M139.11,60.346c3.802,4.471,12.966,8.032,12.966,8.032c6.143-2.168,12.112-8.032,12.112-8.032
		c-2.59,2.922-4.816,4.909-6.628,6.261c0.152-0.071,0.289-0.133,0.406-0.181c0.936-0.382,1.319,0.452,1.265,1.334
		c-0.042,0.759-0.172,1.705-0.323,2.603c1.943,1.903,2.603,3.363,2.603,3.363c-0.736-0.918-1.73-1.833-2.729-2.647
		c-0.203,1.106-0.409,2.022-0.473,2.232c-0.089,0.292-0.424,0.974-0.97,0.897c-1.222-0.241-1.786-0.512-2.542-0.855
		c-0.513-0.273-0.945-0.635-0.945-0.635s3.316,1.319,3.738,0.993c0.422-0.326,1.445-6.247,1.01-6.728
		c-0.354-0.392-3.505,1.229-4.655,1.84c-1.221,0.563-1.959,0.64-1.959,0.64C150.945,69.07,149,68.659,149,68.239
		c0,0.001,0,0.001,0,0.002c0,0-3.926,2.739-5.878,5.486c0,0,1.207-2.93,5.149-5.906C141.288,64.318,139.11,60.346,139.11,60.346z"/>
</g>
<g>
	<path fill="#5B5A5C" d="M44.64,120.929c1.623-1.893,68.161-1.082,69.784,0c0.601,0.4,1.016,6.175,1.205,13.371
		c3.877-2.014,15.885-8.054,17.031-6.212c1.369,2.2-3.971,26.892-5.547,28.114c-1.253,0.972-8.529-3.142-11.461-4.87
		c-0.167,6.715-0.564,12.035-1.228,12.604c-1.893,1.623-68.431,1.893-69.784,0C43.287,162.042,43.017,122.823,44.64,120.929z"/>
	<ellipse fill="#737F83" cx="51.231" cy="148.843" rx="2.478" ry="4.239"/>
	<path fill="#3F3F3F" d="M51.231,144.604c0.697,0,1.324,0.496,1.775,1.288c-0.138-0.06-0.283-0.104-0.438-0.104
		c-0.706,0-1.278,0.674-1.278,1.505c0,0.831,0.572,1.505,1.278,1.505c0.475,0,0.873-0.319,1.093-0.772
		c0.03,0.265,0.048,0.538,0.048,0.818c0,2.341-1.11,4.239-2.478,4.239s-2.478-1.898-2.478-4.239
		C48.752,146.502,49.862,144.604,51.231,144.604z"/>
	<path fill="#3F3F3F" d="M44.355,121.714c10.67,12.55,36.393,22.545,36.393,22.545c17.243-6.086,33.995-22.545,33.995-22.545
		c-7.269,8.202-13.516,13.779-18.602,17.574c0.426-0.2,0.812-0.373,1.14-0.507c2.626-1.071,3.702,1.268,3.55,3.744
		c-0.119,2.13-0.484,4.785-0.906,7.305c5.452,5.341,7.307,9.44,7.307,9.44c-2.064-2.577-4.856-5.146-7.659-7.431
		c-0.569,3.104-1.149,5.675-1.328,6.264c-0.249,0.819-1.191,2.734-2.722,2.519c-3.43-0.676-5.014-1.437-7.134-2.4
		c-1.439-0.765-2.651-1.783-2.651-1.783s9.307,3.701,10.492,2.786c1.185-0.915,4.055-17.533,2.835-18.884
		c-0.995-1.101-9.838,3.45-13.065,5.165c-3.427,1.581-6.056,1.795-6.056,1.795c-2.927-1.103-4.944-2.257-8.944-3.436
		c0,0.002,0,0.004,0,0.007c0,0-10.46,7.688-15.941,15.397c0,0,3.666-8.225,14.73-16.577
		C50.191,132.86,44.355,121.714,44.355,121.714z"/>
</g>
<g>
	<path fill="#737F83" d="M137.991,3.587c1.352-1.577,56.766-0.901,58.118,0c0.5,0.333,0.846,5.143,1.003,11.136
		c3.229-1.678,13.229-6.708,14.184-5.173c1.14,1.832-3.307,22.396-4.62,23.414c-1.043,0.809-7.103-2.617-9.545-4.056
		c-0.139,5.593-0.47,10.023-1.023,10.497c-1.577,1.352-56.992,1.577-58.118,0C136.865,37.827,136.64,5.164,137.991,3.587z"/>
	<ellipse fill="#8C989B" cx="143.481" cy="26.835" rx="2.064" ry="3.531"/>
	<path fill="#3F3F3F" d="M143.481,23.304c0.581,0,1.103,0.413,1.478,1.073c-0.115-0.05-0.235-0.087-0.365-0.087
		c-0.588,0-1.064,0.561-1.064,1.253c0,0.692,0.476,1.253,1.064,1.253c0.396,0,0.727-0.266,0.911-0.643
		c0.025,0.221,0.04,0.448,0.04,0.681c0,1.95-0.924,3.531-2.064,3.531s-2.064-1.581-2.064-3.531S142.341,23.304,143.481,23.304z"/>
	<path fill="#5B5A5C" d="M137.755,4.241c8.886,10.452,30.31,18.776,30.31,18.776c14.361-5.068,28.312-18.776,28.312-18.776
		c-6.054,6.831-11.257,11.475-15.493,14.636c0.354-0.167,0.676-0.311,0.949-0.422c2.187-0.892,3.083,1.056,2.957,3.118
		c-0.099,1.774-0.403,3.985-0.755,6.084c4.541,4.448,6.086,7.862,6.086,7.862c-1.719-2.146-4.045-4.285-6.379-6.188
		c-0.474,2.585-0.957,4.727-1.106,5.217c-0.208,0.682-0.992,2.277-2.267,2.098c-2.856-0.563-4.176-1.197-5.941-1.999
		c-1.199-0.637-2.208-1.485-2.208-1.485s7.751,3.083,8.738,2.321c0.987-0.762,3.377-14.602,2.361-15.727
		c-0.829-0.917-8.193,2.873-10.881,4.302c-2.854,1.317-5.017,1.495-5.017,1.495C164.984,24.633,161,23.672,160,22.69
		c0,0.002,0,0.003,0,0.005c0,0-8.739,6.403-13.304,12.823c0,0,3.039-6.85,12.254-13.806C142.629,13.524,137.755,4.241,137.755,4.241
		z"/>
</g>
<g>
	<path fill="#737F83" d="M98.749,183.733c1.461-1.705,61.383-0.974,62.844,0c0.541,0.361,0.915,5.561,1.085,12.041
		c3.492-1.814,14.305-7.253,15.338-5.594c1.233,1.981-3.576,24.217-4.995,25.318c-1.128,0.875-7.681-2.829-10.321-4.386
		c-0.15,6.048-0.508,10.838-1.106,11.35c-1.705,1.461-61.626,1.705-62.844,0C97.531,220.758,97.288,185.438,98.749,183.733z"/>
	<ellipse fill="#8C989B" cx="104.685" cy="208.871" rx="2.232" ry="3.818"/>
	<path fill="#3F3F3F" d="M104.685,205.054c0.628,0,1.193,0.446,1.598,1.16c-0.124-0.054-0.255-0.094-0.394-0.094
		c-0.635,0-1.151,0.607-1.151,1.355c0,0.748,0.515,1.355,1.151,1.355c0.428,0,0.786-0.287,0.985-0.696
		c0.027,0.239,0.043,0.484,0.043,0.737c0,2.108-0.999,3.818-2.232,3.818c-1.233,0-2.232-1.709-2.232-3.818
		S103.452,205.054,104.685,205.054z"/>
	<path fill="#5B5A5C" d="M98.493,184.44c9.609,11.302,32.774,20.303,32.774,20.303c15.528-5.481,30.615-20.303,30.615-20.303
		c-6.546,7.386-12.172,12.408-16.752,15.827c0.383-0.18,0.731-0.336,1.027-0.457c2.365-0.964,3.334,1.142,3.197,3.372
		c-0.107,1.918-0.436,4.309-0.816,6.579c4.91,4.81,6.581,8.501,6.581,8.501c-1.859-2.321-4.374-4.634-6.898-6.692
		c-0.513,2.795-1.035,5.111-1.196,5.641c-0.225,0.738-1.072,2.462-2.451,2.268c-3.089-0.609-4.515-1.294-6.424-2.162
		c-1.296-0.689-2.388-1.606-2.388-1.606s8.381,3.333,9.448,2.509c1.067-0.824,3.652-15.79,2.553-17.006
		c-0.896-0.992-8.859,3.107-11.766,4.652c-3.086,1.424-4.198,1.617-4.198,1.617c-2.636-0.993-5.799-2.032-6.799-3.094
		c0,0.002,0,0.004,0,0.006c0,0-10.676,6.923-15.612,13.866c0,0,2.673-7.407,12.638-14.928
		C104.377,194.478,98.493,184.44,98.493,184.44z"/>
</g>
</svg>
