<?xml version="1.0" encoding="utf-8"?>
<!-- Generator: Adobe Illustrator 17.0.0, SVG Export Plug-In . SVG Version: 6.00 Build 0)  -->
<!DOCTYPE svg PUBLIC "-//W3C//DTD SVG 1.1//EN" "http://www.w3.org/Graphics/SVG/1.1/DTD/svg11.dtd">
<svg version="1.1" id="Layer_1" xmlns="http://www.w3.org/2000/svg" xmlns:xlink="http://www.w3.org/1999/xlink" x="0px" y="0px"
	 width="261.833px" height="218px" viewBox="0 0 261.833 218" enable-background="new 0 0 261.833 218" xml:space="preserve">
<g id="Bg" display="none">
	<polygon display="inline" fill="#012B31" points="637,-358 574,-358 -6,-358 -6,234 314,234 314,342 637,342 637,-8 1213,-8 
		1213,-358 	"/>
</g>
<g id="_x31_">
</g>
<g id="_x32_">
</g>
<g id="_x33_">
</g>
<g id="_x34_">
	<polygon fill="#776B5D" points="169.728,195.479 174.541,180.229 173.854,180.417 169.416,195.105 	"/>
	<path fill="#E8A2B0" d="M186.041,193.167c0,0,2.458-1.021,2.896,0.25s-0.562,2.75-2.375,2.188S186.041,193.167,186.041,193.167z"/>
	<path fill="#E8A2B0" d="M171.895,191.959c0,0-1.583-1.292-2.375-0.146c-0.792,1.146-0.25,2.75,2.062,2.458L171.895,191.959z"/>
	<path fill="#DDDDDD" d="M159.937,207.162c3.491-0.124,6.377,1.337,9.726,1.928c7.964,1.406,15.497-4.985,23.217-2.068
		c0.019-0.011,0.036-0.021,0.036-0.021l0.193-5.031l-12.014-7.381c0,0-21.807,2.002-26.923,8.074c0,0,0.223,2.547,2.837,5.167
		C157.905,207.44,158.878,207.199,159.937,207.162z"/>
	<path fill="#FFFFFF" d="M193.109,201.97l-12.014-7.381c0,0-21.807,2.002-26.923,8.074c0,0,5.21,2.479,19.065,3.51
		C173.238,206.172,188.534,206.632,193.109,201.97z"/>
	<path fill="#002B36" d="M62.833,171.279c0,0,9.917,3.051,29.167-5.23c6.833-2.978,16.333-0.145,16.333-0.145
		s-10-1.307-16.333,1.889C85.666,170.989,74.999,174.621,62.833,171.279z"/>
	<path fill="#002B36" d="M198.083,169.017c0,0,8.064-3.051,23.718,5.23c5.557,2.978,13.282,0.145,13.282,0.145
		s-8.132,1.307-13.282-1.889C216.65,169.307,207.976,165.675,198.083,169.017z"/>
	<path fill="#002B36" d="M137.083,156.017c0,0,8.064-3.051,23.718,5.23c5.557,2.978,13.282,0.145,13.282,0.145
		s-8.132,1.307-13.282-1.889C155.65,156.307,146.976,152.675,137.083,156.017z"/>
	<path fill="#002B36" d="M141.568,165.789c0,0,4.384-1.044,6.932,0.369c0,0-5.688,0.184-7.583,1.597L141.568,165.789z"/>
	<path fill="#002B36" d="M101.978,178.355c0,0-4.938-2-8.438-3.438c0,0,9.438-0.438,13.062-2s33.25-5.312,42.625,2.125
		c0,0-4.812-0.938-11-0.438S101.978,178.355,101.978,178.355z"/>
	<path fill="#002B36" d="M188.104,175.855c0,0,12.75,4.312,21.812-0.125C209.916,175.729,195.978,176.355,188.104,175.855z"/>
	<path fill="#002B36" d="M58.591,179.509c0,0,4.075-1.342,6.075-2.509c0,0-13.667,3.667-23.333-0.667
		C41.333,176.334,45.849,184.018,58.591,179.509z"/>
	<path fill="#E9BAA9" d="M56.823,155.411c-3.231-0.204-6.465-0.323-9.704-0.22c-1.884,7.363-2.286,17.645,0.432,25.396
		c2.989,0.536,6.07,0.341,9.047-0.449C51.649,166.752,53.821,160.298,56.823,155.411z"/>
	<path fill="#DFA696" d="M60.719,122.691c0,0,4.322,2.726,5.447,5.976c1.125,3.25,0.5,8.625-5,11.75
		c-2.984,1.696-10.875,4.125-13.625,13.25c-1.512,5.017-2.299,11.767-1.749,18.18c0.558-1.789,1.219-3.543,2.047-5.228
		c2.037-4.148,4.829-8.792,8.801-11.362c0.114-0.074,0.224-0.087,0.327-0.076c0.352-0.563,0.713-1.108,1.074-1.639
		c3.75-5.5,14-9,14.5-14S68.344,121.441,60.719,122.691z"/>
	<path fill="#E9BAA9" d="M194.794,164.888c0.28,1.134,0.529,2.343,0.747,3.654c0.465,2.789,0.446,5.865-0.224,8.908
		c2.842,0.392,5.668,0.524,8.458,0.079c0.482-2.335,0.808-4.721,1.016-7.112c0.162-1.867,0.157-3.645,0.019-5.335
		C201.474,164.806,198.135,164.671,194.794,164.888z"/>
	<path fill="#DFA696" d="M183.041,149.792c3.986,2.315,6.743,4.635,8.707,7.664c0.112-0.021,0.234-0.009,0.361,0.072
		c7.122,4.562,5.07,15.843,11.673,19.853c0.485-2.35,0.811-4.692,1.009-6.964c1.25-14.375-7.25-23.625-12.375-26
		s-9.875-6.875-9.875-10.25s4.25-6.125,4.25-6.125C176.791,126.542,175.291,145.292,183.041,149.792z"/>
	<path fill="#E9BAA9" d="M100.833,47.834c0,0-15-6.667-21.333,4.333c-6.334,11-1.334,21-10.334,23.667c0,0,14,7,28-1.333
		S100.833,47.834,100.833,47.834z"/>
	<path fill="#DFA696" d="M100.833,47.834c0,0-2.221-0.982-5.311-1.569c-3.018,5.213-4.328,12.164-4.356,17.777
		c-0.021,4.119,0.5,8.625,1.556,12.61c1.471-0.566,2.957-1.266,4.444-2.152C111.166,66.167,100.833,47.834,100.833,47.834z"/>
	<path fill="#E9BAA9" d="M181.034,135c0.758-0.134,0.975,0.625,1.173,1.751s0.512,2.127-0.245,2.261
		c-0.758,0.134-2.389-0.51-2.588-1.636S180.277,135.134,181.034,135z"/>
	<path fill="#CC7691" d="M101.999,105.5c0,0-8.833,4.167-4.167,12.333c0.834,1.459,3.022,2.367,6.048,2.88l-0.267,14.607
		c-0.886-1.006-2.168-1.654-3.614-1.654c-2.669,0-4.833,2.164-4.833,4.833s2.164,4.833,4.833,4.833c0.268,0,0.526-0.037,0.783-0.079
		c0.014,1.779,0.354,5.188,2.438,8.487c0.199,3.855,0.68,18.978-3.51,25.741c2.978,1.293,6.083,2.262,9.319,2.568
		c6.172,0.583,11.762-1.086,17.637-2.725c5.215-1.454,10.373-2.595,15.475-2.804c-0.473-7.485,1.044-17.803,1.435-20.29
		c4.12-3.954,5.024-9.259,4.218-13.969c0.232,0.035,0.464,0.071,0.706,0.071c2.577,0,4.667-2.089,4.667-4.667
		s-2.089-4.667-4.667-4.667c-1.447,0-2.725,0.673-3.581,1.707c0.111-4.139,0.248-11.117,0.321-14.949
		c2.649-0.45,4.259-0.758,4.259-0.758s4.833-7-1.833-10.5c0,0,3.833-12.167-8.833-25.833C128.499,69.167,129.166,62,129.166,62
		s11-2.167,16.333-11c5.334-8.833,7-17.666-3.333-25.833s-17.5-4-26.333,1.167s-25,21-20,54.5
		C98.333,95.334,100.333,101.667,101.999,105.5z"/>
	<path fill="#CC7691" d="M182.931,151.667c2.608,1.467,5.727,4.289,7.497,6.018c3.523,4.548,4.393,11.965,2.09,19.303
		c1.22,0.226,2.437,0.419,3.652,0.563c2.446-11.904,1.469-15.934-1.063-20.268c-0.898-2.294-2.778-3.745-3.51-4.117
		c-9.392-4.771-10.781-8.874-10.255-12.669c-0.006-0.557,0.029-1.137,0.137-1.763c0.366-2.118,0.923-4.649,2.126-6.623
		c1.242-2.853,3.744-4.201,7.606-4.421c5.8-0.33,12.058,3.242,16.023,7.224c5.01,5.031,6.013,11.717,8.795,17.912
		c4.536,8.655,13.068,11.84,13.068,11.84c-3.667-3.333-2.167-13.5-0.833-18s0.667-11.667-3-19.5s-6-10.667-22.667-11.667
		s-19.333,4.167-22.667,13.333C176.598,138,174.931,147.167,182.931,151.667z"/>
	<path fill="#CC7691" d="M35.901,147.827c2.781-6.196,3.784-12.881,8.795-17.912c3.965-3.981,10.224-7.554,16.023-7.224
		c3.861,0.22,6.364,1.568,7.606,4.421c1.203,1.975,1.761,4.506,2.126,6.623c0.108,0.626,0.143,1.206,0.137,1.763
		c0.527,3.795-0.863,7.899-10.255,12.669c-10.5,5.333-8.667,27.5-7.167,31.333c0.111,0.283,0.295,0.695,0.548,1.206
		c1.65-0.215,3.284-0.623,4.877-1.197c-1.996-3.886-2.11-8.224-1.758-13.675c0.666-10.334,4.166-14.667,12.166-19.167
		s6.333-13.667,3-22.833c-3.333-9.167-6-14.333-22.667-13.333s-19,3.833-22.667,11.667c-3.667,7.833-4.333,15-3,19.5
		s2.833,14.667-0.833,18C22.833,159.667,31.365,156.482,35.901,147.827z"/>
	
		<ellipse transform="matrix(0.9959 -0.09 0.09 0.9959 -10.7501 10.2745)" fill="#FFFFFF" cx="108.549" cy="124.336" rx="11.467" ry="10.895"/>
	
		<ellipse transform="matrix(0.9932 0.1161 -0.1161 0.9932 15.3789 -15.3523)" fill="#FFFFFF" cx="139.471" cy="124.333" rx="11.342" ry="10.775"/>
	<path fill="#3A3A3A" d="M115.766,123.518c-0.537,1.631-2.055,2.816-3.866,2.816c-2.068,0-3.759-1.541-4.032-3.534
		c-2.093,1.092-3.508,3.159-3.508,5.533c0,3.512,3.091,6.359,6.904,6.359s6.904-2.847,6.904-6.359
		C118.168,126.407,117.235,124.684,115.766,123.518z"/>
	<path fill="#3A3A3A" d="M144.092,121.319c-0.14,1.877-1.44,3.539-3.366,4.019c-2.2,0.547-4.406-0.644-5.224-2.692
		c-1.937,1.716-2.895,4.288-2.267,6.813c0.93,3.735,4.971,5.946,9.026,4.936c4.056-1.009,6.59-4.856,5.66-8.591
		C147.412,123.756,145.963,122.171,144.092,121.319z"/>
	<path fill="#3A3A3A" d="M155.039,116.75c0,0-1.756,2.539-4.715,1.641c-0.138-0.228-0.277-0.454-0.43-0.673
		c0.702-0.286,2.641-1.364,2.594-4.527c0,0-1.042,2.85-4.072,2.778c-0.195-0.192-0.403-0.372-0.611-0.551
		c0.599-0.393,2.351-1.837,1.645-4.982c0,0-0.452,3.137-3.61,3.587c-1.512-0.874-3.229-1.473-5.091-1.691
		c-4.367-0.51-8.462,1.146-11.105,4.081c-4.878-2.43-9.866-0.645-11.402,0.025c-2.573-2.858-6.516-4.524-10.778-4.139
		c-1.997,0.18-3.838,0.802-5.447,1.736c-3.221-0.413-3.677-3.599-3.677-3.599c-0.727,3.237,1.151,4.673,1.695,5.015
		c-0.193,0.168-0.383,0.338-0.565,0.516c-3.105,0.137-4.169-2.776-4.169-2.776c-0.049,3.283,2.037,4.317,2.664,4.554
		c-0.14,0.202-0.274,0.408-0.401,0.617c-3.021,0.988-4.815-1.612-4.815-1.612c0.805,3.293,3.215,3.694,3.791,3.743
		c-0.565,1.558-0.814,3.244-0.656,4.985c0.601,6.646,6.759,11.521,13.755,10.888c6.996-0.632,12.18-6.533,11.579-13.178
		c-0.164-1.815-0.754-3.49-1.651-4.964c5.249-1.484,7.797-0.334,8.618,0.205c-0.767,1.33-1.284,2.821-1.472,4.428
		c-0.775,6.628,4.253,12.662,11.23,13.477c6.977,0.816,13.26-3.896,14.035-10.524c0.217-1.858-0.035-3.664-0.645-5.326
		C152.022,120.406,154.267,119.91,155.039,116.75z M109.368,133.6c-5.188,0.469-9.782-3.487-10.227-8.416
		c-0.446-4.929,3.413-9.321,8.602-9.79s9.772,3.159,10.218,8.089C118.406,128.412,114.557,133.131,109.368,133.6z M148.729,125.431
		c-0.575,4.916-5.309,8.745-10.484,8.14c-5.174-0.605-8.859-5.418-8.284-10.334c0.575-4.916,5.252-8.423,10.426-7.818
		S149.304,120.515,148.729,125.431z"/>
	<path fill="#B75978" d="M115.916,149.292c0,0,8.375,3.875,18.125,0.375C134.041,149.667,128.041,158.917,115.916,149.292z"/>
	<path fill="#B75978" d="M111.536,102.114c-3.334-0.538-6.912,0.182-10.234,1.589l0.697,1.797c0,0,10.542-1.958,16.042,0.667
		C118.041,106.167,116.539,103.541,111.536,102.114z"/>
	<path fill="#B75978" d="M131.283,104.955c-1.157,0.92-1.492,1.712-1.492,1.712c10.062-3.938,17.875-0.167,17.875-0.167
		c0.262-0.585,0.389-1.883,0.449-2.834C142.843,101.417,136.351,102.012,131.283,104.955z"/>
	<path fill="#B75978" d="M39.436,127.606c-6.749,9.731-4.492,25.542-16.222,31.634c-0.125,0.145-0.242,0.3-0.381,0.426
		c0,0,8.532-3.185,13.068-11.84c2.781-6.196,3.784-12.881,8.795-17.912c3.965-3.981,10.224-7.554,16.023-7.224
		c1.348,0.077,2.521,0.301,3.542,0.669c-0.364-0.293-0.753-0.565-1.163-0.821c-0.014-0.005-0.025-0.011-0.039-0.015
		C55.241,119.866,44.618,120.136,39.436,127.606z"/>
	<path fill="#B75978" d="M212.36,133.778c-4.453-4.886-12.859-7.159-20.303-6.1c5.555,0.038,11.404,3.448,15.177,7.237
		c5.01,5.031,6.013,11.717,8.795,17.912c2.391,4.562,5.885,7.592,8.661,9.449c-2.723-2.863-4.461-6.608-5.705-10.485
		c-1.038-3.236-1.829-6.542-2.823-9.791C215.297,139.17,214.4,136.016,212.36,133.778z"/>
	<path fill="#E9BAA9" d="M131.999,89.834c0,0-7.458-7.167-19.083-3.792c-10.375,3-9.583,11.625-9.583,11.625
		S108.833,87.5,131.999,89.834z"/>
	<path fill="#E9BAA9" d="M121.416,72.792c0,0-6.949-6.441-16.25-2.75c-7.875,3.125-5.5,11.125-5.5,11.125
		S104.416,69.917,121.416,72.792z"/>
	<path fill="#E9BAA9" d="M116.291,59.792c0,0-5.625-6.375-15-3.375c-6.375,2-4.875,9.125-4.875,9.125
		C96.791,65.667,100.791,57.667,116.291,59.792z"/>
	<path fill="#E9BAA9" d="M113.999,47.667c0,0-4.664-5.165-14.258-2.842c-0.606,1.318-1.167,2.715-1.683,4.181
		C104.365,46.294,113.999,47.667,113.999,47.667z"/>
	<path fill="#E9BAA9" d="M113.416,36.334c0,0-1.002-4.14-4.899-4.251c-0.844,0.847-1.69,1.773-2.526,2.777
		C110.666,34.82,113.416,36.334,113.416,36.334z"/>
	<path fill="#E9BAA9" d="M141.916,44.25c0,0,3.793,0.557,6.771,0.12c0.838-2.479,1.218-4.945,0.954-7.383
		C149.04,38.904,146.914,43.908,141.916,44.25z"/>
	<path fill="#E9BAA9" d="M134.333,51c0,0,2.178,3.982,6.029,5.708c1.576-1.233,3.089-2.732,4.368-4.542
		C143.572,52.499,138.828,53.611,134.333,51z"/>
	<path fill="#B75978" d="M129.166,62.084c0,0-1.5-18.229,3.083-23.5c0,0-4,10.25,3,21.25
		C135.249,59.834,132.708,61.125,129.166,62.084z"/>
	<path fill="#E9BAA9" d="M38.166,119.667c-4.088-2.88-7.413-2.652-8.852-2.346c-0.68,0.968-1.289,2.063-1.904,3.3
		C31.855,119.386,38.166,119.667,38.166,119.667z"/>
	<path fill="#E9BAA9" d="M26.039,123.57c-0.406,0.949-0.766,1.886-1.085,2.808c3.358-1.202,7.271-1.706,7.271-1.706
		C29.605,123.434,27.492,123.35,26.039,123.57z"/>
	<path fill="#E9BAA9" d="M23.911,129.94c-0.203,0.841-0.369,1.663-0.499,2.463c2.694-1.395,5.919-2.267,5.919-2.267
		C26.93,129.378,25.114,129.573,23.911,129.94z"/>
	<path fill="#E9BAA9" d="M213.787,124.709c4.088-2.88,7.413-2.652,8.852-2.346c0.68,0.968,1.289,2.063,1.904,3.3
		C220.098,124.428,213.787,124.709,213.787,124.709z"/>
	<path fill="#E9BAA9" d="M225.914,128.612c0.406,0.949,0.766,1.886,1.085,2.808c-3.358-1.202-7.271-1.706-7.271-1.706
		C222.348,128.476,224.461,128.392,225.914,128.612z"/>
	<path fill="#E9BAA9" d="M228.042,134.982c0.203,0.841,0.369,1.663,0.499,2.463c-2.694-1.395-5.919-2.267-5.919-2.267
		C225.023,134.42,226.839,134.615,228.042,134.982z"/>
	
		<ellipse transform="matrix(0.1242 -0.9923 0.9923 0.1242 3.3955 351.9149)" fill="#FECDC5" cx="201.052" cy="174.034" rx="2.215" ry="2.098"/>
	<path fill="#E9BAA9" d="M201.32,171.83c-0.603-0.076-1.141,0.061-1.576,0.447c0.433,0.935,0.857,1.876,1.472,2.708
		c0.256,0.346,0.544,0.691,0.84,0.995c0.559-0.337,0.98-0.97,1.07-1.692C203.278,173.074,202.47,171.974,201.32,171.83z"/>
	
		<ellipse transform="matrix(0.01 -0.9999 0.9999 0.01 32.1347 367.4142)" fill="#E9BAA9" cx="201.621" cy="167.478" rx="2.274" ry="2.154"/>
	
		<ellipse transform="matrix(-0.2201 -0.9755 0.9755 -0.2201 87.9257 392.4439)" fill="#E9BAA9" cx="200.844" cy="161.073" rx="2.213" ry="2.096"/>
	
		<ellipse transform="matrix(-0.48 -0.8773 0.8773 -0.48 157.5855 403.3239)" fill="#E9BAA9" cx="198.33" cy="154.957" rx="2.265" ry="2.146"/>
	
		<ellipse transform="matrix(-0.8185 -0.5745 0.5745 -0.8185 266.7277 383.9777)" fill="#E9BAA9" cx="194.017" cy="149.857" rx="2.266" ry="2.146"/>
	
		<ellipse transform="matrix(-0.8185 -0.5745 0.5745 -0.8185 259.0311 374.0445)" fill="#E9BAA9" cx="188.6" cy="146.106" rx="2.266" ry="2.04"/>
	<path fill="#E9BAA9" d="M182.91,140.088c0.764-0.548,1.714-0.183,2.381,0.746s0.797,2.069,0.033,2.618
		c-0.764,0.548-1.924,0.24-2.591-0.689S182.146,140.636,182.91,140.088z"/>
	<path fill="#E9BAA9" d="M70.309,133.133c-0.009-0.047-0.002-0.089,0-0.132c-0.347-0.467-0.823-0.806-1.211-0.876
		c-0.758-0.138-0.975,0.645-1.173,1.807c-0.199,1.162-0.512,2.195,0.245,2.333c0.649,0.118,1.933-0.356,2.415-1.223
		C70.516,134.403,70.433,133.766,70.309,133.133z"/>
	<path fill="#FECDC5" d="M49.202,180.804c0.841,0.076,1.687,0.1,2.532,0.069c0.667-0.52,1.011-1.446,0.802-2.382
		c-0.278-1.248-1.432-2.04-2.577-1.768c-1.146,0.272-1.849,1.504-1.571,2.752C48.512,180.028,48.812,180.483,49.202,180.804z"/>
	<path fill="#FECDC5" d="M48.813,170.136c-1.15,0.148-1.959,1.284-1.807,2.537s1.207,2.148,2.357,1.999
		c1.15-0.148,1.959-1.284,1.807-2.537C51.018,170.883,49.963,169.988,48.813,170.136z"/>
	
		<ellipse transform="matrix(-0.0097 -1 1 -0.0097 -116.6728 215.7683)" fill="#E9BAA9" cx="48.506" cy="165.657" rx="2.346" ry="2.154"/>
	<path fill="#E9BAA9" d="M49.783,156.803c-1.129-0.263-2.263,0.521-2.532,1.751c-0.269,1.23,0.428,2.441,1.557,2.704
		c1.129,0.263,2.263-0.521,2.532-1.751C51.61,158.276,50.912,157.066,49.783,156.803z"/>
	<path fill="#E9BAA9" d="M52.887,150.673c-1.04-0.587-2.369-0.145-2.97,0.988c-0.601,1.133-0.244,2.527,0.795,3.114
		s2.369,0.145,2.97-0.988C54.283,152.654,53.927,151.26,52.887,150.673z"/>
	<path fill="#E9BAA9" d="M57.984,146.119c-0.681-1.001-2.063-1.212-3.088-0.47c-1.024,0.742-1.303,2.155-0.622,3.157
		c0.681,1.001,2.063,1.212,3.088,0.47S58.665,147.121,57.984,146.119z"/>
	<path fill="#E9BAA9" d="M63.401,142.249c-0.647-0.952-2.003-1.122-3.027-0.38c-1.024,0.742-1.33,2.115-0.683,3.067
		c0.647,0.952,2.003,1.122,3.027,0.38C63.743,144.574,64.048,143.201,63.401,142.249z"/>
	<path fill="#E9BAA9" d="M67.222,137.376c-0.764-0.566-1.714-0.189-2.381,0.77s-0.797,2.136-0.033,2.702s1.924,0.248,2.591-0.711
		C68.066,139.178,67.987,137.942,67.222,137.376z"/>
	<path fill="#002B36" d="M104.833,185.279c0,0,9.917,3.051,29.167-5.23c6.833-2.978,16.333-0.145,16.333-0.145
		s-10-1.307-16.333,1.889C127.666,184.989,116.999,188.621,104.833,185.279z"/>
	<path fill="#002B36" d="M20.083,180.017c0,0,8.064-3.051,23.718,5.23c5.557,2.978,13.282,0.145,13.282,0.145
		s-8.132,1.307-13.282-1.889C38.65,180.307,29.976,176.675,20.083,180.017z"/>
	<path fill="#002B36" d="M214.833,183.279c0,0,9.917,3.051,29.167-5.23c6.833-2.978,16.333-0.145,16.333-0.145
		s-10-1.307-16.333,1.889C237.666,182.989,226.999,186.621,214.833,183.279z"/>
	<path fill="#776B5D" d="M155.449,202.392c0,0,21.848,6.767,35.967-0.142l-10.75-6.667
		C180.666,195.584,161.749,197.667,155.449,202.392z"/>
	<g>
		<path fill="#414B93" d="M174.728,205.105c0.087,0.091,0.191,0.173,0.308,0.248c1.902,0.019,3.84-0.059,5.766-0.262
			c0.437-0.338,0.654-0.772,0.489-1.299c-0.688-2.188-7.312-2-7.312-2s-3.697-2.229-5.6,3.146c1.06,0.118,2.158,0.215,3.281,0.287
			C172.261,204.77,173.638,203.966,174.728,205.105z"/>
	</g>
	<path fill="#CC7691" d="M181.12,197.632c0.458-1.274,0.683-2.832,1.94-3.556c0.893-0.514,2.054-0.694,2.99-1.053
		c0.648,1.059,0.696,2.965,0.737,4.223c-0.756-0.054-1.761-0.309-2.341,0.258c-0.862,0.843-1.167,2.479-2.168,3.159
		c0,0-0.27,0.328-0.34,0.607c-0.139,0.553-0.306,0.969-0.268,1.543c0.039,0.588,0.234,0.691-0.161,1.038
		c-0.966,0.849-3.423,0.646-4.511,0.199c-1.385-0.568-2.213-1.493-3.318-2.465c-0.512-0.45-0.469-0.536-0.19-1.119
		c0.271-0.567,0.702-1.221,0.877-1.799l0.125-0.684c0.203-0.583-0.072-1.626-0.383-2.145c-0.569-0.95-1.824-0.824-2.738-0.81
		c0.16-1.018,0.19-2.228,0.543-3.2c1.281,0.228,2.365,0.345,3.449,1.181c1.015,0.783,1.51,1.616,1.911,2.815
		C177.275,195.822,177.543,197.864,181.12,197.632z"/>
	<path fill="#E8A2B0" d="M177.484,195.763c0,0-0.333,0.565,0.266,1.064s2.161,1.197,3.658,0.898l0.565-2.527
		C181.973,195.198,177.883,192.538,177.484,195.763z"/>
	<path fill="#FFFFFF" d="M180.74,193.713c0,0,2.813,1.901,2.282,3.668s-4.378-0.491-5.082-1.581s-1.752-2.299-0.75-2.97
		C178.193,192.157,179.02,192.442,180.74,193.713z"/>
	<path fill="#DDDDDD" d="M178.733,192.755l-0.708,1.095c0,0,0.806,1.945,2.201,2.502c0.918,0.341,1.343,0.26,1.343,0.26l0.711-1.423
		C182.279,195.189,179.718,192.134,178.733,192.755z"/>
	<path fill="#FFFFFF" d="M180.996,193.029c0,0,1.602,1.108,1.283,2.16c-0.319,1.053-2.511-0.258-2.907-0.9s-0.989-1.351-0.408-1.758
		C179.544,192.125,180.017,192.287,180.996,193.029z"/>
	<path fill="#DDDDDD" d="M173.042,190.167c-1.523,0-3.062-0.353-4.456-0.927c-0.264-0.109-2.589-1.119-3.005-2.237
		c-0.104-0.278-0.086-0.554,0.051-0.799l0.443,0.211c-0.073,0.129-0.08,0.258-0.022,0.413c0.262,0.703,1.779,1.542,2.734,1.937
		c1.351,0.556,2.841,0.847,4.32,0.837c1.627-0.011,3.639-0.375,3.954-1.364c0.186-0.583-0.46-1.492-1.127-2.149
		c-0.963-0.949-2.339-1.314-3.67-1.666c-1.837-0.488-3.854-1.022-4.938-2.928c-1.089-1.915-0.952-4.041,0.349-5.417
		c1.383-1.464,4.195-1.953,6.491-2.215c2.188-0.248,5.376-0.352,7.769,1.627c1.91,1.58,2.536,3.806,1.594,5.67
		c-1.076,2.131-3.799,3.388-6.065,2.805c-0.89-0.229-1.899-1.041-2.492-1.666c-0.334-0.351-0.505-0.766-0.67-1.167
		c-0.093-0.224-0.18-0.436-0.291-0.621l0.438-0.228c0.127,0.215,0.226,0.452,0.32,0.682c0.148,0.362,0.304,0.736,0.576,1.024
		c0.592,0.623,1.518,1.337,2.252,1.526c2.049,0.527,4.503-0.618,5.481-2.552c0.844-1.672,0.266-3.681-1.475-5.12
		c-1.706-1.411-4.052-1.891-7.376-1.514c-2.208,0.252-4.905,0.715-6.177,2.061c-1.411,1.493-1.034,3.566-0.282,4.888
		c0.913,1.605,2.474,2.124,4.577,2.682c1.452,0.385,2.896,0.767,3.953,1.81c0.474,0.468,1.545,1.706,1.242,2.653
		c-0.493,1.552-3.515,1.748-4.429,1.748C173.088,190.167,173.065,190.167,173.042,190.167z"/>
	<path fill="#776B5D" d="M173.326,184.079l1.215-3.849l-0.688,0.188l-1.058,3.502C172.971,183.973,173.148,184.027,173.326,184.079z
		"/>
	<path fill="#776B5D" d="M171.698,187.551l-2.282,7.553l0.312,0.375l2.463-7.806C172.026,187.637,171.861,187.596,171.698,187.551z"
		/>
	<path fill="#DDDDDD" d="M166.389,186.601c-0.292,0.102-0.605,0.075-0.811-0.078c-0.174-0.13-0.252-0.335-0.213-0.562l0.492,0.082
		c-0.009,0.057,0.008,0.069,0.02,0.079c0.071,0.053,0.25,0.06,0.411-0.02c0.124-0.06,0.271-0.184,0.276-0.431
		c0.008-0.345-0.133-0.637-0.398-0.822c-0.229-0.16-0.437-0.245-0.722-0.194c0.031,0.088,0.143,0.148,0.173,0.235l0.085,0.241
		l-0.944,0.329l-0.082-0.234c-0.062-0.178,0.029-0.408-0.024-0.589l0.015-0.247l0.252-0.097c0.501-0.204,1.087-0.146,1.515,0.152
		c0.4,0.28,0.633,0.729,0.621,1.239c-0.008,0.384-0.207,0.7-0.552,0.868C166.465,186.572,166.43,186.587,166.389,186.601z"/>
	<path fill="#FFFFFF" d="M183.01,191.667c0,0,0.533-1.744,1.163-1.114C184.79,191.17,183.01,191.667,183.01,191.667z"/>
	<path fill="#FFFFFF" d="M183.469,192.613c0,0,0.964-0.699,1.044-0.122C184.592,193.055,183.469,192.613,183.469,192.613z"/>
</g>
<g id="_x35__1_">
</g>
<g id="_x36_">
</g>
<g id="_x37_">
</g>
<path fill="#3A3A3A" d="M120.69,142.503c0,0,0.391,0.604,1.559,1.587c1.837,1.861,3.868,0.519,3.868,0.519l4.168-1.883
	c0.029-0.038,0.058-0.077,0.088-0.114c0.015-0.112-0.042-0.278-0.631-0.077c-3.304,0.856-7.12-0.05-8.115-0.262
	C120.632,142.062,120.69,142.503,120.69,142.503z"/>
</svg>
