<?xml version="1.0" encoding="utf-8"?>
<!-- Generator: Adobe Illustrator 17.0.0, SVG Export Plug-In . SVG Version: 6.00 Build 0)  -->
<!DOCTYPE svg PUBLIC "-//W3C//DTD SVG 1.1//EN" "http://www.w3.org/Graphics/SVG/1.1/DTD/svg11.dtd">
<svg version="1.1" id="Layer_1" xmlns="http://www.w3.org/2000/svg" xmlns:xlink="http://www.w3.org/1999/xlink" x="0px" y="0px"
	 width="299px" height="311px" viewBox="0 0 299 311" enable-background="new 0 0 299 311" xml:space="preserve">
<path fill="#CC7691" d="M159.215,149.362c0,0,11.254,0.49,18.77-3.019c7.515-3.509-0.928,11.341-0.928,11.341
	s-9.254,4.37-19.405,3.676C147.5,160.667,159.215,149.362,159.215,149.362z"/>
<path fill="#CC7691" d="M226.845,140.206c0,0-3.355,6.082-9.267,6.605s0.588-3.938,1.005-4.416
	C219,141.917,226.845,140.206,226.845,140.206z"/>
<path fill="#CC7691" d="M174.136,128.001c0,0,3.198-8.742,9.698-7.372C190.333,122,180.526,130.837,174.136,128.001z"/>
<path fill="#CC7691" d="M251.883,106.024c0.158-0.096,0.289-0.207,0.407-0.325c1.678-0.906,3.427-1.716,5.29-2.381
	c0.463-0.102,0.928-0.203,1.397-0.299c10.088-2.073,16.314-2.674,26.911,9.823c1.035,1.221,1.958,2.349,2.783,3.402
	c-5.322,2.516-10.631,5.061-15.96,7.563c0.147-4.469-1.283-9.7-5.016-13.218c-2.839-2.675-5.706-3.82-8.985-3.322
	c-2.505,0.097-5.042,0.931-7.095,1.701c-0.606,0.227-1.124,0.486-1.593,0.762c-0.537,0.22-1.045,0.481-1.522,0.785
	c-0.196-0.478-0.393-0.956-0.588-1.434C249.233,107.884,250.583,106.811,251.883,106.024z"/>
<path fill="#B75978" d="M272.713,123.805c0.146-4.469-1.284-9.698-5.016-13.215c-0.991-0.934-1.987-1.669-3.001-2.226
	c0.499,0.119,0.998,0.267,1.497,0.437c0.013,0.008,0.026,0.013,0.04,0.02c5.196,2.953,10.124,7.507,11.86,12.442
	C276.3,122.113,274.508,122.962,272.713,123.805z"/>
<path fill="#CC7691" d="M246.827,110.102c-2.186,2.127-4.224,4.525-5.708,6.566c-1.418,1.951-2.677,4.009-3.813,6.134
	c-1.264,2.507-2.373,5.225-3.231,8.141c-7.636,25.225-21.993,24.547-29.832,21.93c-3.192,2.138-6.4,4.251-9.594,6.386
	c3.775,1.928,8.456,3.073,13.691,3.748c17.412,2.244,30.421-6.072,34.723-22.297c4.301-16.225,13.19-21.582,13.19-21.582
	l-0.922-14.756C252.26,105.906,249.497,107.907,246.827,110.102z"/>
<path fill="#DFA696" d="M207.426,158.787c6.788-0.465,13.188-1.284,19.132-4.921c7.381-4.516,10.698-10.492,12.684-18.807
	c1.073-4.491,1.918-9.592,4.976-13.261c3.226-3.87,7.08-6.522,11.697-8.048l0.336,5.377c0,0-8.889,5.358-13.19,21.582
	c-4.301,16.225-17.31,24.541-34.723,22.297c-3.196-0.412-6.186-0.999-8.891-1.831C201.52,159.815,204.104,159.015,207.426,158.787z"
	/>
<path fill="#E9BAA9" d="M207.638,160.76c3.092-1.063,4.807,0.523,6.307,2.6c-1.812,0.007-3.68-0.105-5.606-0.353
	c-1.349-0.174-2.656-0.383-3.925-0.624C205.441,161.721,206.508,161.148,207.638,160.76z"/>
<path fill="#E9BAA9" d="M219.952,159.251c5.702-1.65,10.911-5.82,14.458-10.863c3.969-5.644,5.769-14.414,7.954-20.818
	c2.764-8.099,5.735-9.039,12.545-11.435c0.432-0.152,1.004,0.82,1.188,0.53l0.154,2.463c0,0-8.889,5.358-13.19,21.582
	c-4.01,15.126-15.591,23.374-31.25,22.604C214.589,161.953,216.764,160.173,219.952,159.251z"/>
<path fill="#FECDC5" d="M217.882,163.126c-0.131-0.228-0.23-0.478-0.275-0.752c-0.203-1.259,0.688-2.449,1.99-2.659
	s2.522,0.64,2.725,1.899c0.04,0.247,0.026,0.488-0.013,0.723C220.854,162.731,219.372,162.939,217.882,163.126z"/>
<ellipse transform="matrix(-0.9873 0.1591 -0.1591 -0.9873 513.5786 203.3973)" fill="#FECDC5" cx="248.645" cy="122.262" rx="2.388" ry="2.308"/>
<ellipse transform="matrix(-0.9873 0.1591 -0.1591 -0.9873 508.1989 214.9737)" fill="#FECDC5" cx="245.492" cy="127.835" rx="2.388" ry="2.308"/>
<path fill="#FECDC5" d="M243.118,131.957c1.09-0.176,2.113,0.396,2.54,1.324c-0.434,0.901-0.856,1.88-1.139,2.873
	c-0.023,0.058-0.048,0.115-0.069,0.174c-0.188,0.083-0.384,0.153-0.597,0.187c-1.302,0.21-2.522-0.64-2.725-1.899
	C240.925,133.357,241.816,132.167,243.118,131.957z"/>
<path fill="#FECDC5" d="M241.022,137.805c1.067-0.172,2.069,0.374,2.511,1.267c-0.163,0.63-0.319,1.24-0.537,1.856
	c-0.125,0.353-0.223,0.712-0.304,1.074c-0.275,0.177-0.589,0.306-0.935,0.361c-1.302,0.21-2.522-0.64-2.725-1.899
	C238.829,139.205,239.72,138.015,241.022,137.805z"/>
<path fill="#FECDC5" d="M238.996,143.698c1.147-0.185,2.228,0.454,2.609,1.469c-0.002,0.009-0.007,0.014-0.008,0.023
	c-0.012,0.081-0.039,0.16-0.059,0.24c-0.384,0.782-0.748,1.574-1.1,2.371c-0.05,0.092-0.097,0.186-0.146,0.278
	c-0.178,0.077-0.361,0.144-0.562,0.176c-1.302,0.21-2.522-0.64-2.725-1.899C236.803,145.098,237.694,143.908,238.996,143.698z"/>
<path fill="#FECDC5" d="M235.813,149.085c1.302-0.21,2.522,0.64,2.725,1.899c0.003,0.018,0.001,0.036,0.003,0.055
	c-0.357,0.684-0.82,1.357-1.338,1.928c-0.22,0.242-0.493,0.432-0.705,0.679c-1.283,0.18-2.475-0.66-2.675-1.902
	C233.62,150.485,234.511,149.295,235.813,149.085z"/>
<path fill="#FECDC5" d="M232.372,157.637c-0.115,0.059-0.227,0.129-0.332,0.211c-0.088,0.069-0.179,0.135-0.269,0.202
	c-0.088,0.039-0.172,0.088-0.255,0.141c-0.982-0.152-1.796-0.881-1.958-1.885c-0.203-1.259,0.688-2.449,1.99-2.659
	c1.302-0.21,2.522,0.64,2.725,1.899c0.023,0.144,0.023,0.286,0.018,0.427c-0.384,0.326-0.723,0.69-1.087,1.045
	C232.913,157.205,232.64,157.418,232.372,157.637z"/>
<path fill="#FECDC5" d="M228.414,160.156c-1.061,0.385-2.088,0.836-3.137,1.273c-0.58-0.334-1.017-0.89-1.13-1.589
	c-0.203-1.259,0.688-2.449,1.99-2.659c1.302-0.21,2.522,0.64,2.725,1.899c0.041,0.253,0.027,0.5-0.015,0.74
	C228.717,159.946,228.563,160.049,228.414,160.156z"/>
<path fill="#5B5A5C" d="M275.523,131.638c0.4,0.999-0.086,2.133-1.085,2.532l-16.273,6.513c-0.999,0.4-2.133-0.086-2.532-1.085
	l-12.098-30.222c-0.4-0.999,0.086-2.133,1.085-2.532l16.273-6.513c0.999-0.4,2.133,0.086,2.532,1.085L275.523,131.638
	L275.523,131.638L275.523,131.638L275.523,131.638z"/>
<path fill="#737F83" d="M258.216,141.257c-1.25,0.408-2.61-0.23-3.099-1.451l-12.098-30.222c-0.248-0.621-0.24-1.301,0.023-1.916
	c0.263-0.615,0.75-1.091,1.372-1.339l16.273-6.513c1.29-0.519,2.746,0.122,3.256,1.394l12.098,30.222
	c0.248,0.621,0.24,1.301-0.023,1.916c-0.263,0.615-0.75,1.091-1.372,1.339l-16.273,6.514
	C258.321,141.22,258.268,141.239,258.216,141.257C258.216,141.257,258.268,141.239,258.216,141.257L258.216,141.257L258.216,141.257
	z M261.188,100.817c-0.029,0.01-0.058,0.02-0.087,0.032l-16.273,6.513c-0.345,0.138-0.615,0.403-0.762,0.744
	c-0.147,0.341-0.151,0.72-0.012,1.065l12.098,30.222c0.283,0.707,1.091,1.065,1.808,0.775l16.273-6.515
	c0.345-0.138,0.616-0.402,0.762-0.744c0.147-0.341,0.151-0.72,0.013-1.064l-12.098-30.222
	C262.638,100.944,261.882,100.59,261.188,100.817C261.188,100.817,261.882,100.59,261.188,100.817L261.188,100.817L261.188,100.817z
	"/>
<rect id="Rectangle_1_" x="251.187" y="108.137" transform="matrix(-0.9284 0.3716 -0.3716 -0.9284 544.8947 135.4899)" fill="#737F83" width="16.416" height="24.205"/>
<path id="Shape_36_" fill="#3F3F3F" d="M256.221,105.878c0.049,0.123-0.015,0.226-0.264,0.326l-4.227,1.692
	c-0.25,0.1-0.367,0.069-0.417-0.054l-0.042-0.105c-0.049-0.123,0.002-0.259,0.251-0.358l4.227-1.692c0.25-0.1,0.38-0.036,0.43,0.086
	L256.221,105.878L256.221,105.878L256.221,105.878L256.221,105.878z"/>
<circle id="Oval_2_" fill="#3F3F3F" cx="264.991" cy="134.243" r="1.774"/>
<path fill="#CC7691" d="M291.102,132.215c-2.972,3.979-6.638,6.897-10.198,8.714c-0.299,0.134-0.593,0.256-0.876,0.354
	c-3.285,1.136-6.827,1.452-9.99,2.965c-1.338,0.64-2.536,1.36-3.61,2.169c-2.667,1.414-4.755,3.063-4.938,4.742
	c0,0-2.979-6.635,1.411-13.244c3.454-4.446,8.519-8.019,9.482-13.314c0.125-0.688,0.192-1.411,0.208-2.151
	c0.027-0.018,0.057-0.03,0.083-0.05c0.225-0.168,0.438-0.347,0.66-0.518c0.059-0.046,0.627-0.428,0.27-0.229
	c0.706-0.394,1.195-0.996,1.16-1.672c1.95-0.633,3.901-1.267,5.852-1.897c2.51-0.81,4.963-1.688,7.12-3.014
	C296.118,124.167,295.103,126.86,291.102,132.215z"/>
<path fill="#B75978" d="M262.904,137.917c3.455-4.446,8.52-8.019,9.482-13.314c0.154-0.847,0.198-1.754,0.184-2.675
	c0.379-0.48,0.696-0.994,0.947-1.541c1.254-0.406,2.507-0.811,3.76-1.218c1.375,2.434,1.785,5.044,0.61,7.634
	c-3.832,8.441-18.909,14.055-16.284,23.936c-0.041,0.141-0.095,0.281-0.11,0.422C261.493,151.161,258.514,144.525,262.904,137.917z"
	/>
<path fill="#E9BAA9" d="M287.375,136.366c-1.027-3.223-5.018-5.746-5.018-5.746c4.166,0.635,6.05,2.839,6.788,3.961
	C288.498,135.248,288.037,135.801,287.375,136.366z"/>
<path fill="#E9BAA9" d="M281.022,140.874c0.324-3.508-1.137-6.944-1.137-6.944c2.623,1.742,3.524,5.571,3.524,5.571
	c-0.032,0.039-0.058,0.063-0.09,0.1C282.53,140.105,281.756,140.538,281.022,140.874z"/>
<path fill="#E9BAA9" d="M277.438,142.035c-0.588,0.148-1.179,0.287-1.769,0.428c-0.574-4.319,0.41-5.45,0.41-5.45
	C276.102,138.644,276.936,140.849,277.438,142.035z"/>
<path id="Shape_39_" fill="#737F83" d="M169.888,172.917c-1.47-0.434-2.31-1.977-1.876-3.447l17.537-59.449
	c0.434-1.47,1.977-2.31,3.447-1.876l35.492,10.469c1.47,0.434,2.31,1.977,1.877,3.447l-17.537,59.449
	c-0.434,1.47-1.977,2.31-3.447,1.876L169.888,172.917L169.888,172.917L169.888,172.917L169.888,172.917z"/>
<path id="Shape_38_" fill="#8C989B" d="M196.431,144.055l0.208,6.145l0.005,0.614c-0.108,1.017,0.467,2.145,1.784,2.367
	c1.354,0.229,2.199-0.786,2.436-1.902l2.635-8.936l-2.225-0.657l-2.322,7.871l-0.177-6.136l0.01-0.609
	c0.108-1.017-0.49-2.152-1.808-2.374c-1.354-0.229-2.138,0.805-2.459,1.895l-2.675,9.068l2.225,0.656L196.431,144.055
	L196.431,144.055L196.431,144.055L196.431,144.055z"/>
<path fill="#CC7691" d="M45.443,117.826c-0.171-0.069-0.318-0.159-0.453-0.256c-1.801-0.628-3.656-1.149-5.601-1.509
	c-0.474-0.027-0.949-0.052-1.427-0.073c-10.289-0.441-16.532-0.044-25.005,13.98c-0.828,1.37-1.56,2.631-2.207,3.802
	c5.655,1.637,11.301,3.305,16.96,4.926c-0.857-4.389-0.277-9.781,2.849-13.847c2.377-3.092,5.025-4.679,8.342-4.709
	c2.489-0.303,5.126,0.117,7.275,0.55c0.634,0.128,1.187,0.301,1.694,0.499c0.565,0.132,1.108,0.308,1.627,0.533
	c0.117-0.503,0.236-1.006,0.352-1.509C48.355,119.241,46.852,118.397,45.443,117.826z"/>
<path fill="#B75978" d="M27.708,138.696c-0.856-4.389-0.276-9.779,2.849-13.845c0.83-1.08,1.696-1.964,2.609-2.675
	c-0.474,0.197-0.943,0.422-1.408,0.67c-0.012,0.01-0.024,0.017-0.036,0.026c-4.66,3.742-8.8,9.022-9.729,14.171
	C23.897,137.597,25.802,138.149,27.708,138.696z"/>
<path id="Shape_158_" fill="#E8A2B0" d="M246.73,189.583c-0.09-10.398-9.593-9.285-12.341-8.063
	c-0.003,0.058-0.01,0.116-0.013,0.175c-0.009,0.218-0.012,0.436-0.019,0.654c0.205,0.009,0.441,0.008,0.748-0.015
	c6.625-0.5,6.375,2,7.625,4.375s-1.375,5.875,0.875,6.125C247.355,193.083,246.73,189.583,246.73,189.583L246.73,189.583
	L246.73,189.583L246.73,189.583z"/>
<path id="Shape_157_" fill="#DD90A2" d="M246.73,189.583c-0.09-10.398-9.593-9.285-12.341-8.063
	c-0.003,0.058-0.01,0.116-0.013,0.175c-0.009,0.218-0.012,0.436-0.019,0.654c0.205,0.009,0.441,0.008,0.748-0.015
	c6.625-0.5,6.375,2,7.625,4.375c0.54,1.025,0.357,2.26,0.156,3.353c0.548,1.236,1.966,1.998,3.345,1.866
	C246.975,190.961,246.73,189.583,246.73,189.583L246.73,189.583L246.73,189.583L246.73,189.583z"/>
<path id="Shape_156_" fill="#CC7691" d="M242.81,177.512c-0.301-0.127-0.608-0.229-0.913-0.337
	c-2.135-0.591-4.526-1.032-6.946-1.263c-0.288,1.917-0.493,3.844-0.574,5.783c-0.007,0.166-0.009,0.333-0.015,0.499
	c0.055-0.008,0.104-0.02,0.16-0.028c11.113-1.63,12.082,6.745,12.16,8.626c0.026,0.075,0.045,0.153,0.071,0.229
	C248.25,187.737,248.342,181.352,242.81,177.512C242.81,177.512,248.342,181.352,242.81,177.512L242.81,177.512L242.81,177.512z"/>
<path id="Shape_155_" fill="#5B5A5C" d="M228.031,164.549c-0.006,0.002-0.01,0.007-0.016,0.009
	c-0.644-0.755-2.885-1.669-10.438,3.579c-8.234,5.72-7.497,7.945-6.987,8.549c-0.011,0.009-0.024,0.015-0.033,0.027l20.182,29.004
	c0,0,0.004-0.008,0.006-0.013c0.539,0.709,2.612,1.698,10.368-3.69c8.365-5.811,7.375-8.155,6.836-8.761L228.031,164.549
	L228.031,164.549L228.031,164.549L228.031,164.549z"/>
<rect id="Rectangle_28_" x="219.685" y="169.381" transform="matrix(-0.8213 0.5705 -0.5705 -0.8213 522.889 205.9728)" fill="#3F3F3F" width="19" height="31"/>
<rect id="Rectangle_13_" x="219.399" y="170.47" transform="matrix(-0.8213 0.5705 -0.5705 -0.8213 522.1338 205.3884)" fill="#737F83" width="19" height="28"/>
<rect id="Rectangle_12_" x="212.268" y="172.703" transform="matrix(-0.8213 0.5705 -0.5705 -0.8213 503.2889 190.7573)" fill="#8C989B" width="19" height="3"/>
<rect id="Rectangle_11_" x="230.119" y="199.499" transform="matrix(-0.8213 0.5705 -0.5705 -0.8213 537.1422 232.7442)" fill="#5B5A5C" width="4" height="2"/>
<rect id="Rectangle_10_" x="235.047" y="196.075" transform="matrix(-0.8213 0.5705 -0.5705 -0.8213 544.1637 223.6969)" fill="#5B5A5C" width="4" height="2"/>
<rect id="Rectangle_9_" x="239.974" y="192.652" transform="matrix(-0.8213 0.5705 -0.5705 -0.8213 551.1856 214.652)" fill="#5B5A5C" width="4" height="2"/>
<path id="Shape_153_" fill="#E8A2B0" d="M221.016,221.035c1.301-1.244,2.479-2.593,3.463-4.087
	c2.959-5.615,2.422-13.163,1.876-17.615c-0.997-8.129-0.125-12.375-0.125-12.375c-3.875,4.5,0.625,17.875-10,27.5
	s-32.625,0.625-32.625,0.625s-4.616-5.689-10.342-13.007c-0.625,1.328-1.085,1.78-1.908,3.007c-0.391,0.583-1.394-0.079-1-0.667
	c0.908-1.353,1.472-1.835,2.156-3.303c-8.388-10.746-18.77-24.513-20.656-29.155c-3.25-8-24.315,15.41-20.625,22.125
	c4.625,8.417,2.458,18.583,2.458,18.583L118.855,199.5c-2.25,19.542,11.333,25.5,11.333,25.5
	c-2.291,7.291-10.208,11.583-26.333,25.333s-16.6,20.708-14.667,35.5c1.917,14.667,11.75,22.042,11.5,21.667
	s-7.958-19.292-6.208-31.542s14-18.875,31.375-29.25c17.208-10.5,16.875-19.75,16.875-19.75c2,0.125,4.5-0.375,4.5-0.375
	c0.875,5.625-0.875,15-0.875,15c-3.875,19.625-22.75,16.75-22.75,16.75s-3,5.625,11.875,6s18.875-13.5,18.875-13.5
	c5.715-0.472,13.243-0.653,15.75-3.75c2.125-2.625,1-5.375-3.25-8.375s-9.25,0.875-9.25,0.875c0.75-5.5-0.5-15.75-0.5-15.75
	c3.875-1.125,7.25-4.375,7.25-4.375c5.125,3.625,7.25,6,21,9.5c8.963,2.282,20.501,0.128,29.492-3.791
	C216.969,223.889,219.166,222.804,221.016,221.035C221.016,221.035,219.166,222.804,221.016,221.035L221.016,221.035
	L221.016,221.035z"/>
<path id="Shape_152_" fill="#E9BAA9" d="M226.417,199.271c-0.997-8.129-0.125-12.375-0.125-12.375
	c-3.875,4.5,0.625,17.875-10,27.5s-32.625,0.625-32.625,0.625s-4.616-5.689-10.342-13.007c-0.625,1.328-1.085,1.78-1.908,3.007
	c-0.391,0.583-1.394-0.079-1-0.667c0.908-1.353,1.472-1.835,2.156-3.303c-8.388-10.746-18.77-24.513-20.656-29.155
	c-3.25-8-24.315,15.41-20.625,22.125c4.625,8.417,2.458,18.583,2.458,18.583l-14.833-13.167c-2.25,19.542,11.333,25.5,11.333,25.5
	c-2.292,7.292-10.208,11.583-26.333,25.333c-16.125,13.75-16.6,20.708-14.667,35.5c1.917,14.667,11.75,22.042,11.5,21.667
	s-7.958-19.292-6.208-31.542s14-18.875,31.375-29.25c16.75-10.104,16.917-19.646,16.917-19.646c0.405,0.025,0.718,0.046,1,0.061
	c0.619-0.045,1.24-0.073,1.86-0.089c0.413-0.075,0.909-0.189,1.64-0.368c0.875,5.625-0.917,14.917-0.917,14.917
	c-3.875,19.625-22.75,16.75-22.75,16.75s-3,5.625,11.875,6s18.875-13.5,18.875-13.5c5.715-0.472,13.243-0.653,15.75-3.75
	c2.125-2.625,1-5.375-3.25-8.375s-9.25,0.875-9.25,0.875c0.75-5.5-0.5-15.75-0.5-15.75c3.875-1.125,7.25-4.375,7.25-4.375
	c5.125,3.625,7.25,6,21,9.5c8.963,2.282,20.501,0.128,29.492-3.791c2.122-1.278,4.319-2.363,6.169-4.133
	c1.301-1.244,2.479-2.593,3.463-4.087C227.501,211.271,226.963,203.722,226.417,199.271
	C226.417,199.271,226.963,203.722,226.417,199.271L226.417,199.271L226.417,199.271z"/>
<path id="Shape_151_" fill="#DFA696" d="M188.855,228.008c-0.389-0.092-1.306-0.277-2.23-0.566
	c-0.889-0.192-1.776-0.41-2.662-0.684c-0.161-0.015-0.321-0.029-0.482-0.045c-0.19-0.018-0.324-0.116-0.41-0.243
	c-0.099-0.034-0.199-0.061-0.298-0.096c-0.016,1.551,0.064,0.331-0.101,1.873c0.844,0.232,1.734,0.468,2.685,0.71
	c4.709,1.199,10.018,1.17,15.37,0.319C196.727,229.199,192.73,228.922,188.855,228.008
	C188.855,228.008,192.73,228.922,188.855,228.008L188.855,228.008L188.855,228.008z"/>
<path id="Shape_150_" fill="#DFA696" d="M133.403,199.816c0.516-0.806,1.063-1.592,1.675-2.323
	c0.884-1.057,1.826-2.099,2.949-2.912c0.242-0.175,1.829-1.373,2.454-1.686s0.812-0.438,1.188-0.562
	c0.318,0.883,1.244,3.191,1.521,4.083c2.147-2.777,5.865-4.829,9.25-5c0.375,0.562,1.75,2.583,2.417,3.417
	c2.875,2.938,3.25,3.25,5.878,4.929c1.734-2.353,3.564-4.629,5.446-6.863c-6.609-8.697-12.898-17.43-14.324-20.941
	c-3.25-8-24.315,15.41-20.625,22.125C132.257,195.951,132.947,197.906,133.403,199.816
	C133.403,199.816,132.947,197.906,133.403,199.816L133.403,199.816L133.403,199.816z"/>
<path id="Shape_149_" fill="#DFA696" d="M157.222,224.877c-0.021-0.194-0.04-0.368-0.056-0.511
	c-0.121-0.102-0.245-0.194-0.365-0.313c-0.046-0.046-0.061-0.099-0.087-0.15c-1.8,0.74-3.688,1.289-5.597,1.735
	c-0.597,0.182-1.193,0.363-1.796,0.524c-0.687,0.183-1.383,0.422-2.087,0.461c0.861,5.629-0.88,14.959-0.88,14.959
	c-3.875,19.625-23.667,16.458-23.667,16.458s0.042,0.75,0.712,0.949c7.986,4.258,19.747-0.398,24.966-7.055
	c5.755-7.34,9.104-17.434,8.775-26.769C157.137,225.047,157.173,224.955,157.222,224.877
	C157.222,224.877,157.173,224.955,157.222,224.877L157.222,224.877L157.222,224.877z"/>
<path id="Shape_148_" fill="#DFA696" d="M167.98,237.677c-1.356-0.957-3.819-0.148-5.141-0.055
	c-3.883,2.087-8.166,8.802-6.211,13.024c9.802-1.097,11.448-0.909,13.571-3.531C172.324,244.489,172.23,240.677,167.98,237.677
	C167.98,237.677,172.23,240.677,167.98,237.677L167.98,237.677L167.98,237.677z"/>
<path id="Shape_147_" fill="#DFA696" d="M94.463,285.128c-1.254-7.919,0.122-16.637,4.35-23.532
	c4.641-7.568,11.938-10.746,19.943-13.746c4.668-1.749,9.238-3.703,13.295-6.644c2.83-2.052,5.278-4.352,7.741-6.81
	c2.5-3.562,2.99-6.505,3.042-7.396c-4.172,0.135-8.996-0.063-12.646-2c-2.477,7.018-10.55,11.875-26.333,25.333
	c-16.125,13.75-16.6,20.708-14.667,35.5c1.917,14.667,11.75,22.042,11.5,21.667c-0.181-0.271-4.177-10.191-5.811-20.342
	C94.717,286.486,94.571,285.811,94.463,285.128C94.463,285.128,94.571,285.811,94.463,285.128L94.463,285.128L94.463,285.128z"/>
<path id="Shape_146_" fill="#DFA696" d="M183.069,226.64c-0.883-0.112-1.762-0.244-2.61-0.529
	c-0.16-0.054-0.262-0.156-0.32-0.277c-1.168-0.36-2.252-0.834-3.136-1.785c-0.545-0.587-1.073-1.177-1.56-1.794
	c-1.844-1.994-2.437-4.891-2.563-7.899c-0.106-0.988-0.088-1.923-0.009-2.728c0.011-0.42,0.029-0.834,0.046-1.247
	c-0.668-2.228,0.756-4.024,2.694-5.315c-0.755-0.958-1.539-1.955-2.348-2.989c-0.276,0.586-0.564,1.164-0.864,1.737
	c0,0.007,0.003,0.012,0.003,0.019c-0.212,3.644-0.755,5.542-2.547,8.583c-1.292,1.792-2.375,3.375-3.625,4.833
	c-0.608,0.635-1.468,1.671-1.875,2.208c4.711,3.353,7.192,5.791,18.913,8.952C183.193,227.821,183.13,227.23,183.069,226.64
	C183.069,226.64,183.13,227.23,183.069,226.64L183.069,226.64L183.069,226.64z"/>
<path id="Shape_145_" fill="#E9BAA9" d="M193.579,182.305c-4.277-2.186-9.199-1.801-13.703-0.57
	c-0.128,0.035-0.236,0.016-0.333-0.022c-7.668,3.545-11.812,7.37-11.812,7.37l6.875,5.875c7.75-7.875,16.375-8.625,20.25-3
	s-3.25,13.125-3.25,13.125c10.651-2.276,9.368-11.972,7.885-17.076C198.013,185.699,196.235,183.662,193.579,182.305
	C193.579,182.305,196.235,183.662,193.579,182.305L193.579,182.305L193.579,182.305z"/>
<path id="Shape_144_" fill="#DFA696" d="M196.004,187.495c2.957,3.492,3.671,8.69,2.638,13.33
	c3.179-4.597,1.427-11.306,0.35-14.364c-3.792-4.27-9.664-6.543-15.631-6.359c-5.377,2.065-9.462,4.475-12.102,6.28
	c0.062,0.055,0.116,0.118,0.175,0.176C178.989,183.973,189.983,180.383,196.004,187.495
	C196.004,187.495,189.983,180.383,196.004,187.495L196.004,187.495L196.004,187.495z"/>
<path id="Shape_143_" fill="#E8A2B0" d="M239.123,181.017c-0.004-0.082-0.009-0.166-0.013-0.248
	c-4.048-0.203-7.529,1.83-4.004,1.564c1.813-0.137,3.099-0.043,4.053,0.205C239.147,182.031,239.147,181.524,239.123,181.017
	C239.123,181.017,239.147,181.524,239.123,181.017L239.123,181.017L239.123,181.017z"/>
<path id="Shape_142_" fill="#DD90A2" d="M239.123,181.017c-0.004-0.082-0.009-0.166-0.013-0.248
	c-4.048-0.203-7.529,1.83-4.004,1.564c1.813-0.137,3.099-0.043,4.053,0.205C239.147,182.031,239.147,181.524,239.123,181.017
	C239.123,181.017,239.147,181.524,239.123,181.017L239.123,181.017L239.123,181.017z"/>
<path id="Shape_141_" fill="#E9BAA9" d="M41.688,195.5c0,0,5.833-0.5,14.333,5s12.333,7.5,25.167,6.833
	c12.833-0.667,15.167-7.667,14.333-7.833c-0.833-0.167-18.5,0.667-26.667-3.167S51.022,191.166,41.688,195.5"/>
<path id="Shape_140_" fill="#DFA696" d="M43.529,195.578c7.349-2.104,12.576,1.63,20.076,6.005
	c4.346,2.535,8.625,3.625,15.5,3.75c3.887,0.071,8.278-0.551,12.156-0.546c4.019-2.256,4.796-5.18,4.261-5.287
	c-0.833-0.167-18.5,0.667-26.667-3.167c-8.167-3.833-17.833-5.167-27.167-0.833C41.688,195.5,42.349,195.448,43.529,195.578
	C43.529,195.578,42.349,195.448,43.529,195.578L43.529,195.578L43.529,195.578z"/>
<path id="Shape_139_" fill="#E9BAA9" d="M106.355,208.166c0,0-9.667,12.167-6.667,33.167
	s12.167,42.333,16.833,47.833c4.667,5.5,7.167,3.333,5-1.667s-14-32.167-12.167-57s13-29.5,13-29.5S122.522,187.333,106.355,208.166
	C106.355,208.166,122.522,187.333,106.355,208.166L106.355,208.166L106.355,208.166z"/>
<path id="Shape_138_" fill="#DFA696" d="M119.605,198.981c0.079-0.783,0.177-1.564,0.295-2.344
	c-2.13-0.331-6.105,1.942-13.546,11.53c0,0-4.294,5.415-6.269,15.244c0.782-0.835,1.595-1.61,2.572-2.289
	c2.83-1.966,5.867-3.404,9.078-4.355c1.968-6.59,4.685-10.554,6.878-12.86c0.088-1.467,0.256-2.931,0.36-4.407
	C119.001,199.129,119.318,198.96,119.605,198.981C119.605,198.981,119.318,198.96,119.605,198.981L119.605,198.981L119.605,198.981z
	"/>
<path id="Shape_137_" fill="#E9BAA9" d="M78.022,253.666c-1.119-4.813-5.166-5.94-6.747-5.254
	c1.011,1.68,1.914,3.376,2.564,5.113c1.126,2.075,1.342,4.698,0.683,9.641c-0.075,0.564-0.151,0.839-0.307,1.37
	c-0.359,1.391-1.078,2.596-1.984,3.672c-1.296,1.538-2.903,3.025-4.935,3.371c-1.502,0.254-2.982,0.476-4.502,0.379
	c-3.219-0.204-4.738-1.567-5.804-3.565c-0.715-0.862-1.227-1.919-1.525-3.052c-0.833-1.711-1.44-3.395-3.275-3.008
	c-0.75,0.158-1.241,0.535-1.564,1.012c-0.289,1.119-0.436,2.227-0.446,3.326c0.08,0.494,0.176,0.828,0.176,0.828
	c4.667,12.333,17.333,11.167,24.333,7C81.688,270.333,79.688,260.833,78.022,253.666C78.022,253.666,79.688,260.833,78.022,253.666
	L78.022,253.666L78.022,253.666z"/>
<path id="Shape_136_" fill="#DFA696" d="M78.022,253.666c-1.119-4.813-5.166-5.94-6.747-5.254
	c1.011,1.68,1.914,3.376,2.564,5.113c0.633,1.166,0.968,2.523,1.032,4.35c1.527,5.241-0.81,11.864-5.998,13.806
	c-3.715,1.39-7.687,1.482-11.102-0.755c-3.01-1.971-5.523-4.759-6.314-8.319c-0.354,0.191-0.631,0.441-0.832,0.739
	c-0.289,1.119-0.436,2.227-0.446,3.326c0.08,0.494,0.176,0.828,0.176,0.828c4.667,12.333,17.333,11.167,24.333,7
	C81.688,270.333,79.688,260.833,78.022,253.666C78.022,253.666,79.688,260.833,78.022,253.666L78.022,253.666L78.022,253.666z"/>
<path id="Shape_135_" fill="#DD90A2" d="M146.355,214.333c0,0,0.875-7.875,0-11.125
	c0,0,3.25,5.5,7,7.375C153.355,210.583,151.23,213.333,146.355,214.333C146.355,214.333,151.23,213.333,146.355,214.333
	L146.355,214.333L146.355,214.333z"/>
<path id="Shape_134_" fill="#E9BAA9" d="M166.043,248.021c0,0-2.875-1.688-2.562-4.25
	c0,0-2.917,1.667-1.333,4.271c1.583,2.604,0,0,0,0S164.23,248.645,166.043,248.021"/>
<path id="Shape_133_" fill="#E9BAA9" d="M120.522,30c0,0-15-6.667-21.333,4.333
	c-6.334,11-1.334,21-10.334,23.667c0,0,14,7,28-1.333C130.855,48.333,120.522,30,120.522,30L120.522,30L120.522,30L120.522,30z"/>
<path id="Shape_132_" fill="#DFA696" d="M120.522,30c0,0-2.221-0.982-5.311-1.569
	c-3.017,5.214-4.328,12.164-4.356,17.778c-0.021,4.119,0.5,8.625,1.556,12.61c1.471-0.566,2.957-1.266,4.444-2.152
	C130.855,48.333,120.522,30,120.522,30L120.522,30L120.522,30L120.522,30z"/>
<ellipse id="Oval_112_" transform="matrix(0.9161 0.4009 -0.4009 0.9161 96.5874 -62.0976)" fill="#FECDC5" cx="196.69" cy="199.768" rx="0.836" ry="1.661">
</ellipse>
<ellipse id="Oval_55_" transform="matrix(0.728 0.6856 -0.6856 0.728 192.4719 -77.7822)" fill="#FECDC5" cx="194.259" cy="203.666" rx="0.836" ry="1.661">
</ellipse>
<path id="Shape_131_" fill="#CC7691" d="M239.123,181.017c-0.072-1.487-0.185-3.008-0.103-4.504
	c-5.004-0.982-10.74-1.157-14.91,0.218c-1.206,0.599-2.329,1.377-3.388,2.32c-3.898,4.797-4.435,12.538-3.033,19.449
	c1.27,6.258,1.346,9.502-0.372,11.914c-0.551,1.075-1.364,2.034-2.321,2.784c-1.626,1.517-3.789,2.63-6.069,3.262
	c-1.023,0.283-2.09,0.474-3.18,0.597c-9.397,2.036-21.725-4.39-21.725-4.39l-0.038,0.067c-0.397-1.677-0.831-3.367-1.295-5.067
	c-1.828-6.702-7.563-13.582-12.628-18.63c0.727-0.9,1.485-1.664,2.295-2.203c5.5-3.667,18-8.833,23.5-1.667s3,16.333-3,18.667
	c-3.167,1.5-4.5,3.333-3.5,4.167c1,0.833,5.667,0.333,9.833-4.333c3.558-3.985,5.697-10.462,1.946-17.198
	c-2.848-3.491-5.951-7.196-10.49-7.928c-7.414-1.195-15.227,0.668-21.509,5.849c-0.642,0.637-1.234,1.323-1.787,2.047
	c-0.802-0.74-1.553-1.408-2.24-2.007c-3.316-2.784-5.483-5.223-5.866-9.167c-0.137-1.866-0.147-3.394-0.137-4.991
	c0.014-2.19,0.188-4.25,0.445-6.405c0.562-8.627,0.808-17.341,3.439-25.622c0.113-0.798,0.209-1.431,0.274-1.845
	c4.12-3.954,5.024-9.259,4.218-13.969c0.232,0.035,0.464,0.071,0.706,0.071c2.577,0,4.667-2.089,4.667-4.667
	c0-2.578-2.089-4.667-4.667-4.667c-1.447,0-2.725,0.673-3.581,1.707c0.111-4.139,0.248-11.117,0.321-14.949
	c2.649-0.45,4.259-0.758,4.259-0.758s4.833-7-1.833-10.5c0,0,3.833-12.167-8.833-25.833c-10.333-11.503-9.666-18.67-9.666-18.67
	s11-2.167,16.333-11c5.333-8.833,7-17.667-3.333-25.833c-10.333-8.166-17.5-4-26.333,1.167c-8.833,5.167-25,21-20,54.5
	c2.5,14.5,4.5,20.833,6.167,24.667c0,0-8.833,4.167-4.167,12.333c0.834,1.459,3.022,2.367,6.048,2.88l-0.267,14.607
	c-0.886-1.006-2.168-1.654-3.614-1.654c-2.669,0-4.833,2.164-4.833,4.833s2.164,4.833,4.833,4.833c0.268,0,0.526-0.037,0.783-0.079
	c0.014,1.779,0.354,5.188,2.438,8.487c0.127,2.454,0.362,9.472-0.56,15.995c-0.149,7.097-0.722,14.236-2.947,20.947
	c-0.237,0.86-0.523,1.704-0.858,2.531c-0.443,1.737-1.05,3.355-2.293,4.733c-0.524,0.58-1.077,1.126-1.631,1.67
	c-1.764,2.141-5.903,6.974-10.526,11.035c-2.954,3.549-7.784,5.173-12.233,5.763c-2.854,0.378-5.519,0.693-8.065,0.494
	c-2.231,0.136-4.492,0.005-6.68-0.312c-6.294-0.912-11.339-3.396-17.021-6.061c-6.984-3.275-15.011-2.519-22.228-0.487
	c-3.339,0.94-6.429,2.072-8.716,4.869c-1.308,1.6-2.062,3.417-2.545,5.333c-0.076,0.733-0.115,1.508-0.121,2.324
	c2.229-0.317,4.514-0.343,6.807-0.224c0.718-2.817,2.872-5.09,6.308-6.015c0.294-0.12,0.598-0.233,0.925-0.336
	c9-2.833,14.167-3.167,28,1.833c9.167,3.667,23.5,2.5,23.5,2.5s0.021-0.003,0.037-0.005c-0.236,0.113-0.466,0.224-0.704,0.338
	c0,0-12.813,3.793-22.715,9.425c-0.071,0.058-0.186,0.115-0.316,0.171c-1.905,1.613-3.522,3.489-4.92,5.534
	c-0.833,1.812-1.422,3.732-1.715,5.715c-0.799,5.413,0.861,11.266,3.221,16.241c2.205,4.648,5.891,9.057,8.111,13.699
	c2.459,4.091,3.959,7.352,3.959,11.216c0,5.667-2.724,11.747-8.875,12.875c-7.5,1.375-14.185-0.689-17.889-9.755
	c-0.058,0.992-0.016,1.978,0.112,2.96c0.589,2.787,2.245,6.554,6.86,8.419c7.367,2.978,13.849,3.005,19.586-2.132
	c4.282-3.664,5.063-8.341,5.172-10.572c0.385-2.737,0.426-5.501,0.233-8.001c-0.374-4.864-1.93-8.966-4.503-13.109
	c-1.698-2.734-4.217-5.207-5.468-8.213c-1.441-2.036-2.227-4.16-1.855-7.14c1-8,9.667-7.833,15.833-10.167
	c6.167-2.333,26.833-10,32.667-18.5c0,0,0.333,10.667,12.167,16c11.833,5.333,22.833,1.167,27.667-5.333
	c2.062-2.773,3.85-6.758,5.651-10.702c2.242,1.908,4.44,3.886,6.349,6.202c7.833,9.5,8.167,22.333,6.667,28.667
	c-1.343,5.668-4.542,8.884-5.208,9.458c-0.348,0.351-0.618,0.694-0.846,1.03c-1.416,1.42-4.633,4.142-8.097,3.745
	c-0.058,0.02-0.12,0.033-0.192,0.032c-2.256-0.041-4.902-1.491-5.056-4.034c-0.097-1.603,0.478-3.831,2.086-4.519
	c0.387-0.736,0.98-1.355,1.945-1.854c2.074-1.071,4.827-2.315,6.494,0.083c0.164,0.236,0.322,0.482,0.474,0.732
	c1.335,1.335,2.029,3.393,1.651,5.167c0.136-0.226,0.262-0.461,0.376-0.703c-0.059-0.147-0.06-0.32,0.026-0.476
	c0.205-0.375,0.428-0.719,0.664-1.053c-2.196-9.974-10.702-6.622-13.15-4.609c-2.394,1.969-11.5,12,1,18.667
	c0.937,0.5,1.827,0.892,2.685,1.206c-0.935,1.083-3.788,4.215-5.851,4.628c-2.5,0.5,0.5,3.167,3.333,2.167
	c2.328-0.822,6.227-4.443,8.563-7.016c6.605-0.979,10.601-7.115,14.604-14.15c4.023-7.071,3.859-15.904,2.205-24.98
	c4.667,2.244,14.186,5.488,24.795,1.48c15-5.667,15.667-18.5,15.667-21.833c0-3.333-3.5-13.5,9-15.333
	c1.795-0.263,3.322-0.263,4.626-0.073C239.138,181.734,239.14,181.375,239.123,181.017
	C239.123,181.017,239.14,181.375,239.123,181.017L239.123,181.017L239.123,181.017z M145.48,213.958
	c-12.625,2-16.375-6.875-15.5-15.625s15-19.375,19.625-24.375c0,0-1.375,14.875,11.5,22.75
	C161.105,196.708,158.105,211.958,145.48,213.958C145.48,213.958,158.105,211.958,145.48,213.958L145.48,213.958L145.48,213.958z"/>
<path id="Shape_130_" fill="#B95B79" d="M168.883,198.853c-0.402,1.196-0.811,2.389-1.22,3.583
	c1.059,1.016,2.078,2.081,3.026,3.23c2.242,2.719,3.646,4.257,4.792,7.292c0.947-2.779,1.363-4.246,1.88-7.209
	c0.349-2.001,1.197-3.685,1.942-5.464c-2.032-3.263-4.612-6.381-7.179-9.118C170.681,193.545,169.768,196.22,168.883,198.853
	C168.883,198.853,169.768,196.22,168.883,198.853L168.883,198.853L168.883,198.853z"/>
<path id="Shape_129_" fill="#B95B79" d="M100.105,211.083c0,0-8.25,23.5,1.25,49.75
	s16.25,32.75,19.5,31.5c0,0-3.833-0.667-9.167-12c-5.333-11.333-13-34.667-11.333-48.5s3.833-19.167,8.167-25.5L100.105,211.083
	L100.105,211.083L100.105,211.083L100.105,211.083z"/>
<path id="Shape_128_" fill="#B95B79" d="M90.688,290.333c-3.089-12.355-1.237-25.648,9.218-34.493
	c0.497-0.505,1.007-1.004,1.515-1.504c-0.472-1.386-0.879-2.784-1.081-4.233c-7.017,6.274-12.901,15.56-13.985,25.564
	c-1.5,13.833,2,24.667,7.667,30.333c5.667,5.667,7.5,3.833,6.667,1.5C100.688,307.5,93.855,303,90.688,290.333
	C90.688,290.333,93.855,303,90.688,290.333L90.688,290.333L90.688,290.333z"/>
<path id="Shape_127_" fill="#B95B79" d="M109.824,246.442c2.787-2.54,5.619-5.094,8.281-7.693
	c-0.763,0.411-1.742,1.242-2.519,1.628c-1.987,1.335-4.14,2.555-6.064,3.539C109.6,244.776,109.714,245.521,109.824,246.442
	C109.824,246.442,109.714,245.521,109.824,246.442L109.824,246.442L109.824,246.442z"/>
<path id="Shape_126_" fill="#B95B79" d="M161.23,235.875c-0.011-6.968-1.516-12.077-1.818-13.033
	c-0.383,0.245-0.863,0.327-1.307,0.486c-0.23,0.082-0.459,0.166-0.688,0.25l-0.895,0.421c0.316,1.263,0.558,2.509,0.671,4.183
	c0.573,3.272,0.753,6.575,0.539,9.875C158.561,237.282,160.076,236.347,161.23,235.875
	C161.23,235.875,160.076,236.347,161.23,235.875L161.23,235.875L161.23,235.875z"/>
<path id="Shape_125_" fill="#B95B79" d="M156.73,252.708c-0.731-0.357-1.469-0.764-2.065-1.277
	c-0.173-0.09-0.351-0.168-0.533-0.237c-0.913,2.882-2.679,5.396-4.971,7.4c-2.129,2.416-4.858,4.069-8.473,4.739
	c-8.565,1.586-14.558,0.445-17.847-5.127c-1.13,1.067-2.413,1.984-3.762,2.797c1.562,2.463,3.681,4.591,5.943,5.83
	c7,3.833,25.208,3,32.083-12.5C157.133,254.271,156.698,252.768,156.73,252.708C156.73,252.708,156.698,252.768,156.73,252.708
	L156.73,252.708L156.73,252.708z"/>
<ellipse id="Oval_54_" transform="matrix(-0.09 -0.9959 0.9959 -0.09 33.0669 243.7703)" fill="#FFFFFF" cx="127.9" cy="106.778" rx="11.449" ry="12.051"/>
<ellipse id="Oval_53_" transform="matrix(0.1161 -0.9932 0.9932 0.1161 34.7813 251.8141)" fill="#FFFFFF" cx="158.873" cy="106.365" rx="11.132" ry="11.717"/>
<path id="Shape_122_" fill="#3A3A3A" d="M138.062,104.763c-0.485,1.473-1.857,2.544-3.493,2.544
	c-1.868,0-3.396-1.392-3.643-3.193c-1.891,0.987-3.169,2.854-3.169,4.999c0,3.173,2.793,5.745,6.238,5.745s6.238-2.572,6.238-5.745
	C140.232,107.373,139.389,105.817,138.062,104.763C138.062,104.763,139.389,105.817,138.062,104.763L138.062,104.763
	L138.062,104.763z"/>
<path id="Shape_121_" fill="#3A3A3A" d="M156.814,104.072c-0.115,1.551-1.19,2.925-2.782,3.321
	c-1.818,0.452-3.642-0.532-4.317-2.224c-1.601,1.418-2.392,3.544-1.873,5.63c0.768,3.087,4.108,4.913,7.46,4.079
	c3.352-0.834,5.446-4.013,4.678-7.1C159.557,106.086,158.36,104.776,156.814,104.072
	C156.814,104.072,158.36,104.776,156.814,104.072L156.814,104.072L156.814,104.072z"/>
<path fill="#3A3A3A" d="M174.729,98.916c0,0-1.756,2.54-4.716,1.64c-0.138-0.227-0.277-0.454-0.43-0.673
	c0.703-0.287,2.641-1.364,2.593-4.527c0,0-1.042,2.85-4.072,2.778c-0.195-0.191-0.403-0.371-0.611-0.551
	c0.599-0.393,2.351-1.837,1.645-4.982c0,0-0.452,3.138-3.61,3.587c-1.512-0.874-3.229-1.473-5.092-1.69
	c-4.368-0.511-8.462,1.145-11.105,4.081c-4.877-2.43-9.865-0.645-11.402,0.025c-2.573-2.858-6.516-4.524-10.778-4.139
	c-1.997,0.18-3.838,0.802-5.448,1.736c-3.22-0.413-3.676-3.6-3.676-3.6c-0.726,3.237,1.151,4.673,1.696,5.014
	c-0.193,0.168-0.383,0.338-0.565,0.516c-3.106,0.137-4.169-2.775-4.169-2.775c-0.049,3.283,2.038,4.318,2.664,4.554
	c-0.14,0.202-0.274,0.407-0.401,0.617c-3.021,0.989-4.815-1.612-4.815-1.612c0.805,3.293,3.215,3.694,3.791,3.743
	c-0.565,1.558-0.814,3.244-0.656,4.985c0.601,6.645,6.759,11.521,13.755,10.888c6.996-0.632,12.18-6.533,11.579-13.178
	c-0.164-1.814-0.754-3.489-1.651-4.964c5.248-1.485,7.796-0.334,8.617,0.205c-0.767,1.33-1.284,2.821-1.472,4.428
	c-0.775,6.628,4.253,12.662,11.23,13.477c6.977,0.816,13.26-3.896,14.035-10.524c0.217-1.858-0.035-3.664-0.645-5.326
	C171.712,102.572,173.957,102.076,174.729,98.916z M129.058,115.767c-5.188,0.469-9.782-3.487-10.227-8.416
	c-0.445-4.929,3.412-9.321,8.601-9.79c5.188-0.469,9.772,3.16,10.218,8.089C138.096,110.579,134.246,115.298,129.058,115.767z
	 M168.418,107.597c-0.575,4.916-5.309,8.745-10.484,8.14c-5.174-0.605-8.859-5.418-8.284-10.334
	c0.575-4.916,5.252-8.423,10.426-7.818C165.25,98.19,168.993,102.681,168.418,107.597z"/>
<path id="Shape_113_" fill="#B95B79" d="M149.834,165.919c-0.951,1.86-2.377,3.524-3.631,5.19
	c-2.767,3.674-6,6.973-8.957,10.489c-4.136,4.917-9.541,11.185-10.386,17.864c0.111,1.799,0.469,3.599,1.121,5.371
	c3.125,8.5,9.875,9.375,12.5,9.375c0,0-12-0.75-10.375-15.625c1-8.25,14.562-19.812,19.438-24.312
	C149.543,174.271,149.293,172.395,149.834,165.919C149.834,165.919,149.293,172.395,149.834,165.919L149.834,165.919
	L149.834,165.919z"/>
<path id="Shape_112_" fill="#B85B7A" d="M136.325,167.848c-0.555,0.612-1.109,1.21-1.667,1.798
	c-1.604,2.091-3.248,4.15-5.108,6.073c-1.255,1.297-2.493,2.6-3.711,3.917c-1.067,1.377-2.054,2.809-2.986,4.278
	c-2.915,4.501-4.331,9.918-7.295,13.103c-2.614,2.808-5.978,5.164-9.531,6.771c-3.965,2.654-8.938,5.156-14.796,7.419
	c-11,4.25-17.125,5.25-20.875,10.375c-2.167,5.083,0.167,10.667,0.167,10.667c-0.75-10.75,11.083-11.417,18.833-15.042
	c27.375-11.125,29.375-17.375,29.375-17.375c0-10,6.75-19,12.125-24.5c2.679-2.742,5.293-6.287,7.244-9.157
	C137.504,166.789,136.773,167.354,136.325,167.848C136.325,167.848,136.773,167.354,136.325,167.848L136.325,167.848
	L136.325,167.848z"/>
<path id="Shape_111_" fill="#B95B79" d="M94.121,196.183c-3.398,2.005-6.465,3.219-10.292,4.124
	c-0.363,0.122-0.726,0.235-1.091,0.338c5.405,0.15,9.321-0.15,9.321-0.15s6.345-2.807,9.854-7.587
	C99.661,194.585,96.888,195.598,94.121,196.183C94.121,196.183,96.888,195.598,94.121,196.183L94.121,196.183L94.121,196.183z"/>
<path id="Shape_110_" fill="#B95B79" d="M26.552,202.731c0.014-1.042,0.096-2.081,0.263-3.099
	c-0.125,0.419-0.235,0.843-0.332,1.272c-0.099,0.649-0.175,1.269-0.238,1.874C26.347,202.762,26.449,202.746,26.552,202.731
	C26.552,202.731,26.449,202.746,26.552,202.731L26.552,202.731L26.552,202.731z"/>
<path id="Shape_109_" fill="#B95B79" d="M162.036,194.525c-8.243-5.128-11.681-12.942-11.681-12.942
	c0.673,5.497,2.875,9.391,10.725,15.733C161.334,196.356,161.627,195.414,162.036,194.525
	C162.036,194.525,161.627,195.414,162.036,194.525L162.036,194.525L162.036,194.525z"/>
<path id="Shape_108_" fill="#B95B79" d="M165.86,196.724c-0.499,1.049-1.008,2.092-1.594,3.088
	c16.42,12.752,13.464,31.896,13.464,31.896C181.487,216.094,174.768,202.466,165.86,196.724
	C165.86,196.724,174.768,202.466,165.86,196.724L165.86,196.724L165.86,196.724z"/>
<path id="Shape_107_" fill="#B95B79" d="M168.855,236.427c-4.125-3.125-10.062,2-12.062,5.75
	c-1.463,2.743,0.299,5.148,3.25,6.531c2.496,0.849,5.292,0.229,7.604-1.083c-2.083,0.625-3.977,0.812-5.5,0.417
	c-1.795-0.187-3.381-1.845-3.458-3.417c-0.143-2.887,2.208-4.917,4.517-6.106c2.733-1.269,6.695-1.992,7.462,6.783
	c-0.001,0.001,0.021,0.134,0.021,0.135c0.086-0.08,0.458-0.479,0.688-0.708c0.708-0.75,0.854-0.938,0.854-0.938
	S172.98,239.552,168.855,236.427C168.855,236.427,172.98,239.552,168.855,236.427L168.855,236.427L168.855,236.427z"/>
<path id="Shape_106_" fill="#B95B79" d="M135.605,131.458c0,0,8.375,3.875,18.125,0.375
	C153.73,131.833,147.73,141.083,135.605,131.458C135.605,131.458,147.73,141.083,135.605,131.458L135.605,131.458L135.605,131.458z"
	/>
<path id="Shape_105_" fill="#B75978" d="M131.225,84.28c-3.334-0.538-6.912,0.182-10.234,1.589
	l0.697,1.797c0,0,10.542-1.958,16.042,0.667C137.73,88.333,136.228,85.707,131.225,84.28
	C131.225,84.28,136.228,85.707,131.225,84.28L131.225,84.28L131.225,84.28z"/>
<path id="Shape_104_" fill="#B75978" d="M150.972,87.121c-1.157,0.92-1.492,1.712-1.492,1.712
	c10.062-3.938,17.875-0.167,17.875-0.167c0.262-0.585,0.389-1.883,0.449-2.834C162.532,83.583,156.04,84.178,150.972,87.121
	C150.972,87.121,156.04,84.178,150.972,87.121L150.972,87.121L150.972,87.121z"/>
<path id="Shape_103_" fill="#B95B79" d="M239.123,181.017c-0.03-0.628-0.067-1.263-0.097-1.9
	c-2.044-0.238-4.596-0.099-7.796,0.591c-9.125,1.875-9.5,8.75-9.125,16.75s-3.583,19.708-16.375,20.625
	c-0.114,0.008-0.218,0.004-0.331,0.01c-1.834,0.18-3.736,0.151-5.643-0.056c-10.88-0.798-16.026-5.454-16.026-5.454l1.25,6.375
	c0,0,4.662,2.704,11.091,3.485c2.243,0.223,4.076,0.348,6.385,0.318c4.42-0.089,10.041-0.775,13.9-3.302
	c5.494-3.6,8.113-10.428,9.061-16.245c0.02-0.086,0.044-0.168,0.064-0.255c2-9-3.5-16.75,7.125-19.125
	c2.629-0.588,4.783-0.624,6.553-0.298C239.147,182.029,239.147,181.523,239.123,181.017
	C239.123,181.017,239.147,181.523,239.123,181.017L239.123,181.017L239.123,181.017z"/>
<path id="Shape_102_" fill="#E9BAA9" d="M179.855,187.208c-1.851,1.174-3.159,1.791-4.128,2.244
	c-0.531-1.814-1.622-3.401-3.872-2.244c-4.375,2.25-10.5,18.625-10.5,18.625s-4.554,18.22-0.375,16.25s9.625-6.875,10.875-13.875
	c0.622-3.485,1.709-7.248,2.644-10.149c1.189-2.59,3.818-7.108,8.356-8.976l6.375-2.625
	C189.23,186.458,184.98,183.958,179.855,187.208C179.855,187.208,184.98,183.958,179.855,187.208L179.855,187.208L179.855,187.208z"
	/>
<path id="Shape_101_" fill="#B95B79" d="M168.793,253.771c-2.985,0.697-5.949,0.371-8.446-0.267
	c-2.876-0.859-6.348-2.562-7.242-5.858c0,0,0.025,7.687,8.478,9.424c0.387,0.099-1.353-0.362-1.353-0.362
	c-1.086,1.31-2.562,3.375-4.125,3.625s-2.562,3.375,1.5,4.062c4.062,0.687,10.188-6.812,10.188-6.812
	C174.855,257.75,182.189,244,182.189,244S176.293,252.021,168.793,253.771C168.793,253.771,176.293,252.021,168.793,253.771
	L168.793,253.771L168.793,253.771z"/>
<path id="Shape_100_" fill="none" d="M149.605,173.958c-4.625,5-18.75,15.625-19.625,24.375
	s2.875,17.625,15.5,15.625s15.625-17.25,15.625-17.25C148.23,188.833,149.605,173.958,149.605,173.958L149.605,173.958
	L149.605,173.958L149.605,173.958z"/>
<path id="Shape_99_" fill="#E9BAA9" d="M151.688,72c0,0-7.458-7.167-19.083-3.792
	c-10.375,3-9.583,11.625-9.583,11.625S128.522,69.666,151.688,72C151.688,72,128.522,69.666,151.688,72L151.688,72L151.688,72z"/>
<path id="Shape_98_" fill="#E9BAA9" d="M141.105,54.958c0,0-6.949-6.441-16.25-2.75
	c-7.875,3.125-5.5,11.125-5.5,11.125S124.105,52.083,141.105,54.958C141.105,54.958,124.105,52.083,141.105,54.958L141.105,54.958
	L141.105,54.958z"/>
<path id="Shape_97_" fill="#E9BAA9" d="M135.98,41.958c0,0-5.625-6.375-15-3.375
	c-6.375,2-4.875,9.125-4.875,9.125C116.48,47.833,120.48,39.833,135.98,41.958C135.98,41.958,120.48,39.833,135.98,41.958
	L135.98,41.958L135.98,41.958z"/>
<path id="Shape_96_" fill="#E9BAA9" d="M133.688,29.833c0,0-4.664-5.165-14.258-2.842
	c-0.606,1.318-1.167,2.715-1.683,4.181C124.054,28.46,133.688,29.833,133.688,29.833L133.688,29.833L133.688,29.833L133.688,29.833z
	"/>
<path id="Shape_95_" fill="#E8A2B0" d="M133.105,18.5c0,0-1.002-4.14-4.899-4.251
	c-0.844,0.847-1.69,1.773-2.526,2.777C130.355,16.986,133.105,18.5,133.105,18.5L133.105,18.5L133.105,18.5L133.105,18.5z"/>
<path id="Shape_94_" fill="#E8A2B0" d="M161.605,26.416c0,0,3.793,0.557,6.771,0.12
	c0.838-2.479,1.218-4.945,0.954-7.383C168.729,21.07,166.603,26.074,161.605,26.416C161.605,26.416,166.603,26.074,161.605,26.416
	L161.605,26.416L161.605,26.416z"/>
<path id="Shape_93_" fill="#E8A2B0" d="M154.022,33.166c0,0,2.178,3.982,6.029,5.708
	c1.576-1.233,3.089-2.732,4.368-4.542C163.261,34.665,158.517,35.777,154.022,33.166C154.022,33.166,158.517,35.777,154.022,33.166
	L154.022,33.166L154.022,33.166z"/>
<path id="Shape_92_" fill="#B75978" d="M148.855,44.25c0,0-1.5-18.229,3.083-23.5c0,0-4,10.25,3,21.25
	C154.938,42,152.397,43.291,148.855,44.25C148.855,44.25,152.397,43.291,148.855,44.25L148.855,44.25L148.855,44.25z"/>
<path id="Shape_91_" fill="none" d="M149.605,173.958c-4.625,5-18.75,15.625-19.625,24.375
	s2.875,17.625,15.5,15.625s15.625-17.25,15.625-17.25C148.23,188.833,149.605,173.958,149.605,173.958L149.605,173.958
	L149.605,173.958L149.605,173.958z"/>
<path id="Shape_90_" fill="#3A3A3A" d="M150.917,121.166c0,0,0.896,0.242,1.896,0.75l0.042,0.208
	c0,0.692-0.414,0.986-0.698,1.114c-0.856,0.364-4.397,1.202-9.344,0.303c0,0,3.245,2.182,8.589,1.151c0,0,0.457-0.078,0.887-0.273
	c0.242-0.096,0.473-0.207,0.682-0.348c0.111-0.066,0.218-0.157,0.322-0.261c0.024-0.029,0.055-0.051,0.079-0.082l-0.003-0.002
	c0.246-0.275,0.452-0.666,0.527-1.269c0.573,0.419,1.143,0.876,1.552,1.646C155.449,124.104,155.188,119.958,150.917,121.166
	C150.917,121.166,155.188,119.958,150.917,121.166L150.917,121.166L150.917,121.166z"/>
<ellipse id="Oval_52_" transform="matrix(-0.1896 -0.9819 0.9819 -0.1896 -40.964 409.4003)" fill="#FECDC5" cx="148.473" cy="221.606" rx="2.877" ry="3.237">
</ellipse>
<ellipse id="Oval_51_" transform="matrix(-0.9956 0.0938 -0.0938 -0.9956 325.9315 445.7961)" fill="#E9BAA9" cx="152.489" cy="230.558" rx="2.877" ry="3.237">
</ellipse>
<ellipse id="Oval_50_" transform="matrix(-0.5115 0.8593 -0.8593 -0.5115 448.9037 181.5227)" fill="#E9BAA9" cx="172.854" cy="218.363" rx="3.412" ry="3.838">
</ellipse>
<ellipse id="Oval_49_" transform="matrix(-0.9949 -0.1007 0.1007 -0.9949 279.8802 493.0068)" fill="#E9BAA9" cx="152.383" cy="239.439" rx="2.981" ry="3.354">
</ellipse>
<ellipse id="Oval_48_" transform="matrix(-0.9409 -0.3387 0.3387 -0.9409 206.9836 532.7115)" fill="#E9BAA9" cx="149.973" cy="248.296" rx="2.981" ry="3.354">
</ellipse>
<ellipse id="Oval_47_" transform="matrix(-0.7045 -0.7097 0.7097 -0.7045 65.588 538.1804)" fill="#E9BAA9" cx="144.835" cy="255.436" rx="2.981" ry="3.354">
</ellipse>
<ellipse id="Oval_46_" transform="matrix(-0.2921 -0.9564 0.9564 -0.2921 -71.2988 466.8241)" fill="#E9BAA9" cx="137.118" cy="259.799" rx="2.59" ry="2.913">
</ellipse>
<ellipse id="Oval_45_" transform="matrix(0.0378 -0.9993 0.9993 0.0378 -136.0365 380.7962)" fill="#E9BAA9" cx="129.718" cy="261.038" rx="2.219" ry="2.601">
</ellipse>
<ellipse id="Oval_44_" transform="matrix(0.0724 -0.9974 0.9974 0.0724 -92.6477 345.5639)" fill="#FECDC5" cx="139.455" cy="222.59" rx="2.877" ry="3.237">
</ellipse>
<ellipse id="Oval_43_" transform="matrix(0.4057 -0.914 0.914 0.4057 -123.9012 250.334)" fill="#FECDC5" cx="130.551" cy="220.444" rx="2.784" ry="3.142">
</ellipse>
<ellipse id="Oval_42_" transform="matrix(0.7068 -0.7074 0.7074 0.7068 -115.8549 150.9792)" fill="#FECDC5" cx="124.211" cy="215.255" rx="2.298" ry="2.655">
</ellipse>
<path id="Shape_89_" fill="#FECDC5" d="M120.966,211.868c0.814-0.648,0.802-1.979,0.097-3.16
	c-0.583-0.978-1.394-1.582-2.266-1.502c0,0,0.202,2.517,0.98,4.891C120.126,212.166,120.501,212.104,120.966,211.868
	C120.966,211.868,120.501,212.104,120.966,211.868L120.966,211.868L120.966,211.868z"/>
<ellipse id="Oval_41_" transform="matrix(-0.5778 -0.8162 0.8162 -0.5778 71.1411 472.6382)" fill="#FECDC5" cx="157.818" cy="217.919" rx="3.031" ry="3.418">
</ellipse>
<ellipse id="Oval_40_" transform="matrix(-0.8507 -0.5257 0.5257 -0.8507 193.8986 477.0992)" fill="#FECDC5" cx="164.71" cy="211.011" rx="3.163" ry="3.566">
</ellipse>
<ellipse id="Oval_39_" transform="matrix(0.1999 -0.9798 0.9798 0.1999 -67.8854 366.8819)" fill="#FECDC5" cx="190.703" cy="225.008" rx="2.859" ry="3.224">
</ellipse>
<ellipse id="Oval_38_" transform="matrix(-0.075 -0.9972 0.9972 -0.075 -10.1237 442.3004)" fill="#FECDC5" cx="200.08" cy="225.846" rx="2.558" ry="2.894">
</ellipse>
<path id="Shape_88_" fill="#FECDC5" d="M211.022,226.708c0.276-0.482,0.421-1.147,0.318-1.708
	c-0.255-1.389-1.736-2.282-3.308-1.994c-1.572,0.288-2.641,1.648-2.386,3.037c0.145,0.79,0.771,1.489,1.501,1.831
	C208.709,227.458,209.417,227.271,211.022,226.708C211.022,226.708,209.417,227.271,211.022,226.708L211.022,226.708
	L211.022,226.708z"/>
<path id="Shape_87_" fill="#FECDC5" d="M214.312,225.38c1.643-0.639,3.305-1.658,4.728-2.737
	c-0.033-0.169-0.085-0.335-0.158-0.497c-0.58-1.288-2.232-1.8-3.689-1.144c-1.458,0.656-2.169,2.232-1.589,3.52
	C213.762,224.876,214.016,225.154,214.312,225.38C214.312,225.38,214.016,225.154,214.312,225.38L214.312,225.38L214.312,225.38z"/>
<path id="Shape_86_" fill="#FECDC5" d="M224.574,216.786c-0.128-0.199-0.251-0.354-0.441-0.509
	c-1.095-0.892-2.802-0.61-3.811,0.629c-1.009,1.24-0.94,2.968,0.156,3.859c0.157,0.128,0.328,0.225,0.506,0.305
	C222.355,219.666,223.49,218.849,224.574,216.786C224.574,216.786,223.49,218.849,224.574,216.786L224.574,216.786L224.574,216.786z
	"/>
<path id="Shape_85_" fill="#FECDC5" d="M226.311,211.827c0.162-0.909,0.247-1.932,0.341-2.822
	c-1.07,0.057-2.054,0.857-2.458,2.053c-0.483,1.429,0.142,2.918,1.333,3.463C225.852,213.636,226.149,212.735,226.311,211.827
	C226.311,211.827,226.149,212.735,226.311,211.827L226.311,211.827L226.311,211.827z"/>
<path id="Shape_84_" fill="#FECDC5" d="M226.683,202.88c-0.387,0.455-0.627,0.991-0.694,1.659
	c-0.092,0.92,0.231,1.817,0.772,2.403C226.855,205.474,226.949,204.317,226.683,202.88
	C226.683,202.88,226.949,204.317,226.683,202.88L226.683,202.88L226.683,202.88z"/>
<path id="Shape_83_" fill="#E9BAA9" d="M145.917,177.583c-0.948,0.823-1.93,1.78-2.844,2.641
	c-0.606,0.571-1.281,1.267-1.953,1.922c0.751,0.739,2.01,1.211,3.093,0.987c1.753-0.363,2.869-2.132,2.492-3.95
	C146.591,178.624,146.249,177.994,145.917,177.583C145.917,177.583,146.249,177.994,145.917,177.583L145.917,177.583
	L145.917,177.583z"/>
<path id="Shape_82_" fill="#E9BAA9" d="M136.449,187.177c-0.804,0.964-1.611,2.036-2.375,3.031
	c-0.506,0.66-1.047,1.531-1.531,2.281c0.859,0.609,2.137,0.856,3.17,0.461c1.673-0.639,2.491-2.563,1.828-4.298
	C137.337,188.12,136.842,187.53,136.449,187.177C136.449,187.177,136.842,187.53,136.449,187.177L136.449,187.177L136.449,187.177z"
	/>
<ellipse id="Oval_37_" transform="matrix(-0.9096 0.4155 -0.4155 -0.9096 358.1897 299.3862)" fill="#E9BAA9" cx="146.524" cy="188.661" rx="3.131" ry="3.247">
</ellipse>
<ellipse id="Oval_36_" transform="matrix(-0.8762 0.482 -0.482 -0.8762 376.2698 297.886)" fill="#FECDC5" cx="149.872" cy="197.275" rx="3.131" ry="3.247">
</ellipse>
<ellipse id="Oval_35_" transform="matrix(-0.9844 0.1758 -0.1758 -0.9844 311.113 371.7672)" fill="#FECDC5" cx="139.089" cy="199.665" rx="3.131" ry="3.247">
</ellipse>
<ellipse id="Oval_34_" transform="matrix(-0.9998 0.018 -0.018 -0.9998 284.3988 414.4735)" fill="#FECDC5" cx="140.334" cy="208.517" rx="3.131" ry="3.247">
</ellipse>
<ellipse id="Oval_33_" transform="matrix(-0.8451 -0.5346 0.5346 -0.8451 123.4252 498.8069)" fill="#E9BAA9" cx="133.975" cy="231.523" rx="3.131" ry="3.247">
</ellipse>
<ellipse id="Oval_32_" transform="matrix(-0.6336 -0.7737 0.7737 -0.6336 24.8444 486.7537)" fill="#E9BAA9" cx="127.687" cy="237.494" rx="3.023" ry="3.247">
</ellipse>
<path id="Shape_81_" fill="#E9BAA9" d="M122.061,245.386c0.555-0.252,1.069-0.499,1.633-0.63
	c0.486-0.989,0.463-2.172-0.185-3.112c-0.972-1.411-2.958-1.73-4.435-0.713c-1.477,1.018-1.886,2.987-0.913,4.398
	c0.43,0.625,1.063,1.021,1.759,1.197C120.578,246.037,121.31,245.727,122.061,245.386
	C122.061,245.386,121.31,245.727,122.061,245.386L122.061,245.386L122.061,245.386z"/>
<ellipse id="Oval_31_" transform="matrix(-0.5674 -0.8234 0.8234 -0.5674 -25.5462 484.0833)" fill="#E9BAA9" cx="114.381" cy="248.752" rx="2.806" ry="2.936">
</ellipse>
<ellipse id="Oval_30_" transform="matrix(-0.8066 -0.591 0.591 -0.8066 22.5706 531.6311)" fill="#E9BAA9" cx="98.245" cy="262.124" rx="2.045" ry="2.555">
</ellipse>
<path id="Shape_80_" fill="#FECDC5" d="M156.584,206.812c0.891-1.177,1.542-2.125,2.25-3.688
	c0.015-0.033,0.069-0.2,0.083-0.229c-0.148-0.537-0.405-0.967-0.831-1.393c-1.27-1.266-3.289-1.3-4.511-0.076
	s-1.182,3.244,0.088,4.51C154.487,206.758,155.553,207.034,156.584,206.812C156.584,206.812,155.553,207.034,156.584,206.812
	L156.584,206.812L156.584,206.812z"/>
<ellipse id="Oval_29_" transform="matrix(-0.9185 -0.3955 0.3955 -0.9185 243.2369 454.2098)" fill="#FECDC5" cx="168.436" cy="202.034" rx="2.765" ry="3.118">
</ellipse>
<ellipse id="Oval_28_" transform="matrix(-0.883 -0.4694 0.4694 -0.883 233.4713 445.7776)" fill="#FECDC5" cx="172.298" cy="193.789" rx="2.427" ry="2.737">
</ellipse>
<ellipse id="Oval_27_" transform="matrix(-0.5514 -0.8342 0.8342 -0.5514 119.3115 440.1146)" fill="#FECDC5" cx="177.985" cy="187.979" rx="2.213" ry="2.495">
</ellipse>
<ellipse id="Oval_26_" transform="matrix(-0.031 -0.9995 0.9995 -0.031 5.4805 375.7994)" fill="#FECDC5" cx="184.903" cy="185.243" rx="2.237" ry="2.404">
</ellipse>
<ellipse id="Oval_25_" transform="matrix(0.4164 -0.9092 0.9092 0.4164 -57.1168 282.7692)" fill="#FECDC5" cx="191.701" cy="185.875" rx="1.986" ry="2.186">
</ellipse>
<path id="Shape_79_" fill="#E9BAA9" d="M186.128,183.328c-0.375-0.208-0.815-0.323-1.285-0.308
	c-0.515,0.016-0.985,0.184-1.366,0.455C183.476,183.475,184.307,183.354,186.128,183.328
	C186.128,183.328,184.307,183.354,186.128,183.328L186.128,183.328L186.128,183.328z"/>
<path id="Shape_78_" fill="#E9BAA9" d="M193.765,185.443c-0.175-0.577-0.608-1.096-1.233-1.382
	c-0.604-0.277-1.292-0.277-1.832-0.056C190.699,184.005,192.018,184.443,193.765,185.443
	C193.765,185.443,192.018,184.443,193.765,185.443L193.765,185.443L193.765,185.443z"/>
<ellipse id="Oval_24_" transform="matrix(0.8668 -0.4986 0.4986 0.8668 -68.6003 123.0015)" fill="#FECDC5" cx="195.96" cy="189.921" rx="1.416" ry="1.981">
</ellipse>
<ellipse id="Oval_23_" transform="matrix(1 -0.0098 0.0098 1 -1.9007 1.9443)" fill="#FECDC5" cx="197.451" cy="194.923" rx="1.042" ry="1.661">
</ellipse>
<ellipse id="Oval_22_" transform="matrix(-0.9249 -0.3801 0.3801 -0.9249 79.828 552.6901)" fill="#E9BAA9" cx="94.484" cy="268.463" rx="1.591" ry="2.385">
</ellipse>
<ellipse id="Oval_21_" transform="matrix(-0.9881 -0.1539 0.1539 -0.9881 141.6428 560.4913)" fill="#E9BAA9" cx="92.515" cy="274.763" rx="1.452" ry="2.177">
</ellipse>
<ellipse id="Oval_20_" transform="matrix(-0.9985 0.0544 -0.0544 -0.9985 199.2987 556.7267)" fill="#E9BAA9" cx="92.072" cy="281.076" rx="1.452" ry="2.177">
</ellipse>
<ellipse id="Oval_19_" transform="matrix(-0.9816 0.1911 -0.1911 -0.9816 238.8278 550.9351)" fill="#E9BAA9" cx="92.849" cy="286.983" rx="1.452" ry="2.177">
</ellipse>
<ellipse id="Oval_18_" transform="matrix(-0.9639 0.2664 -0.2664 -0.9639 263.2465 550.1061)" fill="#E9BAA9" cx="94.313" cy="292.907" rx="1.452" ry="2.177">
</ellipse>
<path id="Shape_77_" fill="#E9BAA9" d="M97.386,298.036c-0.118-0.421-0.222-0.734-0.328-1.172
	c-0.429-0.353-0.964-0.569-1.372-0.388c-0.687,0.306-0.872,1.39-0.413,2.421s1.389,1.618,2.077,1.312
	c0.208-0.093,0.424-0.32,0.536-0.532C97.731,299.126,97.541,298.587,97.386,298.036C97.386,298.036,97.541,298.587,97.386,298.036
	L97.386,298.036L97.386,298.036z"/>
<ellipse id="Oval_17_" transform="matrix(-0.9953 -0.0968 0.0968 -0.9953 189.5502 458.1197)" fill="#FECDC5" cx="105.888" cy="224.462" rx="2.481" ry="3.237">
</ellipse>
<ellipse id="Oval_16_" transform="matrix(-0.9999 0.0108 -0.0108 -0.9999 212.6173 465.763)" fill="#FECDC5" cx="105.051" cy="233.456" rx="2.481" ry="3.237">
</ellipse>
<ellipse id="Oval_15_" transform="matrix(-0.9918 0.1279 -0.1279 -0.9918 239.958 468.9276)" fill="#FECDC5" cx="104.923" cy="242.168" rx="2.481" ry="3.237">
</ellipse>
<ellipse id="Oval_14_" transform="matrix(-0.9754 0.2205 -0.2205 -0.9754 265.7323 472.7473)" fill="#FECDC5" cx="106.482" cy="251.205" rx="2.447" ry="3.237">
</ellipse>
<ellipse id="Oval_13_" transform="matrix(-0.9633 0.2685 -0.2685 -0.9633 283.0395 481.2425)" fill="#FECDC5" cx="108.613" cy="259.975" rx="2.394" ry="3.031">
</ellipse>
<ellipse id="Oval_12_" transform="matrix(-0.9633 0.2685 -0.2685 -0.9633 290.1626 496.7678)" fill="#FECDC5" cx="111.113" cy="268.225" rx="2.184" ry="2.607">
</ellipse>
<ellipse id="Oval_11_" transform="matrix(-0.9457 0.325 -0.325 -0.9457 310.8028 499.1443)" fill="#FECDC5" cx="113.714" cy="275.53" rx="2.018" ry="2.571">
</ellipse>
<ellipse id="Oval_10_" transform="matrix(-0.8801 0.4748 -0.4748 -0.8801 352.6227 474.8316)" fill="#FECDC5" cx="116.355" cy="281.941" rx="1.759" ry="2.046">
</ellipse>
<ellipse id="Oval_9_" transform="matrix(-0.8801 0.4748 -0.4748 -0.8801 360.9333 483.4833)" fill="#FECDC5" cx="119.417" cy="287.317" rx="1.456" ry="1.969">
</ellipse>
<ellipse id="Oval_8_" transform="matrix(-0.9478 -0.3189 0.3189 -0.9478 141.8683 454.728)" fill="#E9BAA9" cx="108.159" cy="215.751" rx="2.58" ry="2.979">
</ellipse>
<path id="Shape_75_" fill="#E9BAA9" d="M108.592,208.111c0.055,1.115,0.618,2.078,1.56,2.427
	c1.356,0.502,2.959-0.449,3.58-2.126c0.458-1.236,0.25-2.517-0.432-3.308C111.438,206.375,110.167,207.145,108.592,208.111
	C108.592,208.111,110.167,207.145,108.592,208.111L108.592,208.111L108.592,208.111z"/>
<path id="Shape_74_" fill="#E9BAA9" d="M82.73,203.802c-0.246-1.226-1.401-1.88-2.885-1.858
	c-1.645,0.025-2.961,1.201-2.94,2.625c0.008,0.54,0.194,0.964,0.528,1.373C79.09,205.259,80.574,204.645,82.73,203.802
	C82.73,203.802,80.574,204.645,82.73,203.802L82.73,203.802L82.73,203.802z"/>
<ellipse id="Oval_7_" transform="matrix(0.1692 -0.9856 0.9856 0.1692 -140.747 239.667)" fill="#E9BAA9" cx="71.785" cy="203.318" rx="2.437" ry="2.815">
</ellipse>
<ellipse id="Oval_6_" transform="matrix(0.4341 -0.9009 0.9009 0.4341 -144.5538 170.8951)" fill="#E9BAA9" cx="63.753" cy="200.51" rx="2.434" ry="2.979">
</ellipse>
<ellipse id="Oval_5_" transform="matrix(0.364 -0.9314 0.9314 0.364 -148.3778 176.7412)" fill="#E9BAA9" cx="55.227" cy="197.018" rx="1.908" ry="2.529">
</ellipse>
<path id="Shape_73_" fill="#E9BAA9" d="M49.793,194.145c-1.48,0.11-3.059,0.187-4.475,0.677
	c-0.046,0.147-0.077,0.298-0.075,0.455c0.002,0.198,0.055,0.384,0.131,0.562c0.905,0.151,1.821,0.336,2.696,0.61
	c0.352,0.11,0.665,0.266,0.972,0.434c0.756-0.338,1.267-0.955,1.259-1.663C50.295,194.75,50.172,194.474,49.793,194.145
	C49.793,194.145,50.172,194.474,49.793,194.145L49.793,194.145L49.793,194.145z"/>
<path id="Shape_72_" fill="#E9BAA9" d="M74.652,262.052c-0.047,0.766-0.173,1.4-0.339,2.059
	c-0.246,0.977-0.497,1.943-0.871,2.862c1.019,0.159,2.076-0.696,2.411-1.999C76.186,263.676,75.613,262.41,74.652,262.052
	C74.652,262.052,75.613,262.41,74.652,262.052L74.652,262.052L74.652,262.052z"/>
<path id="Shape_71_" fill="#E9BAA9" d="M72.814,269.357c-0.146-0.187-0.338-0.315-0.547-0.419
	c-0.262,0.568-0.992,1.023-1.43,1.325c-0.757,0.522-1.554,1.009-2.377,1.428c0.036,0.293,0.136,0.569,0.319,0.804
	c0.674,0.866,2.123,0.865,3.237-0.001C73.13,271.628,73.487,270.223,72.814,269.357C72.814,269.357,73.487,270.223,72.814,269.357
	L72.814,269.357L72.814,269.357z"/>
<path id="Shape_70_" fill="#E9BAA9" d="M65.954,271.809c-1.471,0.279-2.941,0.541-4.429,0.38
	c-0.074,0.158-0.132,0.323-0.149,0.502c-0.101,1.092,0.957,2.083,2.362,2.212c1.405,0.13,2.626-0.651,2.727-1.744
	C66.512,272.664,66.313,272.191,65.954,271.809C65.954,271.809,66.313,272.191,65.954,271.809L65.954,271.809L65.954,271.809z"/>
<path id="Shape_69_" fill="#E9BAA9" d="M57.097,268.849c-0.776-0.106-1.505,0.132-1.901,0.705
	c-0.624,0.902-0.19,2.284,0.971,3.088c1.161,0.803,2.607,0.723,3.232-0.179c0.149-0.216,0.234-0.46,0.267-0.716
	C58.447,271.181,57.482,270.221,57.097,268.849C57.097,268.849,57.482,270.221,57.097,268.849L57.097,268.849L57.097,268.849z"/>
<ellipse id="Oval_3_" transform="matrix(0.9121 -0.4099 0.4099 0.9121 -104.3108 45.2198)" fill="#E9BAA9" cx="53.314" cy="265.901" rx="1.499" ry="1.928">
</ellipse>
<path id="Shape_18_" fill="#B95B79" d="M239.026,179.117c0,0,5.621,0.549,6.767,7.779
	c0,0-1.708-4.396-9.125-4.625C229.171,182.039,239.026,179.117,239.026,179.117L239.026,179.117L239.026,179.117L239.026,179.117z"
	/>
<path id="Shape_17_" fill="#5B5A5C" d="M40.288,184.935l21.028,7.472l-12.067,36.588l-22.966-8.647L40.288,184.935z"/>
<path id="Shape_16_" fill="#3F3F3F" d="M29.557,218.31c-0.104-0.087-0.191-0.194-0.253-0.316c-0.117-0.232-0.135-0.497-0.05-0.735
	l11.202-30.122c0.086-0.24,0.269-0.433,0.508-0.534c0.239-0.101,0.513-0.103,0.759-0.005l17.32,6.276
	c0.479,0.19,0.735,0.707,0.586,1.181l-9.956,30.675c-0.076,0.24-0.249,0.438-0.48,0.549c-0.231,0.111-0.501,0.125-0.749,0.04
	l-18.566-6.829C29.759,218.45,29.651,218.388,29.557,218.31C29.557,218.31,29.651,218.388,29.557,218.31L29.557,218.31
	L29.557,218.31z"/>
<path id="Shape_15_" fill="#737F83" d="M45.65,200.321l-6.808-2.577l1.938-5.53l6.808,2.577L45.65,200.321z"/>
<path id="Shape_14_" fill="#8C989B" d="M52.944,203.083l-6.808-2.578l1.939-5.529l6.808,2.577L52.944,203.083z"/>
<path id="Shape_13_" fill="#5B5A5C" d="M43.562,206.277l-6.808-2.578l1.939-5.529l6.808,2.577L43.562,206.277z"/>
<path id="Shape_12_" fill="#737F83" d="M50.856,209.038l-6.808-2.577l1.939-5.53l6.808,2.577L50.856,209.038z"/>
<path id="Shape_11_" fill="#737F83" d="M41.474,212.232l-6.808-2.577l1.939-5.53l6.808,2.577L41.474,212.232z"/>
<path id="Shape_9_" fill="#737F83" d="M39.387,218.187l-6.808-2.577l1.938-5.53l6.808,2.577L39.387,218.187z"/>
<path id="Shape_8_" fill="#8C989B" d="M46.681,220.948l-6.808-2.577l1.939-5.53l6.808,2.577L46.681,220.948z"/>
<path id="Shape_7_" fill="#CC7691" d="M46.855,212.833c-0.021,0.016-0.042,0.027-0.063,0.043
	c-1.557,1.245-3.167,1.941-4.843,1.778c-0.486,0.055-0.988,0.051-1.509-0.037c-2.664-0.447-4.865-2.457-6.088-4.808
	c-1.947-3.744-1.709-7.603,0.428-10.279c0.125-0.561,0.247-1.123,0.361-1.686l-8.539,2.573c-0.128,1.24-0.166,2.585-0.082,4.082
	c0.667,11.833,5.167,14.667,13,16.167s10.667-2.333,12-5.333C52.855,212.333,50.022,210.333,46.855,212.833
	C46.855,212.833,50.022,210.333,46.855,212.833L46.855,212.833L46.855,212.833z"/>
<path id="Shape_6_" fill="#B95B79" d="M26.483,200.904c-2.084,13.628,3.855,17.348,10.122,19.554
	c6.75,2.375,10.75,0.5,14.125-3.25s0-5.25,0-5.25c0,0.002-0.001,0.004-0.001,0.006c0.661,0.62,0.818,1.473-0.163,2.629
	c-0.57,0.672-1.236,1.25-1.95,1.766c-0.388,0.35-0.825,0.641-1.282,0.904c-4.198,3.092-10.292,2.55-14.265-0.268
	c-5.38-3.817-7.298-10.981-6.254-17.363"/>
<path fill="#737F83" d="M148.523,266.506c0.286,1.09-0.366,2.206-1.456,2.491l-17.764,4.66c-1.09,0.286-2.206-0.366-2.491-1.456
	l-8.654-32.99c-0.286-1.09,0.366-2.206,1.456-2.492l17.764-4.66c1.09-0.286,2.206,0.366,2.492,1.456L148.523,266.506
	L148.523,266.506L148.523,266.506L148.523,266.506z"/>
<path fill="#5B5A5C" d="M137.62,232.602c-0.032,0.006-0.063,0.013-0.095,0.021l-17.764,4.66c-0.377,0.099-0.692,0.338-0.889,0.674
	c-0.196,0.336-0.25,0.729-0.151,1.105l8.654,32.99c0.202,0.772,0.996,1.25,1.779,1.04l17.764-4.66
	c0.377-0.099,0.692-0.338,0.889-0.674c0.196-0.336,0.25-0.729,0.151-1.105l-8.654-32.99
	C139.111,232.923,138.371,232.457,137.62,232.602C137.62,232.602,138.371,232.457,137.62,232.602L137.62,232.602L137.62,232.602z"/>
<path id="Shape_4_" fill="#737F83" d="M144.802,262.66l-16.636,4.364l-6.435-24.531l16.636-4.364L144.802,262.66z"/>
<path id="Shape_3_" fill="#3F3F3F" d="M131.8,237.219c0.035,0.134-0.045,0.233-0.317,0.305l-4.615,1.21
	c-0.272,0.071-0.391,0.024-0.426-0.11l-0.03-0.114c-0.035-0.134,0.035-0.269,0.308-0.34l4.615-1.211
	c0.272-0.071,0.4,0.011,0.435,0.145L131.8,237.219L131.8,237.219L131.8,237.219L131.8,237.219z"/>
<circle id="Oval_1_" fill="#5B5A5C" cx="137.235" cy="267.847" r="1.858"/>
<path id="Shape_2_" fill="#737F83" d="M138.804,269.214c-0.275,0.316-0.635,0.539-1.041,0.647c-1.111,0.291-2.251-0.376-2.541-1.485
	c-0.176-0.666-0.01-1.374,0.443-1.895c0.275-0.316,0.635-0.539,1.042-0.646c0.537-0.142,1.098-0.065,1.578,0.215
	c0.481,0.281,0.823,0.731,0.963,1.269C139.422,267.985,139.257,268.693,138.804,269.214
	C138.804,269.214,139.257,268.693,138.804,269.214L138.804,269.214L138.804,269.214z M136.001,266.773
	c-0.356,0.409-0.485,0.966-0.348,1.489c0.229,0.873,1.125,1.396,1.997,1.168c0.319-0.085,0.602-0.26,0.818-0.508
	c0.356-0.409,0.486-0.965,0.349-1.489c-0.111-0.423-0.38-0.777-0.757-0.997c-0.377-0.221-0.818-0.28-1.239-0.169
	C136.5,266.349,136.216,266.525,136.001,266.773C136.001,266.773,136.216,266.525,136.001,266.773L136.001,266.773L136.001,266.773z
	"/>
<path id="Shape_1_" fill="#B95B79" d="M123.067,258.583c-0.251-0.395-0.49-0.807-0.712-1.25
	c-3.167-6.333,2-8.333,3.667-8.833s2.667-6.833-5.5-2.333c-5.871,3.235-4.593,10.518-0.81,15.781
	C120.777,260.777,121.902,259.66,123.067,258.583C123.067,258.583,121.902,259.66,123.067,258.583L123.067,258.583L123.067,258.583z
	"/>
<path id="Shape_336_" fill="#5B5A5C" d="M178.528,170.278l21.717,5.14l-8.014,37.683l-23.77-6.096L178.528,170.278z"/>
<path id="Shape_167_" fill="#3F3F3F" d="M171.492,204.623c-0.113-0.074-0.211-0.172-0.286-0.287
	c-0.142-0.218-0.189-0.479-0.129-0.725l7.857-31.162c0.06-0.248,0.221-0.46,0.447-0.586s0.499-0.158,0.753-0.087l17.9,4.354
	c0.497,0.137,0.808,0.622,0.711,1.109l-6.558,31.576c-0.049,0.247-0.2,0.463-0.418,0.598c-0.218,0.135-0.484,0.179-0.741,0.122
	l-19.198-4.768C171.709,204.74,171.595,204.691,171.492,204.623C171.492,204.623,171.595,204.691,171.492,204.623L171.492,204.623
	L171.492,204.623z"/>
<path id="Shape_166_" fill="#737F83" d="M185.533,184.99l-7.048-1.821l1.325-5.708l7.048,1.821L185.533,184.99z"/>
<path id="Shape_165_" fill="#8C989B" d="M193.084,186.941l-7.048-1.821l1.325-5.707l7.049,1.82L193.084,186.941z"/>
<path id="Shape_164_" fill="#5B5A5C" d="M184.106,191.137l-7.049-1.821l1.326-5.708l7.048,1.821L184.106,191.137z"/>
<path id="Shape_163_" fill="#737F83" d="M191.657,193.088l-7.048-1.821l1.325-5.708l7.048,1.822L191.657,193.088z"/>
<path id="Shape_162_" fill="#737F83" d="M182.678,197.285l-7.048-1.822l1.325-5.707l7.049,1.82L182.678,197.285z"/>
<path id="Shape_160_" fill="#737F83" d="M181.251,203.431l-7.048-1.821l1.325-5.707l7.048,1.821L181.251,203.431z"/>
<path id="Shape_159_" fill="#8C989B" d="M188.802,205.382l-7.048-1.821l1.325-5.708l7.049,1.82L188.802,205.382z"/>
<path fill="#E9BAA9" d="M195.677,198.056c-1.017,3.804-4.07,7.027-4.07,7.027c5.362-1.146,7.695-4.173,8.504-7.547
	C198.63,197.725,197.143,197.875,195.677,198.056z"/>
<ellipse id="Oval_116_" transform="matrix(0.9161 0.4009 -0.4009 0.9161 96.5874 -62.0976)" fill="#FECDC5" cx="196.69" cy="199.768" rx="0.836" ry="1.661">
</ellipse>
<ellipse id="Oval_115_" transform="matrix(0.728 0.6856 -0.6856 0.728 192.4719 -77.7822)" fill="#FECDC5" cx="194.259" cy="203.666" rx="0.836" ry="1.661">
</ellipse>
<path fill="#CC7691" d="M198.258,197.757c-0.927,2.814-2.832,5.078-5.402,6.078c-3.167,1.5-4.5,3.333-3.5,4.167
	c1,0.833,5.667,0.333,9.833-4.333c1.563-1.751,2.831-3.991,3.463-6.516C201.202,197.412,199.729,197.591,198.258,197.757z"/>
<path fill="#CC7691" d="M112.438,130.202c-8.671-17.869-25.016-14.2-33.136-8.329l7.865,9.062c0,0,8.868-10.102,16.6,3.898
	c7.733,14,1.138,18.279,1.138,18.279S83.409,173.26,66.99,139.594c-1.311-2.742-2.839-5.249-4.486-7.523
	c-1.46-1.918-3.03-3.749-4.741-5.449c-1.79-1.779-4.184-3.823-6.68-5.574c-2.985-1.741-6.032-3.278-9.306-4.304l1.438,14.715
	c0,0,9.628,3.875,16.456,19.208S80.667,172.14,97.5,167.153C114.333,162.167,124.376,153.071,112.438,130.202z"/>
<path fill="#E9BAA9" d="M104.905,153.113c0,0-0.017,0.016-0.044,0.041c2.69,0.575,5.369,1.201,8.049,1.827
	c1.542-4.66,0.534-10.001-1.835-14.796c-2.358-4.773-5.801-8.103-10.341-9.639c1.016,1.078,2.035,2.479,3.034,4.288
	C111.5,148.833,104.905,153.113,104.905,153.113z"/>
<path fill="#DFA696" d="M97.73,162.843c-6.775,0.621-13.224,0.831-19.672-1.813c-8.006-3.284-12.231-8.656-15.516-16.549
	c-1.774-4.263-3.421-9.165-7.023-12.3c-3.801-3.308-8.028-5.312-12.828-6.084l0.524,5.362c0,0,9.628,3.875,16.456,19.208
	S80.667,172.14,97.5,167.153c3.09-0.915,5.948-1.971,8.486-3.223C103.724,162.918,101.046,162.539,97.73,162.843z"/>
<path fill="#E9BAA9" d="M97.835,164.824c-3.221-0.557-4.662,1.281-5.813,3.57c1.79-0.282,3.617-0.689,5.478-1.241
	c1.304-0.386,2.561-0.801,3.776-1.241C100.157,165.423,99.012,165.027,97.835,164.824z"/>
<path fill="#E9BAA9" d="M85.437,165.293c-5.892-0.721-11.699-4.009-16.002-8.423c-4.817-4.94-7.989-13.312-11.166-19.287
	c-4.018-7.556-7.101-8.011-14.205-9.293c-0.451-0.081-0.861,0.969-1.089,0.712l0.24,2.456c0,0,9.628,3.875,16.456,19.208
	c6.366,14.295,19.112,20.596,34.449,17.343C91.162,167.108,88.732,165.697,85.437,165.293z"/>
<path fill="#FECDC5" d="M88.098,168.79c0.093-0.246,0.151-0.508,0.151-0.786c0-1.275-1.069-2.308-2.388-2.308
	s-2.388,1.033-2.388,2.308c0,0.25,0.052,0.486,0.128,0.712C85.1,168.873,86.597,168.842,88.098,168.79z"/>
<path fill="#FECDC5" d="M109.223,146.034c-0.102,0-0.199,0.016-0.297,0.028c-0.556,0.789-1.123,1.571-1.699,2.346
	c0.032,0.057,0.056,0.121,0.064,0.197c0.035,0.32-0.01,0.62-0.124,0.894c0.414,0.686,1.175,1.152,2.056,1.152
	c1.319,0,2.388-1.033,2.388-2.308S110.542,146.034,109.223,146.034z"/>
<path fill="#B95B79" d="M95.011,123.808c-1.855-0.554-3.711-1.097-5.582-1.577c-0.505,2.818-1.156,5.594-1.912,8.344
	c0.883-0.864,3.379-3.003,6.528-3.152C94.341,126.211,94.67,125.008,95.011,123.808z"/>
<path fill="#B95B79" d="M113.198,158.842c1.831-1.924,3.171-4.153,3.877-6.777c-3.716,0.086-7.435-0.01-11.157,0.023
	c-0.541,0.713-1.012,1.025-1.012,1.025s-1.335,1.251-3.593,2.608C105.148,157.183,109.153,158.102,113.198,158.842z"/>
<path fill="#DFA696" d="M112.278,156.148c0.559-1.301,0.906-2.672,1.226-4.049c-2.528,0.001-5.056-0.034-7.586-0.011
	c-0.541,0.713-1.012,1.025-1.012,1.025s-0.671,0.623-1.847,1.462C106.053,155.52,109.137,156.578,112.278,156.148z"/>
<path fill="#5B5A5C" d="M92.916,168.659c-0.712,1.044-2.136,1.313-3.18,0.601l-17.015-11.609c-1.044-0.712-1.313-2.136-0.601-3.18
	l21.56-31.599c0.712-1.044,2.136-1.313,3.18-0.601l17.015,11.609c1.044,0.712,1.313,2.136,0.601,3.18L92.916,168.659L92.916,168.659
	L92.916,168.659L92.916,168.659z"/>
<path fill="#737F83" d="M72.194,158.076c-1.216-0.952-1.486-2.698-0.615-3.974l21.56-31.599c0.443-0.649,1.112-1.087,1.885-1.233
	c0.772-0.146,1.555,0.018,2.204,0.461l17.015,11.609c1.352,0.918,1.68,2.76,0.772,4.089l-21.56,31.599
	c-0.443,0.649-1.112,1.087-1.885,1.233c-0.772,0.146-1.555-0.018-2.205-0.461L72.35,158.191
	C72.298,158.154,72.245,158.116,72.194,158.076C72.194,158.076,72.245,158.116,72.194,158.076L72.194,158.076L72.194,158.076z
	 M113.594,134.484c-0.028-0.022-0.058-0.044-0.088-0.064l-17.015-11.609c-0.361-0.246-0.796-0.337-1.225-0.256
	s-0.801,0.324-1.047,0.685l-21.56,31.599c-0.504,0.739-0.325,1.763,0.429,2.272l17.015,11.609c0.361,0.246,0.796,0.337,1.225,0.256
	s0.801-0.324,1.047-0.685l21.56-31.599C114.419,135.982,114.27,135.013,113.594,134.484
	C113.594,134.484,114.27,135.013,113.594,134.484L113.594,134.484L113.594,134.484z"/>
<rect id="Rectangle_8_" x="83.847" y="131.252" transform="matrix(-0.826 -0.5636 0.5636 -0.826 88.7265 318.3348)" fill="#737F83" width="19.289" height="28.444"/>
<path id="Shape_67_" fill="#3F3F3F" d="M105.403,132.954c-0.088,0.128-0.23,0.134-0.491-0.044l-4.42-3.016
	c-0.261-0.178-0.308-0.313-0.22-0.441l0.074-0.109c0.088-0.128,0.253-0.168,0.514,0.01l4.42,3.016
	c0.261,0.178,0.285,0.347,0.197,0.475L105.403,132.954L105.403,132.954L105.403,132.954L105.403,132.954z"/>
<circle id="Oval_4_" fill="#3F3F3F" cx="83.474" cy="160.09" r="2.084"/>
<path fill="#CC7691" d="M123.008,154.333c0,0-34.577,5.754-37.001-18.498c-0.157-2.098,0.314-3.701,1.159-4.9
	c-2.492-2.985-5.143-6.279-7.865-9.063c-2.845,2.605-6.184,7.278-6.205,14.035c-0.082,25.748,24.595,33.221,48.488,30.823
	C121.585,166.731,129.01,161.583,123.008,154.333z"/>
<path id="Shape_61_" fill="#5B5A5C" d="M41.895,111.169c-0.006,0-0.012,0.003-0.018,0.004c-0.382-0.916-2.235-2.472-11.033,0.209
	c-9.59,2.923-9.571,5.267-9.271,5.998c-0.013,0.005-0.028,0.007-0.04,0.015l10.326,33.793l0.01-0.01
	c0.296,0.84,1.966,2.417,11-0.336c9.743-2.969,9.519-5.503,9.191-6.246L41.895,111.169L41.895,111.169L41.895,111.169
	L41.895,111.169z"/>
<rect id="Rectangle_7_" x="27.28" y="115.385" transform="matrix(-0.9566 0.2915 -0.2915 -0.9566 110.1156 245.365)" fill="#3F3F3F" width="19.001" height="31.001"/>
<rect id="Rectangle_6_" x="27.134" y="116.406" transform="matrix(-0.9566 0.2915 -0.2915 -0.9566 109.69 244.4707)" fill="#737F83" width="19.001" height="28.001"/>
<rect id="Rectangle_5_" x="23.491" y="116.948" transform="matrix(-0.9566 0.2915 -0.2915 -0.9566 99.0765 222.1364)" fill="#8C989B" width="19.001" height="3"/>
<rect id="Rectangle_4_" x="32.789" y="145.651" transform="matrix(-0.9566 0.2915 -0.2915 -0.9566 110.8151 276.7919)" fill="#5B5A5C" width="4" height="2"/>
<rect id="Rectangle_3_" x="38.529" y="143.901" transform="matrix(-0.9566 0.2915 -0.2915 -0.9566 121.5362 271.6964)" fill="#5B5A5C" width="4" height="2"/>
<rect id="Rectangle_2_" x="44.269" y="142.153" transform="matrix(-0.9566 0.2915 -0.2915 -0.9566 132.2558 266.6016)" fill="#5B5A5C" width="4" height="2"/>
<ellipse fill="#FECDC5" cx="51.223" cy="133.342" rx="2.388" ry="2.308"/>
<ellipse fill="#FECDC5" cx="55.223" cy="138.342" rx="2.388" ry="2.308"/>
<path fill="#FECDC5" d="M58.223,142.034c-1.104,0-2.023,0.728-2.297,1.711c0.572,0.821,1.145,1.72,1.582,2.655
	c0.032,0.053,0.066,0.106,0.096,0.161c0.199,0.052,0.404,0.09,0.619,0.09c1.319,0,2.388-1.033,2.388-2.308
	S59.542,142.034,58.223,142.034z"/>
<path fill="#FECDC5" d="M61.223,147.474c-1.081,0-1.983,0.698-2.277,1.65c0.261,0.596,0.512,1.173,0.826,1.747
	c0.18,0.329,0.333,0.667,0.471,1.012c0.3,0.131,0.63,0.208,0.98,0.208c1.319,0,2.388-1.034,2.388-2.308
	S62.542,147.474,61.223,147.474z"/>
<path fill="#FECDC5" d="M64.161,152.97c-1.162,0-2.128,0.803-2.342,1.865c0.003,0.008,0.009,0.013,0.012,0.022
	c0.025,0.079,0.064,0.152,0.096,0.228c0.503,0.711,0.989,1.435,1.463,2.166c0.064,0.083,0.125,0.168,0.188,0.252
	c0.188,0.047,0.38,0.084,0.583,0.084c1.319,0,2.388-1.033,2.388-2.308S65.48,152.97,64.161,152.97z"/>
<path fill="#FECDC5" d="M68.161,157.781c-1.319,0-2.388,1.033-2.388,2.308c0,0.019,0.005,0.036,0.006,0.054
	c0.461,0.618,1.025,1.209,1.628,1.691c0.256,0.204,0.555,0.348,0.804,0.559c1.295-0.026,2.338-1.045,2.338-2.303
	C70.549,158.815,69.48,157.781,68.161,157.781z"/>
<path fill="#FECDC5" d="M72.919,165.677c0.123,0.04,0.244,0.091,0.361,0.156c0.098,0.054,0.198,0.105,0.298,0.157
	c0.093,0.025,0.184,0.059,0.274,0.099c0.945-0.307,1.633-1.155,1.633-2.172c0-1.275-1.069-2.308-2.388-2.308
	c-1.319,0-2.388,1.033-2.388,2.308c0,0.146,0.022,0.286,0.05,0.424c0.431,0.261,0.823,0.567,1.239,0.858
	C72.316,165.337,72.619,165.503,72.919,165.677z"/>
<path fill="#FECDC5" d="M77.227,167.534c1.108,0.211,2.195,0.493,3.3,0.758c0.519-0.422,0.863-1.041,0.863-1.748
	c0-1.275-1.069-2.308-2.388-2.308c-1.319,0-2.388,1.033-2.388,2.308c0,0.256,0.053,0.498,0.133,0.728
	C76.895,167.375,77.063,167.452,77.227,167.534z"/>
<path fill="#E9BAA9" d="M108.146,154.578c1.104,0.083,1.617,0.212,2.494,0.226c-0.246-1.022-1.286-1.77-2.417-1.77
	c-0.912,0-1.695,0.5-2.098,1.227C106.836,154.407,107.624,154.538,108.146,154.578z"/>
<path fill="#CC7691" d="M10.892,149.925c3.568,3.455,7.651,5.752,11.455,6.98c0.317,0.084,0.627,0.159,0.921,0.21
	c3.424,0.599,6.971,0.347,10.334,1.337c1.423,0.419,2.72,0.939,3.909,1.567c2.858,0.972,5.182,2.267,5.63,3.896
	c0,0,1.885-7.025-3.501-12.851c-4.117-3.839-9.687-6.561-11.48-11.635c-0.233-0.659-0.414-1.363-0.548-2.091
	c-0.029-0.013-0.061-0.021-0.089-0.036c-0.249-0.13-0.488-0.273-0.734-0.406c-0.066-0.036-0.688-0.323-0.303-0.183
	c-0.76-0.277-1.339-0.793-1.412-1.466c-2.026-0.315-4.052-0.63-6.079-0.941c-2.607-0.4-5.168-0.877-7.509-1.842
	C4.659,142.778,6.089,145.275,10.892,149.925z"/>
<path fill="#B75978" d="M39.638,151.067c-4.118-3.839-9.687-6.561-11.48-11.635c-0.287-0.812-0.474-1.7-0.607-2.612
	c-0.451-0.414-0.845-0.871-1.18-1.371c-1.302-0.201-2.604-0.402-3.906-0.604c-0.97,2.622-0.96,5.264,0.613,7.633
	c5.126,7.723,20.905,10.867,19.886,21.04c0.063,0.132,0.138,0.262,0.176,0.399C43.139,163.917,45.024,156.892,39.638,151.067z"/>
<path fill="#E9BAA9" d="M15.232,153.43c0.501-3.345,4.039-6.471,4.039-6.471c-4.012,1.29-5.521,3.766-6.071,4.991
	C13.945,152.504,14.488,152.978,15.232,153.43z"/>
<path fill="#E9BAA9" d="M22.221,156.87c-0.878-3.412,0.018-7.037,0.018-7.037c-2.312,2.137-2.593,6.061-2.593,6.061
	c0.038,0.034,0.068,0.053,0.104,0.085C20.611,156.35,21.443,156.654,22.221,156.87z"/>
<path fill="#E9BAA9" d="M25.944,157.446c0.604,0.052,1.209,0.096,1.815,0.141c-0.121-4.355-1.273-5.315-1.273-5.315
	C26.724,153.885,26.252,156.195,25.944,157.446z"/>
<path fill="#CC7691" d="M222.346,133.25c-17.338,2.103-34.199-4.278-37.18-5.833c-0.556-0.29-1.172-0.708-1.827-1.149h0l0,0
	c-0.187-0.126-0.378-0.253-0.571-0.38c-0.625-0.478-1.497-1.37-1.173-2.468c0.288-0.976-0.896-0.091-1.73,0.964
	c-1.987-0.614-4.027-0.113-5.729,3.617c-2.472,5.417,4.27,8.864,4.27,8.864c13.885,9.397,31.594,8.258,39.594,7.014v0.001
	c0,0,1.799,0.144,1.428,1.399c-0.37,1.255,1.493-1.197,1.861-1.613c0.072-0.082-0.004-0.189-0.198-0.295
	c1.136-0.226,1.779-0.39,1.779-0.39c2.927-0.979,4.45-2.523,4.863-5.399C228.044,135.415,226.502,132.667,222.346,133.25z"/>
<path fill="#DFA696" d="M220.838,141.635c-1.187,0.316-2.119,0.604-2.255,0.76c-0.117,0.134-0.712,0.581-1.378,1.144
	c0.645,0.166,1.31,0.313,1.834,0.751c0.688,0.575,0.679,1.386,0.4,2.139c0.91-0.278,1.752-0.665,2.505-1.133
	C222.161,143.879,221.913,142.467,220.838,141.635z"/>
<path fill="#DFA696" d="M221.133,143.371c0.277-0.055,0.522-0.106,0.736-0.152c-0.312-1.144-1.149-2.049-2.794-2.278
	c-2.914-0.406-5.594,0.848-8.461,0.999c-5.322,0.28-11.152-0.443-16.369-1.524c-5.372-1.112-10.359-3.336-14.755-6.624
	c-2.238-1.673-4.572-4.125-4.726-6.999c-0.214,0.359-0.424,0.759-0.629,1.208c-2.472,5.417,4.437,8.864,4.437,8.864
	c13.885,9.397,31.761,8.258,39.761,7.014v0.001c0,0,1.632,0.144,1.262,1.399c-0.37,1.255,1.41-1.197,1.778-1.613
	C221.446,143.584,221.328,143.477,221.133,143.371z"/>
<path fill="#E9BAA9" d="M220.42,143.938c-1.091-1.019-3.459-0.956-5.003-0.855c-2.001,0.131-3.969,0.486-5.97,0.281
	c-6.133,0.568-12.023-0.724-17.937-2.192c-0.205-0.043-0.413-0.073-0.618-0.122c-4.244-0.998-8.544-3.123-12.13-5.613
	c-2.545-1.767-4.472-3.917-4.812-6.92c-1.818,5.115,4.623,8.348,4.623,8.348c13.885,9.397,31.761,8.258,39.761,7.014v0.001
	c0,0,1.632,0.144,1.262,1.399c-0.174,0.59,0.129,0.358,0.535-0.094C220.067,144.716,220.41,144.306,220.42,143.938z"/>
<path fill="#E9BAA9" d="M220.788,144.396c-0.57-1.06-2.139-1.333-3.629-1.362c-0.364,0.486-0.628,1.093,0.489,0.948
	c1.807-0.235,1.935,0.945,1.935,0.945l-0.438,1.606c0,0,1.344,0.144,1.657-1.668C220.831,144.697,220.818,144.543,220.788,144.396z"
	/>
<path fill="#E9BAA9" d="M176.838,133.887c0.031-0.149,0.049-0.302,0.049-0.46c0-1.183-0.931-2.14-2.1-2.199
	C175.295,132.213,175.994,133.092,176.838,133.887z"/>
<path fill="#FECDC5" d="M176.838,133.887c-0.844-0.795-1.542-1.675-2.05-2.659c-0.037-0.002-0.073-0.011-0.11-0.011
	c-0.328,0-0.636,0.076-0.916,0.204c0.341,1.521,1.33,2.774,2.332,3.69C176.463,134.8,176.734,134.377,176.838,133.887z"/>
<path fill="#E9BAA9" d="M180.765,136.733c-0.292-0.878-1.111-1.516-2.088-1.516c-0.064,0-0.125,0.014-0.188,0.019
	c0.092,0.066,0.179,0.136,0.273,0.201C179.406,135.884,180.079,136.314,180.765,136.733z"/>
<path fill="#FECDC5" d="M180.765,136.733c-0.686-0.419-1.359-0.849-2.003-1.296c-0.094-0.065-0.18-0.135-0.273-0.201
	c-0.556,0.048-1.053,0.294-1.415,0.677c0.837,0.618,1.498,0.952,1.498,0.952c0.71,0.481,1.433,0.927,2.162,1.354
	c0.095-0.246,0.152-0.512,0.152-0.792C180.887,137.183,180.838,136.953,180.765,136.733z"/>
<path fill="#E9BAA9" d="M183.677,137.996c-0.194,0-0.378,0.033-0.558,0.08c0.838,0.439,1.697,0.843,2.565,1.217
	C185.337,138.529,184.571,137.996,183.677,137.996z"/>
<path fill="#FECDC5" d="M185.685,139.293c-0.868-0.375-1.727-0.779-2.565-1.217c-0.489,0.128-0.908,0.416-1.204,0.808
	c1.28,0.693,2.582,1.31,3.898,1.857c0.043-0.172,0.073-0.349,0.073-0.535C185.887,139.879,185.812,139.572,185.685,139.293z"/>
<path fill="#E9BAA9" d="M190.979,141.068c-0.404-0.521-1.029-0.862-1.74-0.862c-0.272,0-0.53,0.056-0.771,0.146
	c0.807,0.266,1.615,0.509,2.423,0.699C190.921,141.057,190.95,141.061,190.979,141.068z"/>
<path fill="#FECDC5" d="M190.979,141.068c-0.029-0.006-0.058-0.01-0.087-0.017c-0.808-0.19-1.617-0.432-2.423-0.699
	c-0.49,0.183-0.892,0.534-1.146,0.984c1.361,0.509,2.731,0.949,4.102,1.325c0.009-0.081,0.025-0.161,0.025-0.244
	C191.45,141.906,191.27,141.442,190.979,141.068z"/>
<path fill="#E9BAA9" d="M195.463,141.319c-0.514,0-0.981,0.183-1.357,0.478c1.101,0.257,2.203,0.495,3.306,0.712
	C197.042,141.805,196.313,141.319,195.463,141.319z"/>
<path fill="#FECDC5" d="M197.412,142.509c-1.104-0.217-2.205-0.455-3.306-0.712c-0.417,0.327-0.715,0.796-0.813,1.339
	c1.456,0.342,2.904,0.619,4.335,0.838c0.029-0.144,0.045-0.292,0.045-0.445C197.673,143.159,197.573,142.816,197.412,142.509z"/>
<path fill="#E9BAA9" d="M201.29,142.416c-0.543,0-1.034,0.204-1.419,0.529c1.066,0.166,2.135,0.3,3.209,0.395
	C202.679,142.782,202.029,142.416,201.29,142.416z"/>
<path fill="#FECDC5" d="M199.871,142.944c-0.373,0.315-0.646,0.744-0.747,1.24c1.488,0.189,2.949,0.32,4.372,0.402
	c-0.008-0.466-0.161-0.895-0.416-1.248C202.007,143.244,200.937,143.111,199.871,142.944z"/>
<path fill="#E9BAA9" d="M208.472,143.419c-0.355-0.242-0.783-0.385-1.245-0.385c-0.496,0-0.949,0.169-1.318,0.445
	C206.76,143.492,207.614,143.472,208.472,143.419z"/>
<path fill="#FECDC5" d="M208.472,143.419c-0.858,0.053-1.712,0.073-2.562,0.06c-0.387,0.29-0.672,0.701-0.804,1.18
	c1.473,0.05,2.896,0.052,4.249,0.017C209.216,144.159,208.903,143.713,208.472,143.419z"/>
<path fill="#E9BAA9" d="M212.898,142.575c-0.699,0-1.315,0.331-1.72,0.838c1.074-0.029,2.144-0.143,3.22-0.243
	C214.003,142.804,213.479,142.575,212.898,142.575z"/>
<path fill="#FECDC5" d="M214.398,143.171c-1.076,0.1-2.147,0.214-3.22,0.243c-0.271,0.339-0.441,0.756-0.474,1.216
	c1.569-0.07,3.026-0.187,4.348-0.326C214.953,143.86,214.72,143.469,214.398,143.171z"/>
<path fill="#E9BAA9" d="M219.542,143.424c-0.316-0.597-0.936-1.009-1.659-1.009c-0.552,0-1.044,0.242-1.389,0.621
	C217.521,143.015,218.659,143.083,219.542,143.424z"/>
<path fill="#FECDC5" d="M219.542,143.424c-0.883-0.341-2.021-0.41-3.047-0.388c-0.282,0.31-0.626,0.713-0.651,1.16
	c0.843-0.1,2.157-0.208,2.157-0.317v0.001c0,0,1.516,0.131,1.464,1.114c0.086-0.216,0.22-0.449,0.22-0.695
	C219.683,143.982,219.681,143.687,219.542,143.424z"/>
</svg>
