<?xml version="1.0" encoding="utf-8"?>
<!-- Generator: Adobe Illustrator 17.0.0, SVG Export Plug-In . SVG Version: 6.00 Build 0)  -->
<!DOCTYPE svg PUBLIC "-//W3C//DTD SVG 1.1//EN" "http://www.w3.org/Graphics/SVG/1.1/DTD/svg11.dtd">
<svg version="1.1" xmlns="http://www.w3.org/2000/svg" xmlns:xlink="http://www.w3.org/1999/xlink" x="0px" y="0px" width="244px"
	 height="332.5px" viewBox="0 0 244 332.5" enable-background="new 0 0 244 332.5" xml:space="preserve">
<g id="Bg" display="none">
	<polygon display="inline" fill="#012B31" points="378,-11 315,-11 -265,-11 -265,581 55,581 55,689 378,689 378,339 954,339 
		954,-11 	"/>
</g>
<g id="_x31_">
</g>
<g id="_x32_">
	<g>
		<path fill="#3A3A3A" d="M179.701,207.48c0.366,5.591-3.869,10.42-9.46,10.786l-91.107,5.965c-5.591,0.366-10.42-3.869-10.786-9.46
			L57.271,45.572c-0.366-5.591,3.869-10.42,9.46-10.786l91.107-5.965c5.591-0.366,10.42,3.869,10.786,9.46L179.701,207.48z"/>
		<path fill="#737F83" d="M78.46,227.152c-6.846,0-12.558-5.355-13.005-12.193L54.378,45.761c-0.228-3.477,0.913-6.834,3.21-9.453
			c2.297-2.619,5.477-4.187,8.953-4.414l91.107-5.965c7.229-0.489,13.403,5.043,13.868,12.164l11.077,169.198
			c0.228,3.476-0.913,6.833-3.21,9.453s-5.477,4.186-8.954,4.414l-91.105,5.965C79.035,227.142,78.746,227.152,78.46,227.152z
			 M158.509,31.698c-0.16,0-0.321,0.005-0.483,0.016L66.92,37.678c-1.932,0.127-3.698,0.998-4.975,2.453s-1.909,3.32-1.782,5.251
			l11.077,169.199c0.259,3.959,3.683,7.041,7.703,6.757l91.107-5.965c1.932-0.126,3.698-0.996,4.975-2.451
			c1.277-1.455,1.909-3.32,1.782-5.251L165.73,38.471C165.482,34.673,162.311,31.698,158.509,31.698z"/>
	</g>
	
		<rect x="75.638" y="62.038" transform="matrix(0.9979 -0.0653 0.0653 0.9979 -7.9184 8.0015)" fill="#737F83" width="85.505" height="126.084"/>
	<path fill="#232323" d="M125.738,48.735c0.045,0.687-0.438,1.097-1.835,1.189l-23.667,1.549c-1.397,0.091-1.929-0.252-1.974-0.939
		l-0.038-0.584c-0.045-0.687,0.426-1.278,1.823-1.369l23.667-1.549c1.397-0.091,1.941,0.433,1.986,1.12L125.738,48.735z"/>
	<path fill="#E9BAA9" d="M182.281,152.5c0,0,5.123,13.966-0.84,21.892c-5.962,7.926-25.067,10.102-41.299,6.626
		c-16.232-3.476-52.535,3.23-74.994,39.197c-20.962,33.569-33.286,73.23-2.813,113.298c3.752,0.128,7.5-0.133,11.264-0.204
		c3.658-0.069,7.316-0.146,10.974-0.222l6.72-4.028c-35.577-38.255-22.15-76.88-1.109-96.907s36.33-25.074,62.48-21.95
		S208.415,166.644,182.281,152.5z"/>
	<path fill="#DFA696" d="M152.663,210.204c-13.45-1.607-24.023-1.027-33.987,2.616c-0.226-0.247-0.533-0.435-0.975-0.468
		c-24.784-1.869-39.896,28.249-62.486,26c3.012-6.374,6.384-12.453,9.933-18.136c22.46-35.967,58.763-42.674,74.994-39.197
		s35.336,1.3,41.299-6.626s0.84-21.892,0.84-21.892C208.415,166.644,178.814,213.327,152.663,210.204z"/>
	<path fill="#E8A2B0" d="M183.508,179.011c-1.543-1.652-3.392-0.255-5.848,2.038c-2.456,2.293-4.96,4.09-3.418,5.743
		s6.512,3.023,8.968,0.73C185.666,185.229,185.051,180.663,183.508,179.011z"/>
	<path fill="#CC7691" d="M167.317,95.123c-40.907-27.095-51.393-24.564-73.842-12.645c-22.449,11.918-36.676,27.571-41.495,40.495
		c-4.819,12.924-19.257,39.449-33.756,40.8c0,0,25.663,7.593,51.607-4.719c17.477-9.636,31.644-23.565,52.298-26.529
		c16.345-2.346,37.354,0.322,50.391,11.342c8.68,7.337,12.175,14.926,10.051,23.819c-0.663,6.763-3.825,13.692-6.707,19.311
		c-0.851,1.66-1.793,3.085-2.792,4.381c-5.467,9.843-15.979,17.026-46.465,11.636c-2.375-0.42-9.352-0.334-15.515,3.467
		c-14.209,5.957-23.829,14.058-40.364,50.11c-12.552,30.197-0.116,61.696,10.954,76.556c2.537-0.053,5.073-0.104,7.61-0.154
		c4.8-0.095,9.6-0.176,14.4-0.241c-22.308-21.26-29.013-49.785-22.784-70.955c6.924-23.533,23.032-41.343,40.462-46.108
		c7.212-0.934,19.524-2.05,28.239-0.888c26.737,3.565,39.018-20.907,47.383-48.323C205.359,139.063,208.224,122.218,167.317,95.123z
		"/>
	<path fill="#CC7691" d="M89.292,332.993c0.17-0.003,0.341-0.006,0.511-0.009c-3.11-2.812-8.2-9.271-8.2-9.271
		c-6.057-6.841-10.557-15.831-12.811-24.649c-3.258-12.747-1.811-26.037,0.362-38.752c-11.794,36.748,5.694,64.62,11.815,72.85
		C83.744,333.104,86.518,333.048,89.292,332.993z"/>
	<path fill="#B75978" d="M112.099,120.8c19.091-3.608,42.847,5.904,58.456,21.541c-13.112-9.725-32.874-12.049-48.428-9.817
		c-20.654,2.964-34.821,16.892-52.298,26.529c-13.675,6.489-27.232,7.433-37.033,6.89c11.453-1.913,22.151-7.638,31.921-14.546
		c8.155-5.766,15.853-12.133,23.927-18.007C95.678,128.274,103.357,122.452,112.099,120.8z"/>
	<path fill="#E8A2B0" d="M124.771,96.98c-4.513-13.987-12.723-19.325-16.645-21.148c-3.308,1.071-6.671,2.566-10.301,4.386
		C110.445,85.172,124.771,96.98,124.771,96.98z"/>
	<path fill="#E8A2B0" d="M89.395,84.723c-2.629,1.512-5.13,3.076-7.508,4.677c10.01,3.109,20.09,8.839,20.09,8.839
		C98.011,90.703,93.195,86.773,89.395,84.723z"/>
	<path fill="#E8A2B0" d="M73.146,95.923c-1.962,1.618-3.804,3.253-5.524,4.902c8.791,1.482,17.906,5.132,17.906,5.132
		C81.227,99.937,76.618,97.186,73.146,95.923z"/>
	<path fill="#FECDC5" d="M65.181,333.546c1.696-0.015,3.392-0.075,5.09-0.136c2.186-1.58,2.562-5.07,0.774-8.011
		c-1.86-3.06-5.337-4.344-7.766-2.868c-2.429,1.477-2.89,5.154-1.03,8.215C63.013,332.005,64.054,332.957,65.181,333.546z"/>
	
		<ellipse transform="matrix(-0.3095 -0.9509 0.9509 -0.3095 -218.6908 461.0758)" fill="#FECDC5" cx="58.067" cy="309.942" rx="6.46" ry="5.353"/>
	
		<ellipse transform="matrix(-0.0716 -0.9974 0.9974 -0.0716 -232.5653 365.7842)" fill="#FECDC5" cx="53.958" cy="291.131" rx="6.584" ry="5.739"/>
	
		<ellipse transform="matrix(0.062 -0.9981 0.9981 0.062 -220.0466 307.8279)" fill="#FECDC5" cx="53.745" cy="270.982" rx="6.567" ry="6.221"/>
	
		<ellipse transform="matrix(0.407 -0.9134 0.9134 0.407 -195.5329 204.2455)" fill="#FECDC5" cx="59.534" cy="252.713" rx="6.603" ry="6.254"/>
	
		<ellipse transform="matrix(0.4973 -0.8676 0.8676 0.4973 -170.1877 176.9175)" fill="#FECDC5" cx="67.567" cy="235.313" rx="6.508" ry="6.165"/>
	<path fill="#E9BAA9" d="M70.804,229.666c1.551,0.889,2.572,2.16,2.911,3.833c-2.668,1.43-5.327,2.893-8.242,3.759
		c-1.213,0.36-2.499,0.663-3.73,0.852c-0.716-1.778-0.586-4.01,0.476-5.863C64.006,229.128,67.85,227.973,70.804,229.666z"/>
	
		<ellipse transform="matrix(0.5931 -0.8051 0.8051 0.5931 -144.6203 151.6803)" fill="#E8A2B0" cx="77.754" cy="218.92" rx="6.682" ry="6.329"/>
	
		<ellipse transform="matrix(0.7623 -0.6472 0.6472 0.7623 -111.2205 107.646)" fill="#E8A2B0" cx="90.949" cy="205.249" rx="6.502" ry="6.159"/>
	
		<ellipse transform="matrix(0.9109 -0.4125 0.4125 0.9109 -70.9918 61.7927)" fill="#E8A2B0" cx="107.624" cy="195.323" rx="6.658" ry="6.307"/>
	
		<ellipse transform="matrix(0.9995 0.033 -0.033 0.9995 6.3718 -4.0802)" fill="#E8A2B0" cx="126.798" cy="190.999" rx="6.659" ry="6.308"/>
	
		<ellipse transform="matrix(0.9995 0.033 -0.033 0.9995 6.4075 -4.7181)" fill="#E8A2B0" cx="146.144" cy="191.761" rx="6.659" ry="5.996"/>
	<path fill="#E8A2B0" d="M170.114,187.645c-0.826-2.638-3.702-3.458-6.909-2.454c-3.206,1.004-5.529,3.451-4.703,6.089
		s4.095,3.963,7.301,2.959C169.01,193.235,170.94,190.283,170.114,187.645z"/>
	<g>
		<path fill="#5B5A5C" d="M176.593,160.014c-10.001-2.186-20.267-2.946-30.508-3.12c-13.223-0.224-26.387,0.366-39.477,2.347
			c-9.912,1.5-19.879,3.408-29.657,5.64c-3.815,0.871-7.822,1.835-11.661,3.2l3.057,46.689c0.366,5.591,5.195,9.826,10.786,9.46
			l91.107-5.965c5.591-0.366,9.826-5.195,9.46-10.786L176.593,160.014z"/>
		<path fill="#8C989B" d="M179.542,160.688c-1.95-0.486-3.939-1.569-5.909-1.944l3.175,48.926c0.127,1.93-0.505,3.796-1.782,5.251
			c-1.277,1.455-3.043,2.325-4.975,2.451l-91.107,5.965c-4.021,0.284-7.444-2.798-7.703-6.757l-3.098-47.912
			c-1.929,0.587-3.838,1.734-5.685,2.517l2.997,45.773c0.447,6.837,6.159,12.193,13.005,12.193c0.286,0,0.575-0.01,0.863-0.028
			l91.105-5.965c3.477-0.228,6.657-1.795,8.954-4.414c2.297-2.62,3.438-5.977,3.21-9.453L179.542,160.688z"/>
	</g>
	<path fill="#8C989B" d="M145.156,155.73c-13.223-0.224-25.157-0.214-38.246,1.767c-9.513,1.44-19.428,4.288-28.828,6.405
		l1.767,26.878l85.322-5.586l-1.931-27.801C157.499,156.779,150.931,155.828,145.156,155.73z"/>
	<circle fill="#3A3A3A" cx="123.335" cy="203.364" r="9.239"/>
</g>
<g id="_x33_">
</g>
<g id="_x34_">
</g>
<g id="_x35__1_">
</g>
<g id="_x36_">
</g>
<g id="_x37_">
</g>
</svg>
