<?xml version="1.0" encoding="utf-8"?>
<!-- Generator: Adobe Illustrator 17.0.0, SVG Export Plug-In . SVG Version: 6.00 Build 0)  -->
<!DOCTYPE svg PUBLIC "-//W3C//DTD SVG 1.1//EN" "http://www.w3.org/Graphics/SVG/1.1/DTD/svg11.dtd">
<svg version="1.1" id="Layer_1" xmlns="http://www.w3.org/2000/svg" xmlns:xlink="http://www.w3.org/1999/xlink" x="0px" y="0px"
	 width="245px" height="331px" viewBox="0 0 245 331" enable-background="new 0 0 245 331" xml:space="preserve">
<g id="Bg" display="none">
	<polygon display="inline" fill="#012B31" points="637,-12 574,-12 -6,-12 -6,580 314,580 314,688 637,688 637,338 1213,338 
		1213,-12 	"/>
</g>
<g id="_x31_">
	<path fill="#E8A2B0" d="M205.161,230.702c1.301-1.244,2.479-2.593,3.463-4.087c2.96-5.615,2.423-13.163,1.877-17.615
		c-0.997-8.129-0.125-12.375-0.125-12.375c-3.875,4.5,0.625,17.875-10,27.5s-32.625,0.625-32.625,0.625s-4.616-5.689-10.342-13.007
		c-0.625,1.328-1.085,1.78-1.908,3.007c-0.391,0.583-1.394-0.079-1-0.667c0.908-1.353,1.472-1.835,2.156-3.303
		c-8.388-10.746-18.77-24.513-20.656-29.155c-3.25-8-24.315,15.41-20.625,22.125c4.625,8.417,2.458,18.583,2.458,18.583L103,209.167
		c-2.25,19.542,11.333,25.5,11.333,25.5C112.042,241.958,104.125,246.25,88,260s-16.6,20.708-14.667,35.5
		c1.917,14.667,11.75,22.042,11.5,21.667s-7.958-19.292-6.208-31.542s14-18.875,31.375-29.25s16.875-19.75,16.875-19.75
		c2,0.125,4.5-0.375,4.5-0.375c0.875,5.625-0.875,15-0.875,15c-3.875,19.625-22.75,16.75-22.75,16.75s-3,5.625,11.875,6
		s18.875-13.5,18.875-13.5c5.715-0.472,13.243-0.653,15.75-3.75c2.125-2.625,1-5.375-3.25-8.375s-9.25,0.875-9.25,0.875
		c0.75-5.5-0.5-15.75-0.5-15.75c3.875-1.125,7.25-4.375,7.25-4.375c5.125,3.625,7.25,6,21,9.5
		c8.963,2.282,20.501,0.128,29.492-3.791C201.114,233.556,203.311,232.471,205.161,230.702z"/>
	<path fill="#E9BAA9" d="M205.161,230.702c1.301-1.244,2.479-2.593,3.463-4.087c2.96-5.615,2.423-13.163,1.877-17.615
		c-0.997-8.129-0.125-12.375-0.125-12.375c-3.875,4.5,0.625,17.875-10,27.5s-32.625,0.625-32.625,0.625s-4.616-5.689-10.342-13.007
		c-0.625,1.328-1.085,1.78-1.908,3.007c-0.391,0.583-1.394-0.079-1-0.667c0.908-1.353,1.472-1.835,2.156-3.303
		c-8.388-10.746-18.77-24.513-20.656-29.155c-3.25-8-24.315,15.41-20.625,22.125c4.625,8.417,2.458,18.583,2.458,18.583L103,209.167
		c-2.25,19.542,11.333,25.5,11.333,25.5C112.042,241.958,104.125,246.25,88,260s-16.6,20.708-14.667,35.5
		c1.917,14.667,11.75,22.042,11.5,21.667s-7.958-19.292-6.208-31.542s14-18.875,31.375-29.25s16.875-19.75,16.875-19.75
		c2,0.125,4.5-0.375,4.5-0.375c0.875,5.625-0.875,15-0.875,15c-3.875,19.625-22.75,16.75-22.75,16.75s-3,5.625,11.875,6
		s18.875-13.5,18.875-13.5c5.715-0.472,13.243-0.653,15.75-3.75c2.125-2.625,1-5.375-3.25-8.375s-9.25,0.875-9.25,0.875
		c0.75-5.5-0.5-15.75-0.5-15.75c3.875-1.125,7.25-4.375,7.25-4.375c5.125,3.625,7.25,6,21,9.5
		c8.963,2.282,20.501,0.128,29.492-3.791C201.114,233.556,203.311,232.471,205.161,230.702z"/>
	<path fill="#DD90A2" d="M173,237.675c-0.389-0.092-1.306-0.277-2.23-0.566c-0.889-0.192-1.776-0.41-2.662-0.684
		c-0.161-0.015-0.321-0.029-0.482-0.045c-0.19-0.018-0.324-0.116-0.41-0.243c-0.099-0.034-0.199-0.061-0.298-0.096
		c-0.016,1.551,0.064,0.331-0.101,1.873c0.844,0.232,1.734,0.468,2.685,0.71c4.709,1.199,10.018,1.17,15.37,0.319
		C180.872,238.866,176.875,238.589,173,237.675z"/>
	<path fill="#DFA696" d="M117.548,209.483c0.516-0.806,1.063-1.592,1.675-2.323c0.884-1.057,1.826-2.099,2.949-2.912
		c0.242-0.175,1.829-1.373,2.454-1.686s0.812-0.438,1.188-0.562c0.318,0.883,1.244,3.191,1.521,4.083
		c2.147-2.777,5.865-4.829,9.25-5c0.375,0.562,1.75,2.583,2.417,3.417c2.875,2.938,3.25,3.25,5.878,4.929
		c1.734-2.353,3.564-4.629,5.446-6.863c-6.609-8.697-12.898-17.43-14.324-20.941c-3.25-8-24.315,15.41-20.625,22.125
		C116.402,205.618,117.092,207.573,117.548,209.483z"/>
	<path fill="#DFA696" d="M132.511,261.602c5.755-7.34,9.104-17.434,8.775-26.769c-0.004-0.119,0.031-0.211,0.081-0.29
		c-0.021-0.194-0.04-0.368-0.056-0.511c-0.121-0.102-0.245-0.194-0.365-0.313c-0.046-0.046-0.061-0.099-0.087-0.15
		c-3.014,1.239-6.267,1.982-9.468,2.514c-0.034,0.059-0.064,0.12-0.094,0.18c0.047-0.009,0.078-0.015,0.078-0.015
		c0.875,5.625-0.875,15-0.875,15c-3.875,19.625-23.667,16.458-23.667,16.458s0.042,0.75,0.712,0.949
		C115.531,272.915,127.292,268.259,132.511,261.602z"/>
	<path fill="#DFA696" d="M152.125,247.344c-1.356-0.957-3.819-0.148-5.141-0.055c-3.883,2.087-8.166,8.802-6.211,13.024
		c9.802-1.097,11.448-0.909,13.571-3.531C156.469,254.156,156.375,250.344,152.125,247.344z"/>
	<path fill="#DFA696" d="M78.608,294.795c-1.254-7.919,0.122-16.637,4.35-23.532c4.641-7.568,11.938-10.746,19.943-13.746
		c4.668-1.749,9.238-3.703,13.295-6.644c2.83-2.052,5.412-4.372,7.875-6.83c2.376-3.57,2.752-6.527,2.803-7.417
		c-4.172,0.135-8.892-0.022-12.542-1.958C111.856,241.685,103.783,246.541,88,260c-16.125,13.75-16.6,20.708-14.667,35.5
		c1.917,14.667,11.75,22.042,11.5,21.667c-0.181-0.271-4.177-10.191-5.811-20.342C78.862,296.153,78.716,295.478,78.608,294.795z"/>
	<path fill="#DFA696" d="M167.214,236.307c-0.883-0.112-1.762-0.244-2.61-0.529c-0.16-0.054-0.262-0.156-0.32-0.277
		c-1.168-0.36-2.252-0.834-3.136-1.785c-0.545-0.587-1.073-1.177-1.56-1.794c-1.844-1.994-2.437-4.891-2.563-7.899
		c-0.106-0.988-0.088-1.923-0.009-2.728c0.011-0.42,0.029-0.834,0.046-1.247c-0.668-2.228,0.756-4.024,2.694-5.315
		c-0.755-0.958-1.539-1.955-2.348-2.989c-0.276,0.586-0.564,1.164-0.864,1.737c0,0.007,0.003,0.012,0.003,0.019
		c-0.212,3.644-0.755,5.542-2.547,8.583c-1.292,1.792-2.375,3.375-3.625,4.833c-0.608,0.635-1.468,1.671-1.875,2.208
		c4.711,3.353,7.192,5.791,18.913,8.952C167.338,237.488,167.275,236.897,167.214,236.307z"/>
	<path fill="#E9BAA9" d="M65.375,114.625c0,0,3.5,2.625,4.625,5.875s0.5,8.625-5,11.75c-2.984,1.696-10.875,4.125-13.625,13.25
		s-3.125,24,2.625,32.125s24.375,19.125,39.875,13.625c0,0-25,1.125-32.25-16.25s-3.5-24.125,0.25-29.625s14-9,14.5-14
		S73,113.375,65.375,114.625"/>
	<path fill="#DFA696" d="M64.553,114.524c0,0,4.322,2.726,5.447,5.976s0.5,8.625-5,11.75c-2.984,1.696-10.875,4.125-13.625,13.25
		c-1.512,5.017-2.299,11.767-1.749,18.18c0.558-1.789,1.219-3.543,2.047-5.228c2.037-4.148,4.829-8.792,8.801-11.362
		c0.114-0.074,0.224-0.087,0.327-0.076c0.352-0.563,0.713-1.108,1.074-1.639c3.75-5.5,14-9,14.5-14S72.178,113.274,64.553,114.524z"
		/>
	<path fill="#E9BAA9" d="M190.625,119.875c0,0-4.25,2.75-4.25,6.125s4.75,7.875,9.875,10.25s13.625,11.625,12.375,26
		S202,190.875,182.5,194.5c0,0,7.875,17.125-6.75,20.25c0,0,7.125-7.5,3.25-13.125s-12.5-4.875-20.25,3l-6.875-5.875
		c0,0,9.875-9.125,27.375-12.25s21.75-16.375,20.125-26.125s-4.75-14.25-12.5-18.75S180.625,118.375,190.625,119.875z"/>
	<path fill="#DFA696" d="M180.149,197.162c2.957,3.492,3.671,8.69,2.638,13.33c3.179-4.597,1.427-11.306,0.35-14.364
		c-3.792-4.27-9.664-6.543-15.631-6.359c-5.377,2.065-9.462,4.475-12.102,6.28c0.062,0.055,0.116,0.118,0.175,0.176
		C163.134,193.64,174.128,190.05,180.149,197.162z"/>
	<path fill="#DFA696" d="M186.875,141.625c3.986,2.315,6.743,4.635,8.707,7.664c0.112-0.021,0.234-0.009,0.361,0.072
		c7.122,4.562,5.07,15.843,11.673,19.853c0.485-2.35,0.811-4.692,1.009-6.964c1.25-14.375-7.25-23.625-12.375-26
		s-9.875-6.875-9.875-10.25s4.25-6.125,4.25-6.125C180.625,118.375,179.125,137.125,186.875,141.625z"/>
	<path fill="#E9BAA9" d="M230.875,199.25c0,0,0.625,3.5-3.125,3.25c-2.25-0.25,0.375-3.75-0.875-6.125s-1-4.875-7.625-4.375
		S230.75,184.875,230.875,199.25"/>
	<path fill="#DFA696" d="M227.031,199.728c0.548,1.236,1.966,1.998,3.345,1.866c0.744-0.965,0.499-2.343,0.499-2.343
		c-0.125-14.375-18.25-6.75-11.625-7.25s6.375,2,7.625,4.375C227.415,197.4,227.232,198.635,227.031,199.728z"/>
	<path fill="#E9BAA9" d="M25.833,205.167c0,0,5.833-0.5,14.333,5s12.333,7.5,25.167,6.833s15.167-7.667,14.333-7.833
		C78.833,209,61.167,209.833,53,206S35.167,200.833,25.833,205.167"/>
	<path fill="#DFA696" d="M27.674,205.245c7.349-2.104,12.576,1.63,20.076,6.005c4.346,2.535,8.625,3.625,15.5,3.75
		c3.887,0.071,8.278-0.551,12.156-0.546c4.019-2.256,4.796-5.18,4.261-5.287C78.833,209,61.167,209.833,53,206
		s-17.833-5.167-27.167-0.833C25.833,205.167,26.494,205.115,27.674,205.245z"/>
	<path fill="#E9BAA9" d="M90.5,217.833c0,0-9.667,12.167-6.667,33.167S96,293.333,100.667,298.833s7.167,3.333,5-1.667
		s-14-32.167-12.167-57s13-29.5,13-29.5S106.667,197,90.5,217.833z"/>
	<path fill="#DFA696" d="M103.75,208.648c0.079-0.783,0.177-1.564,0.295-2.344c-2.13-0.331-6.105,1.942-13.546,11.53
		c0,0-4.294,5.415-6.269,15.244c0.782-0.835,1.595-1.61,2.572-2.289c2.83-1.966,5.867-3.404,9.078-4.355
		c1.968-6.59,4.685-10.554,6.878-12.86c0.088-1.467,0.256-2.931,0.36-4.407C103.146,208.796,103.463,208.627,103.75,208.648z"/>
	<path fill="#E8A2B0" d="M62.167,263.333c-1.119-4.813-5.166-5.94-6.747-5.254c1.011,1.68,1.914,3.376,2.564,5.113
		c1.126,2.075,1.342,4.698,0.683,9.641c-0.075,0.564-0.151,0.839-0.307,1.37c-0.359,1.391-1.078,2.596-1.984,3.672
		c-1.296,1.538-2.903,3.025-4.935,3.371c-1.502,0.254-2.982,0.476-4.502,0.379c-3.219-0.204-4.738-1.567-5.804-3.565
		c-0.715-0.862-1.227-1.919-1.525-3.052c-0.833-1.711-1.44-3.395-3.275-3.008c-0.75,0.158-1.241,0.535-1.564,1.012
		c-0.289,1.119-0.436,2.227-0.446,3.326c0.08,0.494,0.176,0.828,0.176,0.828c4.667,12.333,17.333,11.167,24.333,7
		C65.833,280,63.833,270.5,62.167,263.333z"/>
	<path fill="#DD90A2" d="M62.167,263.333c-1.119-4.813-5.166-5.94-6.747-5.254c1.011,1.68,1.914,3.376,2.564,5.113
		c0.633,1.166,0.968,2.523,1.032,4.35c1.527,5.241-0.81,11.864-5.998,13.806c-3.715,1.39-7.687,1.482-11.102-0.755
		c-3.01-1.971-5.523-4.759-6.314-8.319c-0.354,0.191-0.631,0.441-0.832,0.739c-0.289,1.119-0.436,2.227-0.446,3.326
		c0.08,0.494,0.176,0.828,0.176,0.828c4.667,12.333,17.333,11.167,24.333,7C65.833,280,63.833,270.5,62.167,263.333z"/>
	<path fill="#DD90A2" d="M130.5,224c0,0,0.875-7.875,0-11.125c0,0,3.25,5.5,7,7.375C137.5,220.25,135.375,223,130.5,224z"/>
	<path fill="#E9BAA9" d="M150.188,257.688c0,0-2.875-1.688-2.562-4.25c0,0-2.917,1.667-1.333,4.271c1.583,2.604,0,0,0,0
		S148.375,258.312,150.188,257.688"/>
	<path fill="#E9BAA9" d="M104.667,39.667c0,0-15-6.667-21.333,4.333C77,55,82,65,73,67.667c0,0,14,7,28-1.333
		S104.667,39.667,104.667,39.667z"/>
	<path fill="#DFA696" d="M104.667,39.667c0,0-2.221-0.982-5.311-1.569C96.338,43.311,95.028,50.262,95,55.875
		c-0.021,4.119,0.5,8.625,1.556,12.61c1.471-0.566,2.957-1.266,4.444-2.152C115,58,104.667,39.667,104.667,39.667z"/>
	<path fill="#E9BAA9" d="M184.868,126.833c0.758-0.134,0.975,0.625,1.173,1.75c0.199,1.126,0.512,2.127-0.245,2.261
		c-0.758,0.134-2.389-0.51-2.588-1.636S184.111,126.967,184.868,126.833z"/>
	
		<ellipse transform="matrix(0.9161 0.4009 -0.4009 0.9161 99.1281 -54.9338)" fill="#FECDC5" cx="180.841" cy="209.422" rx="0.836" ry="1.661"/>
	
		<ellipse transform="matrix(0.728 0.6856 -0.6856 0.728 194.7926 -64.2869)" fill="#FFC2D6" cx="178.412" cy="213.338" rx="0.836" ry="1.661"/>
	<path fill="#CC7691" d="M226.955,187.179c-0.301-0.127-0.608-0.229-0.913-0.337c-5.533-1.532-12.791-2.092-17.787-0.444
		c-1.206,0.599-2.329,1.377-3.388,2.32c-3.898,4.797-4.435,12.538-3.033,19.449c1.27,6.258,1.346,9.502-0.372,11.914
		c-0.551,1.075-1.364,2.034-2.321,2.784c-1.626,1.517-3.789,2.63-6.069,3.262c-1.023,0.283-2.09,0.474-3.18,0.597
		c-9.397,2.036-21.725-4.39-21.725-4.39l-0.038,0.067c-0.397-1.677-0.831-3.367-1.295-5.067c-1.828-6.702-7.563-13.582-12.628-18.63
		c0.727-0.9,1.485-1.664,2.295-2.203c5.5-3.667,18-8.833,23.5-1.667s3,16.333-3,18.667c-3.167,1.5-4.5,3.333-3.5,4.167
		c1,0.833,5.667,0.333,9.833-4.333c4.167-4.667,6.417-12.75-0.5-20.667c-1.126-1.289-1.474-1.942-2.958-2.792
		c5.866-1.295,16.844-7.38,19.792-18.875c2.879-13.186,1.92-17.357-0.725-21.883c-0.898-2.294-2.778-3.745-3.51-4.117
		c-9.392-4.771-10.781-8.874-10.255-12.669c-0.006-0.557,0.029-1.137,0.137-1.763c0.366-2.118,0.923-4.649,2.126-6.623
		c1.242-2.853,3.744-4.201,7.606-4.421c5.8-0.33,12.058,3.242,16.023,7.224c5.01,5.031,6.013,11.717,8.795,17.912
		c4.536,8.655,13.068,11.84,13.068,11.84c-3.667-3.333-2.167-13.5-0.833-18s0.667-11.667-3-19.5s-6-10.667-22.667-11.667
		s-19.333,4.167-22.667,13.333c-3.333,9.167-5,18.333,3,22.833c2.608,1.467,5.727,4.289,7.497,6.018
		c3.765,4.861,4.502,13,1.571,20.815c-3,8-12.5,15.167-25.167,14.833c-12.667-0.333-22.333-6.833-24.167-14.833
		c-1.636-7.138,0.442-21.297,0.909-24.268c4.12-3.954,5.024-9.259,4.218-13.969c0.232,0.035,0.464,0.071,0.706,0.071
		c2.577,0,4.667-2.089,4.667-4.667s-2.089-4.667-4.667-4.667c-1.447,0-2.725,0.673-3.581,1.707
		c0.111-4.139,0.248-11.117,0.321-14.949c2.649-0.45,4.259-0.758,4.259-0.758s4.833-7-1.833-10.5c0,0,3.833-12.167-8.833-25.833
		C132.333,61,133,53.833,133,53.833s11-2.167,16.333-11C154.667,34,156.333,25.167,146,17s-17.5-4-26.333,1.167s-25,21-20,54.5
		c2.5,14.5,4.5,20.833,6.167,24.667c0,0-8.833,4.167-4.167,12.333c0.834,1.459,3.022,2.367,6.048,2.88l-0.267,14.607
		c-0.886-1.006-2.168-1.654-3.614-1.654c-2.669,0-4.833,2.164-4.833,4.833s2.164,4.833,4.833,4.833c0.268,0,0.526-0.037,0.783-0.079
		c0.014,1.779,0.354,5.188,2.438,8.487c0.21,4.061,0.736,20.637-4.22,26.759c-5.667,7-17.167,17.667-29.5,10.833
		C61,174.333,60,168,60.667,157.667C61.333,147.333,64.833,143,72.833,138.5s6.333-13.667,3-22.833
		c-3.333-9.167-6-14.333-22.667-13.333s-19,3.833-22.667,11.667c-3.667,7.833-4.333,15-3,19.5s2.833,14.667-0.833,18
		c0,0,8.532-3.185,13.068-11.84c2.781-6.196,3.784-12.881,8.795-17.912c3.965-3.981,10.224-7.554,16.023-7.224
		c3.861,0.22,6.364,1.568,7.606,4.421c1.203,1.975,1.761,4.506,2.126,6.623c0.108,0.626,0.143,1.206,0.137,1.763
		c0.527,3.795-0.863,7.899-10.255,12.669c-10.5,5.333-8.667,27.5-7.167,31.333s16.167,31,42.667,17c0,0-5.29,6.76-11.43,12.153
		c-2.954,3.549-7.784,5.173-12.233,5.763c-2.854,0.378-5.519,0.693-8.065,0.494c-2.231,0.136-4.492,0.005-6.68-0.312
		c-6.294-0.912-11.339-3.396-17.021-6.061c-6.984-3.275-15.011-2.519-22.228-0.487c-3.339,0.94-6.429,2.072-8.716,4.869
		c-1.308,1.6-2.062,3.417-2.545,5.333c-0.128,1.24-0.166,2.585-0.082,4.082c0.667,11.833,5.167,14.667,13,16.167
		s10.667-2.333,12-5.333c1.333-3-1.5-5-4.667-2.5c-0.021,0.016-0.042,0.027-0.063,0.043c-1.557,1.245-3.167,1.941-4.843,1.778
		c-0.486,0.055-0.988,0.051-1.509-0.037c-2.664-0.447-4.865-2.457-6.088-4.808c-2.957-5.684-0.904-11.652,5.244-13.307
		c0.294-0.12,0.598-0.233,0.925-0.336c9-2.833,14.167-3.167,28,1.833c9.167,3.667,23.5,2.5,23.5,2.5s0.021-0.003,0.037-0.005
		c-0.236,0.113-0.466,0.224-0.704,0.338c0,0-12.813,3.793-22.715,9.425c-0.071,0.058-0.186,0.115-0.316,0.171
		c-1.905,1.613-3.522,3.489-4.92,5.534c-0.833,1.812-1.422,3.732-1.715,5.715c-0.799,5.413,0.861,11.266,3.221,16.241
		c2.205,4.648,5.891,9.057,8.111,13.699c2.459,4.091,3.959,7.352,3.959,11.216c0,5.667-2.724,11.747-8.875,12.875
		c-7.5,1.375-14.185-0.689-17.889-9.755c-0.058,0.992-0.016,1.978,0.112,2.96c0.589,2.787,2.245,6.554,6.86,8.419
		c7.367,2.978,13.849,3.005,19.586-2.132c4.282-3.664,5.063-8.341,5.172-10.572c0.385-2.737,0.426-5.501,0.233-8.001
		c-0.374-4.864-1.93-8.966-4.503-13.109c-1.698-2.734-4.217-5.207-5.468-8.213c-1.441-2.036-2.227-4.16-1.855-7.14
		c1-8,9.667-7.833,15.833-10.167c6.167-2.333,26.833-10,32.667-18.5c0,0,0.333,10.667,12.167,16
		c11.837,5.333,22.837,1.166,27.67-5.334c2.062-2.773,3.85-6.758,5.651-10.702c2.242,1.908,4.44,3.886,6.349,6.202
		c7.833,9.5,8.167,22.333,6.667,28.667c-1.343,5.668-4.542,8.884-5.208,9.458c-0.348,0.351-0.618,0.694-0.846,1.03
		c-1.416,1.42-4.633,4.142-8.097,3.745c-0.058,0.02-0.12,0.033-0.192,0.032c-2.256-0.041-4.902-1.491-5.056-4.034
		c-0.097-1.603,0.478-3.831,2.086-4.519c0.387-0.736,0.98-1.355,1.945-1.854c2.074-1.071,4.827-2.315,6.494,0.083
		c0.164,0.236,0.322,0.482,0.474,0.732c1.335,1.335,2.029,3.393,1.651,5.167c0.136-0.226,0.262-0.461,0.376-0.703
		c-0.059-0.147-0.06-0.32,0.026-0.476c0.205-0.375,0.428-0.719,0.664-1.053c-2.196-9.974-10.702-6.622-13.15-4.609
		c-2.394,1.969-11.5,12,1,18.667c0.937,0.5,1.827,0.892,2.685,1.206c-0.935,1.083-3.788,4.215-5.851,4.628
		c-2.5,0.5,0.5,3.167,3.333,2.167c2.328-0.822,6.227-4.443,8.563-7.016c6.605-0.979,10.601-7.115,14.604-14.15
		c4.023-7.071,3.859-15.904,2.205-24.98c4.667,2.244,14.186,5.488,24.795,1.48c15-5.667,15.667-18.5,15.667-21.833
		c0-3.333-3.5-13.5,9-15.333c11.113-1.63,12.082,6.745,12.16,8.626c0.026,0.075,0.045,0.153,0.071,0.229
		C232.395,197.404,232.487,191.019,226.955,187.179z M129.625,223.625c-12.625,2-16.375-6.875-15.5-15.625s15-19.375,19.625-24.375
		c0,0-1.375,14.875,11.5,22.75C145.25,206.375,142.25,221.625,129.625,223.625z M151.493,196.103
		c-3.021-2.788-5.394-4.642-5.888-5.022c1.452,0.874,2.997,1.474,4.561,1.752c1.216,0.216,2.708,0.292,5.083,0.042
		c-0.328,0.293-1.595,0.809-1.917,1.125C152.67,194.652,152.063,195.358,151.493,196.103z"/>
	<path fill="#B75978" d="M153.028,208.52c-0.402,1.196-0.811,2.389-1.22,3.583c1.059,1.016,2.078,2.081,3.026,3.23
		c2.242,2.719,3.646,4.257,4.792,7.292c0.947-2.779,1.363-4.246,1.88-7.209c0.349-2.001,1.197-3.685,1.942-5.464
		c-2.032-3.263-4.612-6.381-7.179-9.118C154.826,203.212,153.913,205.887,153.028,208.52z"/>
	<path fill="#B75978" d="M84.25,220.75c0,0-8.25,23.5,1.25,49.75s16.25,32.75,19.5,31.5c0,0-3.833-0.667-9.167-12
		c-5.333-11.333-13-34.667-11.333-48.5s3.833-19.167,8.167-25.5L84.25,220.75z"/>
	<path fill="#B75978" d="M74.833,300c-3.089-12.355-1.237-25.648,9.218-34.493c0.497-0.505,1.007-1.004,1.515-1.504
		c-0.472-1.386-0.879-2.784-1.081-4.233c-7.017,6.274-12.901,15.56-13.985,25.564c-1.5,13.833,2,24.667,7.667,30.333
		c5.667,5.667,7.5,3.833,6.667,1.5C84.833,317.167,78,312.667,74.833,300z"/>
	<path fill="#B75978" d="M93.969,256.109c2.787-2.54,5.619-5.094,8.281-7.693c-0.763,0.411-1.742,1.242-2.519,1.628
		c-1.987,1.335-4.14,2.555-6.064,3.539C93.745,254.443,93.859,255.188,93.969,256.109z"/>
	<path fill="#B75978" d="M141.877,247.725c0.829-0.775,2.344-1.711,3.498-2.183c-0.012-7.743-1.875-13.208-1.875-13.208
		l-2.833,1.333c0.316,1.263,0.558,2.509,0.671,4.183C141.911,241.122,142.09,244.425,141.877,247.725z"/>
	<path fill="#B75978" d="M138.81,261.098c-0.173-0.09-0.351-0.168-0.533-0.237c-0.913,2.882-2.679,5.396-4.971,7.4
		c-2.129,2.416-4.858,4.069-8.473,4.739c-9,1.667-15.167,0.333-18.333-6c-3.167-6.333,2-8.333,3.667-8.833s2.667-6.833-5.5-2.333
		c-8.167,4.5-2.5,16.833,4.5,20.667c7,3.833,25.208,3,32.083-12.5c0.028-0.062-0.407-1.565-0.375-1.625
		C140.144,262.018,139.406,261.611,138.81,261.098z"/>
	
		<ellipse transform="matrix(-0.09 -0.9959 0.9959 -0.09 6.3856 238.2637)" fill="#FFFFFF" cx="112.044" cy="116.215" rx="11.132" ry="11.717"/>
	
		<ellipse transform="matrix(0.1161 -0.9932 0.9932 0.1161 10.944 245.0855)" fill="#FFFFFF" cx="143.174" cy="116.394" rx="10.815" ry="11.383"/>
	<path fill="#3A3A3A" d="M120.975,112.351c-0.537,1.631-2.055,2.816-3.866,2.816c-2.068,0-3.759-1.541-4.032-3.534
		c-2.093,1.092-3.508,3.159-3.508,5.533c0,3.512,3.091,6.359,6.904,6.359s6.904-2.847,6.904-6.359
		C123.377,115.24,122.444,113.517,120.975,112.351z"/>
	<path fill="#3A3A3A" d="M143.551,110.152c-0.14,1.877-1.44,3.539-3.366,4.019c-2.2,0.547-4.406-0.644-5.224-2.692
		c-1.937,1.716-2.895,4.288-2.267,6.813c0.93,3.735,4.971,5.946,9.026,4.936s6.59-4.856,5.66-8.591
		C146.871,112.589,145.422,111.004,143.551,110.152z"/>
	<path fill="#3A3A3A" d="M158.873,108.583c0,0-1.756,2.539-4.715,1.641c-0.138-0.228-0.277-0.454-0.43-0.673
		c0.702-0.286,2.641-1.364,2.594-4.527c0,0-1.042,2.85-4.072,2.778c-0.195-0.192-0.403-0.372-0.611-0.551
		c0.599-0.393,2.351-1.838,1.645-4.982c0,0-0.452,3.137-3.61,3.587c-1.512-0.874-3.229-1.473-5.091-1.691
		c-4.367-0.51-8.462,1.145-11.105,4.081c-4.878-2.43-9.866-0.645-11.402,0.025c-2.573-2.858-6.516-4.524-10.778-4.139
		c-1.997,0.18-3.838,0.802-5.447,1.736c-3.221-0.413-3.677-3.599-3.677-3.599c-0.727,3.237,1.151,4.673,1.695,5.015
		c-0.193,0.168-0.383,0.338-0.565,0.516c-3.105,0.137-4.169-2.776-4.169-2.776c-0.049,3.283,2.037,4.317,2.664,4.554
		c-0.14,0.202-0.274,0.408-0.401,0.617c-3.021,0.988-4.815-1.612-4.815-1.612c0.805,3.293,3.215,3.694,3.791,3.743
		c-0.565,1.558-0.814,3.244-0.656,4.985c0.601,6.646,6.759,11.521,13.755,10.888c6.996-0.632,12.18-6.533,11.579-13.178
		c-0.164-1.815-0.754-3.49-1.651-4.964c5.249-1.484,7.797-0.334,8.618,0.205c-0.767,1.33-1.284,2.821-1.472,4.428
		c-0.775,6.628,4.253,12.662,11.23,13.477c6.977,0.815,13.26-3.896,14.035-10.524c0.217-1.858-0.035-3.664-0.645-5.326
		C155.856,112.239,158.101,111.743,158.873,108.583z M113.202,125.433c-5.188,0.469-9.782-3.487-10.227-8.416
		c-0.446-4.929,3.413-9.321,8.602-9.79s9.772,3.159,10.218,8.089C122.24,120.245,118.391,124.964,113.202,125.433z M152.563,117.264
		c-0.575,4.916-5.309,8.745-10.484,8.14c-5.174-0.605-8.859-5.418-8.284-10.334s5.252-8.423,10.426-7.818
		C149.396,107.857,153.138,112.348,152.563,117.264z"/>
	<path fill="#B75978" d="M67.328,185.203c0,0,26.172,14.547,42.672-15.328L99.375,188.75
		C99.375,188.75,83.578,199.078,67.328,185.203z"/>
	<path fill="#B75978" d="M133.979,175.586c-0.951,1.86-2.377,3.524-3.631,5.19c-2.767,3.674-6,6.973-8.957,10.489
		c-4.136,4.917-9.541,11.185-10.386,17.864c0.111,1.799,0.469,3.599,1.121,5.371c3.125,8.5,9.875,9.375,12.5,9.375
		c0,0-12-0.75-10.375-15.625c1-8.25,14.562-19.812,19.438-24.312C133.688,183.938,133.438,182.062,133.979,175.586z"/>
	<path fill="#B75978" d="M120.47,177.515c-0.555,0.612-1.109,1.21-1.667,1.798c-1.604,2.091-3.248,4.15-5.108,6.073
		c-1.255,1.297-2.493,2.6-3.711,3.917c-1.067,1.377-2.054,2.809-2.986,4.278c-2.915,4.501-4.331,9.918-7.295,13.103
		c-2.614,2.808-5.978,5.164-9.531,6.771c-3.965,2.654-8.938,5.156-14.796,7.419c-11,4.25-17.125,5.25-20.875,10.375
		c-2.167,5.083,0.167,10.667,0.167,10.667c-0.75-10.75,11.083-11.417,18.833-15.042c27.375-11.125,29.375-17.375,29.375-17.375
		c0-10,6.75-19,12.125-24.5c2.679-2.742,5.293-6.287,7.244-9.157C121.649,176.456,120.918,177.021,120.47,177.515z"/>
	<path fill="#B75978" d="M78.266,205.85c-3.398,2.005-6.465,3.219-10.292,4.124c-0.363,0.122-0.726,0.235-1.091,0.338
		c5.405,0.15,9.321-0.15,9.321-0.15s6.345-2.807,9.854-7.587C83.806,204.252,81.033,205.265,78.266,205.85z"/>
	<path fill="#B75978" d="M34.875,221.625c0,0.002-0.001,0.004-0.001,0.006c0.661,0.62,0.818,1.473-0.163,2.629
		c-0.57,0.672-1.236,1.25-1.95,1.766c-0.388,0.35-0.825,0.641-1.282,0.904c-4.198,3.092-10.292,2.55-14.265-0.268
		c-5.38-3.817-7.298-10.981-6.254-17.363c-0.125,0.419-0.235,0.843-0.332,1.272c-2.084,13.628,3.855,17.348,10.122,19.554
		c6.75,2.375,10.75,0.5,14.125-3.25S34.875,221.625,34.875,221.625z"/>
	<path fill="#B75978" d="M146.181,204.192c-8.243-5.128-11.681-12.942-11.681-12.942c0.673,5.497,2.875,9.391,10.725,15.733
		C145.479,206.023,145.772,205.081,146.181,204.192z"/>
	<path fill="#B75978" d="M150.005,206.391c-0.499,1.049-1.008,2.092-1.594,3.088c16.42,12.752,13.464,31.896,13.464,31.896
		C165.632,225.761,158.913,212.133,150.005,206.391z"/>
	<path fill="#B75978" d="M191.505,182.945c-2.417,1.937-5.479,3.461-8.526,4.082c-3.747,0.764-7.483,0.272-11.25,0.081
		c-0.567,0.035-1.135,0.062-1.706,0.076c-2.351,0.31-4.653,0.679-7.029,1.351c-2.692,0.761-5.481,0.922-8.175,0.013
		c-2.57-0.867-5.212-2.133-7.224-3.987c-1.868-1.722-2.821-3.749-4.087-5.851c-0.167,2.996-0.841,9.712,2.429,12.789
		c0,0,5.062,2.5,9.125,1.625c0,0,14-9.5,25.104-3.125c0,0,14-2.797,19.167-17.667C197.323,176.236,194.998,180.146,191.505,182.945z
		"/>
	<path fill="#B75978" d="M153,246.094c-4.125-3.125-10.062,2-12.062,5.75c-1.463,2.743,0.299,5.148,3.25,6.531
		c2.496,0.849,5.292,0.229,7.604-1.083c-2.083,0.625-3.977,0.812-5.5,0.417c-1.795-0.187-3.381-1.845-3.458-3.417
		c-0.143-2.887,2.208-4.917,4.517-6.106c2.733-1.269,6.695-1.992,7.462,6.783c-0.001,0.001,0.021,0.134,0.021,0.135
		c0.086-0.08,0.458-0.479,0.688-0.708c0.708-0.75,0.854-0.938,0.854-0.938S157.125,249.219,153,246.094z"/>
	<path fill="#B75978" d="M119.75,141.125c0,0,8.375,3.875,18.125,0.375C137.875,141.5,131.875,150.75,119.75,141.125z"/>
	<path fill="#B75978" d="M115.37,93.947c-3.334-0.538-6.912,0.182-10.234,1.589l0.697,1.797c0,0,10.542-1.958,16.042,0.667
		C121.875,98,120.373,95.374,115.37,93.947z"/>
	<path fill="#B75978" d="M135.117,96.788c-1.157,0.92-1.492,1.712-1.492,1.712c10.062-3.938,17.875-0.167,17.875-0.167
		c0.262-0.585,0.389-1.883,0.449-2.834C146.677,93.25,140.185,93.845,135.117,96.788z"/>
	<g>
		<path fill="#B75978" d="M215.375,189.375c-9.125,1.875-9.5,8.75-9.125,16.75s-3.583,19.708-16.375,20.625
			c-0.114,0.008-0.218,0.004-0.331,0.01c-1.834,0.18-3.736,0.151-5.643-0.056c-10.88-0.798-16.026-5.454-16.026-5.454l1.25,6.375
			c0,0,4.662,2.704,11.091,3.485c2.243,0.223,4.076,0.348,6.385,0.318c4.42-0.089,10.041-0.775,13.9-3.302
			c5.494-3.6,8.113-10.428,9.061-16.245c0.02-0.086,0.044-0.168,0.064-0.255c2-9-3.5-16.75,7.125-19.125
			c10.138-2.266,13.328,3.543,13.925,7.555c0.04,0.108,0.088,0.214,0.127,0.323C231.181,198.451,233.087,185.555,215.375,189.375z"
			/>
	</g>
	<path fill="#E9BAA9" d="M164,196.875c-1.851,1.174-3.159,1.791-4.128,2.244c-0.531-1.814-1.622-3.401-3.872-2.244
		c-4.375,2.25-10.5,18.625-10.5,18.625s-4.554,18.22-0.375,16.25s9.625-6.875,10.875-13.875c0.622-3.485,1.709-7.248,2.644-10.149
		c1.189-2.59,3.818-7.108,8.356-8.976c6.375-2.625,6.375-2.625,6.375-2.625S169.125,193.625,164,196.875z"/>
	<path fill="#B75978" d="M152.938,263.438c-2.985,0.697-5.949,0.371-8.446-0.267c-2.876-0.859-6.348-2.562-7.242-5.858
		c0,0,0.025,7.687,8.478,9.424c0.387,0.099-1.353-0.362-1.353-0.362c-1.086,1.31-2.562,3.375-4.125,3.625s-2.562,3.375,1.5,4.062
		s10.188-6.812,10.188-6.812c7.062,0.167,14.396-13.583,14.396-13.583S160.438,261.688,152.938,263.438z"/>
	<path fill="#B75978" d="M43.27,119.439c-6.749,9.731-4.492,25.542-16.222,31.634c-0.125,0.145-0.242,0.3-0.381,0.426
		c0,0,8.532-3.185,13.068-11.84c2.781-6.196,3.784-12.881,8.795-17.912c3.965-3.981,10.224-7.554,16.023-7.224
		c1.348,0.077,2.521,0.301,3.542,0.669c-0.364-0.293-0.753-0.565-1.163-0.821c-0.014-0.005-0.025-0.011-0.039-0.015
		C59.075,111.699,48.452,111.969,43.27,119.439z"/>
	<path fill="#B75978" d="M216.194,125.611c-4.453-4.886-12.859-7.159-20.303-6.1c5.555,0.038,11.404,3.448,15.177,7.237
		c5.01,5.031,6.013,11.717,8.795,17.912c2.391,4.562,5.885,7.592,8.661,9.449c-2.723-2.863-4.461-6.608-5.705-10.485
		c-1.038-3.236-1.829-6.542-2.823-9.791C219.131,131.003,218.234,127.849,216.194,125.611z"/>
	<path fill="none" d="M150.167,192.833c-1.565-0.278-3.109-0.879-4.561-1.752c0.494,0.38,2.867,2.234,5.888,5.022
		c0.569-0.745,1.177-1.451,1.84-2.103c0.322-0.316,1.589-0.832,1.917-1.125C152.875,193.125,151.383,193.049,150.167,192.833z"/>
	<path fill="none" d="M133.75,183.625c-4.625,5-18.75,15.625-19.625,24.375s2.875,17.625,15.5,15.625s15.625-17.25,15.625-17.25
		C132.375,198.5,133.75,183.625,133.75,183.625z"/>
	<path fill="#E9BAA9" d="M135.833,81.667c0,0-7.458-7.167-19.083-3.792c-10.375,3-9.583,11.625-9.583,11.625
		S112.667,79.333,135.833,81.667z"/>
	<path fill="#E9BAA9" d="M125.25,64.625c0,0-6.949-6.441-16.25-2.75C101.125,65,103.5,73,103.5,73S108.25,61.75,125.25,64.625z"/>
	<path fill="#E9BAA9" d="M120.125,51.625c0,0-5.625-6.375-15-3.375c-6.375,2-4.875,9.125-4.875,9.125
		C100.625,57.5,104.625,49.5,120.125,51.625z"/>
	<path fill="#E9BAA9" d="M117.833,39.5c0,0-4.664-5.165-14.258-2.842c-0.606,1.318-1.167,2.715-1.683,4.181
		C108.199,38.127,117.833,39.5,117.833,39.5z"/>
	<path fill="#E9BAA9" d="M117.25,28.167c0,0-1.002-4.14-4.899-4.251c-0.844,0.847-1.69,1.773-2.526,2.777
		C114.5,26.653,117.25,28.167,117.25,28.167z"/>
	<path fill="#E9BAA9" d="M145.75,36.083c0,0,3.793,0.557,6.771,0.12c0.838-2.479,1.218-4.945,0.954-7.383
		C152.874,30.737,150.748,35.741,145.75,36.083z"/>
	<path fill="#E9BAA9" d="M138.167,42.833c0,0,2.178,3.982,6.029,5.708c1.576-1.233,3.089-2.732,4.368-4.542
		C147.406,44.332,142.662,45.444,138.167,42.833z"/>
	<path fill="#B75978" d="M133,53.917c0,0-1.5-18.229,3.083-23.5c0,0-4,10.25,3,21.25C139.083,51.667,136.542,52.958,133,53.917z"/>
	<path fill="none" d="M150.167,192.833c-1.565-0.278-3.109-0.879-4.561-1.752c0.494,0.38,2.867,2.234,5.888,5.022
		c0.569-0.745,1.177-1.451,1.84-2.103c0.322-0.316,1.589-0.832,1.917-1.125C152.875,193.125,151.383,193.049,150.167,192.833z"/>
	<path fill="none" d="M133.75,183.625c-4.625,5-18.75,15.625-19.625,24.375s2.875,17.625,15.5,15.625s15.625-17.25,15.625-17.25
		C132.375,198.5,133.75,183.625,133.75,183.625z"/>
	<path fill="#E9BAA9" d="M42,111.5c-4.088-2.88-7.413-2.652-8.852-2.346c-0.68,0.968-1.289,2.063-1.904,3.3
		C35.689,111.219,42,111.5,42,111.5z"/>
	<path fill="#E9BAA9" d="M29.873,115.403c-0.406,0.949-0.766,1.886-1.085,2.808c3.358-1.202,7.271-1.706,7.271-1.706
		C33.439,115.267,31.326,115.183,29.873,115.403z"/>
	<path fill="#E9BAA9" d="M27.745,121.773c-0.203,0.841-0.369,1.663-0.499,2.463c2.694-1.395,5.919-2.267,5.919-2.267
		C30.764,121.211,28.948,121.406,27.745,121.773z"/>
	<path fill="#E9BAA9" d="M217.621,116.542c4.088-2.88,7.413-2.652,8.852-2.346c0.68,0.968,1.289,2.063,1.904,3.3
		C223.932,116.261,217.621,116.542,217.621,116.542z"/>
	<path fill="#E9BAA9" d="M229.748,120.445c0.406,0.949,0.766,1.886,1.085,2.808c-3.358-1.202-7.271-1.706-7.271-1.706
		C226.182,120.309,228.295,120.225,229.748,120.445z"/>
	<path fill="#E9BAA9" d="M231.876,126.815c0.203,0.841,0.369,1.663,0.499,2.463c-2.694-1.395-5.919-2.267-5.919-2.267
		C228.857,126.253,230.673,126.448,231.876,126.815z"/>
	<path fill="#3A3A3A" d="M135.062,130.833c0,0,0.896,0.242,1.896,0.75l0.042,0.208c0,0.692-0.414,0.986-0.698,1.114
		c-0.856,0.364-4.397,1.202-9.344,0.303c0,0,3.245,2.182,8.589,1.151c0,0,0.457-0.078,0.887-0.273
		c0.242-0.096,0.473-0.207,0.682-0.348c0.111-0.066,0.218-0.157,0.322-0.261c0.024-0.029,0.055-0.051,0.079-0.082l-0.003-0.002
		c0.246-0.275,0.452-0.666,0.527-1.269c0.573,0.419,1.143,0.876,1.552,1.646C139.594,133.771,139.333,129.625,135.062,130.833z"/>
	
		<ellipse transform="matrix(-0.1896 -0.9819 0.9819 -0.1896 -69.2902 405.3286)" fill="#FECDC5" cx="132.629" cy="231.26" rx="2.877" ry="3.237"/>
	
		<ellipse transform="matrix(-0.9956 0.0938 -0.0938 -0.9956 295.172 466.6034)" fill="#E9BAA9" cx="136.62" cy="240.239" rx="2.877" ry="3.237"/>
	
		<ellipse transform="matrix(-0.5115 0.8593 -0.8593 -0.5115 433.2373 209.7658)" fill="#E9BAA9" cx="156.992" cy="228.031" rx="3.412" ry="3.838"/>
	
		<ellipse transform="matrix(-0.9949 -0.1007 0.1007 -0.9949 247.2712 510.7198)" fill="#E9BAA9" cx="136.526" cy="249.119" rx="2.981" ry="3.354"/>
	
		<ellipse transform="matrix(-0.9409 -0.3387 0.3387 -0.9409 172.9409 546.0966)" fill="#E9BAA9" cx="134.119" cy="257.959" rx="2.981" ry="3.354"/>
	
		<ellipse transform="matrix(-0.7045 -0.7097 0.7097 -0.7045 31.6567 543.3945)" fill="#E9BAA9" cx="128.955" cy="265.107" rx="2.981" ry="3.354"/>
	
		<ellipse transform="matrix(-0.2921 -0.9564 0.9564 -0.2921 -101.0112 464.1652)" fill="#E9BAA9" cx="121.278" cy="269.466" rx="2.59" ry="2.913"/>
	
		<ellipse transform="matrix(0.0378 -0.9993 0.9993 0.0378 -160.9431 374.2575)" fill="#E9BAA9" cx="113.869" cy="270.702" rx="2.219" ry="2.601"/>
	
		<ellipse transform="matrix(0.0724 -0.9974 0.9974 0.0724 -116.9814 338.7389)" fill="#FECDC5" cx="123.619" cy="232.26" rx="2.877" ry="3.237"/>
	
		<ellipse transform="matrix(0.4057 -0.914 0.914 0.4057 -142.1589 241.5806)" fill="#FECDC5" cx="114.691" cy="230.108" rx="2.784" ry="3.142"/>
	
		<ellipse transform="matrix(0.7068 -0.7074 0.7074 0.7068 -127.3286 142.5861)" fill="#FECDC5" cx="108.349" cy="224.9" rx="2.298" ry="2.655"/>
	<path fill="#FECDC5" d="M105.111,221.535c0.814-0.648,0.802-1.979,0.097-3.16c-0.583-0.978-1.394-1.582-2.266-1.502
		c0,0,0.202,2.517,0.98,4.891C104.271,221.833,104.646,221.771,105.111,221.535z"/>
	
		<ellipse transform="matrix(-0.5778 -0.8162 0.8162 -0.5778 38.2341 474.933)" fill="#FECDC5" cx="141.958" cy="227.577" rx="3.031" ry="3.418"/>
	
		<ellipse transform="matrix(-0.8507 -0.5257 0.5257 -0.8507 159.4503 486.6346)" fill="#FECDC5" cx="148.84" cy="220.671" rx="3.163" ry="3.566"/>
	
		<ellipse transform="matrix(0.1999 -0.9798 0.9798 0.1999 -90.0494 359.068)" fill="#FECDC5" cx="174.836" cy="234.672" rx="2.859" ry="3.224"/>
	
		<ellipse transform="matrix(-0.075 -0.9972 0.9972 -0.075 -36.8039 436.8518)" fill="#FECDC5" cx="184.213" cy="235.496" rx="2.558" ry="2.894"/>
	<path fill="#FECDC5" d="M195.167,236.375c0.276-0.482,0.421-1.147,0.318-1.708c-0.255-1.389-1.736-2.282-3.308-1.994
		s-2.641,1.648-2.386,3.037c0.145,0.79,0.771,1.489,1.501,1.831C192.854,237.125,193.562,236.938,195.167,236.375z"/>
	<path fill="#FECDC5" d="M198.457,235.047c1.643-0.639,3.305-1.658,4.728-2.737c-0.033-0.169-0.085-0.335-0.158-0.497
		c-0.58-1.288-2.232-1.8-3.689-1.144c-1.458,0.656-2.169,2.232-1.589,3.52C197.907,234.543,198.161,234.821,198.457,235.047z"/>
	<path fill="#FECDC5" d="M208.719,226.453c-0.128-0.199-0.251-0.354-0.441-0.509c-1.095-0.892-2.802-0.61-3.811,0.629
		c-1.009,1.24-0.94,2.968,0.156,3.859c0.157,0.128,0.328,0.225,0.506,0.305C206.5,229.333,207.635,228.516,208.719,226.453z"/>
	<path fill="#FECDC5" d="M210.456,221.494c0.162-0.909,0.247-1.932,0.341-2.822c-1.07,0.057-2.054,0.857-2.458,2.053
		c-0.483,1.429,0.142,2.918,1.333,3.463C209.997,223.303,210.294,222.402,210.456,221.494z"/>
	<path fill="#FFC2D6" d="M210.828,212.547c-0.387,0.455-0.627,0.991-0.694,1.659c-0.092,0.92,0.231,1.817,0.772,2.403
		C211,215.141,211.094,213.984,210.828,212.547z"/>
	<path fill="#E9BAA9" d="M130.062,187.25c-0.948,0.823-1.93,1.78-2.844,2.641c-0.606,0.571-1.281,1.267-1.953,1.922
		c0.751,0.739,2.01,1.211,3.093,0.987c1.753-0.363,2.869-2.132,2.492-3.95C130.736,188.291,130.394,187.661,130.062,187.25z"/>
	<path fill="#E9BAA9" d="M120.594,196.844c-0.804,0.964-1.611,2.036-2.375,3.031c-0.506,0.66-1.047,1.531-1.531,2.281
		c0.859,0.609,2.137,0.856,3.17,0.461c1.673-0.639,2.491-2.563,1.828-4.298C121.482,197.787,120.987,197.197,120.594,196.844z"/>
	
		<ellipse transform="matrix(-0.9096 0.4155 -0.4155 -0.9096 330.774 324.715)" fill="#E9BAA9" cx="130.061" cy="198.343" rx="3.131" ry="3.247"/>
	
		<ellipse transform="matrix(-0.8762 0.482 -0.482 -0.8762 351.1594 323.6543)" fill="#FECDC5" cx="134.006" cy="206.933" rx="3.131" ry="3.247"/>
	
		<ellipse transform="matrix(-0.9844 0.1758 -0.1758 -0.9844 281.3809 393.718)" fill="#FECDC5" cx="123.25" cy="209.323" rx="3.131" ry="3.247"/>
	
		<ellipse transform="matrix(-0.9998 0.018 -0.018 -0.9998 252.8926 434.1091)" fill="#FECDC5" cx="124.493" cy="218.193" rx="3.131" ry="3.247"/>
	
		<ellipse transform="matrix(-0.8451 -0.5346 0.5346 -0.8451 89.0103 508.1699)" fill="#E9BAA9" cx="118.124" cy="241.19" rx="3.131" ry="3.247"/>
	
		<ellipse transform="matrix(-0.6336 -0.7737 0.7737 -0.6336 -8.5339 490.2526)" fill="#E9BAA9" cx="111.827" cy="247.147" rx="3.023" ry="3.247"/>
	<path fill="#E9BAA9" d="M106.206,255.053c0.555-0.252,1.069-0.499,1.633-0.63c0.486-0.989,0.463-2.172-0.185-3.112
		c-0.972-1.411-2.958-1.73-4.435-0.713c-1.477,1.018-1.886,2.987-0.913,4.398c0.43,0.625,1.063,1.021,1.759,1.197
		C104.723,255.704,105.455,255.394,106.206,255.053z"/>
	
		<ellipse transform="matrix(-0.5674 -0.8234 0.8234 -0.5674 -58.3873 486.1932)" fill="#E9BAA9" cx="98.515" cy="258.433" rx="2.806" ry="2.936"/>
	
		<ellipse transform="matrix(-0.8066 -0.591 0.591 -0.8066 -11.7874 539.7724)" fill="#E9BAA9" cx="82.398" cy="271.814" rx="2.045" ry="2.555"/>
	<path fill="#FECDC5" d="M140.729,216.479c0.891-1.177,1.542-2.125,2.25-3.688c0.015-0.033,0.069-0.2,0.083-0.229
		c-0.148-0.537-0.405-0.967-0.831-1.393c-1.27-1.266-3.289-1.3-4.511-0.076s-1.182,3.244,0.088,4.51
		C138.632,216.425,139.698,216.701,140.729,216.479z"/>
	
		<ellipse transform="matrix(-0.9185 -0.3955 0.3955 -0.9185 209.0189 466.4492)" fill="#FECDC5" cx="152.588" cy="211.68" rx="2.765" ry="3.118"/>
	
		<ellipse transform="matrix(-0.883 -0.4694 0.4694 -0.883 199.0808 456.526)" fill="#FECDC5" cx="156.442" cy="203.449" rx="2.427" ry="2.737"/>
	
		<ellipse transform="matrix(-0.5514 -0.8342 0.8342 -0.5514 86.6398 441.9101)" fill="#FECDC5" cx="162.132" cy="197.661" rx="2.213" ry="2.495"/>
	
		<ellipse transform="matrix(-0.031 -0.9995 0.9995 -0.031 -20.538 369.9331)" fill="#FECDC5" cx="169.05" cy="194.922" rx="2.237" ry="2.404"/>
	
		<ellipse transform="matrix(0.4164 -0.9092 0.9092 0.4164 -75.1511 273.9979)" fill="#FECDC5" cx="175.851" cy="195.537" rx="1.986" ry="2.186"/>
	<path fill="#E8A2B0" d="M170.273,192.995c-0.375-0.208-0.815-0.323-1.285-0.308c-0.515,0.016-0.985,0.184-1.366,0.455
		C167.621,193.142,168.452,193.021,170.273,192.995z"/>
	<path fill="#E8A2B0" d="M177.91,195.11c-0.175-0.577-0.608-1.096-1.233-1.382c-0.604-0.277-1.292-0.277-1.832-0.056
		C174.844,193.672,176.163,194.11,177.91,195.11z"/>
	
		<ellipse transform="matrix(0.8668 -0.4986 0.4986 0.8668 -75.5375 116.3776)" fill="#FECDC5" cx="180.092" cy="199.596" rx="1.416" ry="1.981"/>
	<ellipse transform="matrix(1 -0.0098 0.0098 1 -1.9962 1.7896)" fill="#FECDC5" cx="181.617" cy="204.595" rx="1.042" ry="1.661"/>
	
		<ellipse transform="matrix(-0.3706 -0.9288 0.9288 -0.3706 77.4821 435.0652)" fill="#FECDC5" cx="186.153" cy="191.279" rx="1.751" ry="2.207"/>
	
		<ellipse transform="matrix(-0.5739 -0.8189 0.8189 -0.5739 148.4713 453.4148)" fill="#FECDC5" cx="192.193" cy="188.082" rx="1.822" ry="2.198"/>
	
		<ellipse transform="matrix(-0.7541 -0.6568 0.6568 -0.7541 225.1202 451.9261)" fill="#FECDC5" cx="197.168" cy="183.817" rx="1.953" ry="2.24"/>
	
		<ellipse transform="matrix(-0.8349 -0.5505 0.5505 -0.8349 271.2623 438.1494)" fill="#FECDC5" cx="201.355" cy="178.384" rx="2.117" ry="2.235"/>
	
		<ellipse transform="matrix(-0.9746 -0.2239 0.2239 -0.9746 363.2755 385.6727)" fill="#FECDC5" cx="203.504" cy="172.24" rx="2.128" ry="2.247"/>
	
		<ellipse transform="matrix(-0.9923 -0.1242 0.1242 -0.9923 387.6001 355.8794)" fill="#FECDC5" cx="204.893" cy="165.858" rx="2.098" ry="2.215"/>
	<path fill="#E9BAA9" d="M205.154,163.663c-0.603-0.076-1.141,0.061-1.576,0.447c0.433,0.935,0.857,1.876,1.472,2.708
		c0.256,0.346,0.544,0.691,0.84,0.995c0.559-0.337,0.98-0.97,1.07-1.692C207.112,164.907,206.304,163.807,205.154,163.663z"/>
	
		<ellipse transform="matrix(-0.9999 -0.01 0.01 -0.9999 409.2896 320.692)" fill="#E9BAA9" cx="205.447" cy="159.323" rx="2.154" ry="2.274"/>
	
		<ellipse transform="matrix(-0.9755 0.2201 -0.2201 -0.9755 437.9948 257.0011)" fill="#E9BAA9" cx="204.681" cy="152.9" rx="2.096" ry="2.213"/>
	
		<ellipse transform="matrix(-0.8773 0.48 -0.48 -0.8773 449.9714 178.5178)" fill="#E9BAA9" cx="202.164" cy="146.784" rx="2.146" ry="2.265"/>
	
		<ellipse transform="matrix(-0.5745 0.8185 -0.8185 -0.5745 427.4901 61.1492)" fill="#E9BAA9" cx="197.851" cy="141.69" rx="2.146" ry="2.266"/>
	
		<ellipse transform="matrix(-0.5745 0.8185 -0.8185 -0.5745 415.8905 59.6786)" fill="#E9BAA9" cx="192.433" cy="137.939" rx="2.04" ry="2.266"/>
	<path fill="#E9BAA9" d="M186.744,131.921c0.764-0.548,1.714-0.183,2.381,0.746s0.797,2.069,0.033,2.618
		c-0.764,0.548-1.924,0.24-2.591-0.689S185.98,132.469,186.744,131.921z"/>
	<path fill="#E9BAA9" d="M74.333,125.931c-0.061-0.358-0.111-0.718-0.191-1.073c-0.347-0.475-0.818-0.828-1.209-0.899
		c-0.758-0.138-0.975,0.645-1.173,1.807c-0.199,1.162-0.512,2.195,0.245,2.333c0.655,0.119,1.936-0.373,2.404-1.258
		C74.365,126.538,74.337,126.236,74.333,125.931z"/>
	<path fill="#FECDC5" d="M73.656,190.812c-0.195-0.6-0.668-1.126-1.376-1.418c-0.763-0.314-1.481-0.241-2.03,0.121
		C71.293,190.142,72.462,190.428,73.656,190.812z"/>
	<path fill="#FECDC5" d="M67.5,188.266c0.35-0.831,0.041-1.973-0.85-2.618c-0.994-0.719-2.268-0.613-2.845,0.238
		c-0.052,0.076-0.088,0.158-0.124,0.241C64.969,186.938,66.062,187.562,67.5,188.266z"/>
	<path fill="#FECDC5" d="M60.312,183.844c0.423,0.309,0.908,0.657,1.328,0.969c0.154-0.069,0.339-0.175,0.47-0.293
		c0.813-0.731,0.814-2.104,0.001-3.067s-2.131-1.151-2.944-0.42c-0.388,0.349-0.604,0.878-0.621,1.405
		C59.203,182.969,59.683,183.385,60.312,183.844z"/>
	<path fill="#FECDC5" d="M55.229,175.24c-0.976,0.664-1.217,2.065-0.537,3.128c0.679,1.063,2.021,1.387,2.997,0.723
		c0.976-0.664,1.217-2.065,0.537-3.128C57.548,174.9,56.206,174.576,55.229,175.24z"/>
	<path fill="#FECDC5" d="M53.794,168.557c-1.146,0.272-1.849,1.504-1.571,2.752s1.432,2.04,2.577,1.768s1.849-1.504,1.571-2.752
		C56.093,169.077,54.939,168.285,53.794,168.557z"/>
	<path fill="#FECDC5" d="M52.647,161.969c-1.15,0.148-1.959,1.284-1.807,2.537s1.207,2.148,2.357,1.999
		c1.15-0.148,1.959-1.284,1.807-2.537C54.852,162.716,53.797,161.821,52.647,161.969z"/>
	
		<ellipse transform="matrix(-1 0.0097 -0.0097 -1 106.2205 314.4608)" fill="#E9BAA9" cx="52.348" cy="157.488" rx="2.154" ry="2.346"/>
	<path fill="#E9BAA9" d="M53.617,148.636c-1.129-0.263-2.263,0.521-2.532,1.751c-0.269,1.23,0.428,2.441,1.557,2.704
		c1.129,0.263,2.263-0.521,2.532-1.751C55.444,150.109,54.746,148.899,53.617,148.636z"/>
	<path fill="#E9BAA9" d="M56.721,142.506c-1.04-0.587-2.369-0.145-2.97,0.988c-0.601,1.133-0.244,2.527,0.795,3.114
		s2.369,0.145,2.97-0.988C58.117,144.487,57.761,143.093,56.721,142.506z"/>
	<path fill="#E9BAA9" d="M61.818,137.952c-0.681-1.001-2.063-1.212-3.088-0.47c-1.024,0.742-1.303,2.155-0.622,3.157
		c0.681,1.001,2.063,1.212,3.088,0.47S62.499,138.954,61.818,137.952z"/>
	<path fill="#E9BAA9" d="M67.235,134.082c-0.647-0.952-2.003-1.122-3.027-0.38c-1.024,0.742-1.33,2.115-0.683,3.067
		s2.003,1.122,3.027,0.38C67.577,136.407,67.882,135.034,67.235,134.082z"/>
	<path fill="#E9BAA9" d="M71.056,129.209c-0.764-0.566-1.714-0.189-2.381,0.77s-0.797,2.136-0.033,2.702s1.924,0.248,2.591-0.711
		C71.9,131.011,71.821,129.775,71.056,129.209z"/>
	
		<ellipse transform="matrix(-0.9249 -0.3801 0.3801 -0.9249 45.6306 565.3099)" fill="#E9BAA9" cx="78.631" cy="278.15" rx="1.591" ry="2.385"/>
	
		<ellipse transform="matrix(-0.9881 -0.1539 0.1539 -0.9881 108.6018 577.28)" fill="#E9BAA9" cx="76.645" cy="284.437" rx="1.452" ry="2.177"/>
	
		<ellipse transform="matrix(-0.9985 0.0544 -0.0544 -0.9985 168.1405 576.9323)" fill="#E9BAA9" cx="76.218" cy="290.755" rx="1.452" ry="2.177"/>
	
		<ellipse transform="matrix(-0.9816 0.1911 -0.1911 -0.9816 209.239 573.0937)" fill="#E9BAA9" cx="76.986" cy="296.636" rx="1.452" ry="2.177"/>
	
		<ellipse transform="matrix(-0.9639 0.2664 -0.2664 -0.9639 234.6475 573.3302)" fill="#E9BAA9" cx="78.439" cy="302.58" rx="1.452" ry="2.177"/>
	<path fill="#E9BAA9" d="M81.531,307.703c-0.118-0.421-0.222-0.734-0.328-1.172c-0.429-0.353-0.964-0.569-1.372-0.388
		c-0.687,0.306-0.872,1.39-0.413,2.421c0.459,1.031,1.389,1.618,2.077,1.312c0.208-0.093,0.424-0.32,0.536-0.532
		C81.876,308.793,81.686,308.254,81.531,307.703z"/>
	<path fill="#E9BAA9" d="M82.479,310.741c-0.112,0.019-0.221,0.051-0.317,0.113c-0.564,0.361-0.582,1.339-0.041,2.184
		c0.404,0.631,0.974,1.007,1.488,1.008C83.281,313.062,82.938,312.125,82.479,310.741z"/>
	
		<ellipse transform="matrix(-0.9953 -0.0968 0.0968 -0.9953 156.9636 475.8917)" fill="#FECDC5" cx="90.026" cy="234.138" rx="2.481" ry="3.237"/>
	
		<ellipse transform="matrix(-0.9999 0.0108 -0.0108 -0.9999 181.0274 485.3077)" fill="#FECDC5" cx="89.203" cy="243.143" rx="2.481" ry="3.237"/>
	
		<ellipse transform="matrix(-0.9918 0.1279 -0.1279 -0.9918 209.5914 490.2293)" fill="#FECDC5" cx="89.056" cy="251.844" rx="2.481" ry="3.237"/>
	
		<ellipse transform="matrix(-0.9754 0.2205 -0.2205 -0.9754 236.541 495.3117)" fill="#FECDC5" cx="90.627" cy="260.857" rx="2.447" ry="3.237"/>
	
		<ellipse transform="matrix(-0.9633 0.2685 -0.2685 -0.9633 254.4807 504.5049)" fill="#FECDC5" cx="92.743" cy="269.654" rx="2.394" ry="3.031"/>
	
		<ellipse transform="matrix(-0.9633 0.2685 -0.2685 -0.9633 261.6038 520.03)" fill="#FECDC5" cx="95.243" cy="277.903" rx="2.184" ry="2.607"/>
	
		<ellipse transform="matrix(-0.9457 0.325 -0.325 -0.9457 283.0993 523.1491)" fill="#FECDC5" cx="97.857" cy="285.218" rx="2.018" ry="2.571"/>
	
		<ellipse transform="matrix(-0.8801 0.4748 -0.4748 -0.8801 327.3977 500.526)" fill="#FECDC5" cx="100.498" cy="291.603" rx="1.759" ry="2.046"/>
	
		<ellipse transform="matrix(-0.8801 0.4748 -0.4748 -0.8801 335.7083 509.1783)" fill="#FECDC5" cx="103.56" cy="296.979" rx="1.456" ry="1.969"/>
	
		<ellipse transform="matrix(-0.9478 -0.3189 0.3189 -0.9478 107.8551 468.5116)" fill="#E9BAA9" cx="92.28" cy="225.427" rx="2.58" ry="2.979"/>
	<path fill="#E9BAA9" d="M92.737,217.778c0.055,1.115,0.618,2.078,1.56,2.427c1.356,0.502,2.959-0.449,3.58-2.126
		c0.458-1.236,0.25-2.517-0.432-3.308C95.583,216.042,94.312,216.812,92.737,217.778z"/>
	<path fill="#E9BAA9" d="M66.875,213.469c-0.246-1.226-1.401-1.88-2.885-1.858c-1.645,0.025-2.961,1.201-2.94,2.625
		c0.008,0.54,0.194,0.964,0.528,1.373C63.235,214.926,64.719,214.312,66.875,213.469z"/>
	
		<ellipse transform="matrix(0.1692 -0.9856 0.9856 0.1692 -163.4356 232.0636)" fill="#E9BAA9" cx="55.931" cy="212.974" rx="2.437" ry="2.815"/>
	
		<ellipse transform="matrix(0.4341 -0.9009 0.9009 0.4341 -162.2516 162.0587)" fill="#E9BAA9" cx="47.87" cy="210.179" rx="2.434" ry="2.979"/>
	
		<ellipse transform="matrix(0.364 -0.9314 0.9314 0.364 -167.4674 168.1273)" fill="#E9BAA9" cx="39.374" cy="206.689" rx="1.908" ry="2.529"/>
	<path fill="#E9BAA9" d="M33.938,203.812c-1.48,0.11-3.059,0.187-4.475,0.677c-0.046,0.147-0.077,0.298-0.075,0.455
		c0.002,0.198,0.055,0.384,0.131,0.562c0.905,0.151,1.821,0.336,2.696,0.61c0.352,0.11,0.665,0.266,0.972,0.434
		c0.756-0.338,1.267-0.955,1.259-1.663C34.44,204.417,34.317,204.141,33.938,203.812z"/>
	<path fill="#E8A2B0" d="M58.797,271.719c-0.047,0.766-0.173,1.4-0.339,2.059c-0.246,0.977-0.497,1.943-0.871,2.862
		c1.019,0.159,2.076-0.696,2.411-1.999C60.331,273.343,59.758,272.077,58.797,271.719z"/>
	<path fill="#E8A2B0" d="M56.959,279.024c-0.146-0.187-0.338-0.315-0.547-0.419c-0.262,0.568-0.992,1.023-1.43,1.325
		c-0.757,0.522-1.554,1.009-2.377,1.428c0.036,0.293,0.136,0.569,0.319,0.804c0.674,0.866,2.123,0.865,3.237-0.001
		S57.632,279.89,56.959,279.024z"/>
	<path fill="#E8A2B0" d="M50.099,281.476c-1.471,0.279-2.941,0.541-4.429,0.38c-0.074,0.158-0.132,0.323-0.149,0.502
		c-0.101,1.092,0.957,2.083,2.362,2.212c1.405,0.13,2.626-0.651,2.727-1.744C50.657,282.331,50.458,281.858,50.099,281.476z"/>
	<path fill="#E8A2B0" d="M41.242,278.516c-0.776-0.106-1.505,0.132-1.901,0.705c-0.624,0.902-0.19,2.284,0.971,3.088
		c1.161,0.803,2.607,0.723,3.232-0.179c0.149-0.216,0.234-0.46,0.267-0.716C42.592,280.848,41.627,279.888,41.242,278.516z"/>
	
		<ellipse transform="matrix(0.9121 -0.4099 0.4099 0.9121 -109.6732 39.5648)" fill="#E8A2B0" cx="37.443" cy="275.58" rx="1.499" ry="1.928"/>
</g>
<g id="_x32_">
</g>
<g id="_x33_">
</g>
<g id="_x34_">
</g>
<g id="_x35__1_">
</g>
<g id="_x36_">
</g>
<g id="_x37_">
</g>
</svg>
