<?xml version="1.0" encoding="utf-8"?>
<!-- Generator: Adobe Illustrator 17.0.0, SVG Export Plug-In . SVG Version: 6.00 Build 0)  -->
<!DOCTYPE svg PUBLIC "-//W3C//DTD SVG 1.1//EN" "http://www.w3.org/Graphics/SVG/1.1/DTD/svg11.dtd">
<svg version="1.1" id="Layer_1" xmlns="http://www.w3.org/2000/svg" xmlns:xlink="http://www.w3.org/1999/xlink" x="0px" y="0px"
	 width="298.667px" height="331px" viewBox="0 0 298.667 331" enable-background="new 0 0 298.667 331" xml:space="preserve">
<g id="Bg" display="none">
	<polygon display="inline" fill="#012B31" points="119.333,-11 56.333,-11 -523.667,-11 -523.667,581 -203.667,581 -203.667,689 
		119.333,689 119.333,339 695.333,339 695.333,-11 	"/>
</g>
<g id="_x31_">
</g>
<g id="_x32_">
</g>
<g id="_x33_">
</g>
<g id="_x34_">
</g>
<g id="_x35__1_">
</g>
<g id="_x36_">
	<path fill="#E8A2B0" d="M91.212,256.877c-0.587-4.675-4.625-5.799-6.335-5.147c0.844,1.636,1.575,3.288,2.041,4.977
		c0.916,2.021,0.83,4.565-0.431,9.351c-0.144,0.546-0.254,0.812-0.478,1.325c-0.534,1.345-1.416,2.508-2.477,3.544
		c-1.517,1.481-3.348,2.91-5.483,3.228c-1.578,0.234-3.129,0.437-4.685,0.332c-3.294-0.224-4.699-1.557-5.562-3.502
		c-0.636-0.841-1.038-1.87-1.213-2.97c-0.657-1.666-1.084-3.302-3.021-2.942c-0.792,0.147-1.342,0.508-1.731,0.969
		c-0.43,1.083-0.711,2.155-0.851,3.221c0.024,0.479,0.084,0.804,0.084,0.804c3.358,11.993,16.55,10.963,24.254,6.979
		C93.029,273.062,92.086,263.837,91.212,256.877z"/>
	<path fill="#DD90A2" d="M91.212,256.877c-0.587-4.675-4.625-5.799-6.335-5.147c0.844,1.636,1.575,3.288,2.041,4.977
		c0.515,1.135,0.701,2.454,0.552,4.225c0.957,5.093-2.232,11.495-7.807,13.335c-3.993,1.318-8.097,1.375-11.353-0.82
		c-2.87-1.934-5.132-4.657-5.528-8.115c-0.387,0.182-0.702,0.423-0.945,0.709c-0.43,1.083-0.711,2.155-0.851,3.221
		c0.024,0.479,0.084,0.804,0.084,0.804c3.358,11.993,16.55,10.963,24.254,6.979C93.029,273.062,92.086,263.837,91.212,256.877z"/>
	<path fill="#E9BAA9" d="M113.945,167.671c0,0,16.326,5.921,38.17,0s1.607-4.995-4.775-3.52
		C140.958,165.625,116.432,163.591,113.945,167.671z"/>
	<path fill="#E9BAA9" d="M125.98,169.354c-0.358-0.382-0.661-0.792-0.953-1.226c-0.042-0.063-0.068-0.125-0.081-0.184
		c-0.047-0.065-0.095-0.128-0.142-0.193c-8.091-1.492-20.23-5.538-23.752-16.506c-5.427-16.901-0.767-23.414,3.745-28.716
		s15.488-8.613,16.592-13.456c1.104-4.843-1.359-17.476-9.365-16.325c0,0,3.298,2.572,4.075,5.732
		c0.777,3.159-0.5,8.365-6.536,11.35c-3.275,1.62-11.694,3.912-15.602,12.736s-6.046,23.24-1.076,31.162
		c4.34,6.918,18.538,15.983,33.141,15.659C126.01,169.373,125.994,169.369,125.98,169.354z"/>
	<path fill="#DFA696" d="M111.189,92.643c0,0,4.134,2.677,4.911,5.836s-0.5,8.365-6.536,11.35
		c-3.275,1.62-11.694,3.912-15.602,12.736c-2.149,4.851-3.755,11.388-3.943,17.609c0.785-1.73,1.673-3.424,2.725-5.051
		c2.588-4.005,6.012-8.484,10.408-10.944c0.126-0.071,0.241-0.083,0.346-0.071c0.429-0.543,0.865-1.068,1.3-1.58
		c4.512-5.302,15.488-8.613,16.592-13.456C122.493,104.23,119.194,91.492,111.189,92.643z"/>
	<path fill="#E8A2B0" d="M242.426,226.383c1.487-1.195,2.861-2.494,4.05-3.934c3.712-5.419,4.046-12.741,4.008-17.06
		c-0.07-7.888,1.328-11.997,1.328-11.997c-4.523,4.331-1.46,17.333-13.544,26.578c-12.083,9.246-33.698,0.346-33.698,0.346
		s-4.087-5.552-9.128-12.691c-0.8,1.282-1.328,1.717-2.32,2.899c-0.471,0.562-1.428-0.087-0.952-0.654
		c1.095-1.305,1.733-1.767,2.61-3.185c-7.379-10.484-16.459-23.912-17.856-28.427c-2.408-7.781-26.873,14.745-23.861,21.283
		c3.776,8.196,0.346,18.034,0.346,18.034l-13.738-12.882c-4.619,18.925,8.678,24.809,8.678,24.809
		c-3.22,7.05-11.885,11.147-30.122,24.348c-18.237,13.201-19.546,19.942-19.295,34.296c0.249,14.233,9.515,21.46,9.302,21.095
		s-5.931-18.764-2.685-30.625s16.651-18.185,35.779-28.104s19.717-19.011,19.717-19.011c2.047,0.137,4.682-0.328,4.682-0.328
		c0.24,5.46-2.668,14.534-2.668,14.534c-6.304,18.993-25.418,16.056-25.418,16.056s-3.754,5.429,11.532,5.911
		c15.286,0.482,21.042-12.936,21.042-12.936c5.946-0.412,13.725-0.528,16.674-3.51c2.499-2.528,1.663-5.202-2.364-8.144
		s-9.636,0.775-9.636,0.775c1.42-5.326,1.339-15.272,1.339-15.272c4.126-1.06,7.987-4.183,7.987-4.183
		c4.855,3.555,6.766,5.874,20.525,9.376c8.969,2.283,21.114,0.288,30.841-3.44C237.92,229.118,240.311,228.084,242.426,226.383z"/>
	<path fill="#E9BAA9" d="M193.118,39.569c0,0-10.876-11.848-22.257-5.193s-11.577,17.168-21.379,15.685
		c0,0,8.851,11.319,26.155,10.094C192.94,58.93,193.118,39.569,193.118,39.569z"/>
	<path fill="#E9BAA9" d="M60.613,200.202c0,0,6.071-0.438,14.184,4.961s11.828,7.369,25.133,6.825s16.534-7.311,15.694-7.479
		c-0.839-0.168-19.145,0.499-27.11-3.282S70.743,196.076,60.613,200.202"/>
	<path fill="#DFA696" d="M62.501,200.293c7.822-1.981,12.769,1.68,19.984,5.981c4.181,2.492,8.462,3.583,15.533,3.759
		c3.998,0.099,8.597-0.468,12.592-0.432c4.408-2.155,5.553-4.984,5.014-5.092c-0.839-0.168-19.145,0.499-27.111-3.282
		c-7.965-3.781-17.771-5.151-27.9-1.024C60.613,200.202,61.3,200.157,62.501,200.293z"/>
	<path fill="#E9BAA9" d="M219.029,188.145c-2.512-1.313-5.202-2.155-7.974-2.576c-12.472,3.723-19.785,9.417-19.785,9.417
		l6.394,5.75c8.914-7.572,17.892-8.23,21.223-2.747c3.331,5.484-4.895,12.697-4.895,12.697c12.026-2.269,10.985-12.876,9.937-17.458
		C222.574,191.284,221.279,189.321,219.029,188.145z"/>
	<path fill="#E9BAA9" d="M242.426,226.383c1.487-1.195,2.861-2.494,4.05-3.934c3.712-5.419,4.046-12.741,4.008-17.06
		c-0.07-7.888,1.328-11.997,1.328-11.997c-4.523,4.331-1.46,17.333-13.544,26.578c-12.083,9.246-33.698,0.346-33.698,0.346
		s-4.087-5.552-9.128-12.691c-0.8,1.282-1.328,1.717-2.32,2.899c-0.471,0.562-1.428-0.087-0.952-0.654
		c1.095-1.305,1.733-1.767,2.61-3.185c-7.379-10.484-16.459-23.912-17.856-28.427c-2.408-7.781-26.873,14.745-23.861,21.283
		c3.776,8.196,0.346,18.034,0.346,18.034l-13.738-12.882c-4.619,18.925,8.678,24.809,8.678,24.809
		c-3.22,7.05-11.885,11.147-30.122,24.348c-18.237,13.201-19.546,19.942-19.295,34.296c0.249,14.233,9.515,21.46,9.302,21.095
		s-5.931-18.764-2.685-30.625s16.651-18.185,35.779-28.104s19.717-19.011,19.717-19.011c2.047,0.137,4.682-0.328,4.682-0.328
		c0.24,5.46-2.668,14.534-2.668,14.534c-6.304,18.993-25.418,16.056-25.418,16.056s-3.754,5.429,11.532,5.911
		c15.286,0.482,21.042-12.936,21.042-12.936c5.946-0.412,13.725-0.528,16.674-3.51c2.499-2.528,1.663-5.202-2.364-8.144
		s-9.636,0.775-9.636,0.775c1.42-5.326,1.339-15.272,1.339-15.272c4.126-1.06,7.987-4.183,7.987-4.183
		c4.855,3.555,6.766,5.874,20.525,9.376c8.969,2.283,21.114,0.288,30.841-3.44C237.92,229.118,240.311,228.084,242.426,226.383z"/>
	<path fill="#DFA696" d="M220.597,193.671c2.636,3.409,2.76,8.453,1.15,12.943c3.818-4.431,2.801-10.948,2.052-13.921
		c-3.405-4.17-9.19-6.42-15.361-6.289c-5.785,1.959-10.279,4.263-13.212,5.991c0.057,0.054,0.105,0.116,0.16,0.172
		C203.476,190.122,215.229,186.729,220.597,193.671z"/>
	<path fill="#DFA696" d="M104.453,287.505c-0.36-7.686,2.084-16.126,7.254-22.777c5.674-7.299,13.568-10.322,22.172-13.166
		c5.017-1.659,9.957-3.516,14.484-6.335c3.158-1.966,6.092-4.195,8.92-6.558c2.869-3.442,3.604-6.305,3.762-7.168
		c-4.316,0.098-9.162-0.092-12.695-1.998c-3.38,6.784-12.271,11.427-30.122,24.348c-18.237,13.201-19.546,19.942-19.295,34.296
		c0.249,14.233,9.515,21.46,9.302,21.095c-0.154-0.264-3.106-9.913-3.594-19.766C104.555,288.824,104.484,288.169,104.453,287.505z"
		/>
	<path fill="#DFA696" d="M185.807,242.093c-1.285-0.939-3.919-0.174-5.292-0.094c-4.247,1.993-9.452,8.468-7.935,12.575
		c10.232-0.986,11.906-0.79,14.403-3.315C189.482,248.732,189.834,245.035,185.807,242.093z"/>
	<path fill="#E9BAA9" d="M125.769,212.996c0,0-11.395,11.717-10.775,32.098s7.556,41.134,11.718,46.503
		c4.162,5.369,6.994,3.288,5.349-1.576c-1.644-4.864-10.642-31.293-5.829-55.351s16.871-28.493,16.871-28.493
		S144.883,192.929,125.769,212.996z"/>
	<path fill="#DFA696" d="M140.507,204.197c0.173-0.758,0.366-1.515,0.58-2.27c-2.156-0.338-6.521,1.834-15.318,11.069
		c0,0-5.063,5.215-8.255,14.727c0.905-0.803,1.834-1.548,2.92-2.198c3.148-1.883,6.447-3.253,9.868-4.149
		c2.804-6.373,6.071-10.193,8.603-12.412c0.263-1.421,0.608-2.839,0.89-4.27C139.866,204.336,140.213,204.174,140.507,204.197z"/>
	<path fill="#DD90A2" d="M208.459,232.887c-0.39-0.092-1.313-0.279-2.232-0.566c-0.893-0.193-1.783-0.411-2.663-0.684
		c-0.164-0.016-0.327-0.031-0.492-0.047c-0.194-0.019-0.32-0.115-0.394-0.239c-0.098-0.034-0.198-0.061-0.296-0.095
		c-0.199,1.504,0.027,0.321-0.325,1.815c0.843,0.232,1.732,0.468,2.683,0.71c4.712,1.2,10.187,1.214,15.803,0.432
		C216.432,234.104,212.346,233.804,208.459,232.887z"/>
	<path fill="#FECDC5" d="M218.994,207.026c-0.414-0.183-0.362-0.989,0.116-1.8c0.478-0.812,1.201-1.321,1.615-1.138
		s0.362,0.989-0.116,1.8C220.131,206.699,219.408,207.208,218.994,207.026z"/>
	<path fill="#FFC2D6" d="M215.592,210.497c-0.309-0.309,0.029-1.081,0.756-1.723c0.727-0.642,1.566-0.912,1.875-0.602
		s-0.029,1.081-0.756,1.723C216.741,210.536,215.901,210.806,215.592,210.497z"/>
	<path fill="#DFA696" d="M200.03,230.981c-0.158-0.053-0.251-0.154-0.297-0.271c-1.161-0.359-2.223-0.827-3.022-1.756
		c-0.493-0.573-0.968-1.149-1.397-1.751c-1.665-1.948-1.936-4.761-1.711-7.678c0.008-0.959,0.135-1.864,0.312-2.645
		c0.061-0.407,0.128-0.808,0.194-1.208c-0.22-1.118,0.128-2.117,0.805-2.995c-0.273-0.753-0.54-1.508-0.784-2.269
		c-0.617,2.848-1.452,4.598-3.417,7.214c-1.542,1.727-2.845,3.253-4.305,4.656c-0.702,0.611-1.709,1.608-2.192,2.126
		c4.46,3.287,6.731,5.671,18.439,8.829c-0.008-0.572-0.004-1.145,0.003-1.718C201.761,231.399,200.871,231.263,200.03,230.981z"/>
	<path fill="#DFA696" d="M154.628,205.117c0.627-0.777,1.283-1.534,2-2.239c1.036-1.018,2.129-2.02,3.382-2.799
		c0.271-0.168,2.047-1.317,2.727-1.615s0.889-0.418,1.29-0.536c0.224,0.859,0.907,3.103,1.087,3.97
		c2.54-2.675,6.613-4.634,10.122-4.773c0.32,0.548,1.499,2.518,2.088,3.331c2.617,2.87,2.967,3.176,5.478,4.825
		c2.064-2.267,4.218-4.458,6.421-6.61c-5.788-8.483-11.241-16.999-12.298-20.414c-2.408-7.781-26.873,14.745-23.861,21.283
		C153.902,201.361,154.384,203.261,154.628,205.117z"/>
	<path fill="#DFA696" d="M193.118,39.569c0,0-1.612-1.75-4.24-3.527c-5.409,3.148-10.061,8.47-12.846,13.195
		c-2.044,3.467-3.684,7.17-4.646,10.971c1.665,0.133,2.41,0.078,4.249-0.052C192.94,58.93,193.118,39.569,193.118,39.569z"/>
	<path fill="#CC7691" d="M196.305,145.571c4.381-3.333,8.832-10.627,8.556-15.2c0.235,0.036,0.47,0.073,0.719,0.075
		c2.656,0.021,5.056-1.988,5.359-4.487s-1.604-4.54-4.26-4.561c-0.261-0.002-0.518,0.023-0.771,0.059
		c1.249-8.139-0.419-12.371-1.936-14.442l-0.089-0.49c0,0,9.8-8.075,5.279-25.068c-2.381-8.949,3.726-18.18,3.726-18.18
		s11.443,2.735,20.816-2.507s15.286-12.004,9.55-23.182c-5.736-11.178-14.546-10.634-25.419-9.939
		c-10.873,0.696-34.825,6.955-46.57,37.298c-4.767,13.273-8.747,18.261-9.059,22.187c0,0-7.776,3.983-5.45,9.175
		c0,0-7.736,2.942-4.567,11.692c0.537,1.484,1.658,2.549,4.716,3.07l-1.995,11.158c-0.794-0.982-2.04-1.621-3.53-1.632
		c-2.751-0.021-5.236,2.059-5.55,4.647c-0.314,2.588,1.661,4.703,4.412,4.724c0.276,0.002,0.547-0.032,0.816-0.07
		c-2.171,5.973,5.582,13.299,10.092,14.991c-0.262,3.938-11.149,13.815-17.83,16.293c-8.887,3.295-19.02,2.857-30.926-3.865
		c-11.907-6.722-12.192-12.87-10.288-22.881c1.904-10.012,6.021-14.184,14.795-18.483c8.775-4.299,8.136-13.198,5.78-22.11
		c-2.356-8.913-4.496-13.942-21.791-13.106S80.856,84.3,76.155,91.864c-4.701,7.564-6.232,14.506-5.387,18.879
		c0.844,4.373,1.193,14.24-2.978,17.442c0,0,9.168-3.019,14.862-11.373c3.596-5.984,5.417-12.457,11.172-17.294
		c4.555-3.828,11.426-7.241,17.364-6.875c3.954,0.244,6.374,1.571,7.318,4.346c1.008,1.924,1.284,4.382,1.412,6.437
		c0.038,0.607,0.006,1.17-0.066,1.71c0.096,3.683-1.819,7.65-12.06,12.2c-11.449,5.086-12.169,26.589-11.075,30.317
		c1.095,3.728,11.515,28.992,54.795,19.009c0,0-13.845,22.418-26.033,29.501c-3.462,3.416-8.631,4.953-13.286,5.489
		c-2.986,0.344-5.769,0.628-8.37,0.415c-2.316,0.114-4.63-0.031-6.847-0.356c-6.379-0.934-11.286-3.383-16.829-6.011
		c-6.812-3.231-15.174-2.562-22.852-0.65c-3.552,0.885-6.869,1.957-9.556,4.65c-1.536,1.54-2.527,3.296-3.251,5.15
		c-0.278,1.201-0.476,2.505-0.565,3.956c-0.706,11.476,3.598,14.259,11.495,15.775c7.897,1.516,11.268-2.177,12.995-5.074
		c1.727-2.898-0.957-4.859-4.515-2.461c-0.023,0.016-0.047,0.026-0.07,0.042c-1.751,1.195-3.493,1.856-5.2,1.685
		c-0.508,0.049-1.025,0.041-1.551-0.048c-2.693-0.455-4.725-2.421-5.708-4.709c-2.378-5.534,0.44-11.303,6.971-12.858
		c0.317-0.114,0.644-0.222,0.993-0.319c9.609-2.675,14.973-2.957,28.642,2c9.016,3.627,23.925,2.611,23.925,2.611
		s0.022-0.002,0.039-0.004c-0.257,0.108-0.507,0.213-0.766,0.322c0,0-13.652,3.575-24.52,8.955c-0.08,0.055-0.205,0.11-0.346,0.163
		c-2.153,1.548-4.041,3.354-5.722,5.326c-1.072,1.75-1.905,3.607-2.44,5.526c-1.461,5.241-0.439,10.928,1.408,15.769
		c1.725,4.523,5.005,8.827,6.746,13.344c2.053,3.985,3.215,7.159,2.76,10.904c-0.667,5.493-4.19,11.366-10.662,12.41
		c-7.892,1.273-14.538-0.781-17.288-9.598c-0.177,0.961-0.25,1.917-0.233,2.87c0.279,2.706,1.542,6.371,6.079,8.216
		c7.242,2.946,13.92,3.023,20.437-1.911c4.844-3.517,6.2-8.045,6.575-10.207c0.719-2.65,1.086-5.329,1.182-7.755
		c0.187-4.718-0.933-8.706-3.097-12.743c-1.428-2.664-3.734-5.081-4.669-8.005c-1.245-1.985-1.806-4.05-1.071-6.936
		c1.972-7.747,10.885-7.516,17.515-9.729s28.832-9.48,35.845-17.673c0,0-0.912,10.343,10.656,15.607
		c11.568,5.264,23.395,1.313,29.142-4.95c2.451-2.671,4.764-6.521,7.084-10.329c2.087,1.867,4.118,3.803,5.813,6.063
		c6.955,9.271,5.788,21.714,3.496,27.842c-2.051,5.484-5.727,8.576-6.481,9.127c-0.399,0.337-0.719,0.668-0.993,0.992
		c-1.627,1.365-5.262,3.978-8.786,3.566c-0.062,0.019-0.128,0.031-0.202,0.03c-2.321-0.058-4.877-1.484-4.736-3.951
		c0.089-1.554,0.943-3.71,2.682-4.364c0.485-0.71,1.17-1.306,2.223-1.781c2.263-1.022,5.247-2.205,6.683,0.133
		c0.141,0.23,0.275,0.47,0.402,0.713c1.219,1.305,1.692,3.305,1.093,5.021c0.167-0.218,0.324-0.445,0.471-0.679
		c-0.043-0.143-0.024-0.31,0.083-0.462c0.256-0.362,0.525-0.694,0.808-1.015c-1.089-9.686-10.25-6.505-13.01-4.572
		c-2.699,1.89-13.265,11.541-1.167,18.103c0.906,0.492,1.778,0.879,2.625,1.19c-1.092,1.043-4.4,4.056-6.575,4.439
		c-2.635,0.465,0.143,3.074,3.18,2.127c2.496-0.778,6.941-4.258,9.651-6.733c6.923-0.897,11.763-6.813,16.717-13.601
		c4.978-6.822,5.849-15.386,5.213-24.197c4.546,2.212,13.975,5.433,25.38,1.632c16.126-5.374,18.324-17.809,18.717-21.04
		c0.392-3.231-2.018-13.114,11.081-14.792c11.645-1.491,11.658,6.635,11.517,8.458c0.018,0.073,0.029,0.149,0.046,0.222
		c1.929-3.171,2.777-9.36-2.474-13.127c-0.296-0.125-0.599-0.227-0.902-0.334c-5.522-1.529-12.937-2.13-18.28-0.572
		c-1.314,0.571-2.563,1.316-3.764,2.222c-4.582,4.619-6.047,12.118-5.416,18.829c0.572,6.077,0.268,9.222-1.786,11.546
		c-0.694,1.038-1.645,1.961-2.719,2.68c-1.854,1.458-4.215,2.519-6.639,3.113c-1.088,0.267-2.209,0.443-3.347,0.554
		c-9.924,1.899-21.873-4.429-21.873-4.429l-0.047,0.065c-0.212-1.629-0.46-3.271-0.738-4.922
		c-1.095-6.511-6.196-13.226-10.822-18.16c0.855-0.866,1.727-1.601,2.625-2.118c6.1-3.511,19.591-8.419,24.416-1.428
		c4.825,6.991,1.169,15.857-5.289,18.071c-3.44,1.429-5.03,3.195-4.098,4.011c0.933,0.816,5.801,0.368,10.645-4.122
		c4.844-4.491,8.114-12.308,1.918-20.038c-1.009-1.258-1.291-1.894-2.72-2.73c0,0-10.699-8.59-29.354,5.178l0,0
		c0,0-10.133-6.108-4.309-16.279C193.333,165.333,199.777,160.308,196.305,145.571z M165.41,218.922
		c-13.247,1.838-16.067-6.795-14.135-15.27s17.74-18.662,23.095-23.472c0,0-3.168,14.409,9.174,22.145
		C183.545,202.324,178.657,217.083,165.41,218.922z"/>
	<path fill="#E9BAA9" d="M198.21,86.357c0,0-3.515-9.141-16.142-11.115c-11.263-1.772-14.754,5.834-14.754,5.834
		S177.499,74.778,198.21,86.357z"/>
	<path fill="#E9BAA9" d="M199.355,68.773c0,0-3.391-8.318-13.98-9.061c-8.966-0.63-10.656,7.106-10.656,7.106
		S184.728,59.295,199.355,68.773z"/>
	<path fill="#E9BAA9" d="M201.826,56.072c0,0-2.174-7.713-12.494-9.07c-6.998-0.957-9.084,5.678-9.084,5.678
		C180.541,52.941,188.246,47.85,201.826,56.072z"/>
	<path fill="#E9BAA9" d="M205.622,44.89c0,0-1.863-6.293-12.056-8.312c-1.219,0.861-2.435,1.807-3.642,2.83
		C197.207,39.735,205.622,44.89,205.622,44.89z"/>
	<path fill="#E9BAA9" d="M210.641,35.084c0,0,1.089-3.909-2.533-5.62c-1.213,0.365-2.466,0.795-3.748,1.296
		C208.79,32.666,210.641,35.084,210.641,35.084z"/>
	<path fill="#E9BAA9" d="M233.641,53.587c0,0,3.306,2.043,6.329,2.91c2.009-1.744,3.579-3.667,4.528-5.834
		C242.99,52.03,238.525,55.371,233.641,53.587z"/>
	<path fill="#E9BAA9" d="M223.169,56.137c0,0,0.099,4.263,2.883,7.318c2.093-0.387,4.257-1.024,6.354-2.021
		C231.15,61.235,226.128,60.205,223.169,56.137z"/>
	<path fill="#B75978" d="M212.848,63.347c0,0,7.543-16.005,14.457-18.551c0,0-8.811,6.99-7.612,19.176
		C219.693,63.971,216.66,64.007,212.848,63.347z"/>
	<path fill="#DFA696" d="M163.914,255.759c6.795-7.069,11.435-16.827,12.195-25.879c0.01-0.116,0.057-0.204,0.117-0.28
		c0.002-0.188,0.003-0.357,0.003-0.496c-0.113-0.1-0.23-0.19-0.339-0.306c-0.042-0.045-0.051-0.096-0.072-0.146
		c-3.253,1.177-6.728,2.032-10.091,2.522c-0.042,0.057-0.043-0.045-0.082,0.014c0.049-0.008,0.082-0.014,0.082-0.014
		c0.24,5.46-2.668,14.534-2.668,14.534c-6.304,18.993-26.329,15.766-26.329,15.766s-0.045,0.727,0.622,0.925
		C145.082,266.59,157.752,262.17,163.914,255.759z"/>
	<path fill="#E9BAA9" d="M272.63,196.1c0,0,0.232,3.398-3.603,3.126c-2.289-0.26,0.828-3.632-0.181-5.944s-0.457-4.734-7.343-4.302
		C254.616,189.411,274.194,182.164,272.63,196.1"/>
	<path fill="#DFA696" d="M268.612,196.532c0.419,1.203,1.791,1.953,3.228,1.835c0.88-0.929,0.79-2.268,0.79-2.268
		c1.563-13.936-18.014-6.689-11.128-7.121c6.887-0.432,6.335,1.99,7.343,4.302C269.282,194.279,268.948,195.474,268.612,196.532z"/>
	<path fill="#DD90A2" d="M166.268,219.292c0,0,1.829-7.627,1.31-10.784c0,0,2.702,5.357,6.346,7.205
		C173.924,215.713,171.41,218.362,166.268,219.292z"/>
	<path fill="#E9BAA9" d="M182.593,252.105c0,0-2.764-1.659-2.141-4.14c0,0-3.202,1.592-1.877,4.129s0,0,0,0
		S180.651,252.696,182.593,252.105"/>
	<path fill="#B75978" d="M118.984,215.773c0,0-11.269,22.715-4.568,48.236c6.701,25.522,12.892,31.877,16.389,30.691
		c0,0-3.872-0.677-8.035-11.706c-4.162-11.029-9.317-33.709-5.971-47.105s6.207-18.549,11.419-24.654L118.984,215.773z"/>
	<path fill="#B75978" d="M99.95,292.521c-1.729-12.001,1.745-24.873,13.56-33.363c0.572-0.485,1.156-0.965,1.739-1.446
		c-0.324-1.347-0.578-2.705-0.616-4.112c-7.97,6.026-15.127,14.981-17.423,24.669c-3.174,13.398-0.843,23.927,4.331,29.466
		c5.173,5.538,7.278,3.776,6.694,1.507C108.235,309.242,101.722,304.825,99.95,292.521z"/>
	<path fill="#B75978" d="M124.838,250.127c3.172-2.44,6.391-4.893,9.44-7.391c-0.835,0.392-1.942,1.19-2.788,1.558
		c-2.205,1.278-4.568,2.444-6.667,3.382C124.804,248.51,124.834,249.233,124.838,250.127z"/>
	<path fill="#B75978" d="M175.2,242.381c0.946-0.745,2.617-1.64,3.862-2.088c0.899-7.506-0.327-12.588-0.327-12.588l-3.128,1.039
		c0.177,1.226,0.28,2.437,0.199,4.06C176.013,235.981,175.809,239.184,175.2,242.381z"/>
	<path fill="#B75978" d="M170.465,255.321c-0.168-0.088-0.342-0.166-0.521-0.234c-1.28,2.787-3.396,5.209-5.994,7.134
		c-2.478,2.325-5.486,3.906-9.29,4.526c-9.472,1.544-15.67,0.202-18.188-5.962c-2.518-6.165,3.042-8.062,4.819-8.534
		c1.777-0.471,3.553-6.603-5.394-2.306s-4.558,16.298,2.205,20.07s25.627,3.109,34.537-11.862c0.036-0.06-0.235-1.52-0.195-1.578
		C171.731,256.223,171.02,255.822,170.465,255.321z"/>
	<path fill="#FFFFFF" d="M171.134,113.847c-0.125,5.38-4.753,10.119-10.336,10.584c-5.583,0.465-10.008-3.519-9.882-8.9
		c0.125-5.38,4.753-10.119,10.336-10.584C166.835,104.483,171.259,108.467,171.134,113.847z"/>
	<path fill="#FFFFFF" d="M201.104,116.01c-1.449,5.889-7.899,10.033-14.408,9.257c-6.509-0.776-10.611-6.179-9.163-12.068
		s7.899-10.034,14.408-9.257C198.45,104.718,202.552,110.121,201.104,116.01z"/>
	<path fill="#3A3A3A" d="M161.173,111.059c-0.649,1.495-2.133,2.573-3.758,2.559c-1.856-0.016-3.216-1.445-3.256-3.278
		c-1.99,0.988-3.472,2.876-3.715,5.058c-0.36,3.228,2.122,5.867,5.544,5.896c3.422,0.029,6.487-2.564,6.847-5.792
		C163.033,113.732,162.372,112.142,161.173,111.059z"/>
	<path fill="#3A3A3A" d="M190.121,109.035c-0.365,1.818-1.901,3.419-3.943,3.869c-2.331,0.513-4.466-0.659-5.067-2.651
		c-2.198,1.648-3.489,4.134-3.138,6.586c0.518,3.628,4.423,5.803,8.722,4.857s7.363-4.654,6.845-8.283
		C193.256,111.423,191.949,109.875,190.121,109.035z"/>
	<path fill="#B75978" d="M175.553,172.388c-1.199,1.795-2.865,3.397-4.354,5.002c-3.284,3.54-7.005,6.712-10.466,10.096
		c-4.841,4.734-11.15,10.766-12.807,17.234c-0.098,1.745,0.06,3.492,0.523,5.216c2.22,8.265,9.074,9.167,11.779,9.188
		c0,0-12.279-0.823-8.853-15.229c2.002-7.989,17.341-19.09,22.895-23.413C174.269,180.482,174.232,178.662,175.553,172.388z"/>
	<path fill="#B75978" d="M161.403,174.151c-0.644,0.589-1.285,1.164-1.93,1.73c-1.899,2.014-3.836,3.997-5.98,5.847
		c-1.446,1.247-2.876,2.5-4.286,3.768c-1.262,1.327-2.448,2.706-3.581,4.124c-3.534,4.34-5.631,9.58-9.061,12.643
		c-3.024,2.701-6.769,4.958-10.62,6.488c-4.398,2.542-9.819,4.927-16.123,7.074c-11.837,4.032-18.267,4.953-22.736,9.891
		c-2.831,4.91-1.084,10.341-1.084,10.341c0.493-10.427,12.767-10.979,21.181-14.431c29.523-10.566,32.32-16.609,32.32-16.609
		c1.177-9.694,9.193-18.364,15.38-23.653c3.084-2.636,6.195-6.052,8.544-8.819C162.743,173.133,161.922,173.676,161.403,174.151z"/>
	<path fill="#B75978" d="M114.571,201.282c-3.738,1.917-7.042,3.069-11.092,3.916c-0.388,0.116-0.776,0.222-1.164,0.319
		c5.552,0.189,9.624-0.071,9.624-0.071s6.869-2.67,11.049-7.276C120.469,199.776,117.492,200.737,114.571,201.282z"/>
	<path fill="#B75978" d="M67.994,216.228c-0.001,0.002-0.001,0.004-0.002,0.006c0.608,0.606,0.67,1.434-0.478,2.547
		c-0.667,0.647-1.421,1.202-2.218,1.696c-0.441,0.336-0.925,0.615-1.427,0.866c-4.691,2.964-10.908,2.39-14.67-0.373
		c-5.096-3.743-6.229-10.703-4.402-16.881c-0.178,0.405-0.341,0.816-0.492,1.231c-3.752,13.194,1.931,16.848,8.13,19.035
		c6.677,2.356,11.02,0.57,14.94-3.038S67.994,216.228,67.994,216.228z"/>
	<path fill="#B75978" d="M184.761,200.216c-7.892-5.037-10.515-12.639-10.515-12.639c0.047,5.334,1.858,9.127,9.202,15.336
		C183.822,201.985,184.235,201.074,184.761,200.216z"/>
	<path fill="#B75978" d="M188.443,202.377c-0.638,1.013-1.285,2.02-2.007,2.981c15.422,12.492,10.122,31.026,10.122,31.026
		C202.268,221.279,196.948,208.014,188.443,202.377z"/>
	<path fill="#B75978" d="M186.856,240.889c-3.883-3.062-10.606,1.859-13.109,5.478c-1.831,2.647-0.298,4.993,2.581,6.357
		c2.472,0.843,5.427,0.264,7.965-0.99c-2.221,0.589-4.194,0.755-5.717,0.36c-1.828-0.196-3.267-1.816-3.162-3.34
		c0.193-2.8,2.855-4.749,5.374-5.883c2.966-1.208,7.134-1.877,6.892,6.635c-0.001,0.001,0.006,0.13,0.006,0.131
		c0.098-0.077,0.529-0.461,0.792-0.681c0.818-0.721,0.991-0.902,0.991-0.902S190.74,243.951,186.856,240.889z"/>
	<path fill="#B75978" d="M164.945,138.869c0,0,7.175,3.823,17.636,0.508C182.581,139.377,176.308,148.296,164.945,138.869z"/>
	<path fill="#B75978" d="M157.87,96.151c4.329-0.829,8.662-1.037,13.035-0.895c-1.167-0.734-2.791-1.547-4.92-2.155
		c-3.373-0.548-6.145,0.121-9.734,1.459l0.507,1.748C156.757,96.308,157.17,96.241,157.87,96.151z"/>
	<g>
		<path fill="#B75978" d="M257.818,186.404c-9.625,1.745-10.821,8.406-11.376,16.164s-6.013,19.076-19.304,19.863
			c-0.119,0.007-0.225,0.002-0.343,0.007c-1.912,0.16-3.868,0.116-5.809-0.099c-11.119-0.86-15.875-5.415-15.875-5.415l0.538,6.19
			c0,0,4.486,2.658,11.02,3.467c2.285,0.234,4.16,0.37,6.543,0.359c4.566-0.051,10.44-0.671,14.714-3.091
			c6.086-3.446,9.589-10.044,11.251-15.675c0.031-0.084,0.065-0.163,0.096-0.247c3.121-8.708-1.635-16.265,9.595-18.483
			c10.715-2.116,13.319,3.541,13.462,7.435c0.029,0.105,0.066,0.208,0.093,0.314C273.039,195.327,276.522,182.841,257.818,186.404z"
			/>
	</g>
	<path fill="#B75978" d="M184.75,257.701c-3.159,0.651-6.175,0.312-8.673-0.326c-2.862-0.856-6.24-2.534-6.774-5.737
		c0,0-0.88,7.452,7.628,9.203c0.387,0.099-1.352-0.361-1.352-0.361c-1.274,1.261-3.038,3.251-4.678,3.481
		c-1.64,0.23-3.038,3.251,1.068,3.95c4.106,0.699,11.301-6.523,11.301-6.523c7.259,0.218,16.436-13.053,16.436-13.053
		S192.686,256.064,184.75,257.701z"/>
	<path fill="#B75978" d="M88.676,97.239c-8.102,9.38-7.636,24.724-20.443,30.536c-0.145,0.14-0.285,0.289-0.443,0.41
		c0,0,9.168-3.019,14.862-11.373c3.596-5.984,5.417-12.457,11.172-17.294c4.555-3.828,11.426-7.241,17.364-6.875
		c1.38,0.085,2.562,0.311,3.571,0.676c-0.341-0.287-0.709-0.554-1.102-0.805c-0.014-0.005-0.025-0.011-0.038-0.015
		C105.876,89.861,94.896,90.038,88.676,97.239z"/>
	<path fill="none" d="M174.37,180.179c-5.355,4.81-21.164,14.997-23.095,23.472s0.888,17.108,14.135,15.27
		s18.134-16.597,18.134-16.597C171.202,194.588,174.37,180.179,174.37,180.179z"/>
	<path fill="none" d="M185.711,187.501c0.464,0.373,2.692,2.189,5.477,4.915c0.674-0.717,1.384-1.397,2.144-2.024"/>
	<path fill="none" d="M174.37,180.179c-5.355,4.81-21.164,14.997-23.095,23.472s0.888,17.108,14.135,15.27
		s18.134-16.597,18.134-16.597C171.202,194.588,174.37,180.179,174.37,180.179z"/>
	<path fill="#E9BAA9" d="M88.301,89.532c-3.874-2.825-7.328-2.63-8.847-2.345c-0.815,0.933-1.571,1.989-2.351,3.184
		C81.83,89.21,88.301,89.532,88.301,89.532z"/>
	<path fill="#E9BAA9" d="M75.343,93.22c-0.53,0.917-1.011,1.822-1.449,2.713c3.602-1.139,7.695-1.596,7.695-1.596
		C79.035,93.116,76.867,93.018,75.343,93.22z"/>
	<path fill="#E9BAA9" d="M72.401,99.377c-0.308,0.814-0.576,1.609-0.804,2.384c2.94-1.331,6.367-2.151,6.367-2.151
		C75.578,98.857,73.684,99.031,72.401,99.377z"/>
	<path fill="#3A3A3A" d="M177.938,129.015c0,0,0.895,0.242,1.866,0.742l0.018,0.202c-0.081,0.67-0.543,0.953-0.851,1.074
		c-0.925,0.346-3.673,1.13-8.665,0.219c0,0,2.087,2.141,7.716,1.184c0,0,0.48-0.072,0.946-0.258c0.26-0.091,0.512-0.197,0.744-0.331
		c0.122-0.063,0.244-0.151,0.363-0.25c0.029-0.028,0.063-0.049,0.091-0.079l-0.002-0.002c0.285-0.264,0.544-0.642,0.692-1.226
		c0.541,0.411,1.075,0.858,1.406,1.608C182.262,131.898,182.482,127.878,177.938,129.015z"/>
	<path fill="#FECDC5" d="M170.952,225.767c0.127,1.515-1.269,2.998-3.118,3.313s-3.451-0.658-3.577-2.173s1.269-2.998,3.118-3.313
		C169.224,223.28,170.826,224.253,170.952,225.767z"/>
	<path fill="#E9BAA9" d="M170.734,231.967c1.648-0.132,2.954,1.161,2.917,2.888c-0.037,1.727-1.403,3.233-3.051,3.365
		s-2.954-1.161-2.917-2.888C167.72,233.605,169.086,232.099,170.734,231.967z"/>
	<path fill="#E9BAA9" d="M189.929,221.485c1.184-1.562,3.562-1.964,5.312-0.899c1.75,1.066,2.208,3.196,1.024,4.758
		c-1.184,1.562-3.562,1.964-5.312,0.899C189.204,225.177,188.745,223.047,189.929,221.485z"/>
	<path fill="#E9BAA9" d="M170.27,240.462c1.669,0.174,2.69,1.762,2.281,3.547s-2.094,3.091-3.762,2.917s-2.69-1.762-2.281-3.547
		C166.916,241.595,168.601,240.288,170.27,240.462z"/>
	<path fill="#E9BAA9" d="M167.54,249.188c1.531,0.553,2.082,2.367,1.23,4.051s-2.783,2.602-4.314,2.049s-2.082-2.367-1.23-4.051
		S166.009,248.635,167.54,249.188z"/>
	<path fill="#E9BAA9" d="M162.561,256.872c1.058,1.142,0.692,3.085-0.816,4.339s-3.589,1.346-4.647,0.204s-0.692-3.085,0.816-4.339
		C159.423,255.822,161.503,255.73,162.561,256.872z"/>
	<path fill="#E9BAA9" d="M154.39,262.481c0.27,1.329-0.842,2.766-2.484,3.21c-1.641,0.443-3.19-0.275-3.46-1.604
		s0.842-2.766,2.484-3.21C152.571,260.433,154.12,261.151,154.39,262.481z"/>
	<path fill="#E9BAA9" d="M146.299,264.543c-0.192,1.187-1.542,2.097-3.015,2.033c-1.473-0.064-2.512-1.078-2.32-2.265
		s1.542-2.097,3.015-2.033C145.452,262.342,146.491,263.356,146.299,264.543z"/>
	<path fill="#FECDC5" d="M161.511,227.488c-0.305,1.535-2.03,2.667-3.852,2.527s-3.052-1.498-2.747-3.033
		c0.305-1.535,2.03-2.667,3.852-2.527C160.586,224.594,161.816,225.952,161.511,227.488z"/>
	<path fill="#FECDC5" d="M152.061,226.347c-0.808,1.357-2.721,1.894-4.273,1.199c-1.552-0.695-2.154-2.359-1.346-3.716
		s2.721-1.894,4.273-1.199C152.267,223.326,152.87,224.989,152.061,226.347z"/>
	<path fill="#FECDC5" d="M145.034,221.821c-1.03,0.863-2.633,0.742-3.58-0.271s-0.88-2.534,0.151-3.397
		c1.03-0.863,2.633-0.742,3.58,0.271S146.065,220.958,145.034,221.821z"/>
	<path fill="#FECDC5" d="M140.392,216.701c0.916-0.622,1.059-1.912,0.472-3.063c-0.486-0.953-1.25-1.545-2.158-1.474
		c0,0-0.088,2.441,0.434,4.749C139.491,216.983,139.885,216.925,140.392,216.701z"/>
	<path fill="#FECDC5" d="M213.881,230.647c-0.507,1.497-2.342,2.42-4.099,2.061c-1.756-0.359-2.768-1.864-2.261-3.361
		s2.343-2.42,4.099-2.061C213.376,227.645,214.388,229.15,213.881,230.647z"/>
	<path fill="#B75978" d="M189.64,97.453c-0.069,0.009-0.128,0.022-0.195,0.032c4.46,1.134,9.046,3.043,11.841,6.394
		c1.729,1.393,2.576,2.482,2.576,2.482c0.555-0.355,1.608-0.924,1.937-2.101C202.165,99.966,195.879,97.42,189.64,97.453z"/>
	<path fill="#FECDC5" d="M223.259,230.682c-0.057,1.366-1.446,2.558-3.103,2.661s-2.954-0.92-2.898-2.287
		c0.057-1.366,1.446-2.558,3.103-2.661S223.315,229.316,223.259,230.682z"/>
	<path fill="#FECDC5" d="M231.458,231.803c0.342-0.465,0.569-1.108,0.529-1.653c-0.099-1.349-1.52-2.226-3.175-1.959
		c-1.654,0.267-2.915,1.577-2.817,2.925c0.056,0.767,0.62,1.449,1.332,1.787C228.986,232.512,229.739,232.336,231.458,231.803z"/>
	<path fill="#FECDC5" d="M235.005,230.543c1.769-0.606,3.601-1.581,5.195-2.616c-0.014-0.164-0.049-0.326-0.105-0.483
		c-0.446-1.253-2.088-1.763-3.668-1.138c-1.579,0.625-2.498,2.147-2.052,3.4C234.498,230.049,234.727,230.32,235.005,230.543z"/>
	<path fill="#FECDC5" d="M246.593,222.293c-0.109-0.194-0.217-0.345-0.395-0.497c-1.024-0.873-2.816-0.614-4.002,0.58
		s-1.318,2.869-0.294,3.742c0.147,0.125,0.312,0.22,0.486,0.299C243.967,225.068,245.234,224.284,246.593,222.293z"/>
	<path fill="#FECDC5" d="M248.967,217.5c0.274-0.88,0.482-1.871,0.684-2.733c-1.109,0.046-2.218,0.815-2.775,1.97
		c-0.666,1.381-0.197,2.83,0.966,3.367C248.281,219.249,248.694,218.378,248.967,217.5z"/>
	<path fill="#FFC2D6" d="M250.404,208.83c-0.452,0.438-0.763,0.955-0.911,1.603c-0.203,0.892,0.024,1.763,0.513,2.336
		C250.276,211.345,250.509,210.225,250.404,208.83z"/>
	<path fill="#E9BAA9" d="M170.143,183.664c-1.073,0.79-2.199,1.71-3.242,2.537c-0.691,0.548-1.469,1.218-2.239,1.847
		c0.687,0.722,1.929,1.19,3.072,0.981c1.85-0.338,3.208-2.044,3.034-3.809C170.714,184.679,170.436,184.066,170.143,183.664z"/>
	<path fill="#E9BAA9" d="M159.255,192.889c-0.942,0.928-1.9,1.96-2.805,2.92c-0.6,0.636-1.259,1.476-1.847,2.199
		c0.814,0.598,2.102,0.847,3.212,0.472c1.799-0.606,2.869-2.465,2.39-4.152C160.06,193.81,159.619,193.234,159.255,192.889z"/>
	<path fill="#E9BAA9" d="M167.794,191.546c1.706-0.684,3.556,0.048,4.132,1.636c0.576,1.587-0.34,3.429-2.046,4.113
		s-3.556-0.048-4.132-1.636C165.172,194.071,166.088,192.23,167.794,191.546z"/>
	<path fill="#FECDC5" d="M170.606,200.009c1.66-0.796,3.578-0.201,4.284,1.329s-0.067,3.416-1.727,4.212s-3.578,0.201-4.284-1.329
		C168.172,202.691,168.946,200.805,170.606,200.009z"/>
	<path fill="#FECDC5" d="M160.313,201.893c1.79-0.281,3.337,0.88,3.454,2.594c0.117,1.714-1.239,3.331-3.03,3.613
		c-1.79,0.281-3.337-0.88-3.454-2.594C157.166,203.792,158.522,202.174,160.313,201.893z"/>
	<path fill="#FECDC5" d="M161.09,210.462c1.786-0.016,3.089,1.38,2.911,3.118c-0.178,1.739-1.77,3.161-3.555,3.178
		c-1.786,0.016-3.089-1.38-2.911-3.118C157.713,211.901,159.305,210.478,161.09,210.462z"/>
	<path fill="#E9BAA9" d="M153.603,233.208c1.397,0.908,1.585,2.829,0.418,4.29s-3.245,1.911-4.643,1.003
		c-1.397-0.908-1.585-2.829-0.418-4.29S152.206,232.3,153.603,233.208z"/>
	<path fill="#E9BAA9" d="M147.121,239.606c0.938,1.261,0.431,3.167-1.133,4.257s-3.592,0.952-4.53-0.308s-0.431-3.167,1.133-4.257
		C144.155,238.207,146.183,238.345,147.121,239.606z"/>
	<path fill="#E9BAA9" d="M137.575,249.201c0.601-0.24,1.161-0.475,1.757-0.597c0.617-0.955,0.733-2.102,0.176-3.018
		c-0.836-1.376-2.845-1.701-4.487-0.726s-2.295,2.88-1.459,4.256c0.37,0.609,0.976,0.999,1.672,1.174
		C135.969,249.82,136.76,249.525,137.575,249.201z"/>
	<path fill="#E9BAA9" d="M131.941,250.831c0.756,1.244,0.165,2.967-1.319,3.848c-1.485,0.881-3.301,0.587-4.057-0.657
		s-0.165-2.967,1.319-3.848C129.369,249.293,131.185,249.587,131.941,250.831z"/>
	<path fill="#E9BAA9" d="M112.879,263.278c0.86,0.654,0.752,2.074-0.242,3.171c-0.994,1.097-2.497,1.456-3.357,0.802
		s-0.752-2.074,0.242-3.171C110.516,262.983,112.019,262.624,112.879,263.278z"/>
	<path fill="#FECDC5" d="M177.696,212.083c1.057-1.134,1.839-2.048,2.753-3.557c0.019-0.031,0.094-0.193,0.113-0.221
		c-0.089-0.521-0.303-0.941-0.693-1.357c-1.16-1.238-3.237-1.287-4.64-0.109c-1.403,1.177-1.6,3.135-0.44,4.373
		C175.541,212.014,176.607,212.29,177.696,212.083z"/>
	<path fill="#FECDC5" d="M218.298,192.957c-0.588,0.963-1.934,1.341-3.006,0.845c-1.072-0.496-1.465-1.679-0.877-2.642
		s1.934-1.341,3.006-0.845S218.886,191.994,218.298,192.957z"/>
	<path fill="#E9BAA9" d="M218.53,191.664c-0.113-0.561-0.498-1.067-1.108-1.35c-0.59-0.273-1.299-0.279-1.882-0.069
		C215.54,190.246,216.848,190.682,218.53,191.664z"/>
	<path fill="#FECDC5" d="M221.069,197.712c-0.745,0.373-1.714-0.074-2.164-0.997c-0.451-0.924-0.212-1.974,0.533-2.347
		c0.745-0.373,1.714,0.074,2.164,0.997C222.053,196.288,221.814,197.339,221.069,197.712z"/>
	<path fill="#FECDC5" d="M221.064,202.487c-0.594,0.001-0.995-0.719-0.897-1.608s0.66-1.61,1.254-1.611
		c0.594-0.001,0.995,0.719,0.897,1.608C222.219,201.764,221.658,202.486,221.064,202.487z"/>
	<path fill="#E9BAA9" d="M119.925,103.779c-0.021-0.348-0.03-0.697-0.071-1.042c-0.302-0.463-0.745-0.809-1.14-0.882
		c-0.764-0.14-1.08,0.617-1.422,1.742c-0.342,1.125-0.786,2.124-0.022,2.264c0.661,0.121,2.039-0.347,2.625-1.201
		C119.887,104.368,119.894,104.074,119.925,103.779z"/>
	<path fill="#FECDC5" d="M111.59,166.668c-0.13-0.583-0.556-1.097-1.252-1.385c-0.75-0.311-1.498-0.245-2.106,0.101
		C109.234,165.999,110.405,166.286,111.59,166.668z"/>
	<path fill="#FECDC5" d="M105.545,164.15c0.459-0.803,0.275-1.912-0.568-2.544c-0.94-0.705-2.266-0.612-2.961,0.208
		c-0.062,0.073-0.11,0.153-0.157,0.232C103.093,162.843,104.147,163.457,105.545,164.15z"/>
	<path fill="#FECDC5" d="M98.658,159.807c0.4,0.303,0.858,0.644,1.255,0.95c0.167-0.066,0.37-0.167,0.519-0.281
		c0.924-0.702,1.086-2.033,0.362-2.973s-2.06-1.133-2.985-0.43c-0.441,0.335-0.726,0.846-0.806,1.357
		C97.618,158.949,98.064,159.357,98.658,159.807z"/>
	<path fill="#FECDC5" d="M94.433,151.426c-1.084,0.636-1.497,1.992-0.922,3.028c0.575,1.036,1.92,1.361,3.004,0.725
		c1.084-0.636,1.497-1.992,0.922-3.028C96.862,151.114,95.517,150.79,94.433,151.426z"/>
	<path fill="#FECDC5" d="M93.74,144.936c-1.213,0.254-2.083,1.443-1.943,2.655c0.139,1.212,1.235,1.989,2.448,1.735
		s2.083-1.443,1.943-2.655C96.048,145.458,94.952,144.681,93.74,144.936z"/>
	<path fill="#FECDC5" d="M93.333,138.541c-1.202,0.135-2.17,1.229-2.161,2.445s0.991,2.091,2.193,1.957
		c1.202-0.135,2.17-1.229,2.161-2.445S94.535,138.406,93.333,138.541z"/>
	<path fill="#E9BAA9" d="M93.796,131.917c-1.227,0.002-2.335,1.023-2.475,2.279c-0.14,1.256,0.742,2.273,1.97,2.27
		c1.227-0.002,2.335-1.023,2.475-2.279C95.905,132.931,95.023,131.915,93.796,131.917z"/>
	<path fill="#E9BAA9" d="M95.903,125.623c-1.133-0.264-2.393,0.487-2.815,1.678c-0.422,1.19,0.154,2.369,1.287,2.633
		s2.393-0.487,2.815-1.678C97.612,127.066,97.036,125.887,95.903,125.623z"/>
	<path fill="#E9BAA9" d="M99.824,119.706c-1.002-0.577-2.425-0.159-3.177,0.934c-0.752,1.093-0.549,2.448,0.453,3.025
		c1.002,0.577,2.425,0.159,3.177-0.934C101.029,121.638,100.826,120.283,99.824,119.706z"/>
	<path fill="#E9BAA9" d="M105.613,115.332c-0.584-0.976-1.984-1.191-3.127-0.48s-1.596,2.079-1.012,3.055s1.984,1.191,3.127,0.48
		C105.743,117.676,106.196,116.308,105.613,115.332z"/>
	<path fill="#E9BAA9" d="M111.651,111.624c-0.555-0.928-1.932-1.104-3.075-0.393s-1.62,2.04-1.064,2.968
		c0.555,0.928,1.932,1.104,3.075,0.393C111.729,113.88,112.206,112.552,111.651,111.624z"/>
	<path fill="#E9BAA9" d="M116.163,106.931c-0.721-0.555-1.744-0.197-2.544,0.727c-0.8,0.924-1.073,2.064-0.352,2.619
		s1.954,0.255,2.754-0.669C116.82,108.684,116.884,107.485,116.163,106.931z"/>
	<path fill="#E9BAA9" d="M107.641,269.245c0.798,0.33,0.91,1.552,0.251,2.729c-0.659,1.177-1.841,1.863-2.639,1.533
		c-0.798-0.33-0.91-1.552-0.251-2.729C105.661,269.602,106.843,268.915,107.641,269.245z"/>
	<path fill="#E9BAA9" d="M104.243,275.377c0.802,0.126,1.184,1.16,0.853,2.31s-1.248,1.98-2.05,1.854s-1.184-1.16-0.853-2.31
		C102.524,276.082,103.442,275.252,104.243,275.377z"/>
	<path fill="#E9BAA9" d="M102.606,281.468c0.83-0.036,1.443,0.879,1.369,2.043s-0.807,2.137-1.637,2.173s-1.443-0.879-1.369-2.043
		S101.776,281.504,102.606,281.468z"/>
	<path fill="#E9BAA9" d="M102.377,287.202c0.829-0.142,1.58,0.671,1.678,1.817s-0.495,2.19-1.324,2.332
		c-0.829,0.142-1.58-0.671-1.678-1.817S101.548,287.344,102.377,287.202z"/>
	<path fill="#E9BAA9" d="M103.005,293.026c0.821-0.201,1.644,0.549,1.838,1.675c0.194,1.126-0.315,2.201-1.137,2.402
		s-1.644-0.549-1.838-1.675C101.674,294.302,102.183,293.227,103.005,293.026z"/>
	<path fill="#E9BAA9" d="M105.946,300.042c-0.072-0.409-0.142-0.714-0.2-1.139c-0.401-0.346-0.927-0.56-1.368-0.387
		c-0.745,0.292-1.063,1.341-0.71,2.344c0.352,1.003,1.241,1.579,1.986,1.288c0.225-0.088,0.475-0.307,0.615-0.512
		C106.174,301.101,106.04,300.577,105.946,300.042z"/>
	<path fill="#E9BAA9" d="M106.566,302.995c-0.118,0.018-0.234,0.048-0.34,0.107c-0.624,0.345-0.757,1.293-0.299,2.117
		c0.342,0.615,0.886,0.984,1.415,0.989C107.119,305.251,106.875,304.34,106.566,302.995z"/>
	<path fill="#FECDC5" d="M124.065,225.684c1.39,0.139,2.202,1.65,1.814,3.373s-1.829,3.008-3.219,2.868
		c-1.39-0.139-2.202-1.65-1.814-3.373C121.234,226.828,122.675,225.544,124.065,225.684z"/>
	<path fill="#FECDC5" d="M121.811,234.384c1.414-0.003,2.405,1.399,2.214,3.132s-1.491,3.141-2.905,3.144
		c-1.414,0.003-2.405-1.399-2.214-3.132S120.397,234.388,121.811,234.384z"/>
	<path fill="#FECDC5" d="M120.228,242.847c1.421-0.159,2.595,1.107,2.622,2.827c0.027,1.721-1.103,3.244-2.524,3.403
		c-1.421,0.159-2.595-1.107-2.622-2.827C117.677,244.529,118.807,243.006,120.228,242.847z"/>
	<path fill="#FECDC5" d="M120.464,251.633c1.394-0.278,2.686,0.869,2.887,2.562c0.201,1.693-0.766,3.292-2.159,3.57
		s-2.686-0.869-2.887-2.562C118.104,253.51,119.07,251.911,120.464,251.633z"/>
	<path fill="#FECDC5" d="M121.486,260.422c1.354-0.334,2.674,0.665,2.947,2.232c0.273,1.567-0.603,3.107-1.957,3.441
		c-1.354,0.334-2.674-0.665-2.947-2.232C119.255,262.297,120.131,260.756,121.486,260.422z"/>
	<path fill="#FECDC5" d="M123.16,268.836c1.235-0.305,2.428,0.541,2.663,1.888c0.235,1.348-0.576,2.687-1.811,2.991
		c-1.235,0.305-2.428-0.541-2.663-1.888S121.925,269.14,123.16,268.836z"/>
	<path fill="#E9BAA9" d="M203.987,193.265c-2.046,1.123-3.466,1.711-4.519,2.143c-0.334-1.763-1.271-3.31-3.726-2.206
		c-4.774,2.146-13.014,17.971-13.014,17.971s-6.838,17.626-2.299,15.749c4.538-1.877,10.729-6.588,12.841-13.363
		c1.052-3.373,2.615-7.012,3.92-9.817c1.53-2.501,4.772-6.859,9.668-8.635c6.879-2.494,6.879-2.494,6.879-2.494
		S209.652,190.155,203.987,193.265z"/>
	<path fill="#FECDC5" d="M192.081,204.752c1.375,0.597,1.769,2.319,0.881,3.847s-2.722,2.283-4.097,1.686s-1.769-2.319-0.881-3.847
		S190.706,204.155,192.081,204.752z"/>
	<path fill="#FECDC5" d="M197.029,197.245c1.146,0.619,1.355,2.166,0.466,3.454s-2.537,1.83-3.683,1.211s-1.355-2.166-0.466-3.454
		C194.234,197.167,195.883,196.625,197.029,197.245z"/>
	<path fill="#FECDC5" d="M180.758,220.96c0.836,1.332,0.122,3.259-1.594,4.304c-1.716,1.045-3.785,0.812-4.621-0.52
		s-0.122-3.259,1.594-4.304C177.853,219.395,179.922,219.628,180.758,220.96z"/>
	<path fill="#FECDC5" d="M187.843,213.293c1.423,0.902,1.552,2.943,0.288,4.559s-3.443,2.195-4.867,1.293
		c-1.423-0.902-1.552-2.943-0.288-4.559C184.24,212.969,186.419,212.391,187.843,213.293z"/>
	<path fill="#FECDC5" d="M124.856,276.022c1.129-0.343,2.301,0.438,2.619,1.743c0.317,1.305-0.34,2.641-1.469,2.984
		c-1.129,0.343-2.301-0.438-2.619-1.743S123.727,276.364,124.856,276.022z"/>
	<path fill="#FECDC5" d="M126.596,282.833c0.936-0.44,2.048-0.012,2.483,0.956c0.436,0.968,0.031,2.11-0.905,2.551
		c-0.936,0.44-2.048,0.012-2.483-0.956C125.255,284.415,125.66,283.273,126.596,282.833z"/>
	<path fill="#FECDC5" d="M129.15,288.134c0.774-0.364,1.742,0.095,2.161,1.027s0.132,1.982-0.643,2.347
		c-0.774,0.364-1.742-0.095-2.161-1.027C128.088,289.549,128.375,288.498,129.15,288.134z"/>
	<path fill="#E9BAA9" d="M128.019,217.654c1.338,0.451,1.836,2.039,1.111,3.547s-2.397,2.364-3.735,1.913s-1.836-2.039-1.111-3.547
		S126.681,217.203,128.019,217.654z"/>
	<path fill="#E9BAA9" d="M128.081,212.959c-0.074,1.081,0.392,2.019,1.322,2.365c1.339,0.498,3.102-0.412,3.94-2.032
		c0.617-1.195,0.554-2.438-0.056-3.21C131.219,211.299,129.818,212.037,128.081,212.959z"/>
	<path fill="#E9BAA9" d="M101.934,208.577c-0.109-1.191-1.223-1.834-2.755-1.824c-1.699,0.011-3.193,1.14-3.339,2.521
		c-0.055,0.524,0.086,0.936,0.383,1.335C98.011,209.96,99.613,209.377,101.934,208.577z"/>
	<path fill="#E9BAA9" d="M93.513,208.489c-0.391,1.284-1.963,2.109-3.511,1.842c-1.548-0.267-2.487-1.525-2.096-2.809
		c0.391-1.284,1.963-2.109,3.511-1.842C92.966,205.947,93.904,207.205,93.513,208.489z"/>
	<path fill="#E9BAA9" d="M85.34,206.523c-0.744,1.169-2.517,1.546-3.961,0.842c-1.444-0.704-2.011-2.223-1.267-3.392
		c0.744-1.169,2.517-1.546,3.961-0.842S86.083,205.354,85.34,206.523z"/>
	<path fill="#E9BAA9" d="M76.712,202.697c-0.511,0.948-1.963,1.309-3.244,0.806c-1.281-0.503-1.905-1.68-1.394-2.628
		c0.511-0.948,1.963-1.309,3.244-0.806C76.599,200.572,77.223,201.748,76.712,202.697z"/>
	<path fill="#E9BAA9" d="M69.125,198.954c-1.539,0.095-3.175,0.157-4.691,0.621c-0.065,0.142-0.114,0.288-0.131,0.441
		c-0.021,0.191,0.012,0.372,0.069,0.546c0.915,0.154,1.838,0.34,2.707,0.613c0.35,0.11,0.654,0.264,0.95,0.428
		c0.819-0.321,1.418-0.915,1.493-1.602C69.572,199.543,69.478,199.275,69.125,198.954z"/>
	<path fill="#E8A2B0" d="M86.752,264.978c-0.138,0.742-0.343,1.356-0.592,1.993c-0.369,0.946-0.741,1.879-1.235,2.768
		c1.031,0.162,2.221-0.658,2.72-1.919C88.142,266.566,87.7,265.333,86.752,264.978z"/>
	<path fill="#E8A2B0" d="M83.997,272.045c-0.128-0.183-0.311-0.308-0.514-0.41c-0.337,0.549-1.143,0.984-1.629,1.273
		c-0.842,0.5-1.721,0.966-2.618,1.365c0.002,0.284,0.074,0.553,0.235,0.782c0.592,0.845,2.086,0.856,3.336,0.025
		C84.056,274.249,84.59,272.89,83.997,272.045z"/>
	<path fill="#E8A2B0" d="M76.639,274.368c-1.548,0.259-3.094,0.501-4.609,0.333c-0.095,0.153-0.174,0.312-0.212,0.485
		c-0.232,1.058,0.741,2.027,2.174,2.164c1.433,0.137,2.783-0.61,3.016-1.668C77.113,275.2,76.964,274.741,76.639,274.368z"/>
	<path fill="#E8A2B0" d="M67.859,271.428c-0.787-0.109-1.566,0.116-2.043,0.669c-0.75,0.869-0.464,2.213,0.637,3.001
		c1.102,0.788,2.602,0.722,3.352-0.148c0.179-0.208,0.296-0.444,0.36-0.692C68.976,273.699,68.094,272.761,67.859,271.428z"/>
	<path opacity="0.2" fill="#3A3A3A" enable-background="new    " d="M90.029,143.157c0,0,4.804-1.516,11.831,3.321
		c0,0-0.628-2.05-0.609-3.623c0,0-4.856-6.156-11.137-4.646C90.114,138.208,89.903,140.289,90.029,143.157z"/>
	<path fill="#E8A2B0" d="M64.894,270.275c-0.818,0.323-1.753-0.181-2.089-1.126s0.056-1.973,0.874-2.296
		c0.818-0.323,1.753,0.181,2.089,1.126S65.712,269.952,64.894,270.275z"/>
	<path fill="#3A3A3A" d="M206.097,107.636c0,0-2.108,2.447-5.053,1.553c-0.116-0.222-0.232-0.443-0.364-0.656
		c0.758-0.272,2.883-1.301,3.206-4.368c0,0-1.409,2.755-4.524,2.66c-0.179-0.187-0.371-0.363-0.564-0.539
		c0.664-0.376,2.64-1.762,2.282-4.816c0,0-0.835,3.037-4.143,3.448c-1.455-0.859-3.154-1.453-5.048-1.679
		c-4.441-0.53-8.856,1.043-11.925,3.867c-3.964-2.008-7.892-1.142-9.904-0.431c-2.051-2.209-5.148-3.465-8.652-3.173
		c-1.81,0.151-3.526,0.708-5.066,1.554c-2.848-0.404-2.931-3.336-2.931-3.336c-0.984,2.969,0.554,4.304,1.007,4.621
		c-0.19,0.153-0.378,0.307-0.56,0.47c-2.801,0.102-3.456-2.582-3.456-2.582c-0.381,3.016,1.386,3.983,1.924,4.205
		c-0.146,0.184-0.288,0.372-0.424,0.564c-2.812,0.885-4.155-1.518-4.155-1.518c0.385,3.032,2.506,3.419,3.018,3.468
		c-0.667,1.427-1.063,2.975-1.1,4.576c-0.142,6.112,4.884,10.638,11.227,10.11c6.342-0.528,11.599-5.911,11.741-12.023
		c0.044-1.876-0.404-3.601-1.223-5.078c4.566-0.969,6.284-0.057,6.853,0.455c-0.969,1.298-1.691,2.761-2.079,4.341
		c-1.579,6.419,2.893,12.308,9.987,13.154s14.125-3.671,15.704-10.09c0.443-1.799,0.395-3.552-0.038-5.168
		C202.558,111.155,204.929,110.692,206.097,107.636z M160.934,123.09c-4.704,0.392-8.42-3.278-8.315-7.811s4.018-8.54,8.722-8.931
		c4.704-0.392,8.445,2.977,8.34,7.51C169.575,118.391,165.638,122.699,160.934,123.09z M198.572,116
		c-1.171,4.761-6.502,8.435-11.763,7.807s-8.492-5.323-7.321-10.083c1.171-4.761,6.404-8.123,11.666-7.495
		C196.415,106.856,199.743,111.239,198.572,116z"/>
	<path fill="#FECDC5" d="M204.285,192.696c0.575,0.994,0.007,2.389-1.267,3.116s-2.773,0.512-3.348-0.482s-0.007-2.389,1.267-3.116
		S203.711,191.702,204.285,192.696z"/>
	<path fill="#FECDC5" d="M211.914,191.359c-0.106,1.197-1.304,2.191-2.677,2.221c-1.372,0.029-2.399-0.917-2.293-2.114
		c0.106-1.197,1.304-2.191,2.677-2.221C210.993,189.215,212.02,190.162,211.914,191.359z"/>
	<path fill="#E9BAA9" d="M210.909,189.553c-0.362-0.204-0.802-0.319-1.288-0.309c-0.533,0.011-1.037,0.171-1.462,0.43
		C208.159,189.674,209.029,189.564,210.909,189.553z"/>
	<path fill="#CC7691" d="M176.791,164.742c2.01-1.965,1.626-5.075,1.626-5.075c-21.86,9.391-33.641,10.048-38.768,9.59
		c-8.108-1.627-10.947-4.532-15.787-14.52c-0.127-0.434-0.273-0.906-0.449-1.434c-3.108-9.348-7.83-19.419-17.32-24.669
		S86.194,125,86.194,125h0.001c-6.592,1-11.838,2.988-18.681,13.323c-0.568,0.858-1.081,1.718-1.569,2.494
		c-0.002-0.001-0.003,0.028-0.005,0.027c-7.246,10.022-5.92,12.591-1.313,17.436c3.422,3.6,7.407,6.071,11.157,7.455
		c0.313,0.098,0.619,0.188,0.911,0.252c3.396,0.74,6.951,0.637,10.27,1.765c1.404,0.477,2.679,1.051,3.841,1.728
		c2.816,1.089,5.084,2.479,5.464,4.126c0,0,2.174-6.941-2.967-12.984c-3.414-3.458-7.938-6.131-10.131-10.106
		c-0.801-0.948-1.449-2.05-1.873-3.222c-0.034-0.094-0.07-0.188-0.101-0.283c-0.104-0.319-0.185-0.643-0.251-0.97
		c-0.264-1.301-0.228-2.653,0.23-3.962c0.037-1.539,0.452-3.029,1.645-4.696c0-0.083,0.017-0.17,0.08-0.259
		c2.168-3.114,7.751-4.42,11.302-4.262c3.56,0.158,7.592,0.636,10.719,2.525c9.066,4.969,9.354,19.774,14.973,28.273
		c9.152,9.064,14.313,10.924,17.217,10.33c4.167,0.973,11.862,1.947,21.705-0.477c5.15-1.099,9.129-2.733,12.155-4.457
		c0.014-0.007,0.029-0.013,0.043-0.02C177.305,165.95,178.398,164.81,176.791,164.742z M139.532,172.295
		c0.002-0.01,0.005-0.021,0.007-0.031c0.012,0.009,0.023,0.018,0.035,0.027L139.532,172.295z"/>
	<g>
		<path fill="#DFA696" d="M150.857,174.788c-6.795,0.341-13.184,0.122-19.516-2.786c-7.863-3.612-10.853-9.085-13.808-17.107
			c-1.596-4.333-4.337-10.96-7.806-14.242c-3.661-3.462-7.644-4.901-12.408-5.87c0,0-3.567-0.46-6.828-0.282
			c-3.26,0.178-7.199,2.741-7.199,2.741s-0.037,0.014-0.091,0.036c-0.494,0.935-1.081,1.822-1.7,2.687
			c0.116-0.023,0.22-0.042,0.343-0.066c0.648-0.129,1.548-1.033,2.152-1.12c2.057-1.003,4.742-0.805,7.206-0.416
			c4.388,0.691,8.545,2.34,11.359,5.94c0.296,0.379,0.569,0.769,0.833,1.163c3.103,3.035,6.913,7.951,9.941,15.585
			c6.189,15.602,20.09,22.322,37.115,18.035c3.125-0.787,14.495-4.836,20.333-9.924
			C168.565,168.057,154.183,174.621,150.857,174.788z"/>
		<path fill="#E9BAA9" d="M164.915,173.12c-4.296,2.707-16.28,4.026-16.28,4.026l0.056,0.029c-1.708,0.072-3.418,0.09-5.117-0.025
			c-2.441,0.014-2.65-0.019-5.1-0.422c-5.857-0.964-11.523-4.489-15.641-9.077c-4.609-5.135-7.432-13.631-10.359-19.731
			c-1.703-3.549-3.274-5.58-5.156-6.901l0.003-0.002c0,0-0.015-0.009-0.042-0.025c-1.014-0.705-2.122-1.21-3.389-1.625
			c-4.433-1.817-12.506-4.452-20.375-1.03c-0.148,0.124-0.298,0.242-0.434,0.389c-0.354,0.381-0.677,0.781-0.973,1.201l0.196,0.157
			c0,0,0.075-0.158,0.399-0.421c2.117-1.971,5.476-1.777,8.499-1.301c4.388,0.691,8.545,2.34,11.359,5.94
			c0.296,0.379,0.569,0.769,0.833,1.163c3.103,3.035,6.913,7.951,9.941,15.585c5.505,13.878,17.121,20.703,31.601,19.03
			c-0.004,0.006-0.007,0.012-0.011,0.019c0.35-0.04,0.709-0.108,1.062-0.158c0.351-0.05,0.696-0.08,1.051-0.14
			c-0.011-0.004-0.021-0.008-0.032-0.012c1.134-0.189,2.279-0.41,3.444-0.704c0.185-0.047,0.598-0.186,1.148-0.382l0.068,0.036
			C158.397,177.398,164.915,173.12,164.915,173.12z"/>
		<path fill="#FECDC5" d="M140.988,180.333c0.103-0.242,0.172-0.502,0.184-0.779c0.053-1.274-0.973-2.35-2.291-2.405
			s-2.429,0.934-2.481,2.208c-0.01,0.25,0.031,0.488,0.098,0.717C137.99,180.292,139.486,180.323,140.988,180.333z"/>
		
			<ellipse transform="matrix(0.0413 -0.9991 0.9991 0.0413 -41.9588 243.8484)" fill="#FECDC5" cx="106.089" cy="143.789" rx="2.308" ry="2.388"/>
		<path fill="#FECDC5" d="M146.812,179.824c0.446-0.073,1.078-0.207,1.507-0.27c-0.06-1.181-1.025-2.058-2.27-2.11
			c-1.318-0.054-2.429,0.934-2.481,2.208c-0.009,0.207,0.023,0.406,0.068,0.599C144.925,180.099,145.59,180.024,146.812,179.824z"/>
		
			<ellipse transform="matrix(0.0413 -0.9991 0.9991 0.0413 -43.5421 251.7117)" fill="#FECDC5" cx="109.395" cy="148.545" rx="2.308" ry="2.388"/>
		<path fill="#FECDC5" d="M112.244,152.366c-1.103-0.046-2.051,0.643-2.366,1.615c0.537,0.844,1.073,1.766,1.471,2.718
			c0.03,0.055,0.062,0.109,0.089,0.165c0.196,0.061,0.4,0.106,0.615,0.115c1.318,0.054,2.429-0.934,2.481-2.208
			S113.562,152.42,112.244,152.366z"/>
		<path fill="#FECDC5" d="M115.017,157.925c-1.08-0.045-2.01,0.616-2.344,1.555c0.236,0.606,0.463,1.193,0.753,1.779
			c0.166,0.336,0.305,0.68,0.429,1.03c0.294,0.143,0.621,0.234,0.971,0.248c1.318,0.054,2.429-0.934,2.481-2.208
			S116.335,157.979,115.017,157.925z"/>
		<path fill="#FECDC5" d="M117.725,163.537c-1.161-0.048-2.159,0.714-2.417,1.767c0.003,0.008,0.009,0.013,0.011,0.022
			c0.021,0.079,0.058,0.154,0.087,0.231c0.474,0.732,0.929,1.474,1.372,2.224c0.06,0.086,0.118,0.173,0.177,0.259
			c0.186,0.055,0.376,0.1,0.579,0.108c1.318,0.054,2.429-0.934,2.481-2.208C120.068,164.668,119.043,163.592,117.725,163.537z"/>
		<path fill="#FECDC5" d="M121.523,168.51c-1.318-0.054-2.429,0.934-2.481,2.208c-0.001,0.019,0.004,0.036,0.003,0.055
			c0.435,0.637,0.975,1.25,1.557,1.756c0.247,0.215,0.54,0.37,0.78,0.591c1.295,0.027,2.379-0.948,2.431-2.205
			C123.866,169.641,122.84,168.564,121.523,168.51z"/>
		<path fill="#FECDC5" d="M125.95,176.595c0.122,0.045,0.24,0.101,0.355,0.17c0.096,0.058,0.194,0.113,0.291,0.169
			c0.092,0.029,0.181,0.067,0.27,0.11c0.957-0.268,1.679-1.087,1.721-2.103c0.053-1.274-0.973-2.35-2.291-2.405
			c-1.318-0.054-2.429,0.934-2.481,2.208c-0.006,0.146,0.011,0.287,0.032,0.426c0.42,0.278,0.799,0.6,1.203,0.909
			C125.362,176.231,125.658,176.409,125.95,176.595z"/>
		<path fill="#FECDC5" d="M130.179,178.629c1.099,0.257,2.173,0.584,3.266,0.893c0.536-0.401,0.905-1.004,0.934-1.711
			c0.053-1.274-0.973-2.35-2.291-2.405c-1.318-0.054-2.429,0.934-2.481,2.208c-0.011,0.256,0.033,0.5,0.103,0.733
			C129.853,178.456,130.018,178.54,130.179,178.629z"/>
		<path fill="#E9BAA9" d="M68.818,161.975c0.639-3.322,4.303-6.299,4.303-6.299c-4.062,1.123-5.672,3.535-6.272,4.736
			C67.572,160.998,68.094,161.493,68.818,161.975z"/>
		<path fill="#E9BAA9" d="M75.66,165.702c-0.736-3.445,0.308-7.03,0.308-7.03c-2.399,2.04-2.841,5.949-2.841,5.949
			c0.036,0.035,0.065,0.055,0.101,0.089C74.072,165.116,74.892,165.454,75.66,165.702z"/>
		<path fill="#E9BAA9" d="M79.356,166.431c0.601,0.077,1.204,0.146,1.807,0.215c0.059-4.356-1.052-5.363-1.052-5.363
			C80.282,162.905,79.715,165.194,79.356,166.431z"/>
		<path fill="#FECDC5" d="M100.815,142.485c1.239-0.036,2.257-0.981,2.308-2.198c0.053-1.274-0.973-2.35-2.29-2.405
			c-1.318-0.054-2.429,0.934-2.481,2.208c-0.01,0.24,0.029,0.468,0.09,0.688C99.284,141.263,100.076,141.832,100.815,142.485z"/>
		<g>
			<path fill="#FECDC5" d="M93.88,136.594c-0.458-0.019-0.887,0.094-1.259,0.296c0.895,0.021,1.77,0.09,2.621,0.192
				C94.863,136.796,94.395,136.615,93.88,136.594z"/>
			<path fill="#FECDC5" d="M96.043,139.623c0.069-0.198,0.118-0.405,0.128-0.625c0.032-0.776-0.339-1.475-0.929-1.918
				c-0.851-0.102-1.725-0.17-2.621-0.192c-0.585,0.316-1.005,0.867-1.152,1.523C93.043,138.675,94.586,139.061,96.043,139.623z"/>
			<path fill="#FECDC5" d="M86.845,137.304c-0.662-0.027-1.271,0.209-1.72,0.611c0.715-0.224,1.428-0.407,2.139-0.553
				C87.128,137.333,86.989,137.31,86.845,137.304z"/>
			<path fill="#FECDC5" d="M88.51,138.066c-0.323-0.346-0.754-0.598-1.246-0.704c-0.711,0.145-1.424,0.329-2.139,0.553
				c-0.186,0.167-0.337,0.367-0.46,0.584C85.835,138.091,87.16,137.998,88.51,138.066z"/>
		</g>
		<path fill="#B75978" d="M118.57,155.552c-1.701-5.263-3.272-10.555-6.201-15.302c-0.877-1.421-1.848-2.77-2.955-4.001
			c-1.874-1.476-3.872-2.775-5.998-3.904c-6.705-1.983-14.735-2.744-20.866,0.743c-0.211,0.192-1.098,0.864-1.302,1.025
			c-2.265,2.33-4.853,5.718-5.91,8.411c-1.078,2.58,0.298,6.401,1.771,8.833c4.803,7.928,20.438,11.721,19,21.843
			c0.057,0.135,0.127,0.268,0.159,0.406c0,0,2.174-6.941-2.967-12.984c-3.419-3.462-7.949-6.137-10.139-10.119
			c-2.019-2.397-3.125-5.757-1.846-8.816c0.265-0.634,0.599-1.154,0.979-1.598c0.025-0.096,0.049-0.192,0.071-0.289
			c1.109-1.494,4.013-4.122,10.758-4.256c0.829,0.003,1.705,0.026,2.657,0.079c0.4,0.023,0.789,0.141,1.176,0.177
			c0.337,0.034,0.675,0.199,1.027,0.199c0.001,0,0.002,0,0.003,0c0.361,0,0.735,0.02,1.112,0.079
			c6.455,1.092,10.988,4.28,13.83,9.968c0.558,1.645,1.707,4.08,2.052,4.813c1.293,2.744,2.126,4.253,3.017,6.622
			c1.325,3.524,3.025,6.717,5.906,9.379C121.449,163.439,119.87,159.573,118.57,155.552z"/>
	</g>
	<path fill="#B75978" d="M150.284,168.578c0,0,19.549-3.841,25.269-9.875c0,0-6.362,3.745-24.041,7.959L150.284,168.578z"/>
</g>
<g id="_x37_">
</g>
</svg>
