<?xml version="1.0" encoding="utf-8"?>
<!-- Generator: Adobe Illustrator 17.0.0, SVG Export Plug-In . SVG Version: 6.00 Build 0)  -->
<!DOCTYPE svg PUBLIC "-//W3C//DTD SVG 1.1//EN" "http://www.w3.org/Graphics/SVG/1.1/DTD/svg11.dtd">
<svg version="1.1" id="Layer_1" xmlns="http://www.w3.org/2000/svg" xmlns:xlink="http://www.w3.org/1999/xlink" x="0px" y="0px"
	 width="320px" height="330px" viewBox="14.5 287.5 320 330" enable-background="new 14.5 287.5 320 330" xml:space="preserve">
<g id="Bg" display="none">
	<polygon display="inline" fill="#012B31" points="-194.667,-11 -257.667,-11 -837.667,-11 -837.667,581 -517.667,581 -517.667,689 
		-194.667,689 -194.667,339 381.333,339 381.333,-11 	"/>
</g>
<g id="_x31_">
</g>
<g id="_x32_">
</g>
<g id="_x33_">
</g>
<g id="_x34_">
</g>
<g id="_x35__1_">
</g>
<g id="_x36_">
</g>
<g>
	<g>
		<g>
			<path fill="#E9BAA9" d="M108.255,493.454c-2.712,2.39-5.359,4.849-7.835,7.488c4.326,7.3,12.127,15.735,20.391,19.708
				c2.782-1.937,5.061-4.523,6.788-7.497C113.124,506.492,109.742,499.682,108.255,493.454z"/>
			<path fill="#DFA696" d="M85.498,464.546c0,0,5.564-1.26,9.019,0.417c3.454,1.678,7.204,6.415,5.329,13.224
				c-1.017,3.695-5.329,11.842-0.296,21.218c2.767,5.154,7.474,11.104,12.972,15.733c-0.972-1.853-1.834-3.759-2.511-5.743
				c-1.667-4.884-3.129-10.753-2.022-15.919c0.032-0.148,0.107-0.246,0.197-0.318c-0.167-0.722-0.312-1.438-0.446-2.142
				c-1.382-7.303,3.947-18.158,0.395-22.5C104.582,464.174,90.531,457.54,85.498,464.546z"/>
			<path fill="#CC7691" d="M85.748,503.984c-2.696-7.087-7.182-13.158-7.198-21.084c-0.013-6.273,2.107-14.035,6.947-18.353
				c3.222-2.875,6.262-3.786,9.495-2.514c2.509,0.609,4.947,2.167,6.908,3.55c0.579,0.408,1.065,0.839,1.499,1.284
				c3.412,2.581,5.555,6.917,1.906,18.098c-4.079,12.501,14.869,28.553,19.079,30.395c0.311,0.136,0.782,0.317,1.385,0.52
				c1.133-1.472,2.101-3.085,2.905-4.795c-4.643-1.492-8.158-4.827-12.185-9.409c-7.632-8.685-8.29-14.869-5.526-24.737
				c2.764-9.868-5.789-15.79-15.658-20.395c-9.868-4.606-16.053-6.579-28.421,7.369c-12.369,13.947-11.974,18.027-8.685,27.106
				c3.289,9.079,8.421,15.264,13.026,17.763c4.606,2.5,13.816,9.343,13.553,14.869C84.779,523.648,89,514.398,85.748,503.984z"/>
			<path fill="#B75978" d="M72.577,485.229c2.354,13.011,16.619,23.711,12.167,37.782c0.017,0.213,0.045,0.428,0.035,0.637
				c0,0,4.222-9.25,0.97-19.665c-2.696-7.087-7.182-13.158-7.198-21.084c-0.013-6.273,2.107-14.035,6.947-18.353
				c1.125-1.004,2.227-1.753,3.324-2.268c-0.519,0.057-1.041,0.148-1.566,0.27c-0.014,0.007-0.028,0.012-0.043,0.018
				C78.943,466.64,70.769,475.24,72.577,485.229z"/>
			<path fill="#E9BAA9" d="M65.305,479.964c-5.502,0.954-7.947,3.758-8.841,5.137c0.227,1.301,0.611,2.646,1.102,4.108
				C60.101,484.725,65.305,479.964,65.305,479.964z"/>
			<path fill="#E9BAA9" d="M58.812,492.62c0.429,1.07,0.885,2.093,1.36,3.073c1.702-3.6,4.394-7.088,4.394-7.088
				C61.52,489.696,59.786,491.299,58.812,492.62z"/>
			<path fill="#E9BAA9" d="M62.162,499.328c0.504,0.824,1.021,1.604,1.55,2.339c1.025-3.228,2.883-6.463,2.883-6.463
				C64.102,496.502,62.822,498.088,62.162,499.328z"/>
			<path fill="#E9BAA9" d="M101.313,465.219c-0.045-0.03-0.072-0.068-0.103-0.104c-0.643-0.095-1.286,0.014-1.648,0.264
				c-0.707,0.489-0.261,1.279,0.5,2.352c0.761,1.075,1.329,2.137,2.036,1.648c0.606-0.419,1.245-1.807,0.94-2.872
				C102.478,466.058,101.91,465.62,101.313,465.219z"/>
			<path fill="#FECDC5" d="M122.285,519.518c0.725-0.604,1.41-1.253,2.054-1.944c0.117-0.937-0.344-1.939-1.247-2.514
				c-1.204-0.766-2.741-0.48-3.43,0.639c-0.69,1.119-0.272,2.647,0.932,3.413C121.127,519.45,121.724,519.572,122.285,519.518z"/>
			<path fill="#FECDC5" d="M113.555,511.403c-0.791,1.025-0.532,2.561,0.576,3.429c1.109,0.869,2.648,0.743,3.439-0.282
				s0.532-2.56-0.576-3.429C115.885,510.251,114.346,510.378,113.555,511.403z"/>
			
				<ellipse transform="matrix(-0.7002 0.714 -0.714 -0.7002 549.388 785.4722)" fill="#E9BAA9" cx="109.768" cy="508.091" rx="2.405" ry="2.62"/>
			<path fill="#E9BAA9" d="M103.795,500.11c-1.099,0.684-1.375,2.197-0.616,3.381c0.759,1.184,2.265,1.589,3.364,0.905
				c1.1-0.684,1.374-2.197,0.616-3.381C106.4,499.832,104.894,499.426,103.795,500.11z"/>
			<path fill="#E9BAA9" d="M101.406,492.82c-1.284,0.357-1.985,1.757-1.564,3.125c0.421,1.368,1.802,2.188,3.086,1.831
				c1.284-0.357,1.985-1.757,1.564-3.125C104.072,493.282,102.69,492.462,101.406,492.82z"/>
			<path fill="#E9BAA9" d="M101.835,485.201c-1.329-0.253-2.586,0.672-2.809,2.067c-0.223,1.394,0.673,2.73,2.002,2.983
				c1.329,0.253,2.586-0.672,2.809-2.067C104.059,486.79,103.163,485.454,101.835,485.201z"/>
			<path fill="#E9BAA9" d="M103.056,477.87c-1.263-0.241-2.467,0.695-2.69,2.089c-0.223,1.394,0.62,2.72,1.883,2.96
				c1.263,0.241,2.467-0.695,2.69-2.089C105.161,479.436,104.318,478.11,103.056,477.87z"/>
			<path fill="#E9BAA9" d="M102.226,471.006c-1.05,0.157-1.502,1.204-1.272,2.487s1.056,2.316,2.107,2.159
				c1.05-0.157,1.714-1.324,1.484-2.606C104.315,471.763,103.276,470.849,102.226,471.006z"/>
		</g>
		<g>
			<path fill="#E9BAA9" d="M250.745,530.105c2.712,2.39,5.359,4.849,7.835,7.488c-4.327,7.3-12.127,15.735-20.391,19.708
				c-2.782-1.937-5.061-4.523-6.788-7.497C245.876,543.143,249.258,536.333,250.745,530.105z"/>
			<path fill="#DFA696" d="M273.502,501.197c0,0-5.564-1.26-9.019,0.417c-3.454,1.678-7.204,6.415-5.329,13.224
				c1.017,3.695,5.329,11.842,0.296,21.218c-2.767,5.154-7.474,11.104-12.972,15.733c0.972-1.853,1.834-3.759,2.511-5.743
				c1.667-4.884,3.129-10.753,2.022-15.919c-0.032-0.148-0.107-0.246-0.197-0.318c0.167-0.722,0.312-1.438,0.446-2.142
				c1.382-7.303-3.948-18.158-0.395-22.5C254.418,500.825,268.469,494.191,273.502,501.197z"/>
			<path fill="#CC7691" d="M273.251,540.635c2.696-7.087,7.182-13.158,7.198-21.084c0.013-6.273-2.107-14.035-6.947-18.353
				c-3.222-2.875-6.262-3.786-9.495-2.514c-2.509,0.609-4.947,2.167-6.908,3.55c-0.579,0.408-1.065,0.839-1.499,1.284
				c-3.412,2.581-5.555,6.917-1.906,18.098c4.079,12.5-14.869,28.553-19.079,30.395c-0.311,0.136-0.782,0.317-1.385,0.52
				c-1.133-1.472-2.101-3.084-2.905-4.795c4.643-1.492,8.158-4.827,12.185-9.409c7.632-8.685,8.29-14.869,5.526-24.737
				c-2.763-9.868,5.789-15.79,15.658-20.395c9.868-4.606,16.053-6.579,28.421,7.369c12.369,13.947,11.974,18.026,8.685,27.106
				c-3.289,9.079-8.421,15.263-13.026,17.763c-4.606,2.5-13.816,9.343-13.553,14.869C274.221,560.3,270,551.049,273.251,540.635z"/>
			<path fill="#B75978" d="M286.423,521.88c-2.354,13.011-16.619,23.711-12.167,37.782c-0.017,0.213-0.045,0.428-0.035,0.637
				c0,0-4.222-9.25-0.97-19.665c2.696-7.087,7.182-13.158,7.198-21.084c0.013-6.273-2.107-14.035-6.947-18.353
				c-1.125-1.004-2.227-1.753-3.324-2.268c0.519,0.057,1.041,0.148,1.566,0.27c0.014,0.007,0.028,0.012,0.043,0.018
				C280.057,503.291,288.231,511.891,286.423,521.88z"/>
			<path fill="#E9BAA9" d="M293.695,516.615c5.502,0.954,7.947,3.758,8.841,5.137c-0.227,1.301-0.611,2.646-1.102,4.108
				C298.899,521.376,293.695,516.615,293.695,516.615z"/>
			<path fill="#E9BAA9" d="M300.188,529.271c-0.429,1.07-0.885,2.093-1.36,3.073c-1.702-3.6-4.394-7.088-4.394-7.088
				C297.48,526.347,299.214,527.95,300.188,529.271z"/>
			<path fill="#E9BAA9" d="M296.838,535.979c-0.504,0.824-1.021,1.604-1.55,2.339c-1.025-3.228-2.883-6.463-2.883-6.463
				C294.898,533.153,296.178,534.74,296.838,535.979z"/>
			<path fill="#E9BAA9" d="M257.687,501.87c0.045-0.03,0.072-0.068,0.103-0.104c0.643-0.095,1.286,0.014,1.648,0.264
				c0.707,0.489,0.261,1.279-0.5,2.352c-0.76,1.075-1.329,2.137-2.036,1.648c-0.606-0.419-1.245-1.807-0.94-2.872
				C256.522,502.709,257.09,502.271,257.687,501.87z"/>
			<path fill="#FECDC5" d="M236.715,556.169c-0.725-0.604-1.41-1.253-2.054-1.944c-0.117-0.937,0.344-1.939,1.247-2.514
				c1.205-0.766,2.741-0.48,3.43,0.639c0.69,1.119,0.272,2.647-0.932,3.413C237.873,556.101,237.276,556.223,236.715,556.169z"/>
			<path fill="#FECDC5" d="M245.445,548.054c0.79,1.025,0.532,2.561-0.576,3.429c-1.109,0.869-2.648,0.743-3.439-0.282
				c-0.79-1.025-0.532-2.56,0.576-3.429C243.115,546.902,244.654,547.029,245.445,548.054z"/>
			
				<ellipse transform="matrix(-0.7002 -0.714 0.714 -0.7002 34.8011 1104.1603)" fill="#E9BAA9" cx="249.242" cy="544.773" rx="2.405" ry="2.62"/>
			<path fill="#E9BAA9" d="M255.205,536.761c1.099,0.684,1.375,2.197,0.616,3.381c-0.759,1.184-2.265,1.589-3.364,0.905
				s-1.374-2.197-0.616-3.381C252.6,536.483,254.106,536.077,255.205,536.761z"/>
			<path fill="#E9BAA9" d="M257.594,529.471c1.284,0.357,1.985,1.757,1.564,3.125c-0.42,1.369-1.802,2.188-3.086,1.831
				c-1.284-0.357-1.985-1.757-1.564-3.125C254.928,529.933,256.31,529.114,257.594,529.471z"/>
			<path fill="#E9BAA9" d="M257.165,521.853c1.329-0.253,2.586,0.672,2.809,2.067c0.223,1.394-0.673,2.73-2.002,2.983
				s-2.586-0.672-2.809-2.067C254.94,523.441,255.837,522.105,257.165,521.853z"/>
			<path fill="#E9BAA9" d="M255.944,514.521c1.263-0.241,2.467,0.695,2.69,2.089c0.223,1.394-0.62,2.72-1.883,2.96
				c-1.263,0.241-2.467-0.695-2.69-2.089C253.839,516.087,254.682,514.761,255.944,514.521z"/>
			<path fill="#E9BAA9" d="M256.774,507.657c1.05,0.157,1.502,1.204,1.272,2.487c-0.23,1.283-1.056,2.316-2.107,2.159
				c-1.05-0.157-1.714-1.324-1.484-2.606C254.685,508.414,255.724,507.5,256.774,507.657z"/>
		</g>
	</g>
	<g>
		<g id="_x37_">
			<path fill="#E9BAA9" d="M145.939,352.922c0,0-21.453-9.535-30.512,6.197c-9.058,15.732-1.907,30.036-14.779,33.849
				c0,0,20.023,10.012,40.046-1.907C160.718,379.143,145.939,352.922,145.939,352.922z"/>
			<path fill="#DFA696" d="M145.939,352.922c0,0-3.176-1.405-7.596-2.244c-4.316,7.457-6.19,17.398-6.23,25.426
				c-0.03,5.891,0.716,12.336,2.225,18.035c2.103-0.809,4.229-1.811,6.356-3.078C160.718,379.143,145.939,352.922,145.939,352.922z"
				/>
			<path fill="#CC7691" d="M147.607,435.4c0,0-12.634,5.959-5.959,17.64c1.193,2.086,4.323,3.386,8.65,4.119l-0.382,20.892
				c-1.267-1.439-3.101-2.366-5.169-2.366c-3.818,0-6.913,3.095-6.913,6.913c0,3.818,3.095,6.913,6.913,6.913
				c0.383,0,0.753-0.053,1.12-0.112c0.02,2.544,0.506,7.42,3.487,12.138c0.268,5.189,1.439,23.401-3.482,33.74
				c19.923,0,38.157,0,59.234,0c-1.567-10.664,1.341-26.206,1.966-30.178c5.893-5.655,7.186-13.243,6.033-19.98
				c0.332,0.051,0.664,0.102,1.01,0.102c3.687,0,6.675-2.988,6.675-6.675s-2.988-6.675-6.675-6.675c-2.07,0-3.897,0.962-5.121,2.441
				c0.158-5.921,0.356-15.899,0.46-21.381c3.789-0.644,6.092-1.084,6.092-1.084s6.913-10.012-2.622-15.018
				c0,0,5.482-17.401-12.634-36.948c-14.779-16.448-13.826-26.698-13.826-26.698s15.732-3.099,23.361-15.732
				c7.628-12.634,10.012-25.268-4.768-36.948c-14.78-11.68-25.029-5.721-37.663,1.668c-12.634,7.39-35.757,30.036-28.605,77.949
				C142.363,420.859,145.223,429.917,147.607,435.4z"/>
			
				<ellipse transform="matrix(-0.9959 0.09 -0.09 -0.9959 355.4509 909.3167)" fill="#FFFFFF" cx="157.223" cy="462.673" rx="15.322" ry="14.557"/>
			
				<ellipse transform="matrix(-0.9932 -0.1161 0.1161 -0.9932 346.8385 944.1001)" fill="#FFFFFF" cx="200.916" cy="461.949" rx="16.487" ry="15.663"/>
			<path fill="#3A3A3A" d="M163.244,461.128c-0.768,2.332-2.94,4.027-5.529,4.027c-2.958,0-5.377-2.204-5.767-5.055
				c-2.993,1.562-5.017,4.518-5.017,7.913c0,5.024,4.421,9.095,9.875,9.095c5.454,0,9.875-4.072,9.875-9.095
				C166.68,465.259,165.345,462.795,163.244,461.128z"/>
			<path fill="#3A3A3A" d="M207.572,457.983c-0.2,2.685-2.06,5.062-4.815,5.748c-3.146,0.783-6.302-0.921-7.472-3.85
				c-2.771,2.454-4.141,6.133-3.242,9.744c1.329,5.343,7.109,8.504,12.91,7.06c5.801-1.443,9.425-6.945,8.096-12.287
				C212.32,461.468,210.247,459.201,207.572,457.983z"/>
			<path fill="#3A3A3A" d="M223.468,451.49c0,0-2.501,3.616-6.719,2.354c-0.201-0.331-0.413-0.654-0.636-0.971
				c1.009-0.413,3.772-1.957,3.705-6.473c0,0-1.49,4.074-5.822,3.973c-0.279-0.274-0.57-0.537-0.867-0.794
				c0.867-0.571,3.349-2.639,2.344-7.119c0,0-0.646,4.475-5.146,5.128c-2.165-1.254-4.631-2.103-7.299-2.415
				c-6.243-0.73-12.098,1.636-15.879,5.831c-6.954-3.466-14.078-0.93-16.304,0.037c-3.68-4.088-9.327-6.465-15.424-5.914
				c-2.863,0.258-5.512,1.136-7.817,2.477c-4.581-0.606-5.232-5.143-5.232-5.143c-1.033,4.602,1.614,6.659,2.411,7.163
				c-0.277,0.242-0.545,0.491-0.805,0.748c-4.431,0.187-5.949-3.97-5.949-3.97c-0.07,4.683,2.898,6.167,3.803,6.511
				c-0.202,0.291-0.395,0.587-0.579,0.889c-4.313,1.403-6.875-2.309-6.875-2.309c1.146,4.691,4.572,5.279,5.414,5.353
				c-0.808,2.227-1.155,4.641-0.93,7.13c0.859,9.505,9.668,16.478,19.673,15.573c10.006-0.905,17.42-9.343,16.56-18.849
				c-0.234-2.594-1.065-4.996-2.346-7.104c7.488-2.114,11.128-0.477,12.306,0.295c-1.097,1.903-1.832,4.037-2.101,6.336
				c-1.108,9.479,6.082,18.109,16.062,19.276c9.979,1.166,18.965-5.573,20.074-15.053c0.31-2.656-0.031-5.244-0.902-7.62
				C219.198,456.708,222.371,455.976,223.468,451.49z M158.147,475.589c-7.421,0.671-13.99-4.986-14.627-12.037
				c-0.637-7.05,4.882-13.331,12.302-14.002c7.421-0.671,13.977,4.519,14.614,11.568
				C171.072,468.169,165.568,474.918,158.147,475.589z M214.442,463.905c-0.822,7.031-7.593,12.507-14.994,11.642
				c-7.401-0.865-12.67-7.749-11.849-14.78c0.822-7.031,7.511-12.047,14.912-11.182
				C209.913,450.449,215.264,456.874,214.442,463.905z"/>
			<path fill="#B75978" d="M167.511,498.033c0,0,11.978,5.543,25.923,0.536C193.435,498.569,184.853,511.799,167.511,498.033z"/>
			<path fill="#B75978" d="M161.247,430.556c-4.769-0.77-9.887,0.26-14.637,2.273l0.997,2.571c0,0,15.077-2.8,22.944,0.954
				C170.551,436.353,168.403,432.597,161.247,430.556z"/>
			<path fill="#B75978" d="M189.49,434.62c-1.655,1.316-2.135,2.448-2.135,2.448c14.391-5.632,25.566-0.238,25.566-0.238
				c0.374-0.837,0.556-2.694,0.642-4.054C206.023,429.559,196.738,430.41,189.49,434.62z"/>
			<path fill="#E9BAA9" d="M190.515,412.992c0,0-10.667-10.25-27.293-5.423c-14.839,4.291-13.706,16.626-13.706,16.626
				S157.381,409.655,190.515,412.992z"/>
			<path fill="#E9BAA9" d="M175.378,388.619c0,0-9.938-9.213-23.242-3.932c-11.264,4.47-7.867,15.912-7.867,15.912
				S151.063,384.507,175.378,388.619z"/>
			<path fill="#E9BAA9" d="M168.048,370.025c0,0-8.045-9.118-21.453-4.827c-9.118,2.86-6.972,13.051-6.972,13.051
				C140.158,378.428,145.879,366.987,168.048,370.025z"/>
			<path fill="#E9BAA9" d="M164.77,352.683c0,0-6.671-7.387-20.393-4.064c-0.867,1.885-1.669,3.883-2.406,5.98
				C150.991,350.72,164.77,352.683,164.77,352.683z"/>
			<path fill="#E9BAA9" d="M163.935,336.474c0,0-1.433-5.922-7.007-6.081c-1.208,1.212-2.416,2.536-3.612,3.972
				C160.002,334.309,163.935,336.474,163.935,336.474z"/>
			<path fill="#E9BAA9" d="M204.698,347.797c0,0,5.425,0.796,9.683,0.172c1.199-3.545,1.742-7.073,1.364-10.559
				C214.887,340.15,211.847,347.307,204.698,347.797z"/>
			<path fill="#E9BAA9" d="M193.852,357.451c0,0,3.115,5.694,8.623,8.164c2.254-1.764,4.419-3.908,6.247-6.496
				C207.067,359.595,200.282,361.185,193.852,357.451z"/>
			<path fill="#B75978" d="M186.462,373.303c0,0-2.146-26.072,4.41-33.611c0,0-5.721,14.66,4.291,30.393
				C195.163,370.085,191.528,371.933,186.462,373.303z"/>
			<path fill="#3A3A3A" d="M189.412,483.313c0,0,1.281,0.346,2.711,1.073l0.059,0.298c0,0.99-0.593,1.41-0.999,1.594
				c-1.224,0.521-6.289,1.719-13.364,0.433c0,0,4.641,3.121,12.284,1.646c0,0,0.653-0.112,1.269-0.391
				c0.346-0.138,0.677-0.297,0.975-0.497c0.158-0.093,0.312-0.225,0.461-0.373c0.035-0.042,0.078-0.073,0.113-0.117l-0.003-0.002
				c0.352-0.393,0.646-0.953,0.753-1.816c0.819,0.6,1.635,1.253,2.22,2.354C195.893,487.515,195.52,481.585,189.412,483.313z"/>
		</g>
		<g>
			<path fill="#737F83" d="M264.673,574.218c0,4.581-3.748,8.33-8.33,8.33H102.658c-4.581,0-8.33-3.748-8.33-8.33v-72.053
				c0-4.581,3.748-8.33,8.33-8.33h153.685c4.581,0,8.33,3.748,8.33,8.33V574.218z"/>
		</g>
		<path id="Shape_38_" fill="#8C989B" d="M185.563,532.2l-15.093,4.886l-1.519,0.449c-2.599,0.456-4.988,2.684-4.601,6.108
			c0.395,3.521,3.514,4.895,6.45,4.689l24.036,0.18l0.047-5.986l-21.173-0.162l15.092-4.803l1.518-0.408
			c2.599-0.456,4.989-2.745,4.602-6.172c-0.395-3.521-3.517-4.73-6.449-4.751l-24.392-0.186l-0.045,5.985L185.563,532.2
			L185.563,532.2L185.563,532.2L185.563,532.2z"/>
	</g>
</g>
<g>
	<path fill="#5B5A5C" d="M41.345,390.761c0.331,0.463,16.609,0.397,17.072,0c0.163-0.139,0.26-1.441,0.301-3.084
		c0.717,0.423,2.498,1.43,2.804,1.192c0.385-0.299,1.692-6.34,1.357-6.878c-0.28-0.451-3.218,1.027-4.167,1.52
		c-0.046-1.76-0.148-3.173-0.295-3.271c-0.397-0.265-16.675-0.463-17.072,0C40.948,380.703,41.014,390.297,41.345,390.761z"/>
	<ellipse fill="#737F83" cx="42.957" cy="387.069" rx="0.607" ry="1.037"/>
	<path fill="#3F3F3F" d="M42.35,387.068c0,0.573,0.272,1.037,0.607,1.037c0.335,0,0.607-0.464,0.607-1.037
		c0-0.068-0.004-0.135-0.012-0.2c-0.054,0.111-0.151,0.189-0.268,0.189c-0.173,0-0.313-0.165-0.313-0.368
		c0-0.203,0.14-0.368,0.313-0.368c0.038,0,0.074,0.011,0.107,0.026c-0.11-0.194-0.263-0.315-0.434-0.315
		C42.622,386.031,42.35,386.495,42.35,387.068z"/>
	<path fill="#3F3F3F" d="M47.487,385.563c-2.707,2.043-3.612,4.055-3.612,4.055c1.341-1.886,3.882-3.767,3.882-3.767
		c0-0.001,0-0.001,0-0.002c1.161,0.288,1.489,0.571,2.206,0.84c0,0,0.661-0.053,1.499-0.439c0.789-0.42,2.953-1.533,3.196-1.264
		c0.298,0.331-0.403,4.396-0.694,4.62c-0.29,0.224-2.567-0.681-2.567-0.681s0.297,0.25,0.649,0.436
		c0.519,0.236,0.906,0.422,1.745,0.587c0.374,0.052,0.605-0.416,0.666-0.616c0.044-0.144,0.186-0.773,0.325-1.532
		c0.686,0.559,1.369,1.188,1.874,1.818c0,0-0.454-1.003-1.788-2.309c0.103-0.616,0.193-1.266,0.222-1.787
		c0.038-0.606-0.226-1.178-0.868-0.916c-0.08,0.033-0.175,0.075-0.279,0.124c1.244-0.929,2.773-2.293,4.551-4.3
		c0,0-4.098,4.027-8.317,5.516c0,0-6.293-2.445-8.904-5.516C41.275,380.431,42.694,383.158,47.487,385.563z"/>
</g>
<g>
	<path fill="#737F83" d="M18.524,368.567c0.88,1.233,44.21,1.057,45.443,0c0.432-0.37,0.691-3.835,0.8-8.208
		c1.91,1.125,6.647,3.804,7.464,3.171c1.026-0.796,4.504-16.874,3.612-18.307c-0.746-1.2-8.566,2.733-11.09,4.045
		c-0.123-4.686-0.394-8.446-0.785-8.707c-1.057-0.705-44.386-1.233-45.443,0C17.468,341.795,17.644,367.334,18.524,368.567z"/>
	<ellipse fill="#8C989B" cx="22.817" cy="358.74" rx="1.614" ry="2.76"/>
	<path fill="#3F3F3F" d="M21.203,358.739c0,1.525,0.723,2.76,1.614,2.76c0.892,0,1.614-1.236,1.614-2.76
		c0-0.183-0.012-0.36-0.031-0.533c-0.143,0.295-0.403,0.503-0.712,0.503c-0.46,0-0.832-0.439-0.832-0.98
		c0-0.542,0.373-0.98,0.832-0.98c0.101,0,0.195,0.029,0.285,0.068c-0.293-0.516-0.702-0.839-1.156-0.839
		C21.926,355.979,21.203,357.214,21.203,358.739z"/>
	<path fill="#5B5A5C" d="M35.164,354.734c-7.205,5.438-9.33,10.794-9.33,10.794c3.57-5.019,10.907-10.026,10.907-10.026
		c0-0.001,0-0.002,0-0.004c1.161,0.768,3.393,1.519,5.299,2.237c0,0,1.187-0.139,3.419-1.169c2.101-1.117,7.86-4.081,8.508-3.363
		c0.794,0.879-1.074,11.701-1.846,12.297c-0.771,0.596-6.832-1.814-6.832-1.814s0.789,0.663,1.727,1.161
		c1.381,0.627,2.412,1.123,4.646,1.563c0.997,0.14,1.61-1.107,1.773-1.64c0.117-0.383,0.494-2.058,0.865-4.079
		c1.825,1.488,3.644,3.161,4.988,4.839c0,0-1.208-2.669-4.758-6.147c0.275-1.641,0.513-3.37,0.59-4.757
		c0.099-1.612-0.601-3.135-2.312-2.438c-0.214,0.087-0.465,0.2-0.742,0.33c3.312-2.472,7.381-6.104,12.114-11.445
		c0,0-10.909,10.718-22.137,14.681c0,0-16.751-6.508-23.699-14.681C18.34,341.073,22.403,348.331,35.164,354.734z"/>
</g>
<g>
	<path fill="#737F83" d="M327.274,359.337c-0.335-0.392-14.095-0.223-14.431,0c-0.124,0.083-0.21,1.277-0.249,2.765
		c-0.802-0.417-3.285-1.666-3.522-1.284c-0.283,0.455,0.821,5.561,1.147,5.814c0.259,0.201,1.764-0.649,2.37-1.007
		c0.035,1.389,0.117,2.489,0.254,2.607c0.392,0.335,14.151,0.392,14.431,0C327.554,367.839,327.61,359.728,327.274,359.337z"/>
	<ellipse fill="#8C989B" cx="325.912" cy="365.109" rx="0.513" ry="0.876"/>
	<path fill="#3F3F3F" d="M325.912,364.233c-0.144,0-0.274,0.103-0.367,0.266c0.028-0.012,0.059-0.021,0.091-0.021
		c0.146,0,0.264,0.139,0.264,0.311c0,0.172-0.118,0.311-0.264,0.311c-0.098,0-0.181-0.066-0.226-0.16
		c-0.006,0.055-0.01,0.111-0.01,0.169c0,0.484,0.229,0.876,0.513,0.876s0.513-0.392,0.513-0.876
		C326.424,364.625,326.194,364.233,325.912,364.233z"/>
	<path fill="#5B5A5C" d="M327.333,359.499c-2.207,2.595-7.526,4.662-7.526,4.662c-3.565-1.258-7.03-4.662-7.03-4.662
		c1.503,1.696,2.795,2.849,3.847,3.634c-0.088-0.041-0.168-0.077-0.236-0.105c-0.543-0.222-0.766,0.262-0.734,0.774
		c0.024,0.441,0.1,0.99,0.187,1.511c-1.128,1.105-1.511,1.952-1.511,1.952c0.427-0.533,1.004-1.064,1.584-1.536
		c0.118,0.642,0.237,1.174,0.275,1.295c0.052,0.169,0.246,0.565,0.563,0.521c0.709-0.14,1.037-0.297,1.475-0.496
		c0.298-0.158,0.548-0.369,0.548-0.369s-1.925,0.766-2.17,0.576c-0.245-0.189-0.839-3.626-0.586-3.905
		c0.205-0.228,2.034,0.713,2.702,1.068c0.709,0.327,1.031,0.371,1.031,0.371c0.604-0.228,1.627-0.467,1.627-0.71
		c0,0.001,0,0.001,0,0.001c0,0,2.384,1.59,3.518,3.184c0,0-0.647-1.701-2.935-3.428
		C326.016,361.804,327.333,359.499,327.333,359.499z"/>
</g>
<g>
	<path fill="#5B5A5C" d="M318.601,378.572c-0.861-1.004-36.155-0.574-37.016,0c-0.319,0.212-0.539,3.275-0.639,7.092
		c-2.056-1.069-8.426-4.272-9.034-3.295c-0.726,1.167,2.106,14.264,2.942,14.913c0.665,0.515,4.524-1.666,6.079-2.583
		c0.089,3.562,0.299,6.384,0.651,6.686c1.004,0.861,36.298,1.004,37.016,0C319.319,400.38,319.462,379.576,318.601,378.572z"/>
	<ellipse fill="#737F83" cx="315.105" cy="393.379" rx="1.315" ry="2.249"/>
	<path fill="#3F3F3F" d="M315.105,391.13c-0.37,0-0.702,0.263-0.941,0.683c0.073-0.032,0.15-0.055,0.232-0.055
		c0.374,0,0.678,0.358,0.678,0.798c0,0.441-0.304,0.798-0.678,0.798c-0.252,0-0.463-0.169-0.58-0.41
		c-0.016,0.14-0.026,0.285-0.026,0.434c0,1.242,0.589,2.249,1.315,2.249c0.726,0,1.315-1.007,1.315-2.249
		C316.42,392.137,315.831,391.13,315.105,391.13z"/>
	<path fill="#3F3F3F" d="M318.752,378.988c-5.66,6.657-19.304,11.958-19.304,11.958c-9.146-3.228-18.032-11.958-18.032-11.958
		c3.856,4.351,7.169,7.309,9.868,9.322c-0.226-0.106-0.431-0.198-0.605-0.269c-1.393-0.568-1.964,0.673-1.883,1.986
		c0.063,1.13,0.257,2.538,0.481,3.875c-2.892,2.833-3.876,5.007-3.876,5.007c1.095-1.367,2.576-2.729,4.063-3.942
		c0.302,1.647,0.609,3.011,0.705,3.323c0.132,0.435,0.631,1.45,1.443,1.336c1.819-0.359,2.659-0.763,3.784-1.273
		c0.763-0.406,1.406-0.945,1.406-0.945s-4.936,1.964-5.565,1.478c-0.629-0.485-2.151-9.301-1.504-10.017
		c0.528-0.584,5.218,1.83,6.93,2.74c1.818,0.839,3.094,0.952,3.094,0.952c1.553-0.585,2.884-1.197,4.625-1.822
		c0,0.001,0,0.002,0,0.003c0,0,5.667,4.078,8.574,8.167c0,0-1.885-4.362-7.754-8.793
		C315.597,384.901,318.752,378.988,318.752,378.988z"/>
</g>
<g>
	<path fill="#737F83" d="M57.405,330.271c0.697,0.976,34.996,0.836,35.972,0c0.342-0.293,0.547-3.036,0.633-6.497
		c1.511,0.891,5.262,3.011,5.908,2.51c0.812-0.63,3.565-13.358,2.859-14.492c-0.591-0.95-6.78,2.164-8.779,3.202
		c-0.098-3.709-0.312-6.686-0.621-6.892c-0.836-0.558-35.136-0.976-35.972,0C56.568,309.078,56.707,329.295,57.405,330.271z"/>
	<ellipse fill="#8C989B" cx="60.802" cy="322.491" rx="1.277" ry="2.185"/>
	<path fill="#3F3F3F" d="M59.525,322.492c0,1.207,0.572,2.185,1.277,2.185c0.706,0,1.277-0.979,1.277-2.185
		c0-0.144-0.009-0.285-0.025-0.421c-0.113,0.234-0.319,0.398-0.564,0.398c-0.364,0-0.659-0.348-0.659-0.776
		c0-0.429,0.295-0.776,0.659-0.776c0.08,0,0.155,0.023,0.226,0.053c-0.232-0.409-0.555-0.664-0.915-0.664
		C60.096,320.306,59.524,321.284,59.525,322.492z"/>
	<path fill="#5B5A5C" d="M70.491,319.322c-5.704,4.305-7.471,8.545-7.471,8.545c2.825-3.973,8.462-7.937,8.462-7.937
		c0-0.001,0-0.002,0-0.003c0.58,0.608,2.857,1.202,4.366,1.771c0,0,1.111-0.111,2.878-0.926c1.663-0.884,6.221-3.23,6.735-2.662
		c0.629,0.696-0.85,9.262-1.461,9.734c-0.611,0.471-5.408-1.437-5.408-1.437s0.625,0.525,1.367,0.919
		c1.093,0.496,1.91,0.889,3.677,1.237c0.789,0.111,1.275-0.876,1.403-1.298c0.092-0.303,0.391-1.629,0.684-3.229
		c1.445,1.178,2.884,2.502,3.949,3.83c0,0-0.957-2.113-3.767-4.866c0.218-1.299,0.406-2.668,0.467-3.766
		c0.078-1.276-0.476-2.482-1.83-1.93c-0.169,0.069-0.368,0.158-0.587,0.261c2.622-1.957,5.842-4.831,9.589-9.059
		c0,0-8.635,8.484-17.524,11.621c0,0-13.259-5.152-18.76-11.621C57.258,308.507,60.388,314.252,70.491,319.322z"/>
</g>
<g>
	<path fill="#737F83" d="M305.12,326.654c-0.849-0.99-35.627-0.565-36.475,0c-0.314,0.21-0.531,3.228-0.63,6.989
		c-2.027-1.053-8.303-4.21-8.902-3.247c-0.716,1.15,2.076,14.056,2.899,14.695c0.655,0.508,4.458-1.642,5.99-2.546
		c0.087,3.51,0.295,6.29,0.642,6.588c0.99,0.848,35.768,0.99,36.475,0C305.827,348.143,305.968,327.643,305.12,326.654z"/>
	<ellipse fill="#8C989B" cx="301.674" cy="341.244" rx="1.295" ry="2.216"/>
	<path fill="#3F3F3F" d="M301.674,339.029c-0.365,0-0.692,0.259-0.927,0.673c0.072-0.031,0.148-0.055,0.229-0.055
		c0.369,0,0.668,0.352,0.668,0.786c0,0.434-0.299,0.786-0.668,0.786c-0.248,0-0.456-0.167-0.572-0.404
		c-0.016,0.139-0.025,0.281-0.025,0.428c0,1.224,0.58,2.216,1.295,2.216s1.295-0.992,1.295-2.216S302.39,339.029,301.674,339.029z"
		/>
	<path fill="#5B5A5C" d="M305.268,327.064c-5.577,6.56-19.022,11.784-19.022,11.784c-9.013-3.181-17.769-11.784-17.769-11.784
		c3.799,4.287,7.065,7.202,9.723,9.186c-0.222-0.104-0.424-0.195-0.596-0.265c-1.373-0.56-1.935,0.663-1.856,1.957
		c0.062,1.113,0.253,2.501,0.474,3.819c-2.85,2.792-3.82,4.934-3.82,4.934c1.079-1.347,2.539-2.69,4.004-3.884
		c0.298,1.622,0.601,2.966,0.694,3.274c0.131,0.428,0.622,1.429,1.423,1.316c1.793-0.353,2.621-0.751,3.729-1.255
		c0.752-0.4,1.386-0.932,1.386-0.932s-4.864,1.935-5.484,1.456c-0.619-0.478-2.12-9.165-1.482-9.87
		c0.52-0.576,5.142,1.803,6.829,2.7c1.791,0.827,2.33,0.939,2.33,0.939c1.53-0.576,3.26-1.179,3.84-1.796c0,0.001,0,0.002,0,0.003
		c0,0,6.303,4.018,9.168,8.048c0,0-1.499-4.299-7.282-8.664C301.8,332.89,305.268,327.064,305.268,327.064z"/>
</g>
</svg>
