<?xml version="1.0" encoding="utf-8"?>
<!-- Generator: Adobe Illustrator 17.0.0, SVG Export Plug-In . SVG Version: 6.00 Build 0)  -->
<!DOCTYPE svg PUBLIC "-//W3C//DTD SVG 1.1//EN" "http://www.w3.org/Graphics/SVG/1.1/DTD/svg11.dtd">
<svg version="1.1" id="Layer_1" xmlns="http://www.w3.org/2000/svg" xmlns:xlink="http://www.w3.org/1999/xlink" x="0px" y="0px"
	 width="382.667px" height="411.333px" viewBox="-137.667 0 382.667 411.333" enable-background="new -137.667 0 382.667 411.333"
	 xml:space="preserve">
<g id="Bg" display="none">
	<polygon display="inline" fill="#012B31" points="637,-12 574,-12 -6,-12 -6,580 314,580 314,688 637,688 637,338 1213,338 
		1213,-12 	"/>
</g>
<path fill="#E8A2B0" d="M197.261,288.133c1.671-1.598,3.184-3.331,4.448-5.25c3.802-7.212,3.112-16.907,2.411-22.626
	c-1.281-10.441-0.161-15.895-0.161-15.895c-4.977,5.78,0.803,22.96-12.845,35.322c-13.647,12.363-41.905,0.803-41.905,0.803
	s-5.929-7.307-13.284-16.707c-0.803,1.706-1.394,2.286-2.451,3.862c-0.502,0.749-1.791-0.101-1.284-0.857
	c1.166-1.738,1.891-2.357,2.769-4.243c-10.774-13.803-24.109-31.486-26.532-37.448c-4.174-10.276-31.231,19.793-26.492,28.418
	c5.941,10.811,3.157,23.869,3.157,23.869l-19.054-16.911c-2.89,25.101,14.557,32.753,14.557,32.753
	c-2.943,9.365-13.112,14.878-33.823,32.539c-20.712,17.661-21.322,26.598-18.839,45.598c2.462,18.839,15.092,28.312,14.771,27.83
	c-0.321-0.482-10.222-24.78-7.974-40.514c2.248-15.735,17.982-24.244,40.3-37.57s21.675-25.368,21.675-25.368
	c2.569,0.161,5.78-0.482,5.78-0.482c1.124,7.225-1.124,19.267-1.124,19.267c-4.977,25.207-29.221,21.515-29.221,21.515
	s-3.853,7.225,15.253,7.707c19.106,0.482,24.244-17.34,24.244-17.34c7.341-0.606,17.01-0.839,20.23-4.817
	c2.729-3.372,1.284-6.904-4.174-10.757c-5.459-3.853-11.881,1.124-11.881,1.124c0.963-7.064-0.642-20.23-0.642-20.23
	c4.977-1.445,9.312-5.619,9.312-5.619c6.583,4.656,9.312,7.707,26.973,12.202c11.513,2.931,26.333,0.164,37.881-4.869
	C192.063,291.799,194.885,290.405,197.261,288.133z"/>
<path fill="#E9BAA9" d="M197.261,288.133c1.671-1.598,3.184-3.331,4.448-5.25c3.802-7.212,3.112-16.907,2.411-22.626
	c-1.281-10.441-0.161-15.895-0.161-15.895c-4.977,5.78,0.803,22.96-12.845,35.322c-13.647,12.363-41.905,0.803-41.905,0.803
	s-5.929-7.307-13.284-16.707c-0.803,1.706-1.394,2.286-2.451,3.862c-0.502,0.749-1.791-0.101-1.284-0.857
	c1.166-1.738,1.891-2.357,2.769-4.243c-10.774-13.803-24.109-31.486-26.532-37.448c-4.174-10.276-31.231,19.793-26.492,28.418
	c5.941,10.811,3.157,23.869,3.157,23.869l-19.054-16.911c-2.89,25.101,14.557,32.753,14.557,32.753
	c-2.943,9.365-13.112,14.878-33.823,32.539c-20.712,17.661-21.322,26.598-18.839,45.598c2.462,18.839,15.092,28.312,14.771,27.83
	c-0.321-0.482-10.222-24.78-7.974-40.514c2.248-15.735,17.982-24.244,40.3-37.57s21.675-25.368,21.675-25.368
	c2.569,0.161,5.78-0.482,5.78-0.482c1.124,7.225-1.124,19.267-1.124,19.267c-4.977,25.207-29.221,21.515-29.221,21.515
	s-3.853,7.225,15.253,7.707c19.106,0.482,24.244-17.34,24.244-17.34c7.341-0.606,17.01-0.839,20.23-4.817
	c2.729-3.372,1.284-6.904-4.174-10.757c-5.459-3.853-11.881,1.124-11.881,1.124c0.963-7.064-0.642-20.23-0.642-20.23
	c4.977-1.445,9.312-5.619,9.312-5.619c6.583,4.656,9.312,7.707,26.973,12.202c11.513,2.931,26.333,0.164,37.881-4.869
	C192.063,291.799,194.885,290.405,197.261,288.133z"/>
<path fill="#DD90A2" d="M155.952,297.09c-0.5-0.118-1.678-0.356-2.864-0.727c-1.142-0.247-2.281-0.527-3.419-0.879
	c-0.207-0.019-0.412-0.037-0.619-0.058c-0.244-0.023-0.416-0.149-0.527-0.312c-0.127-0.044-0.256-0.078-0.383-0.123
	c-0.021,1.992,0.082,0.425-0.13,2.406c1.084,0.298,2.227,0.601,3.449,0.912c6.048,1.54,12.868,1.503,19.742,0.41
	C166.063,298.62,160.929,298.264,155.952,297.09z"/>
<path fill="#DFA696" d="M84.727,260.879c0.663-1.035,1.365-2.045,2.151-2.984c1.135-1.358,2.345-2.696,3.788-3.74
	c0.311-0.225,2.349-1.764,3.152-2.166s1.043-0.563,1.526-0.722c0.408,1.134,1.598,4.099,1.954,5.244
	c2.758-3.567,7.533-6.203,11.881-6.422c0.482,0.722,2.248,3.318,3.105,4.389c3.693,3.774,4.174,4.174,7.55,6.331
	c2.227-3.022,4.578-5.946,6.995-8.815c-8.489-11.171-16.567-22.388-18.398-26.898c-4.174-10.276-31.231,19.793-26.492,28.418
	C83.255,255.914,84.141,258.425,84.727,260.879z"/>
<path fill="#DFA696" d="M103.946,327.823c7.392-9.428,11.694-22.393,11.271-34.383c-0.005-0.153,0.04-0.271,0.104-0.372
	c-0.027-0.249-0.051-0.473-0.072-0.656c-0.155-0.131-0.315-0.249-0.469-0.402c-0.059-0.059-0.078-0.127-0.112-0.193
	c-3.871,1.591-8.05,2.546-12.161,3.229c-0.044,0.076-0.082,0.154-0.121,0.231c0.06-0.012,0.1-0.019,0.1-0.019
	c1.124,7.225-1.124,19.267-1.124,19.267c-4.977,25.207-30.399,21.139-30.399,21.139s0.054,0.963,0.915,1.219
	C82.136,342.354,97.242,336.373,103.946,327.823z"/>
<path fill="#DFA696" d="M129.139,309.509c-1.742-1.229-4.905-0.19-6.603-0.071c-4.988,2.681-10.489,11.306-7.978,16.729
	c12.59-1.409,14.704-1.168,17.431-4.535C134.719,318.259,134.598,313.362,129.139,309.509z"/>
<path fill="#DFA696" d="M34.71,370.458c-1.611-10.172,0.157-21.369,5.587-30.226c5.961-9.721,15.334-13.803,25.616-17.656
	c5.996-2.246,11.866-4.756,17.077-8.534c3.635-2.636,6.951-5.616,10.115-8.773c3.052-4.585,3.535-8.384,3.6-9.527
	c-5.359,0.173-11.421-0.028-16.11-2.515c-3.18,9.013-13.55,15.25-33.822,32.538c-20.712,17.661-21.322,26.598-18.839,45.598
	c2.462,18.839,15.092,28.312,14.771,27.83c-0.232-0.348-5.365-13.09-7.464-26.128C35.036,372.202,34.849,371.335,34.71,370.458z"/>
<path fill="#DFA696" d="M148.52,295.333c-1.134-0.144-2.263-0.313-3.352-0.679c-0.206-0.069-0.337-0.2-0.411-0.356
	c-1.5-0.462-2.893-1.071-4.028-2.293c-0.7-0.754-1.378-1.512-2.004-2.304c-2.369-2.561-3.13-6.282-3.292-10.146
	c-0.136-1.269-0.113-2.47-0.012-3.504c0.014-0.539,0.037-1.071,0.059-1.602c-0.858-2.862,0.971-5.169,3.46-6.827
	c-0.97-1.23-1.977-2.511-3.016-3.839c-0.355,0.753-0.724,1.495-1.11,2.231c0,0.009,0.004,0.015,0.004,0.024
	c-0.272,4.681-0.97,7.118-3.271,11.024c-1.66,2.302-3.051,4.335-4.656,6.208c-0.781,0.816-1.886,2.146-2.408,2.836
	c6.051,4.307,9.238,7.438,24.293,11.498C148.679,296.85,148.599,296.09,148.52,295.333z"/>
<path fill="#E9BAA9" d="M17.713,139.038c0,0,4.496,3.372,5.941,7.546c1.445,4.174,0.642,11.078-6.422,15.092
	c-3.833,2.178-13.968,5.298-17.501,17.019c-3.532,11.721-4.014,30.827,3.372,41.263s31.308,24.565,51.217,17.501
	c0,0-32.111,1.445-41.424-20.872s-4.496-30.987,0.321-38.052c4.817-7.064,17.982-11.56,18.625-17.982
	C32.484,154.13,27.507,137.433,17.713,139.038"/>
<path fill="#DFA696" d="M16.657,138.908c0,0,5.551,3.501,6.996,7.676c1.445,4.174,0.642,11.078-6.422,15.092
	c-3.833,2.178-13.968,5.298-17.501,17.019c-1.942,6.444-2.953,15.114-2.247,23.351c0.717-2.298,1.566-4.551,2.629-6.715
	c2.616-5.328,6.203-11.293,11.304-14.594c0.146-0.095,0.288-0.112,0.42-0.098c0.452-0.723,0.916-1.423,1.38-2.105
	c4.817-7.064,17.982-11.56,18.625-17.982C32.484,154.13,26.451,137.303,16.657,138.908z"/>
<path fill="#E9BAA9" d="M178.59,145.782c0,0-5.459,3.532-5.459,7.867s6.101,10.115,12.684,13.166
	c6.583,3.051,17.501,14.932,15.895,33.396s-8.509,36.767-33.556,41.424c0,0,10.115,21.996-8.67,26.01c0,0,9.152-9.633,4.174-16.858
	s-16.056-6.262-26.01,3.853l-8.831-7.546c0,0,12.684-11.721,35.162-15.735c22.478-4.014,27.937-21.033,25.85-33.556
	s-6.101-18.303-16.056-24.083C163.819,167.938,165.746,143.855,178.59,145.782z"/>
<path fill="#DFA696" d="M165.135,245.053c3.798,4.485,4.715,11.162,3.388,17.122c4.083-5.905,1.833-14.522,0.45-18.45
	c-4.871-5.485-12.413-8.404-20.077-8.168c-6.906,2.652-12.153,5.748-15.544,8.066c0.08,0.071,0.149,0.152,0.225,0.226
	C143.28,240.529,157.401,235.918,165.135,245.053z"/>
<path fill="#DFA696" d="M173.774,173.718c5.12,2.974,8.661,5.953,11.184,9.844c0.144-0.027,0.301-0.012,0.464,0.092
	c9.148,5.86,6.512,20.35,14.993,25.5c0.623-3.018,1.042-6.027,1.296-8.945c1.606-18.464-9.312-30.345-15.895-33.396
	c-6.583-3.051-12.684-8.831-12.684-13.166s5.459-7.867,5.459-7.867C165.746,143.855,163.819,167.938,173.774,173.718z"/>
<path fill="#E9BAA9" d="M230.29,247.735c0,0,0.803,4.496-4.014,4.174c-2.89-0.321,0.482-4.817-1.124-7.867s-1.284-6.262-9.794-5.619
	C206.848,239.065,230.129,229.271,230.29,247.735"/>
<path fill="#DFA696" d="M225.352,248.349c0.704,1.588,2.525,2.566,4.296,2.397c0.956-1.239,0.641-3.009,0.641-3.009
	c-0.161-18.464-23.441-8.67-14.932-9.312c8.509-0.642,8.188,2.569,9.794,5.619C225.845,245.359,225.61,246.945,225.352,248.349z"/>
<path fill="#E9BAA9" d="M-33.077,255.335c0,0,7.492-0.642,18.41,6.422c10.918,7.064,15.841,9.633,32.326,8.777
	c16.485-0.857,19.481-9.848,18.41-10.061c-1.07-0.215-23.761,0.855-34.251-4.068C-8.672,251.482-21.088,249.768-33.077,255.335"/>
<path fill="#DFA696" d="M-30.712,255.435c9.439-2.702,16.153,2.094,25.787,7.713c5.582,3.256,11.078,4.656,19.909,4.817
	c4.993,0.091,10.633-0.708,15.614-0.701c5.162-2.898,6.16-6.653,5.473-6.791c-1.071-0.215-23.762,0.855-34.252-4.068
	c-10.49-4.923-22.906-6.637-34.895-1.07C-33.077,255.335-32.228,255.268-30.712,255.435z"/>
<path fill="#E9BAA9" d="M49.985,271.604c0,0-12.417,15.628-8.563,42.601c3.853,26.973,15.628,54.375,21.622,61.439
	c5.995,7.064,9.206,4.281,6.422-2.141c-2.783-6.422-17.982-41.317-15.628-73.214c2.354-31.897,16.698-37.891,16.698-37.891
	S70.751,244.845,49.985,271.604z"/>
<path fill="#DFA696" d="M67.004,259.806c0.101-1.006,0.227-2.009,0.379-3.011c-2.736-0.425-7.842,2.494-17.399,14.81
	c0,0-5.515,6.955-8.052,19.58c1.004-1.073,2.049-2.068,3.304-2.94c3.635-2.525,7.536-4.372,11.66-5.594
	c2.528-8.465,6.018-13.556,8.834-16.518c0.113-1.884,0.329-3.765,0.462-5.661C66.228,259.996,66.635,259.779,67.004,259.806z"/>
<path fill="#E8A2B0" d="M13.593,330.046c-1.437-6.182-6.635-7.63-8.666-6.749c1.299,2.158,2.458,4.336,3.293,6.567
	c1.446,2.665,1.724,6.034,0.877,12.383c-0.096,0.724-0.194,1.078-0.394,1.76c-0.461,1.787-1.385,3.334-2.548,4.716
	c-1.665,1.975-3.729,3.885-6.339,4.33c-1.929,0.326-3.83,0.611-5.783,0.487c-4.135-0.262-6.086-2.013-7.455-4.579
	c-0.918-1.107-1.576-2.465-1.959-3.92c-1.07-2.198-1.85-4.361-4.207-3.864c-0.963,0.203-1.594,0.687-2.009,1.3
	c-0.371,1.437-0.56,2.86-0.573,4.272c0.103,0.634,0.226,1.064,0.226,1.064c5.995,15.841,22.263,14.343,31.255,8.991
	C18.301,351.454,15.732,339.252,13.593,330.046z"/>
<path fill="#DD90A2" d="M13.593,330.046c-1.437-6.182-6.635-7.63-8.666-6.749c1.299,2.158,2.458,4.336,3.293,6.567
	c0.813,1.498,1.243,3.241,1.326,5.587c1.961,6.732-1.04,15.239-7.704,17.733c-4.772,1.785-9.874,1.904-14.26-0.97
	c-3.866-2.532-7.094-6.113-8.11-10.685c-0.455,0.245-0.81,0.566-1.069,0.949c-0.371,1.437-0.56,2.86-0.573,4.272
	c0.103,0.635,0.226,1.064,0.226,1.064c5.995,15.841,22.263,14.343,31.255,8.991C18.301,351.454,15.732,339.252,13.593,330.046z"/>
<path fill="#DD90A2" d="M101.363,279.525c0,0,1.124-10.115,0-14.289c0,0,4.174,7.064,8.991,9.473
	C110.354,274.708,107.625,278.24,101.363,279.525z"/>
<path fill="#E9BAA9" d="M126.651,322.795c0,0-3.693-2.168-3.291-5.459c0,0-3.747,2.141-1.712,5.486c2.033,3.345,0,0,0,0
	S124.322,323.597,126.651,322.795"/>
<path fill="#E9BAA9" d="M68.182,42.758c0,0-19.267-8.563-27.401,5.566c-8.136,14.129-1.713,26.973-13.274,30.399
	c0,0,17.982,8.991,35.965-1.712S68.182,42.758,68.182,42.758z"/>
<path fill="#DFA696" d="M68.182,42.758c0,0-2.853-1.261-6.822-2.015c-3.876,6.696-5.559,15.624-5.595,22.834
	c-0.027,5.291,0.642,11.078,1.999,16.197c1.889-0.727,3.798-1.626,5.708-2.764C81.454,66.306,68.182,42.758,68.182,42.758z"/>
<path fill="#E9BAA9" d="M171.196,154.719c0.974-0.172,1.252,0.803,1.507,2.248c0.256,1.446,0.658,2.732-0.315,2.904
	c-0.974,0.172-3.069-0.655-3.324-2.101C168.808,156.323,170.224,154.891,171.196,154.719z"/>
<ellipse transform="matrix(0.4009 -0.9161 0.9161 0.4009 -139.4558 308.3344)" fill="#FECDC5" cx="166.021" cy="260.794" rx="2.133" ry="1.074"/>
<ellipse transform="matrix(0.6856 -0.728 0.728 0.6856 -142.3068 202.1735)" fill="#FFC2D6" cx="162.904" cy="265.836" rx="2.133" ry="1.074"/>
<path fill="#CC7691" d="M225.255,232.23c-0.387-0.163-0.781-0.294-1.173-0.433c-7.107-1.968-16.429-2.687-22.847-0.57
	c-1.549,0.769-2.991,1.769-4.352,2.98c-5.007,6.161-5.697,16.104-3.896,24.981c1.631,8.038,1.729,12.205-0.478,15.303
	c-0.708,1.381-1.752,2.613-2.981,3.576c-2.089,1.948-4.867,3.378-7.795,4.19c-1.314,0.364-2.684,0.609-4.085,0.767
	c-12.07,2.615-27.905-5.639-27.905-5.639l-0.049,0.086c-0.51-2.154-1.067-4.325-1.663-6.508c-2.348-8.608-9.714-17.445-16.22-23.929
	c0.934-1.156,1.907-2.137,2.948-2.83c7.064-4.71,23.12-11.346,30.185-2.141c7.064,9.204,3.853,20.979-3.853,23.977
	c-4.068,1.927-5.78,4.281-4.496,5.352c1.284,1.07,7.279,0.428,12.63-5.566c5.352-5.995,8.242-16.377-0.642-26.546
	c-1.446-1.656-1.893-2.494-3.799-3.586c7.535-1.663,21.635-9.479,25.422-24.244c3.698-16.937,2.466-22.294-0.931-28.108
	c-1.153-2.947-3.568-4.81-4.508-5.288c-12.064-6.128-13.848-11.398-13.172-16.273c-0.008-0.715,0.037-1.46,0.176-2.264
	c0.47-2.72,1.186-5.971,2.731-8.507c1.595-3.665,4.809-5.396,9.77-5.679c7.45-0.424,15.488,4.164,20.581,9.279
	c6.435,6.462,7.723,15.05,11.297,23.007c5.826,11.117,16.785,15.208,16.785,15.208c-4.71-4.281-2.783-17.34-1.07-23.12
	c1.713-5.78,0.857-14.986-3.853-25.047c-4.71-10.061-7.707-13.701-29.115-14.986c-21.408-1.284-24.832,5.352-29.115,17.126
	c-4.281,11.775-6.422,23.548,3.853,29.328c3.35,1.884,7.356,5.509,9.63,7.73c4.836,6.244,5.783,16.698,2.018,26.736
	c-3.853,10.276-16.056,19.481-32.326,19.052c-16.27-0.428-28.686-8.777-31.041-19.052c-2.101-9.168,0.568-27.355,1.168-31.171
	c5.292-5.079,6.453-11.893,5.418-17.942c0.298,0.045,0.596,0.091,0.907,0.091c3.31,0,5.995-2.683,5.995-5.995
	s-2.683-5.995-5.995-5.995c-1.859,0-3.5,0.864-4.6,2.193c0.143-5.316,0.319-14.279,0.412-19.201c3.403-0.578,5.47-0.974,5.47-0.974
	s6.208-8.991-2.354-13.487c0,0,4.923-15.628-11.346-33.181c-13.272-14.771-12.416-23.977-12.416-23.977s14.129-2.783,20.979-14.129
	c6.851-11.346,8.991-22.691-4.281-33.181s-22.478-5.138-33.823,1.499S55.337,42.116,61.759,85.145
	c3.211,18.625,5.78,26.759,7.921,31.684c0,0-11.346,5.352-5.352,15.841c1.071,1.874,3.882,3.04,7.768,3.699l-0.343,18.762
	c-1.138-1.292-2.785-2.124-4.642-2.124c-3.428,0-6.208,2.78-6.208,6.208c0,3.428,2.78,6.208,6.208,6.208
	c0.344,0,0.676-0.048,1.006-0.101c0.018,2.285,0.455,6.664,3.131,10.901c0.27,5.216,0.945,26.507-5.42,34.371
	c-7.279,8.991-22.05,22.692-37.891,13.914c-15.844-8.777-17.128-16.911-16.271-30.183c0.855-13.274,5.351-18.839,15.627-24.619
	c10.276-5.78,8.134-17.555,3.853-29.328c-4.281-11.775-7.707-18.41-29.115-17.126c-21.408,1.284-24.405,4.923-29.115,14.986
	c-4.71,10.061-5.566,19.267-3.853,25.047c1.712,5.78,3.639,18.839-1.07,23.12c0,0,10.959-4.091,16.785-15.208
	c3.572-7.958,4.86-16.545,11.297-23.007c5.093-5.113,13.132-9.703,20.581-9.279c4.959,0.283,8.174,2.014,9.77,5.679
	c1.545,2.537,2.262,5.788,2.731,8.507c0.139,0.804,0.184,1.549,0.176,2.264c0.677,4.874-1.108,10.146-13.172,16.273
	c-13.487,6.85-11.132,35.322-9.206,40.246s20.766,39.818,54.804,21.836c0,0-6.795,8.683-14.681,15.61
	c-3.794,4.559-9.998,6.644-15.713,7.402c-3.666,0.486-7.089,0.89-10.359,0.635c-2.866,0.175-5.77,0.006-8.58-0.401
	c-8.084-1.171-14.564-4.362-21.863-7.785c-8.971-4.207-19.281-3.236-28.551-0.626c-4.289,1.207-8.258,2.661-11.195,6.254
	c-1.68,2.055-2.649,4.389-3.269,6.85c-0.164,1.593-0.213,3.32-0.105,5.243c0.857,15.199,6.637,18.839,16.698,20.766
	s13.701-2.997,15.413-6.85c1.712-3.853-1.927-6.422-5.995-3.211c-0.027,0.021-0.054,0.035-0.081,0.055
	c-2,1.599-4.068,2.493-6.221,2.284c-0.624,0.071-1.269,0.065-1.938-0.048c-3.422-0.574-6.249-3.156-7.82-6.176
	c-3.798-7.301-1.161-14.966,6.736-17.092c0.378-0.154,0.768-0.299,1.188-0.432c11.56-3.639,18.197-4.068,35.965,2.354
	c11.775,4.71,30.185,3.211,30.185,3.211s0.027-0.004,0.048-0.006c-0.303,0.145-0.599,0.288-0.904,0.434
	c0,0-16.458,4.872-29.176,12.106c-0.091,0.074-0.239,0.148-0.406,0.22c-2.447,2.072-4.524,4.481-6.319,7.108
	c-1.07,2.327-1.826,4.794-2.203,7.341c-1.026,6.953,1.106,14.471,4.137,20.861c2.832,5.97,7.567,11.633,10.418,17.596
	c3.158,5.255,5.085,9.443,5.085,14.406c0,7.279-3.499,15.088-11.399,16.537c-9.633,1.766-18.22-0.885-22.978-12.53
	c-0.074,1.274-0.021,2.541,0.144,3.802c0.757,3.58,2.884,8.418,8.811,10.814c9.463,3.825,17.788,3.86,25.157-2.738
	c5.5-4.706,6.503-10.714,6.643-13.579c0.495-3.516,0.547-7.066,0.299-10.277c-0.48-6.248-2.479-11.516-5.784-16.838
	c-2.181-3.512-5.417-6.688-7.023-10.549c-1.851-2.615-2.86-5.343-2.383-9.171c1.284-10.276,12.417-10.061,20.337-13.059
	c7.921-2.997,34.466-12.845,41.959-23.762c0,0,0.428,13.701,15.628,20.551c15.204,6.85,29.333,1.498,35.541-6.851
	c2.649-3.562,4.945-8.68,7.258-13.746c2.88,2.451,5.703,4.991,8.155,7.966c10.061,12.202,10.49,28.686,8.563,36.821
	c-1.725,7.28-5.834,11.411-6.689,12.148c-0.447,0.451-0.794,0.891-1.087,1.323c-1.819,1.824-5.951,5.32-10.4,4.81
	c-0.075,0.026-0.154,0.042-0.247,0.041c-2.898-0.053-6.296-1.915-6.494-5.181c-0.125-2.059,0.614-4.921,2.679-5.804
	c0.497-0.945,1.259-1.74,2.498-2.381c2.664-1.376,6.2-2.974,8.341,0.107c0.211,0.303,0.414,0.619,0.609,0.94
	c1.715,1.715,2.606,4.358,2.121,6.637c0.175-0.29,0.337-0.592,0.483-0.903c-0.076-0.189-0.077-0.411,0.033-0.611
	c0.263-0.482,0.55-0.924,0.853-1.353c-2.821-12.811-13.746-8.506-16.891-5.92c-3.075,2.529-14.771,15.413,1.284,23.977
	c1.204,0.642,2.347,1.146,3.449,1.549c-1.201,1.391-4.865,5.414-7.515,5.944c-3.211,0.642,0.642,4.068,4.281,2.783
	c2.99-1.056,7.998-5.707,10.999-9.012c8.484-1.258,13.616-9.139,18.758-18.175c5.167-9.082,4.957-20.428,2.832-32.086
	c5.995,2.882,18.221,7.049,31.848,1.901c19.267-7.279,20.123-23.762,20.123-28.043c0-4.281-4.496-17.34,11.56-19.694
	c14.274-2.094,15.519,8.664,15.619,11.08c0.033,0.096,0.058,0.197,0.091,0.294C232.242,245.364,232.36,237.162,225.255,232.23z
	 M100.239,279.043c-16.216,2.569-21.033-8.831-19.909-20.07c1.124-11.239,19.267-24.886,25.207-31.308
	c0,0-1.766,19.106,14.771,29.221C120.309,256.886,116.455,276.474,100.239,279.043z M128.327,243.693
	c-3.88-3.581-6.928-5.962-7.563-6.451c1.865,1.123,3.849,1.893,5.858,2.25c1.562,0.277,3.478,0.375,6.529,0.054
	c-0.421,0.376-2.049,1.039-2.462,1.445C129.839,241.829,129.06,242.736,128.327,243.693z"/>
<path fill="#B75978" d="M130.299,259.642c-0.516,1.536-1.042,3.069-1.567,4.602c1.36,1.305,2.669,2.673,3.887,4.149
	c2.88,3.492,4.683,5.468,6.155,9.366c1.216-3.569,1.751-5.454,2.415-9.26c0.448-2.57,1.537-4.733,2.494-7.018
	c-2.61-4.191-5.924-8.196-9.221-11.712C132.608,252.824,131.436,256.26,130.299,259.642z"/>
<path fill="#B75978" d="M41.957,275.35c0,0-10.597,30.185,1.606,63.901s20.872,42.066,25.047,40.46c0,0-4.923-0.857-11.775-15.413
	c-6.85-14.557-16.698-44.528-14.557-62.296c2.141-17.768,4.923-24.619,10.49-32.753L41.957,275.35z"/>
<path fill="#B75978" d="M29.861,377.143c-3.968-15.869-1.589-32.944,11.84-44.305c0.638-0.649,1.293-1.29,1.946-1.932
	c-0.606-1.78-1.129-3.576-1.388-5.437c-9.013,8.059-16.571,19.986-17.963,32.836c-1.927,17.768,2.569,31.684,9.848,38.961
	c7.279,7.279,9.633,4.923,8.563,1.927C42.706,399.193,33.929,393.413,29.861,377.143z"/>
<path fill="#B75978" d="M54.441,320.767c3.58-3.262,7.217-6.543,10.637-9.881c-0.98,0.528-2.238,1.595-3.236,2.091
	c-2.552,1.715-5.318,3.282-7.789,4.546C54.153,318.627,54.299,319.584,54.441,320.767z"/>
<path fill="#B75978" d="M115.976,309.999c1.065-0.995,3.011-2.198,4.493-2.804c-0.015-9.945-2.408-16.965-2.408-16.965l-3.639,1.712
	c0.406,1.622,0.717,3.223,0.862,5.373C116.02,301.517,116.25,305.76,115.976,309.999z"/>
<path fill="#B75978" d="M112.037,327.175c-0.222-0.116-0.451-0.216-0.685-0.304c-1.173,3.702-3.441,6.931-6.385,9.505
	c-2.735,3.103-6.24,5.226-10.883,6.087c-11.56,2.141-19.481,0.428-23.548-7.707c-4.068-8.134,2.569-10.703,4.71-11.346
	c2.141-0.642,3.426-8.777-7.064-2.997c-10.49,5.78-3.211,21.621,5.78,26.546c8.991,4.923,32.378,3.853,41.209-16.056
	c0.036-0.08-0.523-2.01-0.482-2.087C113.75,328.357,112.802,327.834,112.037,327.175z"/>
<ellipse transform="matrix(-0.9959 0.09 -0.09 -0.9959 167.6875 274.6115)" fill="#FFFFFF" cx="77.652" cy="141.087" rx="15.049" ry="14.298"/>
<ellipse transform="matrix(-0.9932 -0.1161 0.1161 -0.9932 218.0683 295.3344)" fill="#FFFFFF" cx="117.636" cy="141.316" rx="14.62" ry="13.891"/>
<path fill="#3A3A3A" d="M89.129,136.117c-0.69,2.095-2.64,3.617-4.966,3.617c-2.656,0-4.828-1.979-5.179-4.539
	c-2.688,1.403-4.506,4.058-4.506,7.107c0,4.511,3.97,8.168,8.868,8.168c4.898,0,8.868-3.657,8.868-8.168
	C92.214,139.828,91.015,137.615,89.129,136.117z"/>
<path fill="#3A3A3A" d="M118.126,133.293c-0.18,2.411-1.85,4.546-4.323,5.162c-2.826,0.703-5.659-0.827-6.71-3.458
	c-2.488,2.204-3.718,5.508-2.912,8.751c1.195,4.797,6.385,7.637,11.593,6.34c5.208-1.297,8.465-6.237,7.27-11.035
	C122.391,136.423,120.529,134.387,118.126,133.293z"/>
<path fill="#3A3A3A" d="M137.807,131.278c0,0-2.255,3.261-6.056,2.108c-0.177-0.293-0.356-0.583-0.552-0.864
	c0.902-0.367,3.392-1.752,3.332-5.815c0,0-1.338,3.661-5.23,3.568c-0.25-0.247-0.518-0.478-0.785-0.708
	c0.769-0.505,3.02-2.361,2.113-6.399c0,0-0.581,4.029-4.637,4.607c-1.942-1.123-4.147-1.892-6.539-2.172
	c-5.609-0.655-10.869,1.471-14.264,5.242c-6.266-3.121-12.672-0.828-14.645,0.032c-3.305-3.671-8.369-5.811-13.844-5.316
	c-2.565,0.231-4.93,1.03-6.996,2.23c-4.137-0.53-4.723-4.623-4.723-4.623c-0.934,4.158,1.478,6.002,2.177,6.442
	c-0.248,0.216-0.492,0.434-0.726,0.663c-3.988,0.176-5.355-3.566-5.355-3.566c-0.063,4.217,2.616,5.545,3.422,5.849
	c-0.18,0.259-0.352,0.524-0.515,0.792c-3.88,1.269-6.185-2.071-6.185-2.071c1.034,4.23,4.13,4.745,4.869,4.808
	c-0.726,2.001-1.046,4.167-0.843,6.403c0.772,8.536,8.682,14.798,17.668,13.985c8.986-0.812,15.645-8.391,14.873-16.926
	c-0.211-2.331-0.968-4.483-2.121-6.376c6.742-1.906,10.015-0.429,11.069,0.263c-0.985,1.708-1.649,3.623-1.891,5.688
	c-0.995,8.513,5.463,16.264,14.424,17.311c8.962,1.047,17.032-5.004,18.027-13.518c0.279-2.387-0.045-4.706-0.828-6.841
	C133.931,135.973,136.815,135.336,137.807,131.278z M79.144,152.921c-6.664,0.602-12.564-4.479-13.136-10.81
	c-0.573-6.331,4.384-11.972,11.049-12.575c6.665-0.602,12.552,4.058,13.125,10.39C90.753,146.257,85.809,152.318,79.144,152.921z
	 M129.702,142.428c-0.739,6.314-6.819,11.233-13.466,10.455c-6.646-0.777-11.379-6.959-10.64-13.274s6.746-10.819,13.392-10.042
	C125.634,130.345,130.44,136.113,129.702,142.428z"/>
<path fill="#B75978" d="M20.222,229.692c0,0,33.617,18.685,54.81-19.688l-13.647,24.244
	C61.384,234.248,41.094,247.514,20.222,229.692z"/>
<path fill="#B75978" d="M105.832,217.34c-1.222,2.389-3.053,4.526-4.664,6.666c-3.554,4.719-7.707,8.956-11.505,13.473
	c-5.312,6.316-12.255,14.367-13.34,22.945c0.143,2.311,0.602,4.623,1.44,6.899c4.014,10.918,12.684,12.042,16.056,12.042
	c0,0-15.413-0.963-13.326-20.07c1.284-10.597,18.704-25.448,24.967-31.228C105.458,228.067,105.137,225.658,105.832,217.34z"/>
<path fill="#B75978" d="M88.48,219.817c-0.713,0.786-1.424,1.554-2.141,2.309c-2.06,2.686-4.172,5.33-6.561,7.8
	c-1.612,1.666-3.202,3.34-4.767,5.031c-1.371,1.769-2.638,3.608-3.835,5.495c-3.744,5.781-5.563,12.739-9.37,16.83
	c-3.358,3.607-7.678,6.633-12.242,8.697c-5.093,3.409-11.48,6.623-19.005,9.529c-14.129,5.459-21.996,6.743-26.813,13.326
	c-2.783,6.529,0.215,13.701,0.215,13.701c-0.963-13.808,14.236-14.665,24.19-19.321c35.162-14.29,37.731-22.317,37.731-22.317
	c0-12.845,8.67-24.405,15.574-31.469c3.441-3.522,6.799-8.075,9.305-11.762C89.994,218.457,89.055,219.183,88.48,219.817z"/>
<path fill="#B75978" d="M34.271,256.212c-4.365,2.575-8.304,4.135-13.22,5.297c-0.466,0.157-0.933,0.302-1.401,0.434
	c6.942,0.193,11.972-0.193,11.972-0.193s8.15-3.605,12.657-9.745C41.387,254.16,37.825,255.461,34.271,256.212z"/>
<path fill="#B75978" d="M-21.463,276.474c0,0.003-0.001,0.005-0.001,0.008c0.849,0.796,1.051,1.892-0.209,3.377
	c-0.732,0.863-1.588,1.606-2.505,2.268c-0.498,0.45-1.06,0.823-1.647,1.161c-5.392,3.972-13.22,3.275-18.323-0.344
	c-6.91-4.903-9.374-14.105-8.033-22.302c-0.161,0.538-0.302,1.083-0.426,1.634c-2.677,17.504,4.952,22.283,13.001,25.116
	c8.67,3.051,13.808,0.642,18.143-4.174C-17.128,278.401-21.463,276.474-21.463,276.474z"/>
<path fill="#B75978" d="M121.504,254.083c-10.588-6.587-15.004-16.623-15.004-16.623c0.864,7.061,3.693,12.062,13.776,20.208
	C120.603,256.434,120.979,255.224,121.504,254.083z"/>
<path fill="#B75978" d="M126.416,256.907c-0.641,1.347-1.295,2.687-2.047,3.966c21.091,16.379,17.294,40.969,17.294,40.969
	C146.488,281.787,137.858,264.282,126.416,256.907z"/>
<path fill="#B75978" d="M179.721,226.792c-3.105,2.488-7.038,4.445-10.951,5.243c-4.813,0.981-9.612,0.349-14.45,0.104
	c-0.728,0.045-1.458,0.08-2.191,0.098c-3.02,0.398-5.977,0.872-9.028,1.735c-3.458,0.977-7.04,1.184-10.5,0.017
	c-3.301-1.114-6.695-2.74-9.279-5.121c-2.399-2.212-3.623-4.815-5.25-7.515c-0.215,3.848-1.08,12.475,3.12,16.427
	c0,0,6.502,3.211,11.721,2.087c0,0,17.982-12.202,32.245-4.014c0,0,17.982-3.593,24.619-22.692
	C187.194,218.174,184.207,223.197,179.721,226.792z"/>
<path fill="#B75978" d="M130.263,307.904c-5.298-4.014-12.924,2.569-15.493,7.386c-1.879,3.523,0.384,6.612,4.174,8.389
	c3.206,1.09,6.797,0.294,9.767-1.391c-2.676,0.803-5.108,1.043-7.064,0.536c-2.306-0.24-4.343-2.37-4.442-4.389
	c-0.184-3.708,2.836-6.316,5.802-7.843c3.51-1.63,8.599-2.559,9.585,8.712c-0.001,0.001,0.027,0.172,0.027,0.173
	c0.11-0.103,0.588-0.615,0.884-0.909c0.909-0.963,1.097-1.205,1.097-1.205S135.561,311.917,130.263,307.904z"/>
<path fill="#B75978" d="M87.555,173.076c0,0,10.757,4.977,23.281,0.482C110.836,173.558,103.129,185.439,87.555,173.076z"/>
<path fill="#B75978" d="M81.929,112.478c-4.282-0.691-8.878,0.234-13.145,2.041l0.895,2.308c0,0,13.541-2.515,20.605,0.857
	C90.285,117.684,88.355,114.311,81.929,112.478z"/>
<path fill="#B75978" d="M107.293,116.127c-1.486,1.182-1.916,2.199-1.916,2.199c12.924-5.058,22.96-0.215,22.96-0.215
	c0.337-0.751,0.5-2.419,0.577-3.64C122.141,111.583,113.803,112.347,107.293,116.127z"/>
<g>
	<path fill="#B75978" d="M210.381,235.051c-11.721,2.408-12.202,11.239-11.721,21.515s-4.602,25.314-21.033,26.492
		c-0.146,0.01-0.28,0.005-0.425,0.013c-2.356,0.231-4.799,0.194-7.248-0.072c-13.975-1.025-20.585-7.005-20.585-7.005l1.606,8.188
		c0,0,5.988,3.473,14.246,4.476c2.881,0.286,5.235,0.447,8.201,0.408c5.677-0.114,12.897-0.995,17.854-4.241
		c7.057-4.624,10.421-13.394,11.638-20.866c0.026-0.11,0.057-0.216,0.082-0.328c2.569-11.56-4.496-21.515,9.152-24.565
		c13.022-2.911,17.119,4.551,17.886,9.704c0.051,0.139,0.113,0.275,0.163,0.415C230.683,246.708,233.131,230.144,210.381,235.051z"
		/>
</g>
<path fill="#E9BAA9" d="M144.392,244.684c-2.378,1.508-4.058,2.3-5.302,2.882c-0.682-2.33-2.083-4.368-4.973-2.882
	c-5.619,2.89-13.487,23.923-13.487,23.923s-5.849,23.403-0.482,20.872c5.368-2.53,12.363-8.831,13.968-17.822
	c0.799-4.476,2.195-9.31,3.396-13.036c1.527-3.327,4.904-9.13,10.733-11.529c8.188-3.372,8.188-3.372,8.188-3.372
	S150.975,240.51,144.392,244.684z"/>
<path fill="#B75978" d="M130.183,330.181c-3.834,0.895-7.641,0.477-10.848-0.343c-3.694-1.103-8.154-3.291-9.302-7.524
	c0,0,0.032,9.874,10.89,12.105c0.497,0.127-1.738-0.465-1.738-0.465c-1.395,1.683-3.291,4.335-5.298,4.656
	c-2.008,0.321-3.291,4.335,1.927,5.217c5.217,0.882,13.086-8.75,13.086-8.75c9.071,0.214,18.491-17.447,18.491-17.447
	S139.817,327.933,130.183,330.181z"/>
<path fill="#B75978" d="M211.433,153.149c-5.72-6.276-16.517-9.195-26.078-7.835c7.135,0.049,14.648,4.429,19.494,9.296
	c6.435,6.462,7.723,15.05,11.297,23.007c3.071,5.86,7.559,9.752,11.125,12.137c-3.498-3.677-5.73-8.488-7.328-13.467
	c-1.333-4.156-2.349-8.403-3.626-12.576C215.205,160.075,214.053,156.024,211.433,153.149z"/>
<path fill="none" d="M126.624,239.492c-2.01-0.357-3.993-1.129-5.858-2.25c0.635,0.488,3.683,2.869,7.563,6.451
	c0.731-0.957,1.512-1.864,2.363-2.701c0.414-0.406,2.041-1.069,2.462-1.445C130.102,239.868,128.186,239.77,126.624,239.492z"/>
<path fill="none" d="M105.537,227.665c-5.941,6.422-24.083,20.07-25.207,31.308c-1.124,11.239,3.693,22.638,19.909,20.07
	s20.07-22.157,20.07-22.157C103.771,246.771,105.537,227.665,105.537,227.665z"/>
<path fill="#E9BAA9" d="M108.213,96.705c0,0-9.579-9.206-24.511-4.871c-13.326,3.853-12.309,14.932-12.309,14.932
	S78.457,93.707,108.213,96.705z"/>
<path fill="#E9BAA9" d="M94.62,74.816c0,0-8.926-8.273-20.872-3.532c-10.115,4.014-7.064,14.29-7.064,14.29
	S72.784,71.123,94.62,74.816z"/>
<path fill="#E9BAA9" d="M88.037,58.118c0,0-7.225-8.188-19.267-4.335c-8.188,2.569-6.262,11.721-6.262,11.721
	C62.99,65.664,68.128,55.388,88.037,58.118z"/>
<path fill="#E9BAA9" d="M85.093,42.544c0,0-5.991-6.634-18.314-3.65c-0.778,1.693-1.499,3.487-2.162,5.37
	C72.718,40.78,85.093,42.544,85.093,42.544z"/>
<path fill="#E9BAA9" d="M84.344,27.987c0,0-1.287-5.318-6.293-5.46c-1.084,1.088-2.171,2.277-3.245,3.567
	C80.812,26.043,84.344,27.987,84.344,27.987z"/>
<path fill="#E9BAA9" d="M120.951,38.155c0,0,4.872,0.715,8.697,0.154c1.076-3.184,1.564-6.352,1.225-9.483
	C130.101,31.288,127.37,37.716,120.951,38.155z"/>
<path fill="#E9BAA9" d="M111.211,46.825c0,0,2.798,5.115,7.744,7.332c2.024-1.584,3.968-3.509,5.61-5.834
	C123.078,48.75,116.984,50.179,111.211,46.825z"/>
<path fill="#B75978" d="M104.574,61.062c0,0-1.927-23.414,3.96-30.185c0,0-5.138,13.166,3.853,27.295
	C112.387,58.172,109.124,59.83,104.574,61.062z"/>
<path fill="none" d="M126.624,239.492c-2.01-0.357-3.993-1.129-5.858-2.25c0.635,0.488,3.683,2.869,7.563,6.451
	c0.731-0.957,1.512-1.864,2.363-2.701c0.414-0.406,2.041-1.069,2.462-1.445C130.102,239.868,128.186,239.77,126.624,239.492z"/>
<path fill="none" d="M105.537,227.665c-5.941,6.422-24.083,20.07-25.207,31.308c-1.124,11.239,3.693,22.638,19.909,20.07
	s20.07-22.157,20.07-22.157C103.771,246.771,105.537,227.665,105.537,227.665z"/>
<path fill="#E9BAA9" d="M213.265,141.5c5.251-3.699,9.522-3.406,11.37-3.013c0.873,1.243,1.656,2.65,2.446,4.239
	C221.372,141.14,213.265,141.5,213.265,141.5z"/>
<path fill="#E9BAA9" d="M228.842,146.514c0.521,1.219,0.984,2.422,1.394,3.607c-4.313-1.544-9.339-2.191-9.339-2.191
	C224.262,146.339,226.976,146.231,228.842,146.514z"/>
<path fill="#E9BAA9" d="M231.575,154.696c0.261,1.08,0.474,2.136,0.641,3.164c-3.46-1.792-7.603-2.912-7.603-2.912
	C227.698,153.974,230.03,154.224,231.575,154.696z"/>
<path fill="#3A3A3A" d="M107.223,159.857c0,0,1.151,0.311,2.435,0.963l0.054,0.267c0,0.889-0.532,1.266-0.897,1.431
	c-1.099,0.468-5.648,1.544-12.002,0.389c0,0,4.168,2.803,11.032,1.478c0,0,0.587-0.1,1.139-0.351
	c0.311-0.123,0.608-0.266,0.876-0.447c0.143-0.085,0.28-0.202,0.414-0.335c0.031-0.037,0.071-0.066,0.101-0.105l-0.004-0.003
	c0.316-0.353,0.581-0.855,0.677-1.63c0.736,0.538,1.468,1.125,1.993,2.114C113.044,163.63,112.708,158.305,107.223,159.857z"/>
<ellipse transform="matrix(-0.9819 0.1896 -0.1896 -0.9819 261.0909 552.7059)" fill="#FECDC5" cx="104.108" cy="288.841" rx="4.158" ry="3.696"/>
<ellipse transform="matrix(0.0938 0.9956 -0.9956 0.0938 398.0326 163.4639)" fill="#E9BAA9" cx="109.222" cy="300.38" rx="4.158" ry="3.695"/>
<ellipse transform="matrix(0.8593 0.5115 -0.5115 0.8593 164.6739 -29.188)" fill="#E9BAA9" cx="135.387" cy="284.703" rx="4.93" ry="4.383"/>
<ellipse transform="matrix(-0.1007 0.9949 -0.9949 -0.1007 430.3017 234.6419)" fill="#E9BAA9" cx="109.105" cy="311.794" rx="4.308" ry="3.829"/>
<ellipse transform="matrix(-0.3387 0.9409 -0.9409 -0.3387 445.9588 332.8424)" fill="#E9BAA9" cx="106.011" cy="323.141" rx="4.308" ry="3.829"/>
<ellipse transform="matrix(-0.7097 0.7045 -0.7045 -0.7097 404.0297 498.1652)" fill="#E9BAA9" cx="99.378" cy="332.325" rx="4.308" ry="3.829"/>
<ellipse transform="matrix(-0.9564 0.2921 -0.2921 -0.9564 273.844 634.9561)" fill="#E9BAA9" cx="89.521" cy="337.921" rx="3.742" ry="3.327"/>
<ellipse transform="matrix(-0.9993 -0.0378 0.0378 -0.9993 147.1239 681.801)" fill="#E9BAA9" cx="80.007" cy="339.51" rx="3.341" ry="2.85"/>
<ellipse transform="matrix(-0.9974 -0.0724 0.0724 -0.9974 163.8161 586.1989)" fill="#FECDC5" cx="92.532" cy="290.131" rx="4.158" ry="3.695"/>
<ellipse transform="matrix(-0.914 -0.4057 0.4057 -0.914 38.5542 582.9124)" fill="#FECDC5" cx="81.056" cy="287.37" rx="4.036" ry="3.576"/>
<ellipse transform="matrix(-0.7074 -0.7068 0.7068 -0.7074 -73.9027 530.767)" fill="#FECDC5" cx="72.908" cy="280.68" rx="3.41" ry="2.952"/>
<path fill="#FECDC5" d="M68.752,276.359c1.046-0.832,1.03-2.542,0.125-4.059c-0.749-1.256-1.791-2.032-2.911-1.929
	c0,0,0.259,3.233,1.259,6.282C67.673,276.741,68.155,276.662,68.752,276.359z"/>
<ellipse transform="matrix(-0.8162 0.5778 -0.5778 -0.8162 374.9839 448.9332)" fill="#FECDC5" cx="116.082" cy="284.114" rx="4.39" ry="3.893"/>
<ellipse transform="matrix(-0.5257 0.8507 -0.8507 -0.5257 424.7274 313.6659)" fill="#FECDC5" cx="124.918" cy="275.241" rx="4.58" ry="4.063"/>
<ellipse transform="matrix(-0.9798 -0.1999 0.1999 -0.9798 254.796 612.1988)" fill="#FECDC5" cx="158.305" cy="293.236" rx="4.141" ry="3.672"/>
<ellipse transform="matrix(-0.9972 0.075 -0.075 -0.9972 362.3101 574.9671)" fill="#FECDC5" cx="170.359" cy="294.286" rx="3.717" ry="3.286"/>
<path fill="#FECDC5" d="M184.424,295.42c0.355-0.619,0.541-1.473,0.408-2.194c-0.328-1.784-2.23-2.931-4.249-2.561
	c-2.019,0.37-3.392,2.117-3.065,3.901c0.186,1.015,0.99,1.913,1.928,2.352C181.454,296.383,182.363,296.143,184.424,295.42z"/>
<path fill="#FECDC5" d="M188.65,293.714c2.11-0.821,4.245-2.13,6.073-3.516c-0.042-0.217-0.109-0.43-0.203-0.638
	c-0.745-1.654-2.867-2.312-4.738-1.469c-1.873,0.843-2.786,2.867-2.041,4.521C187.944,293.067,188.27,293.424,188.65,293.714z"/>
<path fill="#FECDC5" d="M201.831,282.676c-0.164-0.256-0.322-0.455-0.566-0.654c-1.406-1.146-3.599-0.784-4.895,0.808
	c-1.296,1.593-1.207,3.812,0.2,4.957c0.202,0.164,0.421,0.289,0.65,0.392C198.981,286.375,200.439,285.326,201.831,282.676z"/>
<path fill="#FECDC5" d="M204.062,276.306c0.208-1.168,0.317-2.482,0.438-3.625c-1.374,0.073-2.638,1.101-3.157,2.637
	c-0.62,1.835,0.182,3.748,1.712,4.448C203.473,278.63,203.854,277.472,204.062,276.306z"/>
<path fill="#FFC2D6" d="M204.54,264.814c-0.497,0.584-0.805,1.273-0.891,2.131c-0.118,1.182,0.297,2.334,0.992,3.087
	C204.761,268.146,204.882,266.66,204.54,264.814z"/>
<path fill="#E9BAA9" d="M100.8,232.321c-1.218,1.057-2.479,2.286-3.653,3.392c-0.778,0.733-1.645,1.627-2.509,2.469
	c0.965,0.949,2.582,1.555,3.973,1.268c2.252-0.466,3.685-2.738,3.201-5.074C101.666,233.658,101.227,232.849,100.8,232.321z"/>
<path fill="#E9BAA9" d="M88.639,244.644c-1.033,1.238-2.069,2.615-3.051,3.893c-0.65,0.848-1.345,1.966-1.966,2.93
	c1.103,0.782,2.745,1.099,4.072,0.592c2.149-0.821,3.2-3.292,2.348-5.521C89.78,245.856,89.144,245.098,88.639,244.644z"/>
<ellipse transform="matrix(0.4155 0.9096 -0.9096 0.4155 283.1937 52.4365)" fill="#E9BAA9" cx="100.796" cy="246.569" rx="4.171" ry="4.022"/>
<ellipse transform="matrix(0.482 0.8762 -0.8762 0.482 280.5405 40.6872)" fill="#FECDC5" cx="105.861" cy="257.6" rx="4.171" ry="4.022"/>
<ellipse transform="matrix(0.1758 0.9844 -0.9844 0.1758 332.4917 124.2278)" fill="#FECDC5" cx="92.057" cy="260.679" rx="4.17" ry="4.022"/>
<ellipse transform="matrix(0.018 0.9998 -0.9998 0.018 363.9984 173.5411)" fill="#FECDC5" cx="93.652" cy="272.076" rx="4.17" ry="4.021"/>
<ellipse transform="matrix(-0.5346 0.8451 -0.8451 -0.5346 386.0453 390.6174)" fill="#E9BAA9" cx="85.466" cy="301.606" rx="4.171" ry="4.022"/>
<ellipse transform="matrix(-0.7737 0.6336 -0.6336 -0.7737 333.1841 499.4756)" fill="#E9BAA9" cx="77.382" cy="309.247" rx="4.171" ry="3.883"/>
<path fill="#E9BAA9" d="M70.158,319.411c0.713-0.324,1.373-0.641,2.098-0.809c0.624-1.27,0.595-2.79-0.238-3.997
	c-1.248-1.812-3.799-2.222-5.697-0.916c-1.897,1.308-2.422,3.837-1.173,5.649c0.552,0.803,1.365,1.311,2.259,1.538
	C68.254,320.247,69.194,319.849,70.158,319.411z"/>
<ellipse transform="matrix(-0.8234 0.5674 -0.5674 -0.8234 293.6112 556.1587)" fill="#E9BAA9" cx="60.272" cy="323.763" rx="3.771" ry="3.604"/>
<ellipse transform="matrix(-0.591 0.8066 -0.8066 -0.591 337.9934 510.5594)" fill="#E9BAA9" cx="39.571" cy="340.96" rx="3.282" ry="2.627"/>
<path fill="#FECDC5" d="M114.502,269.865c1.144-1.512,1.981-2.729,2.89-4.737c0.019-0.042,0.089-0.257,0.107-0.294
	c-0.19-0.69-0.52-1.242-1.067-1.789c-1.631-1.626-4.225-1.67-5.794-0.098c-1.57,1.572-1.518,4.167,0.113,5.793
	C111.808,269.795,113.177,270.15,114.502,269.865z"/>
<ellipse transform="matrix(-0.3955 0.9185 -0.9185 -0.3955 423.2314 248.8227)" fill="#FECDC5" cx="129.732" cy="263.691" rx="4.005" ry="3.552"/>
<ellipse transform="matrix(-0.4694 0.883 -0.883 -0.4694 421.4097 253.0166)" fill="#FECDC5" cx="134.683" cy="253.125" rx="3.516" ry="3.117"/>
<ellipse transform="matrix(-0.8342 0.5514 -0.5514 -0.8342 395.926 372.3828)" fill="#FECDC5" cx="141.989" cy="245.704" rx="3.205" ry="2.842"/>
<ellipse transform="matrix(-0.9995 0.031 -0.031 -0.9995 309.1818 479.5656)" fill="#FECDC5" cx="150.873" cy="242.18" rx="3.088" ry="2.873"/>
<ellipse transform="matrix(-0.9092 -0.4164 0.4164 -0.9092 203.5751 530.3278)" fill="#FECDC5" cx="159.62" cy="242.964" rx="2.808" ry="2.551"/>
<path fill="#E8A2B0" d="M152.449,239.701c-0.482-0.267-1.047-0.415-1.651-0.396c-0.661,0.021-1.265,0.236-1.755,0.584
	C149.043,239.889,150.11,239.734,152.449,239.701z"/>
<path fill="#E8A2B0" d="M162.259,242.417c-0.225-0.741-0.781-1.408-1.584-1.775c-0.776-0.356-1.66-0.356-2.353-0.072
	C158.321,240.57,160.015,241.133,162.259,242.417z"/>
<ellipse transform="matrix(-0.4986 -0.8668 0.8668 -0.4986 32.2244 514.9912)" fill="#FECDC5" cx="165.052" cy="248.176" rx="2.544" ry="1.819"/>
<ellipse transform="matrix(-0.0098 -1 1 -0.0098 -85.9322 424.1312)" fill="#FECDC5" cx="167.031" cy="254.613" rx="2.134" ry="1.338"/>
<ellipse transform="matrix(-0.9288 0.3706 -0.3706 -0.9288 421.4021 394.023)" fill="#FECDC5" cx="172.847" cy="237.495" rx="2.835" ry="2.249"/>
<ellipse transform="matrix(-0.8189 0.5739 -0.5739 -0.8189 462.452 320.88)" fill="#FECDC5" cx="180.603" cy="233.397" rx="2.823" ry="2.34"/>
<ellipse transform="matrix(-0.6568 0.7541 -0.7541 -0.6568 481.6636 236.5772)" fill="#FECDC5" cx="186.993" cy="227.903" rx="2.877" ry="2.509"/>
<ellipse transform="matrix(-0.5505 0.8349 -0.8349 -0.5505 482.6939 181.9249)" fill="#FECDC5" cx="192.368" cy="220.916" rx="2.871" ry="2.719"/>
<ellipse transform="matrix(-0.2239 0.9746 -0.9746 -0.2239 446.4621 70.5671)" fill="#FECDC5" cx="195.134" cy="213.046" rx="2.886" ry="2.733"/>
<ellipse transform="matrix(-0.1242 0.9923 -0.9923 -0.1242 424.6098 34.8932)" fill="#FECDC5" cx="196.906" cy="204.835" rx="2.845" ry="2.695"/>
<path fill="#E9BAA9" d="M197.252,202.025c-0.775-0.098-1.466,0.078-2.024,0.574c0.556,1.201,1.101,2.41,1.891,3.478
	c0.329,0.444,0.699,0.888,1.079,1.278c0.718-0.433,1.259-1.246,1.374-2.173C199.767,203.623,198.729,202.21,197.252,202.025z"/>
<ellipse transform="matrix(-0.01 0.9999 -0.9999 -0.01 396.0674 0.7941)" fill="#E9BAA9" cx="197.641" cy="196.46" rx="2.921" ry="2.767"/>
<ellipse transform="matrix(0.2201 0.9755 -0.9755 0.2201 336.9407 -45.0395)" fill="#E9BAA9" cx="196.637" cy="188.197" rx="2.843" ry="2.692"/>
<ellipse transform="matrix(0.48 0.8773 -0.8773 0.48 258.7827 -75.8861)" fill="#E9BAA9" cx="193.402" cy="180.343" rx="2.909" ry="2.757"/>
<ellipse transform="matrix(0.8185 0.5745 -0.5745 0.8185 133.9473 -76.3888)" fill="#E9BAA9" cx="187.872" cy="173.801" rx="2.911" ry="2.756"/>
<ellipse transform="matrix(0.8185 0.5745 -0.5745 0.8185 129.9171 -73.266)" fill="#E9BAA9" cx="180.915" cy="168.984" rx="2.911" ry="2.62"/>
<path fill="#E9BAA9" d="M173.606,161.254c0.981-0.704,2.202-0.235,3.058,0.958c0.857,1.193,1.024,2.658,0.042,3.363
	c-0.981,0.704-2.471,0.308-3.328-0.885S172.624,161.958,173.606,161.254z"/>
<path fill="#E9BAA9" d="M29.219,153.56c-0.078-0.46-0.143-0.922-0.245-1.378c-0.446-0.61-1.051-1.064-1.553-1.155
	c-0.974-0.177-1.252,0.828-1.507,2.321c-0.256,1.493-0.658,2.819,0.315,2.997c0.841,0.153,2.487-0.479,3.088-1.616
	C29.26,154.34,29.224,153.952,29.219,153.56z"/>
<path fill="#FECDC5" d="M28.35,236.897c-0.25-0.771-0.858-1.446-1.767-1.821c-0.98-0.403-1.902-0.31-2.607,0.155
	C25.314,236.036,26.816,236.403,28.35,236.897z"/>
<path fill="#FECDC5" d="M20.443,233.626c0.45-1.067,0.053-2.534-1.092-3.363c-1.277-0.924-2.913-0.787-3.654,0.306
	c-0.067,0.098-0.113,0.203-0.159,0.31C17.192,231.921,18.595,232.722,20.443,233.626z"/>
<path fill="#FECDC5" d="M11.21,227.947c0.543,0.397,1.166,0.844,1.706,1.245c0.198-0.089,0.435-0.225,0.604-0.376
	c1.044-0.939,1.046-2.702,0.001-3.939c-1.044-1.237-2.737-1.478-3.781-0.539c-0.498,0.448-0.776,1.128-0.798,1.805
	C9.785,226.823,10.402,227.357,11.21,227.947z"/>
<path fill="#FECDC5" d="M4.681,216.895c-1.254,0.853-1.563,2.652-0.69,4.018c0.872,1.365,2.596,1.782,3.849,0.929
	c1.254-0.853,1.563-2.652,0.69-4.018C7.66,216.458,5.936,216.042,4.681,216.895z"/>
<path fill="#FECDC5" d="M2.838,208.311c-1.472,0.349-2.375,1.932-2.018,3.535s1.839,2.62,3.31,2.271
	c1.471-0.349,2.375-1.932,2.018-3.535C5.791,208.979,4.309,207.962,2.838,208.311z"/>
<path fill="#FECDC5" d="M1.365,199.849c-1.477,0.19-2.516,1.649-2.321,3.259s1.55,2.759,3.027,2.568
	c1.477-0.19,2.516-1.649,2.321-3.259C4.197,200.809,2.842,199.659,1.365,199.849z"/>
<ellipse transform="matrix(0.0097 1 -1 0.0097 195.0419 191.225)" fill="#E9BAA9" cx="0.977" cy="194.084" rx="3.013" ry="2.767"/>
<path fill="#E9BAA9" d="M2.611,182.724c-1.45-0.338-2.907,0.669-3.252,2.249c-0.346,1.58,0.55,3.135,2,3.473
	c1.45,0.338,2.907-0.669,3.252-2.249C4.957,184.616,4.061,183.061,2.611,182.724z"/>
<path fill="#E9BAA9" d="M6.597,174.85c-1.336-0.754-3.043-0.186-3.815,1.269c-0.772,1.455-0.313,3.246,1.021,4
	c1.335,0.754,3.043,0.186,3.815-1.269C8.391,177.394,7.933,175.604,6.597,174.85z"/>
<path fill="#E9BAA9" d="M13.144,169.001c-0.875-1.286-2.65-1.557-3.966-0.604c-1.315,0.953-1.674,2.768-0.799,4.055
	c0.875,1.286,2.65,1.557,3.966,0.604C13.662,172.102,14.019,170.288,13.144,169.001z"/>
<path fill="#E9BAA9" d="M20.102,164.03c-0.831-1.223-2.573-1.441-3.888-0.488c-1.315,0.953-1.708,2.717-0.877,3.939
	c0.831,1.223,2.573,1.441,3.888,0.488C20.541,167.016,20.933,165.253,20.102,164.03z"/>
<path fill="#E9BAA9" d="M25.01,157.771c-0.981-0.727-2.202-0.243-3.058,0.989c-0.857,1.232-1.024,2.744-0.042,3.471
	c0.981,0.727,2.471,0.319,3.328-0.913C26.094,160.085,25.993,158.498,25.01,157.771z"/>
<ellipse transform="matrix(-0.3801 0.9249 -0.9249 -0.3801 370.8315 449.6575)" fill="#E9BAA9" cx="34.738" cy="349.092" rx="3.063" ry="2.043"/>
<ellipse transform="matrix(-0.1539 0.9881 -0.9881 -0.1539 390.033 380.3075)" fill="#E9BAA9" cx="32.187" cy="357.147" rx="2.796" ry="1.865"/>
<ellipse transform="matrix(0.0544 0.9985 -0.9985 0.0544 394.6548 313.8073)" fill="#E9BAA9" cx="31.643" cy="365.274" rx="2.796" ry="1.865"/>
<ellipse transform="matrix(0.1911 0.9816 -0.9816 0.1911 392.3297 269.5485)" fill="#E9BAA9" cx="32.622" cy="372.812" rx="2.796" ry="1.865"/>
<ellipse transform="matrix(0.2664 0.9639 -0.9639 0.2664 391.995 245.8579)" fill="#E9BAA9" cx="34.485" cy="380.444" rx="2.796" ry="1.865"/>
<path fill="#E9BAA9" d="M38.465,387.037c-0.152-0.541-0.285-0.943-0.421-1.505c-0.551-0.453-1.238-0.731-1.762-0.498
	c-0.882,0.393-1.12,1.785-0.53,3.11c0.59,1.324,1.784,2.078,2.668,1.685c0.267-0.119,0.545-0.411,0.688-0.683
	C38.908,388.437,38.664,387.745,38.465,387.037z"/>
<path fill="#E9BAA9" d="M39.682,390.939c-0.144,0.024-0.284,0.066-0.407,0.145c-0.724,0.464-0.748,1.72-0.053,2.805
	c0.519,0.811,1.251,1.293,1.911,1.295C40.712,393.921,40.272,392.717,39.682,390.939z"/>
<ellipse transform="matrix(-0.0968 0.9953 -0.9953 -0.0968 345.3295 271.7244)" fill="#FECDC5" cx="49.375" cy="292.549" rx="4.158" ry="3.187"/>
<ellipse transform="matrix(0.0108 0.9999 -0.9999 0.0108 351.9102 252.5188)" fill="#FECDC5" cx="48.325" cy="304.125" rx="4.158" ry="3.187"/>
<ellipse transform="matrix(0.1279 0.9918 -0.9918 0.1279 354.6686 227.2271)" fill="#FECDC5" cx="48.129" cy="315.285" rx="4.158" ry="3.187"/>
<ellipse transform="matrix(0.2205 0.9754 -0.9754 0.2205 357.9065 205.8804)" fill="#FECDC5" cx="50.145" cy="326.863" rx="4.158" ry="3.143"/>
<ellipse transform="matrix(0.2685 0.9633 -0.9633 0.2685 364.4098 196.4445)" fill="#FECDC5" cx="52.861" cy="338.158" rx="3.893" ry="3.075"/>
<ellipse transform="matrix(0.2685 0.9633 -0.9633 0.2685 376.9665 201.103)" fill="#FECDC5" cx="56.072" cy="348.755" rx="3.349" ry="2.805"/>
<ellipse transform="matrix(0.325 0.9457 -0.9457 0.325 378.8386 185.5457)" fill="#FECDC5" cx="59.439" cy="358.161" rx="3.302" ry="2.592"/>
<ellipse transform="matrix(0.4748 0.8801 -0.8801 0.4748 355.4248 137.1201)" fill="#FECDC5" cx="62.825" cy="366.357" rx="2.628" ry="2.259"/>
<ellipse transform="matrix(0.4748 0.8801 -0.8801 0.4748 363.567 137.2831)" fill="#FECDC5" cx="66.759" cy="373.261" rx="2.529" ry="1.87"/>
<ellipse transform="matrix(-0.3189 0.9478 -0.9478 -0.3189 335.6057 321.5334)" fill="#E9BAA9" cx="52.272" cy="281.354" rx="3.826" ry="3.314"/>
<path fill="#E9BAA9" d="M52.858,271.533c0.071,1.432,0.794,2.669,2.004,3.117c1.742,0.645,3.801-0.577,4.598-2.731
	c0.588-1.588,0.321-3.233-0.555-4.249C56.514,269.303,54.881,270.292,52.858,271.533z"/>
<path fill="#E9BAA9" d="M19.64,265.998c-0.316-1.575-1.8-2.415-3.706-2.387c-2.113,0.032-3.803,1.543-3.776,3.372
	c0.01,0.694,0.249,1.238,0.678,1.764C14.964,267.87,16.87,267.081,19.64,265.998z"/>
<ellipse transform="matrix(-0.9856 -0.1692 0.1692 -0.9856 -33.8029 527.8427)" fill="#E9BAA9" cx="5.588" cy="265.362" rx="3.616" ry="3.13"/>
<ellipse transform="matrix(-0.9009 -0.4341 0.4341 -0.9009 -122.675 495.5111)" fill="#E9BAA9" cx="-4.76" cy="261.763" rx="3.827" ry="3.126"/>
<ellipse transform="matrix(-0.9314 -0.364 0.364 -0.9314 -123.9432 491.2211)" fill="#E9BAA9" cx="-15.683" cy="257.29" rx="3.248" ry="2.451"/>
<path fill="#E9BAA9" d="M-22.666,253.594c-1.901,0.141-3.929,0.24-5.748,0.87c-0.059,0.189-0.099,0.383-0.096,0.584
	c0.003,0.254,0.071,0.493,0.168,0.722c1.162,0.194,2.339,0.432,3.463,0.784c0.452,0.141,0.854,0.342,1.248,0.557
	c0.971-0.434,1.627-1.227,1.617-2.136C-22.021,254.372-22.179,254.017-22.666,253.594z"/>
<path fill="#E8A2B0" d="M9.264,340.818c-0.06,0.984-0.222,1.798-0.435,2.645c-0.316,1.255-0.638,2.496-1.119,3.676
	c1.309,0.204,2.667-0.894,3.097-2.568C11.234,342.904,10.498,341.277,9.264,340.818z"/>
<path fill="#E8A2B0" d="M6.903,350.2c-0.188-0.24-0.434-0.405-0.703-0.538c-0.337,0.73-1.274,1.314-1.837,1.702
	c-0.972,0.671-1.996,1.296-3.053,1.834c0.046,0.376,0.175,0.731,0.41,1.033c0.866,1.112,2.727,1.111,4.158-0.001
	S7.768,351.313,6.903,350.2z"/>
<path fill="#E8A2B0" d="M-1.908,353.35c-1.889,0.358-3.778,0.695-5.689,0.488c-0.095,0.203-0.17,0.415-0.191,0.645
	c-0.13,1.403,1.229,2.676,3.034,2.841c1.805,0.167,3.373-0.836,3.503-2.24C-1.191,354.448-1.447,353.841-1.908,353.35z"/>
<path fill="#E8A2B0" d="M-13.285,349.548c-0.997-0.136-1.933,0.17-2.442,0.906c-0.801,1.159-0.244,2.934,1.247,3.966
	c1.491,1.031,3.349,0.929,4.151-0.23c0.191-0.277,0.301-0.591,0.343-0.92C-11.551,352.543-12.79,351.31-13.285,349.548z"/>
<ellipse transform="matrix(-0.4099 -0.9121 0.9121 -0.4099 -341.0016 470.9299)" fill="#E8A2B0" cx="-18.17" cy="345.768" rx="2.476" ry="1.925"/>
<g id="_x32_">
</g>
<g id="_x33_">
</g>
<g id="_x34_">
</g>
<g id="_x35__1_">
</g>
<g id="_x36_">
</g>
<g id="_x37_">
</g>
<rect x="-101.785" y="161.025" fill="#EFEFEF" width="149.518" height="181.331"/>
<rect x="-62.333" y="179.333" opacity="0.1" width="21" height="7.667"/>
<rect x="-29.333" y="180.667" opacity="0.1" width="37.833" height="5"/>
<rect x="-62.667" y="330.333" opacity="0.1" width="71.167" height="5"/>
<rect x="-102" y="161.025" opacity="0.1" width="149.603" height="13.362"/>
<rect x="-62.333" y="238.333" opacity="0.1" width="68.333" height="3.077"/>
<rect x="-62.333" y="244.378" opacity="0.1" width="65" height="3.077"/>
<rect x="-62.333" y="304.711" opacity="0.1" width="27" height="3.077"/>
<rect x="-62.333" y="310.711" opacity="0.1" width="30.333" height="3.077"/>
<rect x="-62.333" y="316.711" opacity="0.1" width="33.333" height="3.077"/>
<rect x="-23.667" y="304.711" opacity="0.1" width="32.333" height="3.077"/>
<rect x="-23.667" y="310.711" opacity="0.1" width="30.333" height="3.077"/>
<rect x="-23.667" y="316.711" opacity="0.1" width="28.333" height="3.077"/>
<rect x="-62.333" y="250.423" opacity="0.1" width="56" height="3.077"/>
<rect x="-62.333" y="257" opacity="0.1" width="68.333" height="3.077"/>
<rect x="-62.333" y="263.045" opacity="0.1" width="65" height="3.077"/>
<rect x="-62.333" y="269.089" opacity="0.1" width="56" height="3.077"/>
<rect x="-62.526" y="192" opacity="0.1" width="71" height="41.667"/>
<rect x="-62.526" y="277.333" opacity="0.1" width="34.667" height="24"/>
<rect x="-24.193" y="277.333" opacity="0.1" width="32.667" height="24"/>
<g>
	<path fill="#CC7691" d="M-15.279,171.196c3.523-7.85,4.835-16.306,11.045-22.737v-24.713c-15.845,1.636-18.697,5.496-22.907,14.49
		c-4.71,10.061-5.566,19.267-3.853,25.047c1.712,5.78,3.639,18.839-1.07,23.12C-32.064,186.404-21.105,182.313-15.279,171.196z"/>
</g>
<path fill="#B75978" d="M-10.68,145.222c-8.669,12.499-5.77,32.807-20.836,40.632c-0.161,0.186-0.311,0.385-0.489,0.547
	c0,0,10.959-4.091,16.785-15.208c3.572-7.958,4.86-16.545,11.297-23.007c5.093-5.113,13.132-9.703,20.581-9.279
	c1.731,0.099,3.238,0.387,4.55,0.859c-0.468-0.376-0.967-0.726-1.494-1.055c-0.018-0.006-0.032-0.014-0.05-0.019
	C9.621,135.28-4.024,135.627-10.68,145.222z"/>
<path fill="#E9BAA9" d="M-12.311,135.024c-5.251-3.699-9.522-3.406-11.37-3.013c-0.873,1.243-1.656,2.65-2.446,4.239
	C-20.417,134.663-12.311,135.024-12.311,135.024z"/>
<path fill="#E9BAA9" d="M-27.887,140.037c-0.521,1.219-0.984,2.422-1.394,3.607c4.313-1.544,9.339-2.191,9.339-2.191
	C-23.307,139.863-26.021,139.755-27.887,140.037z"/>
<path fill="#E9BAA9" d="M-30.621,148.219c-0.261,1.08-0.474,2.136-0.641,3.164c3.46-1.792,7.603-2.912,7.603-2.912
	C-26.743,147.498-29.076,147.748-30.621,148.219z"/>
</svg>
