<?xml version="1.0" encoding="utf-8"?>
<!-- Generator: Adobe Illustrator 17.0.0, SVG Export Plug-In . SVG Version: 6.00 Build 0)  -->
<!DOCTYPE svg PUBLIC "-//W3C//DTD SVG 1.1//EN" "http://www.w3.org/Graphics/SVG/1.1/DTD/svg11.dtd">
<svg version="1.1" id="Layer_1" xmlns="http://www.w3.org/2000/svg" xmlns:xlink="http://www.w3.org/1999/xlink" x="0px" y="0px"
	 width="245px" height="331px" viewBox="0 0 245 331" enable-background="new 0 0 245 331" xml:space="preserve">
<g id="Bg" display="none">
	<polygon display="inline" fill="#012B31" points="637,-12 574,-12 -6,-12 -6,580 314,580 314,688 637,688 637,338 1213,338 
		1213,-12 	"/>
</g>
<g id="_x31_">
	<path fill="#E9BAA9" d="M58.462,119.625c0,0,3.5,2.625,4.625,5.875s0.5,8.625-5,11.75c-2.984,1.696-10.875,4.125-13.625,13.25
		s-3.125,24,2.625,32.125s24.375,19.125,39.875,13.625c0,0-25,1.125-32.25-16.25s-3.5-24.125,0.25-29.625s14-9,14.5-14
		S66.087,118.375,58.462,119.625"/>
	<path fill="#DFA696" d="M57.64,119.524c0,0,4.322,2.726,5.447,5.976s0.5,8.625-5,11.75c-2.984,1.696-10.875,4.125-13.625,13.25
		c-1.512,5.017-2.299,11.767-1.749,18.18c0.558-1.789,1.219-3.543,2.047-5.228c2.037-4.148,4.829-8.792,8.801-11.362
		c0.114-0.074,0.224-0.087,0.327-0.076c0.352-0.563,0.713-1.108,1.074-1.639c3.75-5.5,14-9,14.5-14S65.265,118.274,57.64,119.524z"
		/>
	<path fill="#E9BAA9" d="M183.712,124.875c0,0-4.25,2.75-4.25,6.125s4.75,7.875,9.875,10.25s13.625,11.625,12.375,26
		s-6.625,28.625-26.125,32.25c0,0,7.875,17.125-6.75,20.25c0,0,7.125-7.5,3.25-13.125s-12.5-4.875-20.25,3l-6.875-5.875
		c0,0,9.875-9.125,27.375-12.25s21.75-16.375,20.125-26.125s-4.75-14.25-12.5-18.75S173.712,123.375,183.712,124.875z"/>
	<path fill="#DFA696" d="M173.236,202.162c2.957,3.492,3.671,8.69,2.638,13.33c3.179-4.597,1.427-11.306,0.35-14.364
		c-3.792-4.27-9.664-6.543-15.631-6.359c-5.377,2.065-9.462,4.475-12.102,6.28c0.062,0.055,0.116,0.118,0.175,0.176
		C156.221,198.64,167.215,195.05,173.236,202.162z"/>
	<path fill="#DFA696" d="M179.962,146.625c3.986,2.315,6.743,4.635,8.707,7.664c0.112-0.021,0.234-0.009,0.361,0.072
		c7.122,4.562,5.07,15.843,11.673,19.853c0.485-2.35,0.811-4.692,1.009-6.964c1.25-14.375-7.25-23.625-12.375-26
		s-9.875-6.875-9.875-10.25s4.25-6.125,4.25-6.125C173.712,123.375,172.212,142.125,179.962,146.625z"/>
	<path fill="#E9BAA9" d="M18.92,210.167c0,0,5.833-0.5,14.333,5s12.333,7.5,25.167,6.833s15.167-7.667,14.333-7.833
		C71.92,214,54.254,214.833,46.087,211S28.254,205.833,18.92,210.167"/>
	<path fill="#DFA696" d="M20.761,210.245c7.349-2.104,12.576,1.63,20.076,6.005c4.346,2.535,8.625,3.625,15.5,3.75
		c3.887,0.071,8.278-0.551,12.156-0.546c4.019-2.256,4.796-5.18,4.261-5.287C71.92,214,54.254,214.833,46.087,211
		s-17.833-5.167-27.167-0.833C18.92,210.167,19.581,210.115,20.761,210.245z"/>
	<path fill="#E8A2B0" d="M55.254,268.333c-1.119-4.813-5.166-5.94-6.747-5.254c1.011,1.68,1.914,3.376,2.564,5.113
		c1.126,2.075,1.342,4.698,0.683,9.641c-0.075,0.564-0.151,0.839-0.307,1.37c-0.359,1.391-1.078,2.596-1.984,3.672
		c-1.296,1.538-2.903,3.025-4.935,3.371c-1.502,0.254-2.982,0.476-4.502,0.379c-3.219-0.204-4.738-1.567-5.804-3.565
		c-0.715-0.862-1.227-1.919-1.525-3.052c-0.833-1.711-1.44-3.395-3.275-3.008c-0.75,0.158-1.241,0.535-1.564,1.012
		c-0.289,1.119-0.436,2.227-0.446,3.326c0.08,0.494,0.176,0.828,0.176,0.828c4.667,12.333,17.333,11.167,24.333,7
		C58.92,285,56.92,275.5,55.254,268.333z"/>
	<path fill="#DD90A2" d="M55.254,268.333c-1.119-4.813-5.166-5.94-6.747-5.254c1.011,1.68,1.914,3.376,2.564,5.113
		c0.633,1.166,0.968,2.523,1.032,4.35c1.527,5.241-0.81,11.864-5.998,13.806c-3.715,1.39-7.687,1.482-11.102-0.755
		c-3.01-1.971-5.523-4.759-6.314-8.319c-0.354,0.191-0.631,0.441-0.832,0.739c-0.289,1.119-0.436,2.227-0.446,3.326
		c0.08,0.494,0.176,0.828,0.176,0.828c4.667,12.333,17.333,11.167,24.333,7C58.92,285,56.92,275.5,55.254,268.333z"/>
	<path fill="#E9BAA9" d="M97.754,44.667c0,0-15-6.667-21.333,4.333c-6.334,11-1.334,21-10.334,23.667c0,0,14,7,28-1.333
		S97.754,44.667,97.754,44.667z"/>
	<path fill="#DFA696" d="M97.754,44.667c0,0-2.221-0.982-5.311-1.569c-3.018,5.213-4.328,12.164-4.356,17.777
		c-0.021,4.119,0.5,8.625,1.556,12.61c1.471-0.566,2.957-1.266,4.444-2.152C108.087,63,97.754,44.667,97.754,44.667z"/>
	<path fill="#E9BAA9" d="M177.955,131.833c0.758-0.134,0.975,0.625,1.173,1.75c0.199,1.126,0.512,2.127-0.245,2.261
		c-0.758,0.134-2.389-0.51-2.588-1.636S177.198,131.967,177.955,131.833z"/>
	
		<ellipse transform="matrix(-0.728 -0.6856 0.6856 -0.728 146.6628 494.8742)" fill="#FFC2D6" cx="171.503" cy="218.342" rx="0.836" ry="1.661"/>
	<path fill="#CC7691" d="M161.254,227.334l-0.038,0.067c-0.397-1.677-0.831-3.367-1.295-5.067
		c-1.828-6.702-7.563-13.582-12.628-18.63c0.727-0.9,1.485-1.664,2.295-2.203c5.5-3.667,18-8.833,23.5-1.667s3,16.333-3,18.667
		c-3.167,1.5-4.5,3.333-3.5,4.167c1,0.833,5.667,0.333,9.833-4.333c4.167-4.667,6.417-12.75-0.5-20.667
		c-1.126-1.289-1.474-1.942-2.958-2.792c5.866-1.295,16.844-7.38,19.792-18.875c2.879-13.186,1.92-17.357-0.725-21.883
		c-0.898-2.294-2.778-3.745-3.51-4.117c-9.392-4.771-10.781-8.874-10.255-12.669c-0.006-0.557,0.029-1.137,0.137-1.763
		c0.366-2.118,0.923-4.649,2.126-6.623c1.242-2.853,3.744-4.201,7.606-4.421c5.8-0.33,12.058,3.242,16.023,7.224
		c5.01,5.031,6.013,11.717,8.795,17.912c4.536,8.655,13.068,11.84,13.068,11.84c-3.667-3.333-2.167-13.5-0.833-18
		s0.667-11.667-3-19.5s-6-10.667-22.667-11.667s-19.333,4.167-22.667,13.333c-3.333,9.167-5,18.333,3,22.833
		c2.608,1.467,5.727,4.289,7.497,6.018c3.765,4.861,4.502,13,1.571,20.815c-3,8-12.5,15.167-25.167,14.833
		c-12.667-0.333-22.333-6.833-24.167-14.833c-1.636-7.138,0.442-21.297,0.909-24.268c4.12-3.954,5.024-9.259,4.218-13.969
		c0.232,0.035,0.464,0.071,0.706,0.071c2.577,0,4.667-2.089,4.667-4.667s-2.089-4.667-4.667-4.667c-1.447,0-2.725,0.673-3.581,1.707
		c0.111-4.139,0.248-11.117,0.321-14.949c2.649-0.45,4.259-0.758,4.259-0.758s4.833-7-1.833-10.5c0,0,3.833-12.167-8.833-25.833
		c-10.333-11.5-9.666-18.667-9.666-18.667s11-2.167,16.333-11c5.334-8.833,7-17.666-3.333-25.833s-17.5-4-26.333,1.167
		s-25,21-20,54.5c2.5,14.5,4.5,20.833,6.167,24.667c0,0-8.833,4.167-4.167,12.333c0.834,1.459,3.022,2.367,6.048,2.88l-0.267,14.607
		c-0.886-1.006-2.168-1.654-3.614-1.654c-2.669,0-4.833,2.164-4.833,4.833s2.164,4.833,4.833,4.833c0.268,0,0.526-0.037,0.783-0.079
		c0.014,1.779,0.354,5.188,2.438,8.487c0.21,4.061,0.736,20.637-4.22,26.759c-5.667,7-17.167,17.667-29.5,10.833
		C54.087,179.333,53.087,173,53.754,162.667C54.42,152.333,57.92,148,65.92,143.5s6.333-13.667,3-22.833
		c-3.333-9.167-6-14.333-22.667-13.333s-19,3.833-22.667,11.667c-3.667,7.833-4.333,15-3,19.5s2.833,14.667-0.833,18
		c0,0,8.532-3.185,13.068-11.84c2.781-6.196,3.784-12.881,8.795-17.912c3.965-3.981,10.224-7.554,16.023-7.224
		c3.861,0.22,6.364,1.568,7.606,4.421c1.203,1.975,1.761,4.506,2.126,6.623c0.108,0.626,0.143,1.206,0.137,1.763
		c0.527,3.795-0.863,7.899-10.255,12.669c-10.5,5.333-8.667,27.5-7.167,31.333s16.167,31,42.667,17c0,0-5.29,6.76-11.43,12.153
		c-2.954,3.549-7.784,5.173-12.233,5.763c-2.854,0.378-5.519,0.693-8.065,0.494c-2.231,0.136-4.492,0.005-6.68-0.312
		c-6.294-0.912-11.339-3.396-17.021-6.061c-6.984-3.275-15.011-2.519-22.228-0.487c-3.339,0.94-6.429,2.072-8.716,4.869
		c-1.308,1.6-2.062,3.417-2.545,5.333c-0.128,1.24-0.166,2.585-0.082,4.082c0.667,11.833,5.167,14.667,13,16.167
		s10.667-2.333,12-5.333c1.333-3-1.5-5-4.667-2.5c-0.021,0.016-0.042,0.027-0.063,0.043c-1.557,1.245-3.167,1.941-4.843,1.778
		c-0.486,0.055-0.988,0.051-1.509-0.037c-2.664-0.447-4.865-2.457-6.088-4.808c-2.957-5.684-0.904-11.652,5.244-13.307
		c0.294-0.12,0.598-0.233,0.925-0.336c9-2.833,14.167-3.167,28,1.833c9.167,3.667,23.5,2.5,23.5,2.5s0.021-0.003,0.037-0.005
		c-0.236,0.113-0.466,0.224-0.704,0.338c0,0-12.813,3.793-22.715,9.425c-0.071,0.058-0.186,0.115-0.316,0.171
		c-1.905,1.613-3.522,3.489-4.92,5.534c-0.833,1.812-1.422,3.732-1.715,5.715c-0.799,5.413,0.861,11.266,3.221,16.241
		c2.205,4.648,5.891,9.057,8.111,13.699c2.459,4.091,3.959,7.352,3.959,11.216c0,5.667-2.724,11.747-8.875,12.875
		c-7.5,1.375-14.185-0.689-17.889-9.755c-0.058,0.992-0.016,1.978,0.112,2.96c0.589,2.787,2.245,6.554,6.86,8.419
		c7.367,2.978,13.849,3.005,19.586-2.132c4.282-3.664,5.063-8.341,5.172-10.572c0.385-2.737,0.426-5.501,0.233-8.001
		c-0.374-4.864-1.93-8.966-4.503-13.109c-1.698-2.734-4.217-5.207-5.468-8.213c-1.441-2.036-2.227-4.16-1.855-7.14
		c1-8,9.667-7.833,15.833-10.167c6.167-2.333,26.833-10,32.667-18.5c0,0,0.333,10.667,12.167,16
		c11.837,5.333,22.837,1.166,27.67-5.334c2.062-2.773,3.85-6.758,5.651-10.702c2.242,1.908,4.44,3.886,6.349,6.202 M122.712,228.625
		c-12.625,2-16.375-6.875-15.5-15.625s15-19.375,19.625-24.375c0,0-1.375,14.875,11.5,22.75
		C138.337,211.375,135.337,226.625,122.712,228.625z M144.58,201.103c-3.021-2.788-5.394-4.642-5.888-5.022
		c1.452,0.874,2.997,1.474,4.561,1.752c1.216,0.216,2.708,0.292,5.083,0.042c-0.328,0.293-1.595,0.809-1.917,1.125
		C145.757,199.652,145.15,200.358,144.58,201.103z"/>
	<path fill="#B75978" d="M146.115,213.52c-0.402,1.196-0.811,2.389-1.22,3.583c1.059,1.016,2.078,2.081,3.026,3.23
		c2.242,2.719,3.646,4.257,4.792,7.292c0.947-2.779,1.363-4.246,1.88-7.209c0.349-2.001,1.197-3.685,1.942-5.464
		c-2.032-3.263-4.612-6.381-7.179-9.118C147.913,208.212,147,210.887,146.115,213.52z"/>
	
		<ellipse transform="matrix(0.09 0.9959 -0.9959 0.09 216.4024 5.6074)" fill="#FFFFFF" cx="105.133" cy="121.224" rx="11.132" ry="11.717"/>
	
		<ellipse transform="matrix(-0.1161 0.9932 -0.9932 -0.1161 272.6645 0.1599)" fill="#FFFFFF" cx="136.261" cy="121.404" rx="10.815" ry="11.383"/>
	<path fill="#3A3A3A" d="M110.229,120.132c-0.537,1.631-2.055,2.816-3.866,2.816c-2.068,0-3.759-1.541-4.032-3.534
		c-2.093,1.092-3.508,3.159-3.508,5.533c0,3.512,3.091,6.359,6.904,6.359s6.904-2.847,6.904-6.359
		C112.631,123.021,111.698,121.298,110.229,120.132z"/>
	<path fill="#3A3A3A" d="M140.138,117.985c-0.14,1.877-1.44,3.539-3.366,4.019c-2.2,0.547-4.406-0.644-5.224-2.692
		c-1.937,1.716-2.895,4.288-2.267,6.813c0.93,3.735,4.971,5.946,9.026,4.936c4.055-1.01,6.59-4.856,5.66-8.591
		C143.458,120.422,142.009,118.837,140.138,117.985z"/>
	<path fill="#3A3A3A" d="M151.96,113.583c0,0-1.756,2.539-4.715,1.641c-0.138-0.228-0.277-0.454-0.43-0.673
		c0.702-0.286,2.641-1.364,2.594-4.527c0,0-1.042,2.85-4.072,2.778c-0.195-0.192-0.403-0.372-0.611-0.551
		c0.599-0.393,2.351-1.838,1.645-4.982c0,0-0.452,3.137-3.61,3.587c-1.512-0.874-3.229-1.473-5.091-1.691
		c-4.367-0.51-8.462,1.145-11.105,4.081c-4.878-2.43-9.866-0.645-11.402,0.025c-2.573-2.858-6.516-4.524-10.778-4.139
		c-1.997,0.18-3.838,0.802-5.447,1.736c-3.221-0.413-3.677-3.599-3.677-3.599c-0.727,3.237,1.151,4.673,1.695,5.015
		c-0.193,0.168-0.383,0.338-0.565,0.516c-3.105,0.137-4.169-2.776-4.169-2.776c-0.049,3.283,2.037,4.317,2.664,4.554
		c-0.14,0.202-0.274,0.408-0.401,0.617c-3.021,0.988-4.815-1.612-4.815-1.612c0.805,3.293,3.215,3.694,3.791,3.743
		c-0.565,1.558-0.814,3.244-0.656,4.985c0.601,6.646,6.759,11.521,13.755,10.888c6.996-0.632,12.18-6.533,11.579-13.178
		c-0.164-1.815-0.754-3.49-1.651-4.964c5.249-1.484,7.797-0.334,8.618,0.205c-0.767,1.33-1.284,2.821-1.472,4.428
		c-0.775,6.628,4.253,12.662,11.23,13.477c6.977,0.815,13.26-3.896,14.035-10.524c0.217-1.858-0.035-3.664-0.645-5.326
		C148.943,117.239,151.188,116.743,151.96,113.583z M106.289,130.433c-5.188,0.469-9.782-3.487-10.227-8.416
		c-0.446-4.929,3.413-9.321,8.602-9.79s9.772,3.159,10.218,8.089C115.327,125.245,111.478,129.964,106.289,130.433z M145.65,122.264
		c-0.575,4.916-5.309,8.745-10.484,8.14c-5.174-0.605-8.859-5.418-8.284-10.334s5.252-8.423,10.426-7.818
		C142.483,112.857,146.225,117.348,145.65,122.264z"/>
	<path fill="#B75978" d="M60.415,190.203c0,0,26.172,14.547,42.672-15.328L92.462,193.75
		C92.462,193.75,76.665,204.078,60.415,190.203z"/>
	<path fill="#B75978" d="M113.557,182.515c-0.555,0.612-1.109,1.21-1.667,1.798c-1.604,2.091-3.248,4.15-5.108,6.073
		c-1.255,1.297-2.493,2.6-3.711,3.917c-1.067,1.377-2.054,2.809-2.986,4.278c-2.915,4.501-4.331,9.918-7.295,13.103
		c-2.614,2.808-5.978,5.164-9.531,6.771c-3.965,2.654-8.938,5.156-14.796,7.419c-11,4.25-17.125,5.25-20.875,10.375
		c-2.167,5.083,0.167,10.667,0.167,10.667c-0.75-10.75,11.083-11.417,18.833-15.042c27.375-11.125,29.375-17.375,29.375-17.375
		c0-10,6.75-19,12.125-24.5c2.679-2.742,5.293-6.287,7.244-9.157C114.736,181.456,114.005,182.021,113.557,182.515z"/>
	<path fill="#B75978" d="M71.353,210.85c-3.398,2.005-6.465,3.219-10.292,4.124c-0.363,0.122-0.726,0.235-1.091,0.338
		c5.405,0.15,9.321-0.15,9.321-0.15s6.345-2.807,9.854-7.587C76.893,209.252,74.12,210.265,71.353,210.85z"/>
	<path fill="#B75978" d="M27.962,226.625c0,0.002-0.001,0.004-0.001,0.006c0.661,0.62,0.818,1.473-0.163,2.629
		c-0.57,0.672-1.236,1.25-1.95,1.766c-0.388,0.35-0.825,0.641-1.282,0.904c-4.198,3.092-10.292,2.55-14.265-0.268
		c-5.38-3.817-7.298-10.981-6.254-17.363c-0.125,0.419-0.235,0.843-0.332,1.272c-2.084,13.628,3.855,17.348,10.122,19.554
		c6.75,2.375,10.75,0.5,14.125-3.25S27.962,226.625,27.962,226.625z"/>
	<path fill="#B75978" d="M139.268,209.192c-8.243-5.128-11.681-12.942-11.681-12.942c0.673,5.497,2.875,9.391,10.725,15.733
		C138.566,211.023,138.859,210.081,139.268,209.192z"/>
	<path fill="#B75978" d="M143.092,211.391c-0.499,1.049-1.008,2.092-1.594,3.088"/>
	<path fill="#B75978" d="M184.592,187.945c-2.417,1.937-5.479,3.461-8.526,4.082c-3.747,0.764-7.483,0.272-11.25,0.081
		c-0.567,0.035-1.135,0.062-1.706,0.076c-2.351,0.31-4.653,0.679-7.029,1.351c-2.692,0.761-5.481,0.922-8.175,0.013
		c-2.57-0.867-5.212-2.133-7.224-3.987c-1.868-1.722-2.821-3.749-4.087-5.851c-0.167,2.996-0.841,9.712,2.429,12.789
		c0,0,5.062,2.5,9.125,1.625c0,0,14-9.5,25.104-3.125c0,0,14-2.797,19.167-17.667C190.41,181.236,188.085,185.146,184.592,187.945z"
		/>
	<path fill="#B75978" d="M112.837,149.458c0,0,8.375,3.875,18.125,0.375C130.962,149.833,124.962,159.083,112.837,149.458z"/>
	<path fill="#B75978" d="M108.457,98.947c-3.334-0.538-6.912,0.182-10.234,1.589l0.697,1.797c0,0,10.542-1.958,16.042,0.667
		C114.962,103,113.46,100.374,108.457,98.947z"/>
	<path fill="#B75978" d="M128.204,101.788c-1.157,0.92-1.492,1.712-1.492,1.712c10.062-3.938,17.875-0.167,17.875-0.167
		c0.262-0.585,0.389-1.883,0.449-2.834C139.764,98.25,133.272,98.845,128.204,101.788z"/>
	<path fill="#E9BAA9" d="M157.087,201.875c-1.851,1.174-3.159,1.791-4.128,2.244c-0.531-1.814-1.622-3.401-3.872-2.244
		c-4.375,2.25-10.5,18.625-10.5,18.625s-4.554,18.22-0.375,16.25s9.625-6.875,10.875-13.875c0.622-3.485,1.709-7.248,2.644-10.149
		c1.189-2.59,3.818-7.108,8.356-8.976c6.375-2.625,6.375-2.625,6.375-2.625S162.212,198.625,157.087,201.875z"/>
	<path fill="#B75978" d="M36.357,124.439c-6.749,9.731-4.492,25.542-16.222,31.634c-0.125,0.145-0.242,0.3-0.381,0.426
		c0,0,8.532-3.185,13.068-11.84c2.781-6.196,3.784-12.881,8.795-17.912c3.965-3.981,10.224-7.554,16.023-7.224
		c1.348,0.077,2.521,0.301,3.542,0.669c-0.364-0.293-0.753-0.565-1.163-0.821c-0.014-0.005-0.025-0.011-0.039-0.015
		C52.162,116.699,41.539,116.969,36.357,124.439z"/>
	<path fill="#B75978" d="M209.281,130.611c-4.453-4.886-12.859-7.159-20.303-6.1c5.555,0.038,11.404,3.448,15.177,7.237
		c5.01,5.031,6.013,11.717,8.795,17.912c2.391,4.562,5.885,7.592,8.661,9.449c-2.723-2.863-4.461-6.608-5.705-10.485
		c-1.038-3.236-1.829-6.542-2.823-9.791C212.218,136.003,211.321,132.849,209.281,130.611z"/>
	<path fill="none" d="M143.254,197.833c-1.565-0.278-3.109-0.879-4.561-1.752c0.494,0.38,2.867,2.234,5.888,5.022
		c0.569-0.745,1.177-1.451,1.84-2.103c0.322-0.316,1.589-0.832,1.917-1.125C145.962,198.125,144.47,198.049,143.254,197.833z"/>
	<path fill="none" d="M126.837,188.625c-4.625,5-18.75,15.625-19.625,24.375s2.875,17.625,15.5,15.625s15.625-17.25,15.625-17.25
		C125.462,203.5,126.837,188.625,126.837,188.625z"/>
	<path fill="#E9BAA9" d="M128.92,86.667c0,0-7.458-7.167-19.083-3.792c-10.375,3-9.583,11.625-9.583,11.625
		S105.754,84.333,128.92,86.667z"/>
	<path fill="#E9BAA9" d="M118.337,69.625c0,0-6.949-6.441-16.25-2.75C94.212,70,96.587,78,96.587,78S101.337,66.75,118.337,69.625z"
		/>
	<path fill="#E9BAA9" d="M113.212,56.625c0,0-5.625-6.375-15-3.375c-6.375,2-4.875,9.125-4.875,9.125
		C93.712,62.5,97.712,54.5,113.212,56.625z"/>
	<path fill="#E9BAA9" d="M110.92,44.5c0,0-4.664-5.165-14.258-2.842c-0.606,1.318-1.167,2.715-1.683,4.181
		C101.286,43.127,110.92,44.5,110.92,44.5z"/>
	<path fill="#E9BAA9" d="M110.337,33.167c0,0-1.002-4.14-4.899-4.251c-0.844,0.847-1.69,1.773-2.526,2.777
		C107.587,31.653,110.337,33.167,110.337,33.167z"/>
	<path fill="#E9BAA9" d="M138.837,41.083c0,0,3.793,0.557,6.771,0.12c0.838-2.479,1.218-4.945,0.954-7.383
		C145.961,35.737,143.835,40.741,138.837,41.083z"/>
	<path fill="#E9BAA9" d="M131.254,47.833c0,0,2.178,3.982,6.029,5.708c1.576-1.233,3.089-2.732,4.368-4.542
		C140.493,49.332,135.749,50.444,131.254,47.833z"/>
	<path fill="#B75978" d="M126.087,58.917c0,0-1.5-18.229,3.083-23.5c0,0-4,10.25,3,21.25
		C132.17,56.667,129.629,57.958,126.087,58.917z"/>
	<path fill="none" d="M143.254,197.833c-1.565-0.278-3.109-0.879-4.561-1.752c0.494,0.38,2.867,2.234,5.888,5.022
		c0.569-0.745,1.177-1.451,1.84-2.103c0.322-0.316,1.589-0.832,1.917-1.125C145.962,198.125,144.47,198.049,143.254,197.833z"/>
	<path fill="#E9BAA9" d="M35.087,116.5c-4.088-2.88-7.413-2.652-8.852-2.346c-0.68,0.968-1.289,2.063-1.904,3.3
		C28.776,116.219,35.087,116.5,35.087,116.5z"/>
	<path fill="#E9BAA9" d="M22.96,120.403c-0.406,0.949-0.766,1.886-1.085,2.808c3.358-1.202,7.271-1.706,7.271-1.706
		C26.526,120.267,24.413,120.183,22.96,120.403z"/>
	<path fill="#E9BAA9" d="M20.832,126.773c-0.203,0.841-0.369,1.663-0.499,2.463c2.694-1.395,5.919-2.267,5.919-2.267
		C23.851,126.211,22.035,126.406,20.832,126.773z"/>
	<path fill="#E9BAA9" d="M210.708,121.542c4.088-2.88,7.413-2.652,8.852-2.346c0.68,0.968,1.289,2.063,1.904,3.3
		C217.019,121.261,210.708,121.542,210.708,121.542z"/>
	<path fill="#E9BAA9" d="M222.835,125.445c0.406,0.949,0.766,1.886,1.085,2.808c-3.358-1.202-7.271-1.706-7.271-1.706
		C219.269,125.309,221.382,125.225,222.835,125.445z"/>
	<path fill="#E9BAA9" d="M224.963,131.815c0.203,0.841,0.369,1.663,0.499,2.463c-2.694-1.395-5.919-2.267-5.919-2.267
		C221.944,131.253,223.76,131.448,224.963,131.815z"/>
	<path fill="#3A3A3A" d="M128.149,135.833c0,0,0.896,0.242,1.896,0.75l0.042,0.208c0,0.692-0.414,0.986-0.698,1.114
		c-0.856,0.364-4.397,1.202-9.344,0.303c0,0,3.245,2.182,8.589,1.151c0,0,0.457-0.078,0.887-0.273
		c0.242-0.096,0.473-0.207,0.682-0.348c0.111-0.066,0.218-0.157,0.322-0.261c0.024-0.029,0.055-0.051,0.079-0.082l-0.003-0.002
		c0.246-0.275,0.452-0.666,0.527-1.269c0.573,0.419,1.143,0.876,1.552,1.646C132.681,138.771,132.42,134.625,128.149,135.833z"/>
	<path fill="#E8A2B0" d="M163.36,197.995c-0.375-0.208-0.815-0.323-1.285-0.308c-0.515,0.016-0.985,0.184-1.366,0.455
		C160.708,198.142,161.539,198.021,163.36,197.995z"/>
	
		<ellipse transform="matrix(0.3706 0.9288 -0.9288 0.3706 295.1153 -42.9385)" fill="#FECDC5" cx="179.239" cy="196.278" rx="1.751" ry="2.207"/>
	
		<ellipse transform="matrix(0.5739 0.8189 -0.8189 0.5739 237.0711 -69.4603)" fill="#FECDC5" cx="185.285" cy="193.088" rx="1.822" ry="2.198"/>
	
		<ellipse transform="matrix(0.7541 0.6568 -0.6568 0.7541 170.7929 -78.5184)" fill="#FECDC5" cx="190.247" cy="188.81" rx="1.953" ry="2.24"/>
	
		<ellipse transform="matrix(0.8349 0.5505 -0.5505 0.8349 133.0501 -76.7416)" fill="#FECDC5" cx="194.424" cy="183.374" rx="2.117" ry="2.235"/>
	
		<ellipse transform="matrix(0.9746 0.2239 -0.2239 0.9746 44.676 -39.5183)" fill="#FECDC5" cx="196.595" cy="177.241" rx="2.128" ry="2.247"/>
	
		<ellipse transform="matrix(0.9923 0.1242 -0.1242 0.9923 22.7523 -23.2632)" fill="#FECDC5" cx="197.963" cy="170.858" rx="2.098" ry="2.215"/>
	<path fill="#E9BAA9" d="M198.241,168.663c-0.603-0.076-1.141,0.061-1.576,0.447c0.433,0.935,0.857,1.876,1.472,2.708
		c0.256,0.346,0.544,0.691,0.84,0.995c0.559-0.337,0.98-0.97,1.07-1.692C200.199,169.907,199.391,168.807,198.241,168.663z"/>
	
		<ellipse transform="matrix(0.9999 0.01 -0.01 0.9999 1.6532 -1.9774)" fill="#E9BAA9" cx="198.553" cy="164.32" rx="2.154" ry="2.274"/>
	
		<ellipse transform="matrix(0.9755 -0.2201 0.2201 0.9755 -29.9041 47.3981)" fill="#E9BAA9" cx="197.76" cy="157.902" rx="2.096" ry="2.213"/>
	
		<ellipse transform="matrix(0.8773 -0.48 0.48 0.8773 -48.8962 112.3424)" fill="#E9BAA9" cx="195.243" cy="151.79" rx="2.146" ry="2.265"/>
	
		<ellipse transform="matrix(0.5745 -0.8185 0.8185 0.5745 -38.8207 218.699)" fill="#E9BAA9" cx="190.938" cy="146.688" rx="2.146" ry="2.266"/>
	
		<ellipse transform="matrix(0.5745 -0.8185 0.8185 0.5745 -38.0563 212.6703)" fill="#E9BAA9" cx="185.522" cy="142.938" rx="2.04" ry="2.266"/>
	<path fill="#E9BAA9" d="M179.831,136.921c0.764-0.548,1.714-0.183,2.381,0.746s0.797,2.069,0.033,2.618
		c-0.764,0.548-1.924,0.24-2.591-0.689S179.067,137.469,179.831,136.921z"/>
	<path fill="#E9BAA9" d="M67.42,130.931c-0.061-0.358-0.111-0.718-0.191-1.073c-0.347-0.475-0.818-0.828-1.209-0.899
		c-0.758-0.138-0.975,0.645-1.173,1.807c-0.199,1.162-0.512,2.195,0.245,2.333c0.655,0.119,1.936-0.373,2.404-1.258
		C67.452,131.538,67.424,131.236,67.42,130.931z"/>
	<path fill="#FECDC5" d="M66.743,195.812c-0.195-0.6-0.668-1.126-1.376-1.418c-0.763-0.314-1.481-0.241-2.03,0.121
		C64.38,195.142,65.549,195.428,66.743,195.812z"/>
	<path fill="#FECDC5" d="M60.587,193.266c0.35-0.831,0.041-1.973-0.85-2.618c-0.994-0.719-2.268-0.613-2.845,0.238
		c-0.052,0.076-0.088,0.158-0.124,0.241C58.056,191.938,59.149,192.562,60.587,193.266z"/>
	<path fill="#FECDC5" d="M53.399,188.844c0.423,0.309,0.908,0.657,1.328,0.969c0.154-0.069,0.339-0.175,0.47-0.293
		c0.813-0.731,0.814-2.104,0.001-3.067s-2.131-1.151-2.944-0.42c-0.388,0.349-0.604,0.878-0.621,1.405
		C52.29,187.969,52.77,188.385,53.399,188.844z"/>
	<path fill="#FECDC5" d="M48.316,180.24c-0.976,0.664-1.217,2.065-0.537,3.128c0.679,1.063,2.021,1.387,2.997,0.723
		c0.976-0.664,1.217-2.065,0.537-3.128C50.635,179.9,49.293,179.576,48.316,180.24z"/>
	<path fill="#FECDC5" d="M46.881,173.557c-1.146,0.272-1.849,1.504-1.571,2.752s1.432,2.04,2.577,1.768s1.849-1.504,1.571-2.752
		C49.18,174.077,48.026,173.285,46.881,173.557z"/>
	<path fill="#FECDC5" d="M45.734,166.969c-1.15,0.148-1.959,1.284-1.807,2.537s1.207,2.148,2.357,1.999
		c1.15-0.148,1.959-1.284,1.807-2.537C47.939,167.716,46.884,166.821,45.734,166.969z"/>
	<ellipse transform="matrix(1 -0.0097 0.0097 1 -1.5739 0.4482)" fill="#E9BAA9" cx="45.424" cy="162.483" rx="2.154" ry="2.346"/>
	<path fill="#E9BAA9" d="M46.704,153.636c-1.129-0.263-2.263,0.521-2.532,1.751c-0.269,1.23,0.428,2.441,1.557,2.704
		c1.129,0.263,2.263-0.521,2.532-1.751C48.531,155.109,47.833,153.899,46.704,153.636z"/>
	<path fill="#E9BAA9" d="M49.808,147.506c-1.04-0.587-2.369-0.145-2.97,0.988c-0.601,1.133-0.244,2.527,0.795,3.114
		s2.369,0.145,2.97-0.988C51.204,149.487,50.848,148.093,49.808,147.506z"/>
	<path fill="#E9BAA9" d="M54.905,142.952c-0.681-1.001-2.063-1.212-3.088-0.47c-1.024,0.742-1.303,2.155-0.622,3.157
		c0.681,1.001,2.063,1.212,3.088,0.47S55.586,143.954,54.905,142.952z"/>
	<path fill="#E9BAA9" d="M60.322,139.082c-0.647-0.952-2.003-1.122-3.027-0.38c-1.024,0.742-1.33,2.115-0.683,3.067
		s2.003,1.122,3.027,0.38C60.664,141.407,60.969,140.034,60.322,139.082z"/>
	<path fill="#E9BAA9" d="M64.143,134.209c-0.764-0.566-1.714-0.189-2.381,0.77s-0.797,2.136-0.033,2.702s1.924,0.248,2.591-0.711
		C64.987,136.011,64.908,134.775,64.143,134.209z"/>
	<path fill="#E9BAA9" d="M59.962,218.469c-0.246-1.226-1.401-1.88-2.885-1.858c-1.645,0.025-2.961,1.201-2.94,2.625
		c0.008,0.54,0.194,0.964,0.528,1.373C56.322,219.926,57.806,219.312,59.962,218.469z"/>
	
		<ellipse transform="matrix(-0.1692 0.9856 -0.9856 -0.1692 272.1434 206.5337)" fill="#E9BAA9" cx="49.022" cy="217.969" rx="2.437" ry="2.815"/>
	
		<ellipse transform="matrix(-0.4341 0.9009 -0.9009 -0.4341 252.5872 271.658)" fill="#E9BAA9" cx="40.968" cy="215.165" rx="2.434" ry="2.979"/>
	
		<ellipse transform="matrix(-0.364 0.9314 -0.9314 -0.364 241.4452 258.5087)" fill="#E9BAA9" cx="32.462" cy="211.689" rx="1.908" ry="2.529"/>
	<path fill="#E9BAA9" d="M27.025,208.812c-1.48,0.11-3.059,0.187-4.475,0.677c-0.046,0.147-0.077,0.298-0.075,0.455
		c0.002,0.198,0.055,0.384,0.131,0.562c0.905,0.151,1.821,0.336,2.696,0.61c0.352,0.11,0.665,0.266,0.972,0.434
		c0.756-0.338,1.267-0.955,1.259-1.663C27.527,209.417,27.404,209.141,27.025,208.812z"/>
	<path fill="#E8A2B0" d="M51.884,276.719c-0.047,0.766-0.173,1.4-0.339,2.059c-0.246,0.977-0.497,1.943-0.871,2.862
		c1.019,0.159,2.076-0.696,2.411-1.999C53.418,278.343,52.845,277.077,51.884,276.719z"/>
	<path fill="#E8A2B0" d="M50.046,284.024c-0.146-0.187-0.338-0.315-0.547-0.419c-0.262,0.568-0.992,1.023-1.43,1.325
		c-0.757,0.522-1.554,1.009-2.377,1.428c0.036,0.293,0.136,0.569,0.319,0.804c0.674,0.866,2.123,0.865,3.237-0.001
		S50.719,284.89,50.046,284.024z"/>
	<path fill="#E8A2B0" d="M43.186,286.476c-1.471,0.279-2.941,0.541-4.429,0.38c-0.074,0.158-0.132,0.323-0.149,0.502
		c-0.101,1.092,0.957,2.083,2.362,2.212c1.405,0.13,2.626-0.651,2.727-1.744C43.744,287.331,43.545,286.858,43.186,286.476z"/>
	<path fill="#E8A2B0" d="M34.329,283.516c-0.776-0.106-1.505,0.132-1.901,0.705c-0.624,0.902-0.19,2.284,0.971,3.088
		c1.161,0.803,2.607,0.723,3.232-0.179c0.149-0.216,0.234-0.46,0.267-0.716C35.679,285.848,34.714,284.888,34.329,283.516z"/>
	
		<ellipse transform="matrix(-0.9121 0.4099 -0.4099 -0.9121 173.368 523.9893)" fill="#E8A2B0" cx="30.519" cy="280.578" rx="1.499" ry="1.928"/>
</g>
<g id="_x31__1_">
	<path fill="#E9BAA9" d="M226.704,210.167c-9.334-4.334-19-3-27.167,0.833c-8.167,3.833-25.833,3-26.666,3.167
		c-0.834,0.166,1.499,7.166,14.333,7.833s16.667-1.333,25.167-6.833S226.704,210.167,226.704,210.167"/>
	<path fill="#DFA696" d="M226.704,210.167c-9.334-4.334-19-3-27.167,0.833c-8.167,3.833-25.833,3-26.667,3.167
		c-0.535,0.107,0.242,3.031,4.261,5.287c3.878-0.005,8.269,0.617,12.156,0.546c6.875-0.125,11.154-1.215,15.5-3.75
		c7.5-4.375,12.727-8.109,20.076-6.005C226.043,210.115,226.704,210.167,226.704,210.167z"/>
	<path fill="#E8A2B0" d="M193.703,289.166c7,4.167,19.666,5.333,24.333-7c0,0,0.096-0.334,0.176-0.828
		c-0.01-1.099-0.157-2.207-0.446-3.326c-0.323-0.477-0.814-0.854-1.564-1.012c-1.835-0.387-2.442,1.297-3.275,3.008
		c-0.298,1.133-0.81,2.19-1.525,3.052c-1.066,1.998-2.585,3.361-5.804,3.565c-1.52,0.097-3-0.125-4.502-0.379
		c-2.032-0.346-3.639-1.833-4.935-3.371c-0.906-1.076-1.625-2.281-1.984-3.672c-0.156-0.531-0.232-0.806-0.307-1.37
		c-0.659-4.943-0.443-7.566,0.683-9.641c0.65-1.737,1.553-3.433,2.564-5.113c-1.581-0.686-5.628,0.441-6.747,5.254
		C188.704,275.5,186.704,285,193.703,289.166z"/>
	<path fill="#DD90A2" d="M193.704,289.167c7,4.167,19.666,5.333,24.333-7c0,0,0.096-0.334,0.176-0.828
		c-0.01-1.099-0.157-2.207-0.446-3.326c-0.201-0.298-0.478-0.548-0.832-0.739c-0.791,3.56-3.304,6.348-6.314,8.319
		c-3.415,2.237-7.387,2.145-11.102,0.755c-5.188-1.942-7.525-8.565-5.998-13.806c0.064-1.827,0.399-3.184,1.032-4.35
		c0.65-1.737,1.553-3.433,2.564-5.113c-1.581-0.686-5.628,0.441-6.747,5.254C188.704,275.5,186.704,285,193.704,289.167z"/>
	<path fill="#CC7691" d="M149.541,214.167c5.834,8.5,26.5,16.167,32.667,18.5c6.166,2.334,14.833,2.167,15.833,10.167
		c0.372,2.98-0.414,5.104-1.855,7.14c-1.251,3.006-3.77,5.479-5.468,8.213c-2.573,4.143-4.129,8.245-4.503,13.109
		c-0.193,2.5-0.152,5.264,0.233,8.001c0.109,2.231,0.89,6.908,5.172,10.572c5.737,5.137,12.219,5.11,19.586,2.132
		c4.615-1.865,6.271-5.632,6.86-8.419c0.128-0.982,0.17-1.968,0.112-2.96c-3.704,9.066-10.389,11.13-17.889,9.755
		c-6.151-1.128-8.875-7.208-8.875-12.875c0-3.864,1.5-7.125,3.959-11.216c2.22-4.642,5.906-9.051,8.111-13.699
		c2.36-4.975,4.02-10.828,3.221-16.241c-0.293-1.983-0.882-3.903-1.715-5.715c-1.398-2.045-3.015-3.921-4.92-5.534
		c-0.13-0.056-0.245-0.113-0.316-0.171c-9.902-5.632-22.715-9.425-22.715-9.425c-0.238-0.114-0.468-0.225-0.704-0.338
		c0.016,0.002,0.037,0.005,0.037,0.005s14.333,1.167,23.5-2.5c13.833-5,19-4.666,28-1.833c0.327,0.103,0.631,0.216,0.925,0.336
		c6.148,1.655,8.201,7.623,5.244,13.307c-1.223,2.351-3.424,4.361-6.088,4.808c-0.521,0.088-1.023,0.092-1.509,0.037
		c-1.676,0.163-3.286-0.533-4.843-1.778c-0.021-0.016-0.042-0.027-0.063-0.043c-3.167-2.5-6-0.5-4.667,2.5
		c1.333,3,4.167,6.833,12,5.333c7.833-1.5,12.333-4.334,13-16.167c0.084-1.497,0.046-2.842-0.082-4.082
		c-0.483-1.916-1.237-3.733-2.545-5.333c-2.287-2.797-5.377-3.929-8.716-4.869c-7.217-2.032-15.244-2.788-22.228,0.487
		c-5.682,2.665-10.727,5.149-17.021,6.061c-2.188,0.317-4.449,0.448-6.68,0.312c-2.546,0.199-5.211-0.116-8.065-0.494
		c-4.449-0.59-9.279-2.214-12.233-5.763"/>
	<path fill="#B75978" d="M149.661,214.499c0,0,2,6.25,29.375,17.375c7.75,3.625,19.583,4.292,18.833,15.042
		c0,0,2.334-5.584,0.167-10.667c-3.75-5.125-9.875-6.125-20.875-10.375c-5.858-2.263-10.831-4.765-14.796-7.419
		c-3.553-1.607-6.917-3.963-9.531-6.771"/>
	<path fill="#B75978" d="M166.479,207.575c3.509,4.78,9.854,7.587,9.854,7.587s3.916,0.3,9.321,0.15
		c-0.365-0.103-0.728-0.216-1.091-0.338c-3.827-0.905-6.894-2.119-10.292-4.124C171.504,210.265,168.731,209.252,166.479,207.575z"
		/>
	<path fill="#B75978" d="M217.662,231.875c3.375,3.75,7.375,5.625,14.125,3.25c6.267-2.206,12.206-5.926,10.122-19.554
		c-0.097-0.429-0.207-0.853-0.332-1.272c1.044,6.382-0.874,13.546-6.254,17.363c-3.973,2.818-10.067,3.36-14.265,0.268
		c-0.457-0.263-0.894-0.554-1.282-0.904c-0.714-0.516-1.38-1.094-1.95-1.766c-0.981-1.156-0.824-2.009-0.163-2.629
		c0-0.002-0.001-0.004-0.001-0.006C217.662,226.625,214.287,228.125,217.662,231.875z"/>
	<path fill="#E9BAA9" d="M190.959,220.609c0.334-0.409,0.52-0.833,0.528-1.373c0.021-1.424-1.295-2.6-2.94-2.625
		c-1.484-0.022-2.639,0.632-2.885,1.858C187.818,219.312,189.302,219.926,190.959,220.609z"/>
	
		<ellipse transform="matrix(-0.9856 0.1692 -0.1692 -0.9856 427.2487 399.5317)" fill="#E9BAA9" cx="196.602" cy="217.969" rx="2.815" ry="2.437"/>
	
		<ellipse transform="matrix(-0.9009 0.4341 -0.4341 -0.9009 482.425 320.1621)" fill="#E9BAA9" cx="204.656" cy="215.165" rx="2.979" ry="2.434"/>
	
		<ellipse transform="matrix(-0.9314 0.364 -0.364 -0.9314 488.7556 331.2652)" fill="#E9BAA9" cx="213.162" cy="211.689" rx="2.529" ry="1.908"/>
	<path fill="#E9BAA9" d="M218.091,209.887c-0.008,0.708,0.503,1.325,1.259,1.663c0.307-0.168,0.62-0.324,0.972-0.434
		c0.875-0.274,1.791-0.459,2.696-0.61c0.076-0.178,0.129-0.364,0.131-0.562c0.002-0.157-0.029-0.308-0.075-0.455
		c-1.416-0.49-2.995-0.567-4.475-0.677C218.22,209.141,218.097,209.417,218.091,209.887z"/>
	<path fill="#E8A2B0" d="M192.539,279.641c0.335,1.303,1.392,2.158,2.411,1.999c-0.374-0.919-0.625-1.885-0.871-2.862
		c-0.166-0.659-0.292-1.293-0.339-2.059C192.779,277.077,192.206,278.343,192.539,279.641z"/>
	<path fill="#E8A2B0" d="M196.376,287.161c1.114,0.866,2.563,0.867,3.237,0.001c0.183-0.235,0.283-0.511,0.319-0.804
		c-0.823-0.419-1.62-0.906-2.377-1.428c-0.438-0.302-1.168-0.757-1.43-1.325c-0.209,0.104-0.401,0.232-0.547,0.419
		C194.905,284.89,195.262,286.295,196.376,287.161z"/>
	<path fill="#E8A2B0" d="M201.927,287.826c0.101,1.093,1.322,1.874,2.727,1.744c1.405-0.129,2.463-1.12,2.362-2.212
		c-0.017-0.179-0.075-0.344-0.149-0.502c-1.488,0.161-2.958-0.101-4.429-0.38C202.079,286.858,201.88,287.331,201.927,287.826z"/>
	<path fill="#E8A2B0" d="M208.726,286.414c0.033,0.256,0.118,0.5,0.267,0.716c0.625,0.902,2.071,0.982,3.232,0.179
		c1.161-0.804,1.595-2.186,0.971-3.088c-0.396-0.573-1.125-0.811-1.901-0.705C210.91,284.888,209.945,285.848,208.726,286.414z"/>
	
		<ellipse transform="matrix(-0.4099 0.9121 -0.9121 -0.4099 559.201 199.3867)" fill="#E8A2B0" cx="215.105" cy="280.578" rx="1.928" ry="1.499"/>
</g>
<g id="_x32_">
</g>
<g id="_x33_">
</g>
<g id="_x34_">
</g>
<g id="_x35__1_">
</g>
<g id="_x36_">
</g>
<g id="_x37_">
</g>
<rect x="19.029" y="146.41" fill="#EFEFEF" width="207.558" height="135.674"/>
<rect x="374.215" y="63.525" fill="#EFEFEF" width="149.518" height="181.331"/>
<rect x="19.029" y="146.41" opacity="0.1" enable-background="new    " width="207.526" height="12"/>
<rect x="19.029" y="161.917" opacity="0.1" enable-background="new    " width="51.526" height="120.166"/>
<rect x="73.529" y="161.917" opacity="0.1" enable-background="new    " width="153.026" height="66.833"/>
<rect x="76.529" y="165.001" opacity="0.1" enable-background="new    " width="69.138" height="2.416"/>
<rect x="76.529" y="170.797" opacity="0.1" enable-background="new    " width="84.471" height="2.416"/>
<rect x="76.529" y="176.593" opacity="0.1" enable-background="new    " width="79.804" height="2.416"/>
<rect x="76.529" y="182.389" opacity="0.1" enable-background="new    " width="75.804" height="2.416"/>
<rect x="76.529" y="199.778" opacity="0.1" enable-background="new    " width="69.138" height="2.416"/>
<rect x="76.529" y="205.575" opacity="0.1" enable-background="new    " width="84.471" height="2.416"/>
<rect x="76.529" y="222.963" opacity="0.1" enable-background="new    " width="84.471" height="2.416"/>
<rect x="76.529" y="211.371" opacity="0.1" enable-background="new    " width="79.804" height="2.416"/>
<rect x="76.529" y="217.167" opacity="0.1" enable-background="new    " width="75.804" height="2.416"/>
<rect x="76.529" y="257.325" opacity="0.1" enable-background="new    " width="145.221" height="2.416"/>
<rect x="76.529" y="274.713" opacity="0.1" enable-background="new    " width="145.221" height="2.416"/>
<rect x="76.529" y="263.121" opacity="0.1" enable-background="new    " width="137.198" height="2.416"/>
<rect x="76.529" y="268.917" opacity="0.1" enable-background="new    " width="130.321" height="2.416"/>
<rect x="76.529" y="188.186" opacity="0.1" enable-background="new    " width="80.138" height="2.416"/>
<rect x="76.529" y="193.982" opacity="0.1" enable-background="new    " width="80.138" height="2.416"/>
<rect x="25.196" y="165.001" opacity="0.1" enable-background="new    " width="32.334" height="2.416"/>
<rect x="25.196" y="170.797" opacity="0.1" enable-background="new    " width="39.505" height="2.416"/>
<rect x="25.196" y="176.593" opacity="0.1" enable-background="new    " width="37.323" height="2.416"/>
<rect x="25.196" y="182.389" opacity="0.1" enable-background="new    " width="35.452" height="2.416"/>
<rect x="25.196" y="199.778" opacity="0.1" enable-background="new    " width="32.334" height="2.416"/>
<rect x="25.196" y="205.575" opacity="0.1" enable-background="new    " width="39.505" height="2.416"/>
<rect x="25.196" y="222.963" opacity="0.1" enable-background="new    " width="39.505" height="2.416"/>
<rect x="25.196" y="211.371" opacity="0.1" enable-background="new    " width="37.323" height="2.416"/>
<rect x="25.196" y="217.167" opacity="0.1" enable-background="new    " width="35.452" height="2.416"/>
<rect x="25.196" y="188.186" opacity="0.1" enable-background="new    " width="37.478" height="2.416"/>
<rect x="25.196" y="193.982" opacity="0.1" enable-background="new    " width="37.478" height="2.416"/>
<rect x="170.029" y="165.001" opacity="0.1" enable-background="new    " width="9.593" height="2.416"/>
<rect x="170.029" y="170.797" opacity="0.1" enable-background="new    " width="11.721" height="2.416"/>
<rect x="170.029" y="176.593" opacity="0.1" enable-background="new    " width="11.073" height="2.416"/>
<rect x="170.029" y="182.389" opacity="0.1" enable-background="new    " width="10.518" height="2.416"/>
<rect x="170.029" y="199.778" opacity="0.1" enable-background="new    " width="9.593" height="2.416"/>
<rect x="170.029" y="205.575" opacity="0.1" enable-background="new    " width="11.721" height="2.416"/>
<rect x="170.029" y="222.963" opacity="0.1" enable-background="new    " width="11.721" height="2.416"/>
<rect x="170.029" y="211.371" opacity="0.1" enable-background="new    " width="11.073" height="2.416"/>
<rect x="170.029" y="217.167" opacity="0.1" enable-background="new    " width="10.518" height="2.416"/>
<rect x="170.029" y="188.186" opacity="0.1" enable-background="new    " width="11.12" height="2.416"/>
<rect x="170.029" y="193.982" opacity="0.1" enable-background="new    " width="11.12" height="2.416"/>
<rect x="195.779" y="165.001" opacity="0.1" enable-background="new    " width="20.234" height="2.416"/>
<rect x="195.779" y="170.797" opacity="0.1" enable-background="new    " width="24.721" height="2.416"/>
<rect x="195.779" y="176.593" opacity="0.1" enable-background="new    " width="23.355" height="2.416"/>
<rect x="195.779" y="182.389" opacity="0.1" enable-background="new    " width="22.185" height="2.416"/>
<rect x="195.779" y="199.778" opacity="0.1" enable-background="new    " width="20.234" height="2.416"/>
<rect x="195.779" y="205.575" opacity="0.1" enable-background="new    " width="24.721" height="2.416"/>
<rect x="195.779" y="222.963" opacity="0.1" enable-background="new    " width="24.721" height="2.416"/>
<rect x="195.779" y="211.371" opacity="0.1" enable-background="new    " width="23.355" height="2.416"/>
<rect x="195.779" y="217.167" opacity="0.1" enable-background="new    " width="22.185" height="2.416"/>
<rect x="195.779" y="188.186" opacity="0.1" enable-background="new    " width="23.453" height="2.416"/>
<rect x="195.779" y="193.982" opacity="0.1" enable-background="new    " width="23.453" height="2.416"/>
<rect x="73.529" y="231.75" opacity="0.1" enable-background="new    " width="153.026" height="50.333"/>
<rect x="76.529" y="246.713" opacity="0.1" enable-background="new    " width="23.721" height="2.416"/>
<rect x="76.529" y="235.121" opacity="0.1" enable-background="new    " width="22.411" height="2.416"/>
<rect x="76.529" y="240.917" opacity="0.1" enable-background="new    " width="21.287" height="2.416"/>
<g>
	<path fill="#CC7691" d="M84.411,227.334l0.064-0.033c-0.008,0.033-0.018,0.067-0.026,0.1L84.411,227.334z"/>
	<path fill="#CC7691" d="M216.912,230.002c-1.333-3,1.5-5,4.667-2.5c0.021,0.016,0.042,0.027,0.063,0.043
		c1.557,1.245,3.167,1.941,4.843,1.778c0.486,0.055,0.988,0.051,1.509-0.037c0.393-0.066,0.771-0.175,1.142-0.305l1.197,4.503
		c-0.076,0.015-0.147,0.032-0.224,0.047C222.276,235.031,218.245,233.002,216.912,230.002z"/>
</g>
<g>
	<path fill="#CC7691" d="M161.254,227.334l-0.064-0.033c0.008,0.033,0.018,0.067,0.026,0.1L161.254,227.334z"/>
	<path fill="#CC7691" d="M211.033,144.743c0.587,1.647,1.192,3.299,1.919,4.918c4.536,8.655,13.068,11.84,13.068,11.84
		c-3.363-3.056-2.38-11.848-1.165-16.758H211.033z"/>
	<path fill="#CC7691" d="M28.753,230.002c1.333-3-1.5-5-4.667-2.5c-0.021,0.016-0.042,0.027-0.063,0.043
		c-1.557,1.245-3.167,1.941-4.843,1.778c-0.486,0.055-0.988,0.051-1.509-0.037c-0.393-0.066-0.771-0.175-1.142-0.305l-1.197,4.503
		c0.076,0.015,0.147,0.032,0.224,0.047C23.389,235.031,27.42,233.002,28.753,230.002z"/>
	<path fill="#CC7691" d="M32.774,144.743H21.81c0.523,4.517,0.332,9.586-2.057,11.758C19.753,156.501,28.227,153.334,32.774,144.743
		z"/>
</g>
<g>
	<path fill="#B75978" d="M19.029,236.166c3.804,0.089,6.53-1.621,8.933-4.291c3.375-3.75,0-5.25,0-5.25
		c0,0.002-0.001,0.004-0.001,0.006c0.661,0.62,0.818,1.473-0.163,2.629c-0.57,0.672-1.236,1.25-1.95,1.766
		c-0.388,0.35-0.825,0.641-1.282,0.904c-1.637,1.206-3.562,1.852-5.537,2.033V236.166z"/>
	<path fill="#B75978" d="M212.95,149.66c2.391,4.562,5.885,7.592,8.661,9.449c-2.723-2.863-4.461-6.608-5.705-10.485
		c-0.412-1.285-0.782-2.582-1.144-3.881h-3.73C211.619,146.39,212.224,148.042,212.95,149.66z"/>
	<path fill="#B75978" d="M32.774,144.743h-3.673c-1.692,4.686-4.148,8.828-8.966,11.33c-0.125,0.145-0.242,0.3-0.381,0.426
		C19.754,156.499,28.227,153.332,32.774,144.743z"/>
</g>
<g>
	<path fill="#B75978" d="M226.636,236.166c-3.804,0.089-6.53-1.621-8.933-4.291c-3.375-3.75,0-5.25,0-5.25
		c0,0.002,0.001,0.004,0.001,0.006c-0.661,0.62-0.818,1.473,0.163,2.629c0.57,0.672,1.236,1.25,1.95,1.766
		c0.388,0.35,0.825,0.641,1.282,0.904c1.637,1.206,3.562,1.852,5.537,2.033V236.166z"/>
</g>
</svg>
