<?xml version="1.0" encoding="utf-8"?>
<!-- Generator: Adobe Illustrator 17.0.0, SVG Export Plug-In . SVG Version: 6.00 Build 0)  -->
<!DOCTYPE svg PUBLIC "-//W3C//DTD SVG 1.1//EN" "http://www.w3.org/Graphics/SVG/1.1/DTD/svg11.dtd">
<svg version="1.1" xmlns="http://www.w3.org/2000/svg" xmlns:xlink="http://www.w3.org/1999/xlink" x="0px" y="0px"
	 width="370.333px" height="331px" viewBox="0 0 370.333 331" enable-background="new 0 0 370.333 331" xml:space="preserve">
<g id="Bg" display="none">
	<polygon display="inline" fill="#012B31" points="-194.667,-11 -257.667,-11 -837.667,-11 -837.667,581 -517.667,581 -517.667,689 
		-194.667,689 -194.667,339 381.333,339 381.333,-11 	"/>
</g>
<g id="_x31_">
</g>
<g id="_x32_">
</g>
<g id="_x33_">
</g>
<g id="_x34_">
</g>
<g id="_x35__1_">
</g>
<g id="_x36_">
</g>
<g id="_x37_">
	<path fill="#737F83" d="M101.32,212.2c-0.818-0.954-34.349-0.545-35.167,0c-0.303,0.202-0.512,3.112-0.607,6.738
		c-1.954-1.015-8.005-4.059-8.583-3.13c-0.69,1.109,2.001,13.552,2.795,14.168c0.631,0.49,4.298-1.583,5.776-2.454
		c0.084,3.384,0.284,6.065,0.619,6.352c0.954,0.818,34.486,0.954,35.167,0C102.002,232.919,102.138,213.154,101.32,212.2z"/>
	<ellipse fill="#8C989B" cx="97.999" cy="226.267" rx="1.249" ry="2.136"/>
	<path fill="#3F3F3F" d="M97.999,224.131c-0.351,0-0.667,0.25-0.894,0.649c0.069-0.03,0.142-0.052,0.221-0.052
		c0.356,0,0.644,0.34,0.644,0.758c0,0.419-0.288,0.758-0.644,0.758c-0.239,0-0.44-0.161-0.551-0.389
		c-0.015,0.134-0.024,0.271-0.024,0.412c0,1.18,0.559,2.136,1.249,2.136s1.249-0.956,1.249-2.136S98.689,224.131,97.999,224.131z"/>
	<path fill="#5B5A5C" d="M101.464,212.595c-5.377,6.325-18.34,11.361-18.34,11.361c-8.69-3.067-17.132-11.361-17.132-11.361
		c3.663,4.133,6.811,6.944,9.375,8.857c-0.214-0.101-0.409-0.188-0.574-0.255c-1.324-0.54-1.866,0.639-1.789,1.887
		c0.06,1.073,0.244,2.412,0.457,3.681c-2.748,2.692-3.682,4.757-3.682,4.757c1.04-1.299,2.447-2.593,3.86-3.745
		c0.287,1.564,0.579,2.86,0.669,3.157c0.126,0.413,0.6,1.378,1.372,1.269c1.728-0.341,2.527-0.724,3.595-1.21
		c0.725-0.386,1.336-0.898,1.336-0.898s-4.69,1.865-5.287,1.404c-0.597-0.461-2.043-8.836-1.429-9.516
		c0.501-0.555,4.958,1.738,6.584,2.603c1.727,0.797,2.701,0.905,2.701,0.905c1.475-0.556,3.156-1.137,4.156-1.731
		c0,0.001,0,0.002,0,0.003c0,0,5.623,3.874,8.385,7.759c0,0-1.671-4.145-7.248-8.354
		C98.347,218.212,101.464,212.595,101.464,212.595z"/>
	<path fill="#5B5A5C" d="M209.919,235.388c-0.818-0.954-34.349-0.545-35.167,0c-0.303,0.202-0.512,3.112-0.607,6.738
		c-1.954-1.015-8.005-4.059-8.583-3.13c-0.69,1.109,2.001,13.552,2.795,14.168c0.631,0.49,4.298-1.583,5.776-2.454
		c0.084,3.384,0.284,6.065,0.619,6.352c0.954,0.818,34.486,0.954,35.167,0C210.6,256.106,210.737,236.342,209.919,235.388z"/>
	<ellipse fill="#737F83" cx="206.597" cy="249.455" rx="1.249" ry="2.136"/>
	<path fill="#3F3F3F" d="M206.597,247.318c-0.351,0-0.667,0.25-0.894,0.649c0.069-0.03,0.142-0.052,0.221-0.052
		c0.356,0,0.644,0.34,0.644,0.758c0,0.419-0.288,0.758-0.644,0.758c-0.239,0-0.44-0.161-0.551-0.389
		c-0.015,0.134-0.024,0.271-0.024,0.412c0,1.18,0.559,2.136,1.249,2.136s1.249-0.957,1.249-2.136
		C207.846,248.275,207.287,247.318,206.597,247.318z"/>
	<path fill="#3F3F3F" d="M210.062,235.783c-5.377,6.325-18.34,11.361-18.34,11.361c-8.69-3.067-17.132-11.361-17.132-11.361
		c3.663,4.133,6.811,6.944,9.375,8.857c-0.214-0.101-0.409-0.188-0.574-0.256c-1.324-0.54-1.866,0.639-1.789,1.887
		c0.06,1.073,0.244,2.412,0.457,3.681c-2.748,2.692-3.682,4.757-3.682,4.757c1.04-1.299,2.447-2.593,3.86-3.745
		c0.287,1.564,0.579,2.86,0.669,3.157c0.126,0.413,0.6,1.378,1.372,1.269c1.728-0.341,2.527-0.724,3.595-1.21
		c0.725-0.386,1.336-0.898,1.336-0.898s-4.69,1.865-5.287,1.404c-0.597-0.461-2.043-8.836-1.429-9.516
		c0.501-0.555,4.958,1.738,6.584,2.603c1.727,0.797,2.402,0.905,2.402,0.905c1.475-0.556,3.857-1.137,3.857-1.731
		c0,0.001,0,0.002,0,0.003c0,0,5.922,3.874,8.684,7.759c0,0-1.522-4.145-7.098-8.354C206.796,241.4,210.062,235.783,210.062,235.783
		z"/>
	<path fill="#5B5A5C" d="M110.124,202.513c-0.52-0.607-21.855-0.347-22.376,0c-0.193,0.128-0.326,1.98-0.386,4.287
		c-1.243-0.646-5.093-2.583-5.461-1.992c-0.439,0.705,1.273,8.623,1.779,9.015c0.402,0.312,2.735-1.007,3.675-1.562
		c0.054,2.153,0.181,3.859,0.394,4.041c0.607,0.52,21.942,0.607,22.376,0S110.644,203.12,110.124,202.513z"/>
	<ellipse fill="#737F83" cx="108.01" cy="211.463" rx="0.795" ry="1.359"/>
	<path fill="#3F3F3F" d="M108.01,210.104c-0.224,0-0.425,0.159-0.569,0.413c0.044-0.019,0.091-0.033,0.14-0.033
		c0.226,0,0.41,0.216,0.41,0.483c0,0.266-0.183,0.483-0.41,0.483c-0.152,0-0.28-0.102-0.351-0.248
		c-0.01,0.085-0.015,0.172-0.015,0.262c0,0.751,0.356,1.359,0.795,1.359s0.795-0.609,0.795-1.359
		C108.805,210.712,108.449,210.104,108.01,210.104z"/>
	<path fill="#3F3F3F" d="M110.215,202.764c-3.421,4.024-11.669,7.229-11.669,7.229c-5.529-1.951-10.9-7.229-10.9-7.229
		c2.331,2.63,4.334,4.418,5.965,5.635c-0.136-0.064-0.26-0.12-0.366-0.163c-0.842-0.343-1.187,0.407-1.138,1.2
		c0.038,0.683,0.155,1.534,0.291,2.342c-1.748,1.713-2.343,3.027-2.343,3.027c0.662-0.826,1.557-1.65,2.456-2.383
		c0.183,0.995,0.368,1.82,0.426,2.009c0.08,0.263,0.382,0.877,0.873,0.808c1.1-0.217,1.608-0.461,2.287-0.77
		c0.462-0.245,0.85-0.572,0.85-0.572s-2.984,1.187-3.364,0.893c-0.38-0.293-1.3-5.622-0.909-6.055
		c0.319-0.353,3.154,1.106,4.189,1.656c1.099,0.507,1.773,0.576,1.773,0.576c0.939-0.354,2.699-0.724,2.699-1.102
		c0,0.001,0,0.001,0,0.002c0,0,3.523,2.465,5.28,4.937c0,0-1.091-2.637-4.639-5.315
		C108.259,206.338,110.215,202.764,110.215,202.764z"/>
	<path fill="#737F83" d="M179.9,224.039c-1.162-1.356-48.805-0.775-49.967,0c-0.43,0.287-0.727,4.421-0.863,9.574
		c-2.776-1.442-11.374-5.767-12.195-4.448c-0.98,1.575,2.844,19.255,3.972,20.13c0.897,0.696,6.107-2.25,8.207-3.487
		c0.12,4.808,0.404,8.618,0.879,9.025c1.356,1.162,48.999,1.356,49.967,0C180.868,253.477,181.062,225.395,179.9,224.039z"/>
	<path fill="#E9BAA9" d="M248.294,73.48c0,0-30.297-13.465-43.089,8.752c-12.792,22.218-2.693,42.416-20.871,47.802
		c0,0,28.277,14.139,56.554-2.693S248.294,73.48,248.294,73.48z"/>
	<path fill="#DFA696" d="M248.294,73.48c0,0-4.485-1.984-10.727-3.169c-6.095,10.53-8.741,24.569-8.798,35.907
		c-0.042,8.319,1.01,17.421,3.142,25.469c2.97-1.142,5.972-2.557,8.976-4.346C269.165,110.509,248.294,73.48,248.294,73.48z"/>
	<path fill="#CC7691" d="M250.65,189.955c0,0-17.841,8.416-8.416,24.911c1.684,2.946,6.105,4.782,12.216,5.817l-0.54,29.504
		c-1.789-2.032-4.38-3.341-7.3-3.341c-5.392,0-9.762,4.371-9.762,9.762c0,5.392,4.371,9.762,9.762,9.762
		c0.541,0,1.063-0.075,1.581-0.159c0.028,3.593,0.715,10.479,4.924,17.142c0.379,7.327,2.032,33.047-4.917,47.647
		c28.136,0,53.886,0,83.651,0c-2.213-15.06,1.894-37.007,2.776-42.617c8.322-7.986,10.148-18.701,8.52-28.215
		c0.468,0.072,0.938,0.144,1.426,0.144c5.206,0,9.426-4.22,9.426-9.426s-4.22-9.426-9.426-9.426c-2.923,0-5.503,1.359-7.232,3.448
		c0.224-8.361,0.502-22.453,0.649-30.194c5.351-0.909,8.603-1.531,8.603-1.531s9.762-14.139-3.703-21.208
		c0,0,7.742-24.574-17.841-52.178c-20.871-23.228-19.525-37.703-19.525-37.703s22.218-4.376,32.99-22.218
		c10.772-17.841,14.139-35.683-6.733-52.178s-35.346-8.079-53.188,2.356c-17.842,10.436-50.495,42.416-40.396,110.079
		C243.244,169.42,247.284,182.212,250.65,189.955z"/>
	
		<ellipse transform="matrix(0.9959 -0.09 0.09 0.9959 -19.4945 24.7183)" fill="#FFFFFF" cx="264.261" cy="228.46" rx="21.64" ry="20.558"/>
	
		<ellipse transform="matrix(0.9932 0.1161 -0.1161 0.9932 28.6113 -36.3063)" fill="#FFFFFF" cx="325.959" cy="227.447" rx="23.285" ry="22.121"/>
	<path fill="#3A3A3A" d="M263.232,220.288c-1.085,3.294-4.151,5.688-7.808,5.688c-4.177,0-7.593-3.113-8.144-7.138
		c-4.227,2.206-7.085,6.38-7.085,11.175c0,7.094,6.243,12.844,13.945,12.844c7.702,0,13.945-5.751,13.945-12.844
		C268.085,226.122,266.199,222.643,263.232,220.288z"/>
	<path fill="#3A3A3A" d="M325.832,215.847c-0.282,3.791-2.909,7.149-6.8,8.117c-4.443,1.106-8.9-1.301-10.552-5.437
		c-3.912,3.466-5.847,8.661-4.578,13.761c1.877,7.545,10.04,12.009,18.232,9.97c8.192-2.038,13.31-9.807,11.433-17.352
		C332.538,220.768,329.611,217.567,325.832,215.847z"/>
	<path fill="#3A3A3A" d="M357.78,212.677c0,0-3.532,5.107-9.488,3.324c-0.283-0.467-0.584-0.924-0.898-1.372
		c1.425-0.583,5.327-2.764,5.232-9.141c0,0-2.104,5.754-8.221,5.611c-0.394-0.387-0.805-0.759-1.225-1.121
		c1.224-0.806,4.73-3.727,3.31-10.054c0,0-0.912,6.319-7.268,7.241c-3.057-1.77-6.539-2.97-10.308-3.41
		c-8.817-1.031-17.085,2.31-22.424,8.234c-9.82-4.895-19.881-1.313-23.024,0.052c-5.197-5.774-13.172-9.13-21.782-8.352
		c-4.043,0.365-7.784,1.605-11.039,3.499c-6.47-0.856-7.389-7.263-7.389-7.263c-1.459,6.499,2.28,9.404,3.404,10.115
		c-0.391,0.341-0.769,0.694-1.138,1.056c-6.258,0.263-8.401-5.607-8.401-5.607c-0.099,6.613,4.093,8.709,5.371,9.195
		c-0.285,0.41-0.557,0.829-0.817,1.255c-6.091,1.981-9.709-3.261-9.709-3.261c1.619,6.624,6.457,7.455,7.645,7.559
		c-1.141,3.145-1.631,6.555-1.313,10.07c1.213,13.423,13.652,23.27,27.781,21.992c14.13-1.277,24.601-13.194,23.387-26.618
		c-0.331-3.663-1.503-7.056-3.312-10.033c10.574-2.985,15.715-0.674,17.378,0.416c-1.549,2.687-2.587,5.702-2.967,8.948
		c-1.565,13.387,8.59,25.574,22.682,27.222c14.092,1.647,26.783-7.87,28.348-21.257c0.438-3.75-0.044-7.405-1.274-10.761
		C351.751,220.046,356.232,219.013,357.78,212.677z M265.534,246.71c-10.48,0.947-19.757-7.042-20.657-16.998
		c-0.9-9.956,6.894-18.826,17.373-19.773c10.48-0.947,19.738,6.382,20.638,16.337S276.014,245.763,265.534,246.71z M345.035,230.21
		c-1.161,9.929-10.724,17.663-21.175,16.441c-10.451-1.222-17.893-10.944-16.733-20.873c1.161-9.929,10.607-17.012,21.059-15.791
		S346.196,220.281,345.035,230.21z"/>
	<path fill="#B75978" d="M278.759,278.405c0,0,16.916,7.827,36.609,0.757C315.368,279.162,303.249,297.846,278.759,278.405z"/>
	<path fill="#B75978" d="M269.913,183.115c-6.735-1.087-13.962,0.367-20.671,3.21l1.408,3.63c0,0,21.292-3.955,32.401,1.347
		C283.051,191.301,280.017,185.997,269.913,183.115z"/>
	<path fill="#B75978" d="M309.798,188.854c-2.337,1.859-3.015,3.457-3.015,3.457c20.324-7.953,36.104-0.337,36.104-0.337
		c0.528-1.182,0.785-3.804,0.907-5.725C333.146,181.707,320.033,182.909,309.798,188.854z"/>
	<path fill="#E9BAA9" d="M311.244,158.311c0,0-15.064-14.475-38.544-7.658c-20.955,6.059-19.356,23.48-19.356,23.48
		S264.452,153.598,311.244,158.311z"/>
	<path fill="#E9BAA9" d="M289.868,123.891c0,0-14.035-13.01-32.822-5.554c-15.906,6.312-11.109,22.47-11.109,22.47
		S255.531,118.084,289.868,123.891z"/>
	<path fill="#E9BAA9" d="M279.516,97.633c0,0-11.361-12.876-30.297-6.817c-12.876,4.04-9.846,18.431-9.846,18.431
		C240.13,109.5,248.209,93.341,279.516,97.633z"/>
	<path fill="#E9BAA9" d="M274.888,73.143c0,0-9.421-10.432-28.799-5.739c-1.224,2.662-2.357,5.484-3.399,8.445
		C255.428,70.37,274.888,73.143,274.888,73.143z"/>
	<path fill="#E9BAA9" d="M273.709,50.252c0,0-2.023-8.362-9.895-8.587c-1.706,1.712-3.413,3.581-5.101,5.61
		C268.154,47.194,273.709,50.252,273.709,50.252z"/>
	<path fill="#E9BAA9" d="M331.274,66.242c0,0,7.662,1.124,13.675,0.242c1.693-5.007,2.46-9.988,1.927-14.911
		C345.663,55.443,341.369,65.551,331.274,66.242z"/>
	<path fill="#E9BAA9" d="M315.957,79.876c0,0,4.4,8.042,12.177,11.529c3.183-2.491,6.24-5.518,8.823-9.174
		C334.619,82.904,325.037,85.148,315.957,79.876z"/>
	<path fill="#B75978" d="M305.521,102.262c0,0-3.03-36.819,6.228-47.465c0,0-8.079,20.703,6.059,42.921
		C317.808,97.717,312.675,100.326,305.521,102.262z"/>
	<path fill="#3A3A3A" d="M309.687,257.618c0,0,1.809,0.489,3.829,1.515l0.084,0.421c0,1.397-0.837,1.992-1.41,2.25
		c-1.728,0.736-8.881,2.428-18.872,0.612c0,0,6.554,4.408,17.347,2.325c0,0,0.922-0.158,1.791-0.552
		c0.488-0.195,0.956-0.419,1.378-0.702c0.224-0.132,0.441-0.318,0.651-0.527c0.049-0.059,0.111-0.103,0.16-0.165l-0.005-0.004
		c0.496-0.555,0.912-1.346,1.064-2.564c1.156,0.847,2.309,1.769,3.135,3.324C318.839,263.551,318.313,255.177,309.687,257.618z"/>
	<ellipse fill="#8C989B" cx="175.181" cy="244.026" rx="1.775" ry="3.035"/>
	<path fill="#3F3F3F" d="M175.181,240.991c-0.499,0-0.948,0.355-1.271,0.922c0.099-0.043,0.202-0.075,0.314-0.075
		c0.505,0,0.915,0.482,0.915,1.078c0,0.595-0.41,1.078-0.915,1.078c-0.34,0-0.625-0.229-0.783-0.553
		c-0.022,0.19-0.035,0.385-0.035,0.586c0,1.676,0.795,3.035,1.775,3.035s1.775-1.359,1.775-3.035
		C176.955,242.35,176.161,240.991,175.181,240.991z"/>
	<path fill="#5B5A5C" d="M180.104,224.6c-7.64,8.986-26.059,16.143-26.059,16.143c-12.347-4.358-24.342-16.143-24.342-16.143
		c5.205,5.873,9.678,9.866,13.32,12.584c-0.305-0.143-0.582-0.267-0.816-0.363c-1.881-0.767-2.651,0.908-2.542,2.681
		c0.085,1.525,0.347,3.426,0.649,5.231c-3.904,3.825-5.232,6.759-5.232,6.759c1.478-1.845,3.477-3.684,5.484-5.321
		c0.408,2.223,0.823,4.064,0.951,4.485c0.179,0.587,0.852,1.957,1.949,1.804c2.456-0.484,3.59-1.029,5.108-1.719
		c1.031-0.548,1.899-1.277,1.899-1.277s-6.664,2.65-7.513,1.995c-0.849-0.655-2.903-12.554-2.03-13.521
		c0.712-0.789,7.044,2.47,9.355,3.698c2.454,1.132,3.76,1.286,3.76,1.286c2.096-0.79,4.03-1.616,5.828-2.46
		c0,0.002-0.001,0.003-0.001,0.005c0,0,8.067,5.505,11.991,11.025c0,0-2.336-5.889-10.259-11.87
		C175.636,232.582,180.104,224.6,180.104,224.6z"/>
	<path fill="#737F83" d="M192.32,267.2c-0.818-0.954-34.349-0.545-35.167,0c-0.303,0.202-0.512,3.112-0.607,6.738
		c-1.954-1.015-8.005-4.059-8.583-3.13c-0.69,1.109,2.001,13.552,2.795,14.168c0.631,0.49,4.298-1.583,5.776-2.454
		c0.084,3.384,0.284,6.065,0.619,6.352c0.954,0.818,34.486,0.954,35.167,0C193.002,287.919,193.138,268.154,192.32,267.2z"/>
	<ellipse fill="#8C989B" cx="188.999" cy="281.267" rx="1.249" ry="2.136"/>
	<path fill="#3F3F3F" d="M188.999,279.131c-0.351,0-0.667,0.25-0.894,0.649c0.069-0.03,0.142-0.052,0.221-0.052
		c0.356,0,0.644,0.34,0.644,0.758c0,0.419-0.288,0.758-0.644,0.758c-0.239,0-0.44-0.161-0.551-0.389
		c-0.015,0.134-0.024,0.271-0.024,0.412c0,1.18,0.559,2.136,1.249,2.136s1.249-0.957,1.249-2.136S189.689,279.131,188.999,279.131z"
		/>
	<path fill="#5B5A5C" d="M192.464,267.595c-5.377,6.325-18.34,11.361-18.34,11.361c-8.69-3.067-17.132-11.361-17.132-11.361
		c3.663,4.133,6.811,6.944,9.375,8.857c-0.214-0.101-0.409-0.188-0.574-0.256c-1.324-0.54-1.866,0.639-1.789,1.887
		c0.06,1.073,0.244,2.412,0.457,3.681c-2.748,2.692-3.682,4.757-3.682,4.757c1.04-1.299,2.447-2.593,3.86-3.745
		c0.287,1.564,0.579,2.86,0.669,3.157c0.126,0.413,0.6,1.378,1.372,1.269c1.728-0.341,2.527-0.724,3.595-1.21
		c0.725-0.386,1.336-0.898,1.336-0.898s-4.69,1.865-5.287,1.404c-0.597-0.461-2.043-8.836-1.429-9.516
		c0.501-0.555,4.958,1.738,6.584,2.603c1.727,0.797,2.701,0.905,2.701,0.905c1.475-0.556,3.156-1.137,4.156-1.731
		c0,0.001,0,0.002,0,0.003c0,0,5.623,3.874,8.385,7.759c0,0-1.671-4.145-7.248-8.354
		C189.347,273.212,192.464,267.595,192.464,267.595z"/>
	<path fill="#737F83" d="M207.395,201.76c-0.547-0.639-22.987-0.365-23.535,0c-0.203,0.135-0.343,2.082-0.406,4.509
		c-1.308-0.679-5.357-2.716-5.744-2.095c-0.462,0.742,1.339,9.069,1.871,9.481c0.423,0.328,2.876-1.06,3.865-1.642
		c0.056,2.265,0.19,4.059,0.414,4.251c0.639,0.547,23.079,0.639,23.535,0C207.851,215.626,207.943,202.399,207.395,201.76z"/>
	<ellipse fill="#8C989B" cx="205.172" cy="211.174" rx="0.836" ry="1.43"/>
	<path fill="#3F3F3F" d="M205.172,209.745c-0.235,0-0.447,0.167-0.599,0.434c0.046-0.02,0.095-0.035,0.148-0.035
		c0.238,0,0.431,0.227,0.431,0.508c0,0.28-0.193,0.508-0.431,0.508c-0.16,0-0.294-0.108-0.369-0.26
		c-0.01,0.089-0.016,0.181-0.016,0.276c0,0.79,0.374,1.43,0.836,1.43s0.836-0.64,0.836-1.43S205.634,209.745,205.172,209.745z"/>
	<path fill="#5B5A5C" d="M207.491,202.025c-3.599,4.233-12.274,7.603-12.274,7.603c-5.815-2.052-11.465-7.603-11.465-7.603
		c2.451,2.766,4.558,4.647,6.274,5.927c-0.144-0.068-0.274-0.126-0.384-0.171c-0.886-0.361-1.249,0.428-1.197,1.263
		c0.04,0.718,0.163,1.614,0.306,2.464c-1.839,1.801-2.464,3.184-2.464,3.184c0.696-0.869,1.638-1.735,2.583-2.506
		c0.192,1.047,0.387,1.914,0.448,2.113c0.084,0.276,0.402,0.922,0.918,0.849c1.157-0.228,1.691-0.485,2.406-0.81
		c0.485-0.258,0.894-0.601,0.894-0.601s-3.139,1.248-3.538,0.94c-0.4-0.309-1.367-5.913-0.956-6.369
		c0.336-0.371,3.318,1.163,4.406,1.742c1.156,0.533,1.457,0.605,1.457,0.605c0.987-0.372,2.43-0.761,2.43-1.159
		c0,0.001,0,0.001,0,0.002c0,0,4.114,2.593,5.962,5.193c0,0-0.943-2.774-4.675-5.591
		C205.23,205.784,207.491,202.025,207.491,202.025z"/>
	<path fill="#5B5A5C" d="M121.919,244.388c-0.818-0.954-34.349-0.545-35.167,0c-0.303,0.202-0.512,3.112-0.607,6.738
		c-1.954-1.015-8.005-4.059-8.583-3.13c-0.69,1.109,2.001,13.552,2.795,14.168c0.631,0.49,4.298-1.583,5.776-2.454
		c0.084,3.384,0.284,6.065,0.619,6.352c0.954,0.818,34.486,0.954,35.167,0C122.6,265.106,122.737,245.342,121.919,244.388z"/>
	<ellipse fill="#737F83" cx="118.597" cy="258.455" rx="1.249" ry="2.136"/>
	<path fill="#3F3F3F" d="M118.597,256.318c-0.351,0-0.667,0.25-0.894,0.649c0.069-0.03,0.142-0.052,0.221-0.052
		c0.356,0,0.644,0.34,0.644,0.758c0,0.419-0.288,0.758-0.644,0.758c-0.239,0-0.44-0.161-0.551-0.389
		c-0.015,0.134-0.024,0.271-0.024,0.412c0,1.18,0.559,2.136,1.249,2.136s1.249-0.956,1.249-2.136S119.287,256.318,118.597,256.318z"
		/>
	<path fill="#3F3F3F" d="M122.062,244.783c-5.377,6.325-18.34,11.361-18.34,11.361c-8.69-3.067-17.132-11.361-17.132-11.361
		c3.663,4.133,6.811,6.944,9.375,8.857c-0.214-0.101-0.409-0.188-0.574-0.256c-1.324-0.54-1.866,0.639-1.789,1.887
		c0.06,1.073,0.244,2.412,0.457,3.681c-2.748,2.692-3.682,4.757-3.682,4.757c1.04-1.299,2.447-2.593,3.86-3.745
		c0.287,1.564,0.579,2.86,0.669,3.157c0.126,0.413,0.6,1.378,1.372,1.269c1.728-0.341,2.527-0.724,3.595-1.21
		c0.725-0.386,1.336-0.898,1.336-0.898s-4.69,1.865-5.287,1.404c-0.597-0.461-2.043-8.836-1.429-9.516
		c0.501-0.555,4.958,1.738,6.584,2.603c1.727,0.797,2.402,0.905,2.402,0.905c1.475-0.556,3.857-1.137,3.857-1.731
		c0,0.001,0,0.002,0,0.003c0,0,5.922,3.874,8.684,7.759c0,0-1.522-4.145-7.098-8.354C118.796,250.4,122.062,244.783,122.062,244.783
		z"/>
</g>
</svg>
