<?xml version="1.0" encoding="utf-8"?>
<!-- Generator: Adobe Illustrator 17.0.0, SVG Export Plug-In . SVG Version: 6.00 Build 0)  -->
<!DOCTYPE svg PUBLIC "-//W3C//DTD SVG 1.1//EN" "http://www.w3.org/Graphics/SVG/1.1/DTD/svg11.dtd">
<svg version="1.1" id="Layer_1" xmlns="http://www.w3.org/2000/svg" xmlns:xlink="http://www.w3.org/1999/xlink" x="0px" y="0px"
	 width="308.833px" height="239.333px" viewBox="-44.167 0 308.833 239.333" enable-background="new -44.167 0 308.833 239.333"
	 xml:space="preserve">
<g id="Bg" display="none">
	<polygon display="inline" fill="#012B31" points="-6,-358 -69,-358 -649,-358 -649,234 -329,234 -329,342 -6,342 -6,-8 570,-8 
		570,-358 	"/>
</g>
<g id="_x31_">
</g>
<g id="_x32_">
</g>
<rect x="112.177" y="35" transform="matrix(-0.9927 0.1203 -0.1203 -0.9927 361.1223 195.182)" fill="#004454" width="124.985" height="146.985"/>
<path fill="#F7CFBC" d="M150.613,184.835c-3.718-10.165-1.399-15.618,1.021-20.29c3.061-5.911,12.815-10.619,12.71-15.643
	s-5.517-17.463-12.936-15.305c0,0,3.79,2.185,5.298,5.276c1.508,3.091,1.534,8.502-3.55,12.266
	c-2.759,2.042-10.3,5.404-11.931,14.793c-0.962,5.533-0.852,12.944,0.759,19.612C144.855,185.255,147.733,185.035,150.613,184.835z"
	/>
<path fill="#EABBA2" d="M150.579,133.596c0,0,4.619,2.186,6.127,5.277c1.508,3.091,1.534,8.502-3.55,12.266
	c-2.759,2.042-10.3,5.404-11.931,14.793c-0.897,5.162-0.866,11.958,0.451,18.258c0.338-1.843,0.784-3.663,1.403-5.436
	c1.523-4.363,3.736-9.309,7.37-12.339c0.104-0.087,0.212-0.113,0.315-0.115c0.282-0.601,0.574-1.186,0.869-1.756
	c3.061-5.911,12.815-10.619,12.71-15.643S157.998,131.437,150.579,133.596z"/>
<path fill="#3B3034" d="M164.397,55.508c0,0-15.693-4.813-20.657,6.869s1.203,21.008-7.41,24.738c0,0,14.741,5.264,27.636-4.693
	S164.397,55.508,164.397,55.508z"/>
<path d="M164.397,55.508c0,0-2.323-0.708-5.461-0.919c-2.368,5.539-2.832,12.597-2.185,18.173c0.475,4.091,1.534,8.502,3.062,12.331
	c1.392-0.738,2.783-1.613,4.153-2.671C176.861,72.465,164.397,55.508,164.397,55.508z"/>
<path fill="#F7CFBC" d="M172.495,112.615c0,0-8.268,5.199-2.652,12.745c1.003,1.348,3.285,1.987,6.351,2.131l1.493,14.533
	c-1-0.892-2.352-1.381-3.787-1.207c-2.65,0.321-4.538,2.73-4.217,5.38c0.321,2.65,2.73,4.538,5.38,4.217
	c0.266-0.032,0.518-0.1,0.767-0.173c0.228,1.765,0.976,5.108,3.441,8.132c0.477,2.74,2.281,15.241,1.734,22.496
	c13.179-1.603,26.356-3.226,39.525-4.908c-0.677-6.63-0.97-17.919-0.897-19.972c3.614-4.421,3.874-9.796,2.506-14.375
	c0.235,0.007,0.469,0.015,0.709-0.014c2.559-0.31,4.381-2.636,4.071-5.194c-0.31-2.559-2.636-4.381-5.194-4.071
	c-1.437,0.174-2.624,0.996-3.349,2.126c-0.388-4.123-1.091-11.066-1.48-14.879c2.576-0.766,4.137-1.265,4.137-1.265
	s3.956-7.531-3.084-10.203c0,0,2.341-12.54-11.878-24.583c-11.642-10.173-11.843-17.368-11.843-17.368s10.659-3.475,14.891-12.886
	c4.232-9.411,4.823-18.381-6.418-25.244c-11.241-6.864-17.854-1.865-26.002,4.327c-8.147,6.192-22.291,23.856-13.296,56.511
	C167.631,102.964,170.379,109.011,172.495,112.615z"/>
<path fill="#F7CFBC" d="M128.967,161.536c2.016-6.485,2.207-13.243,6.575-18.84c3.457-4.43,9.24-8.729,15.037-9.1
	c3.86-0.247,6.506,0.791,8.082,3.474c1.432,1.815,2.29,4.261,2.908,6.319c0.183,0.608,0.288,1.18,0.348,1.733
	c0.98,3.704,0.094,7.945-8.656,13.811c-7.25,4.861-6.66,18.081-5.076,26.077c1.572-0.117,3.144-0.226,4.717-0.331
	c-0.571-2.316-0.827-4.887-0.99-7.787c-0.582-10.338,2.371-15.061,9.772-20.491c7.4-5.43,4.643-14.33,0.23-23.028
	c-4.412-8.699-7.681-13.507-24.106-10.509s-18.401,6.092-21.098,14.31s-2.497,15.412-0.632,19.719
	c1.865,4.307,4.578,14.219,1.339,17.969C117.418,174.862,125.505,170.674,128.967,161.536z"/>
<ellipse transform="matrix(0.2092 0.9779 -0.9779 0.2092 270.9186 -73.9847)" fill="#FFFFFF" cx="181.202" cy="130.51" rx="11.072" ry="11.654"/>
<ellipse transform="matrix(0.0043 1 -1 0.0043 337.7892 -85.5264)" fill="#FFFFFF" cx="211.842" cy="126.859" rx="11.133" ry="11.718"/>
<path fill="#3B3034" d="M189.333,125.702c-0.337,1.684-1.701,3.043-3.499,3.261c-2.053,0.249-3.918-1.077-4.428-3.023
	c-1.946,1.336-3.102,3.558-2.817,5.915c0.423,3.487,3.834,5.941,7.619,5.482s6.512-3.657,6.089-7.144
	C192.066,128.281,190.932,126.683,189.333,125.702z"/>
<path fill="#3B3034" d="M211.481,120.802c0.087,1.88-1.004,3.687-2.858,4.394c-2.118,0.808-4.452-0.109-5.51-2.044
	c-1.716,1.936-2.358,4.605-1.43,7.036c1.372,3.596,5.65,5.304,9.555,3.814s5.958-5.613,4.585-9.21
	C215.07,122.822,213.441,121.423,211.481,120.802z"/>
<path d="M226.503,117.401c0,0-1.437,2.732-4.484,2.196c-0.165-0.209-0.33-0.418-0.508-0.616c0.663-0.369,2.458-1.672,2.03-4.806
	c0,0-0.691,2.955-3.708,3.248c-0.217-0.167-0.444-0.32-0.672-0.473c0.548-0.462,2.113-2.107,1.034-5.144
	c0,0-0.071,3.169-3.152,3.996c-1.606-0.686-3.382-1.074-5.258-1.066c-4.397,0.019-8.263,2.156-10.533,5.388
	c-5.135-1.825-9.872,0.547-11.316,1.397c-2.898-2.527-7.013-3.707-11.197-2.812c-1.961,0.419-3.713,1.258-5.199,2.378
	c-3.247-0.023-4.083-3.131-4.083-3.131c-0.332,3.301,1.705,4.501,2.287,4.774c-0.171,0.19-0.339,0.381-0.498,0.58
	c-3.066,0.509-4.472-2.254-4.472-2.254c0.346,3.265,2.542,4.041,3.193,4.201c-0.115,0.217-0.223,0.438-0.324,0.661
	c-2.88,1.344-4.974-1.021-4.974-1.021c1.195,3.172,3.636,3.28,4.214,3.26c-0.374,1.614-0.417,3.318-0.052,5.028
	c1.396,6.525,8.096,10.624,14.965,9.154s11.305-7.951,9.909-14.476c-0.381-1.782-1.169-3.374-2.236-4.73
	c5.032-2.105,7.7-1.27,8.58-0.834c-0.601,1.413-0.935,2.955-0.928,4.573c0.028,6.673,5.746,12.058,12.77,12.028
	s12.695-5.464,12.667-12.137c-0.008-1.871-0.476-3.633-1.282-5.21C223.948,121.393,226.117,120.63,226.503,117.401z
	 M183.191,139.624c-5.094,1.09-10.13-2.284-11.166-7.124c-1.035-4.84,2.267-9.664,7.361-10.754s10.081,1.961,11.117,6.8
	C191.539,133.386,188.286,138.534,183.191,139.624z M211.855,136.12c-5.21,0.022-9.447-4.313-9.468-9.262s4.2-8.994,9.41-9.016
	s9.465,3.986,9.486,8.935C221.304,131.726,217.065,136.098,211.855,136.12z"/>
<path fill="#EABBA2" d="M191.58,154.414c0,0,8.78,2.839,18.038-1.809C209.618,152.605,204.775,162.51,191.58,154.414z"/>
<path d="M181.555,108.106c-3.375-0.133-6.84,1.012-9.968,2.809l0.908,1.7c0,0,10.229-3.213,16.005-1.269
	C188.5,111.347,186.693,108.92,181.555,108.106z"/>
<path d="M201.5,108.55c-1.038,1.053-1.276,1.879-1.276,1.879c9.516-5.12,17.725-2.317,17.725-2.317
	c0.189-0.613,0.159-1.916,0.105-2.868C212.55,103.646,206.177,105.019,201.5,108.55z"/>
<path fill="#EABBA2" d="M127.827,133.308c-4.405-2.367-7.678-1.741-9.07-1.264c-0.559,1.043-1.032,2.203-1.493,3.505
	C121.528,133.789,127.827,133.308,127.827,133.308z"/>
<path fill="#EABBA2" d="M116.257,138.642c-0.288,0.991-0.533,1.964-0.739,2.918c3.189-1.598,7.013-2.569,7.013-2.569
	C119.782,138.078,117.673,138.249,116.257,138.642z"/>
<path fill="#EABBA2" d="M114.912,145.222c-0.1,0.859-0.166,1.695-0.199,2.505c2.506-1.709,5.603-2.963,5.603-2.963
	C117.841,144.301,116.062,144.713,114.912,145.222z"/>
<path d="M205.543,142.355c0,0,0.918,0.133,1.972,0.516l0.066,0.202c0.083,0.687-0.293,1.029-0.559,1.19
	c-0.806,0.465-4.22,1.723-9.239,1.425c0,0,3.484,1.776,8.665,0.109c0,0,0.444-0.133,0.848-0.378
	c0.228-0.125,0.445-0.263,0.636-0.427c0.102-0.078,0.198-0.183,0.289-0.298c0.021-0.032,0.048-0.057,0.069-0.091l-0.003-0.002
	c0.211-0.302,0.368-0.716,0.37-1.324c0.619,0.347,1.24,0.732,1.739,1.447C210.394,144.725,209.637,140.641,205.543,142.355z"/>
<path fill="#3A3A3A" d="M159.114,141.867c-0.769-0.046-0.89,0.757-0.947,1.935c-0.058,1.177-0.244,2.241,0.524,2.287
	s2.308-0.81,2.366-1.987C161.114,142.924,159.883,141.913,159.114,141.867z"/>
<ellipse transform="matrix(0.9915 -0.13 0.13 0.9915 -21.8845 20.1796)" fill="#3A3A3A" cx="143.624" cy="177.715" rx="2.154" ry="2.346"/>
<path fill="#3A3A3A" d="M143.828,168.776c-1.153-0.125-2.183,0.79-2.302,2.043s0.719,2.371,1.871,2.497
	c1.153,0.125,2.183-0.79,2.302-2.043C145.819,170.019,144.981,168.901,143.828,168.776z"/>
<path fill="#3A3A3A" d="M146.172,162.317c-1.103-0.458-2.37,0.141-2.83,1.338c-0.46,1.197,0.061,2.538,1.164,2.996
	s2.37-0.141,2.83-1.338C147.796,164.116,147.275,162.775,146.172,162.317z"/>
<path fill="#3A3A3A" d="M150.684,157.183c-0.797-0.912-2.194-0.955-3.122-0.095s-1.034,2.296-0.237,3.208
	c0.797,0.912,2.194,0.955,3.122,0.095S151.481,158.095,150.684,157.183z"/>
<path fill="#3A3A3A" d="M155.596,152.689c-0.757-0.867-2.123-0.873-3.051-0.013s-1.066,2.26-0.308,3.127
	c0.757,0.867,2.123,0.873,3.051,0.013C156.215,154.956,156.353,153.556,155.596,152.689z"/>
<path fill="#3A3A3A" d="M158.803,147.392c-0.827-0.47-1.724,0.019-2.271,1.051c-0.546,1.032-0.535,2.216,0.292,2.686
	c0.827,0.47,1.94,0.014,2.486-1.018S159.63,147.862,158.803,147.392z"/>
<g id="_x34_">
</g>
<g id="_x35__1_">
</g>
<g id="_x36_">
</g>
<g id="_x37_">
</g>
<g>
	<path d="M170.096,107.88c9.693-5.336,20.008-16.589,46.567-9.768c-1.516-4.29-4.562-9.478-10.587-14.582
		c-11.642-10.173-11.843-17.368-11.843-17.368s10.659-3.475,14.891-12.886c3.717-8.266,4.62-16.19-2.831-22.647l-32.138,3.895
		c-8.156,7.647-18.859,24.899-10.748,54.346C166.204,98.189,168.35,103.977,170.096,107.88z"/>
</g>
<path fill="#3B3034" d="M194.239,66.245c0,0-3.683-17.916,0.233-23.7c0,0-2.737,10.657,5.535,20.735
	C200.007,63.279,197.64,64.868,194.239,66.245z"/>
<path fill="#3B3034" d="M175.505,42.578c0,0-1.493-3.989-5.375-3.631c-0.736,0.943-1.464,1.963-2.173,3.061
	C172.592,41.405,175.505,42.578,175.505,42.578z"/>
<path fill="#3B3034" d="M204.75,47.007c0,0,3.833,0.096,6.736-0.696c0.534-2.562,0.614-5.056,0.059-7.444
	C211.179,40.842,209.671,46.066,204.75,47.007z"/>
<path fill="#3B3034" d="M198.034,54.621c0,0,2.642,3.69,6.672,4.941c1.416-1.414,2.738-3.084,3.79-5.035
	C207.387,54.997,202.811,56.671,198.034,54.621z"/>
<circle fill="#FFFFFF" cx="180.583" cy="166.292" r="2"/>
<circle fill="#FFFFFF" cx="183.833" cy="167.167" r="2"/>
<circle fill="#FFFFFF" cx="187.083" cy="167.792" r="2"/>
<circle fill="#FFFFFF" cx="190.333" cy="167.917" r="2"/>
<circle fill="#FFFFFF" cx="193.583" cy="167.792" r="2"/>
<circle fill="#FFFFFF" cx="196.833" cy="167.292" r="2"/>
<circle fill="#FFFFFF" cx="200.083" cy="166.792" r="2"/>
<circle fill="#FFFFFF" cx="203.333" cy="166.417" r="2"/>
<circle fill="#FFFFFF" cx="206.583" cy="165.667" r="2"/>
<circle fill="#FFFFFF" cx="209.833" cy="164.917" r="2"/>
<circle fill="#FFFFFF" cx="213.083" cy="163.917" r="2"/>
<circle fill="#FFFFFF" cx="216.333" cy="163.042" r="2"/>
<circle fill="#FFFFFF" cx="219.583" cy="161.792" r="2"/>
<circle fill="#FFFFFF" cx="224.583" cy="140.042" r="2"/>
<circle fill="#FFFFFF" cx="171.958" cy="148.792" r="2"/>
<path d="M197.646,96.104c0,0-25.203,18.427-27.57,11.776c-2.367-6.651,5.57-7.214,5.57-7.214s21.562-6.188,22-5.438
	S197.646,96.104,197.646,96.104z"/>
<path d="M194.521,95.292c0,0-1.5-1.312,5.625,2s17.806,3.08,16.497,0.821c-1.309-2.259-17.684-3.009-17.684-3.009L194.521,95.292z"
	/>
<path fill="#3B3034" d="M200.391,93.452c0,0-8.267-6.217-19.401-1.468c-9.939,4.227-8.115,12.694-8.115,12.694
	S177.112,93.924,200.391,93.452z"/>
<path d="M162.375,85.042c0,0-6.458-10.333,0.958-33.625l6.917,19.542L162.375,85.042z"/>
<path fill="#3B3034" d="M187.834,77.808c0,0-7.673-5.558-16.463-0.774c-7.442,4.05-4.121,11.706-4.121,11.706
	S170.612,77,187.834,77.808z"/>
<path fill="#3B3034" d="M181.182,65.519c0,0-6.351-5.652-15.297-1.545c-6.088,2.753-3.741,9.645-3.741,9.645
	C162.531,73.698,165.539,65.275,181.182,65.519z"/>
<path fill="#3B3034" d="M177.448,53.758c0,0-5.252-4.566-14.497-1.105c-0.443,1.381-0.832,2.836-1.168,4.353
	C167.718,53.555,177.448,53.758,177.448,53.758z"/>
<g>
	<rect x="127.428" y="158.761" transform="matrix(0.9738 -0.2275 0.2275 0.9738 -33.2156 35.3015)" width="18.25" height="6"/>
	<rect x="144.489" y="153.334" transform="matrix(0.9738 -0.2275 0.2275 0.9738 -30.6123 42.5077)" width="49.261" height="1.47"/>
	<polygon fill="#FFFFFF" points="128.593,166.701 125.021,167.536 125.75,162.333 127.228,160.859 	"/>
	<circle cx="193.083" cy="148.5" r="0.75"/>
</g>
<path fill="#EABBA2" d="M130.043,141.037c-5.529,10.473-1.385,25.896-12.298,33.357c-0.106,0.159-0.204,0.327-0.327,0.469
	c0,0,8.087-4.189,11.548-13.327c2.016-6.485,2.207-13.243,6.575-18.84c3.457-4.43,9.24-8.729,15.037-9.1
	c1.348-0.086,2.538-0.005,3.596,0.238c-0.397-0.247-0.816-0.471-1.253-0.675c-0.014-0.003-0.026-0.008-0.041-0.011
	C144.802,131.451,134.288,132.997,130.043,141.037z"/>
<path fill="#FFFFFF" d="M260.519,164.283c-4.34,0.203-8.167-2.968-8.698-7.35c-0.531-4.382,2.427-8.376,6.69-9.215l-0.76-6.267
	c-4.34,0.203-8.167-2.968-8.698-7.35s2.427-8.376,6.69-9.215l-0.88-7.26c-4.34,0.203-8.167-2.968-8.698-7.35
	c-0.531-4.382,2.427-8.376,6.69-9.215l-0.88-7.26c-4.34,0.203-8.167-2.968-8.698-7.35c-0.531-4.382,2.427-8.376,6.69-9.215
	l-0.88-7.26c-4.34,0.203-8.167-2.968-8.698-7.35s2.427-8.376,6.69-9.215l-0.76-6.267c-4.34,0.203-8.167-2.968-8.698-7.35
	s2.427-8.376,6.69-9.215l-0.986-8.132c-1.322,1.66-3.269,2.824-5.542,3.1c-4.592,0.557-8.765-2.715-9.322-7.306
	c-0.307-2.536,0.557-4.942,2.163-6.684l-11.151,1.352c0.203,4.34-2.968,8.167-7.35,8.698c-4.382,0.531-8.376-2.427-9.215-6.69
	l-7.26,0.88c0.203,4.34-2.968,8.167-7.35,8.698c-4.382,0.531-8.376-2.427-9.215-6.69l-7.26,0.88c0.203,4.34-2.968,8.167-7.35,8.698
	s-8.376-2.427-9.215-6.69l-7.26,0.88c0.203,4.34-2.968,8.167-7.35,8.698s-8.376-2.427-9.215-6.69l-6.267,0.76
	c0.203,4.34-2.968,8.167-7.35,8.698s-8.376-2.427-9.215-6.69l-10.903,1.322c1.976,1.308,3.39,3.437,3.697,5.973
	c0.557,4.592-2.715,8.765-7.306,9.322c-2.536,0.307-4.942-0.557-6.684-2.163l1.049,8.657c4.442-0.339,8.406,2.867,8.947,7.333
	s-2.542,8.526-6.936,9.258l0.757,6.242c4.442-0.339,8.406,2.867,8.947,7.333s-2.542,8.526-6.936,9.258l0.877,7.235
	c4.442-0.339,8.406,2.867,8.947,7.333s-2.542,8.526-6.936,9.258l0.877,7.235c4.442-0.339,8.406,2.867,8.947,7.333
	c0.541,4.466-2.542,8.526-6.936,9.258l0.877,7.235c4.442-0.339,8.406,2.867,8.947,7.333c0.541,4.466-2.542,8.526-6.936,9.258
	l0.757,6.242c4.442-0.339,8.406,2.867,8.947,7.333s-2.542,8.526-6.936,9.258l1.115,9.202l0.688,0.749
	c1.32-1.608,3.232-2.735,5.46-3.005c4.592-0.557,8.765,2.714,9.322,7.306c0.206,1.698-0.114,3.337-0.829,4.759l9.449-1.145
	c0.175-4.02,3.225-7.442,7.35-7.942c4.126-0.5,7.905,2.094,9.035,5.956l6.448-0.782c0.175-4.02,3.225-7.442,7.35-7.942
	s7.905,2.094,9.035,5.956l7.44-0.902c0.175-4.02,3.225-7.442,7.35-7.942c4.126-0.5,7.905,2.094,9.035,5.956l7.44-0.902
	c0.175-4.02,3.225-7.442,7.35-7.942c4.126-0.5,7.905,2.094,9.035,5.956l7.44-0.902c0.175-4.02,3.225-7.442,7.35-7.942
	s7.905,2.094,9.035,5.956l9.697-1.175c-1.033-1.21-1.736-2.726-1.942-4.423c-0.557-4.592,2.715-8.765,7.306-9.322
	c1.86-0.225,3.646,0.185,5.156,1.049l0.737-1.26L260.519,164.283z M245.451,172.941l-124.092,15.042L103.79,43.044l124.092-15.042
	L245.451,172.941z"/>
<g opacity="0.8">
	<g>
		<path fill="#191919" d="M57.546,102.899l-4.332-4.328l-0.028-0.005l-0.581,3.107l-0.663-0.124l0.774-4.134l0.481,0.09l4.318,4.307
			l0.027,0.005l0.642-3.424l0.663,0.124l-0.837,4.469L57.546,102.899z"/>
		<path fill="#191919" d="M53.396,94.987l3.495,1.184c1.323,0.447,2.083,0.05,2.35-0.738c0.297-0.876-0.092-1.633-1.397-2.074
			l-3.495-1.184l0.261-0.77l3.442,1.166c1.813,0.614,2.236,1.821,1.802,3.099c-0.409,1.21-1.41,1.886-3.241,1.266l-3.478-1.178
			L53.396,94.987z"/>
		<path fill="#191919" d="M55.518,89.56c0.109-0.4,0.33-0.941,0.58-1.436c0.387-0.768,0.778-1.192,1.266-1.381
			c0.389-0.156,0.848-0.122,1.277,0.095c0.734,0.37,0.988,1.078,0.891,1.764l0.024,0.013c0.365-0.355,0.891-0.41,1.535-0.251
			c0.867,0.21,1.471,0.348,1.743,0.34l-0.374,0.743c-0.203,0.012-0.744-0.106-1.516-0.299c-0.851-0.222-1.29-0.07-1.643,0.569
			l-0.341,0.677l2.41,1.216l-0.363,0.718L55.518,89.56z M58.415,90.119l0.371-0.734c0.387-0.768,0.211-1.467-0.424-1.787
			c-0.718-0.363-1.294,0-1.686,0.755c-0.175,0.346-0.266,0.611-0.292,0.742L58.415,90.119z"/>
		<path fill="#191919" d="M58.141,84.638c0.135-0.333,0.4-0.823,0.715-1.291c0.45-0.667,0.855-1.019,1.333-1.165
			c0.381-0.134,0.796-0.087,1.202,0.186c0.498,0.337,0.712,0.961,0.544,1.64l0.015,0.011c0.454-0.408,1.248-0.708,2.015-0.191
			c0.445,0.3,0.662,0.704,0.74,1.135c0.086,0.583-0.154,1.269-0.724,2.112c-0.31,0.46-0.579,0.791-0.76,0.993L58.141,84.638z
			 M60.707,85.4l0.409-0.606c0.476-0.705,0.388-1.367-0.111-1.704c-0.606-0.409-1.154-0.109-1.609,0.565
			c-0.207,0.307-0.302,0.499-0.352,0.621L60.707,85.4z M63.182,87.071c0.112-0.114,0.248-0.301,0.409-0.538
			c0.466-0.69,0.643-1.497-0.109-2.004c-0.705-0.476-1.405-0.067-1.896,0.661l-0.373,0.552L63.182,87.071z"/>
		<path fill="#191919" d="M63.209,77.898l4.616,4.18l-0.539,0.596l-4.616-4.18L63.209,77.898z"/>
		<path fill="#191919" d="M68.642,81.123l-4.152-4.644l0.655-0.586l3.588,1.02c0.831,0.237,1.537,0.485,2.182,0.764l0.008-0.02
			c-0.61-0.571-1.129-1.123-1.776-1.847l-1.737-1.943l0.565-0.505l4.152,4.644l-0.607,0.542l-3.581-1.039
			c-0.786-0.227-1.57-0.481-2.254-0.774l-0.014,0.025c0.558,0.555,1.07,1.101,1.76,1.873l1.774,1.984L68.642,81.123z"/>
		<path fill="#191919" d="M76.605,74.725c-0.165,0.287-0.577,0.737-1.209,1.156c-1.464,0.969-3.179,0.775-4.306-0.928
			c-1.077-1.626-0.706-3.459,0.905-4.525c0.647-0.428,1.147-0.561,1.386-0.586l0.201,0.654c-0.336,0.046-0.76,0.193-1.191,0.479
			c-1.218,0.806-1.511,2.121-0.607,3.485c0.841,1.272,2.115,1.604,3.378,0.767c0.409-0.271,0.769-0.632,0.951-0.941L76.605,74.725z"
			/>
		<path fill="#191919" d="M77.098,74.214c-0.161-0.301-0.07-0.623,0.215-0.776c0.285-0.152,0.595-0.045,0.756,0.257
			c0.157,0.294,0.087,0.615-0.215,0.776C77.569,74.624,77.255,74.508,77.098,74.214z"/>
		<path fill="#191919" d="M84.83,71.216c-0.228,0.24-0.733,0.58-1.446,0.839c-1.651,0.598-3.271,0.006-3.968-1.914
			c-0.664-1.834,0.128-3.527,1.944-4.186c0.73-0.265,1.247-0.275,1.485-0.243l0.041,0.683c-0.337-0.035-0.784,0.009-1.27,0.185
			c-1.373,0.498-1.968,1.706-1.41,3.244c0.52,1.434,1.679,2.056,3.104,1.539c0.461-0.167,0.895-0.433,1.147-0.69L84.83,71.216z"/>
		<path fill="#191919" d="M90.061,67.049c0.431,2.101-0.617,3.477-2.175,3.795c-1.612,0.331-3.001-0.687-3.378-2.534
			c-0.398-1.938,0.547-3.452,2.177-3.787C88.35,64.182,89.69,65.238,90.061,67.049z M85.345,68.12
			c0.267,1.304,1.213,2.327,2.454,2.074c1.249-0.256,1.72-1.552,1.436-2.937c-0.249-1.214-1.143-2.352-2.456-2.083
			C85.476,65.441,85.071,66.779,85.345,68.12z"/>
		<path fill="#191919" d="M91.532,70.103l-0.274-6.227l0.877-0.04l2.135,3.063c0.494,0.71,0.884,1.35,1.207,1.975l0.018-0.011
			c-0.111-0.828-0.162-1.585-0.205-2.555l-0.115-2.605l0.758-0.033l0.275,6.227l-0.814,0.036l-2.117-3.072
			c-0.464-0.673-0.912-1.366-1.255-2.027l-0.027,0.01c0.08,0.784,0.132,1.531,0.177,2.566l0.118,2.66L91.532,70.103z"/>
		<path fill="#191919" d="M99.071,64.555l-1.888-0.17l0.061-0.681l4.596,0.414l-0.061,0.681l-1.897-0.17l-0.499,5.526l-0.81-0.073
			L99.071,64.555z"/>
		<path fill="#191919" d="M103.746,64.498l-1.099,6.132l-0.792-0.141l1.1-6.132L103.746,64.498z"/>
		<path fill="#191919" d="M103.882,70.814l1.744-5.98l0.843,0.246l1.034,3.585c0.239,0.831,0.401,1.561,0.507,2.257l0.021-0.005
			c0.162-0.819,0.356-1.552,0.628-2.483l0.729-2.503l0.728,0.212l-1.744,5.98l-0.78-0.228l-1.014-3.588
			c-0.223-0.787-0.423-1.587-0.536-2.323l-0.029,0.002c-0.175,0.767-0.367,1.49-0.657,2.485l-0.745,2.555L103.882,70.814z"/>
		<path fill="#191919" d="M113.62,71.237l-2.211-0.987l-0.915,2.05l2.463,1.101l-0.274,0.616l-3.198-1.428l2.54-5.687l3.071,1.372
			l-0.274,0.616l-2.337-1.044l-0.803,1.797l2.21,0.987L113.62,71.237z"/>
		<path fill="#191919" d="M113.445,74.391l3.288-5.298l0.747,0.463l0.034,3.735c0.007,0.865-0.032,1.613-0.118,2.312l0.021,0.002
			c0.376-0.747,0.76-1.401,1.273-2.227l1.376-2.217l0.644,0.4l-3.289,5.298l-0.691-0.43l-0.013-3.732
			c-0.004-0.819,0.018-1.643,0.107-2.383l-0.028-0.007c-0.376,0.693-0.755,1.339-1.301,2.219l-1.406,2.264L113.445,74.391z"/>
		<path fill="#191919" d="M122.817,74.08l-1.462-1.208l0.436-0.527l3.558,2.94l-0.436,0.527l-1.469-1.213l-3.535,4.278l-0.627-0.518
			L122.817,74.08z"/>
		<path fill="#191919" d="M123.364,79.361l-1.859,0.894l-0.577-0.598l5.951-2.799l0.673,0.698l-3.008,5.852l-0.597-0.618
			l0.949-1.839L123.364,79.361z M125.233,80.395l0.868-1.683c0.196-0.382,0.398-0.706,0.593-1.021l-0.013-0.014
			c-0.33,0.19-0.673,0.38-1.03,0.556l-1.72,0.811L125.233,80.395z"/>
		<path fill="#191919" d="M129.956,80.285l0.481,0.644l-4.454,3.322l1.592,2.134l-0.542,0.404l-2.072-2.779L129.956,80.285z"/>
		<path fill="#191919" d="M128.258,88.765l0.445-0.228l0.841,0.285c2.001,0.699,3.008,0.961,3.819,0.556
			c0.543-0.278,0.909-0.799,0.5-1.597c-0.249-0.486-0.703-0.762-1.035-0.904l0.392-0.491c0.502,0.21,1.003,0.617,1.318,1.235
			c0.591,1.152,0.05,2.042-0.715,2.434c-0.987,0.506-2.153,0.2-3.816-0.371l-0.615-0.225l-0.016,0.008l1.232,2.403l-0.601,0.308
			L128.258,88.765z"/>
		<path fill="#191919" d="M134.567,95.536c-1.918,0.706-3.238,0.383-3.698-0.866c-0.405-1.102,0.353-2.228,2.212-2.932
			c1.891-0.696,3.233-0.263,3.654,0.882C137.173,93.809,136.363,94.876,134.567,95.536z M133.353,92.505
			c-1.466,0.54-2.133,1.298-1.877,1.992c0.287,0.78,1.336,0.819,2.776,0.289c1.388-0.511,2.168-1.201,1.877-1.992
			C135.883,92.126,134.889,91.941,133.353,92.505z"/>
		<path fill="#191919" d="M137.361,97.666l-0.005-0.018l-0.787-0.888l0.567-0.294l0.984,1.118l0.158,0.675l-5.85,1.371l-0.179-0.765
			L137.361,97.666z"/>
		<path fill="#191919" d="M133.805,101.708c-0.121,0.246-0.292,0.805-0.231,1.365c0.115,1.039,0.813,1.289,1.308,1.225
			c0.836-0.102,1.111-0.895,1.026-1.677l-0.049-0.451l0.607-0.067l0.049,0.451c0.065,0.589,0.451,1.3,1.158,1.222
			c0.479-0.053,0.868-0.403,0.787-1.148c-0.053-0.478-0.315-0.914-0.527-1.152l0.565-0.276c0.265,0.288,0.561,0.869,0.632,1.513
			c0.13,1.177-0.51,1.787-1.237,1.867c-0.616,0.068-1.182-0.242-1.529-0.949l-0.018,0.002c-0.067,0.752-0.553,1.411-1.39,1.503
			c-0.957,0.105-1.876-0.547-2.033-1.982c-0.074-0.671,0.073-1.283,0.233-1.599L133.805,101.708z"/>
	</g>
	<g>
		<path fill="#191919" d="M133.532,111.767l4.332,4.328l0.028,0.005l0.581-3.107l0.663,0.124l-0.774,4.134l-0.481-0.09l-4.318-4.307
			l-0.027-0.005l-0.642,3.424l-0.663-0.124l0.837-4.469L133.532,111.767z"/>
		<path fill="#191919" d="M137.682,119.679l-3.495-1.184c-1.323-0.447-2.083-0.05-2.35,0.738c-0.297,0.876,0.092,1.633,1.397,2.074
			l3.495,1.184l-0.261,0.77l-3.442-1.166c-1.813-0.614-2.236-1.821-1.802-3.099c0.409-1.21,1.41-1.886,3.241-1.266l3.478,1.178
			L137.682,119.679z"/>
		<path fill="#191919" d="M135.56,125.106c-0.109,0.4-0.33,0.941-0.58,1.436c-0.387,0.768-0.778,1.192-1.265,1.381
			c-0.39,0.156-0.849,0.122-1.278-0.095c-0.734-0.37-0.988-1.078-0.891-1.764l-0.024-0.013c-0.365,0.355-0.891,0.41-1.535,0.251
			c-0.867-0.21-1.471-0.348-1.743-0.34l0.374-0.743c0.203-0.012,0.744,0.106,1.516,0.299c0.851,0.222,1.29,0.07,1.643-0.569
			l0.341-0.677l-2.41-1.216l0.362-0.718L135.56,125.106z M132.664,124.547l-0.371,0.734c-0.387,0.768-0.211,1.467,0.424,1.787
			c0.718,0.363,1.294,0,1.686-0.755c0.175-0.346,0.266-0.611,0.292-0.742L132.664,124.547z"/>
		<path fill="#191919" d="M132.937,130.037c-0.136,0.333-0.401,0.824-0.718,1.291c-0.451,0.667-0.857,1.018-1.336,1.164
			c-0.381,0.133-0.796,0.086-1.202-0.188c-0.498-0.337-0.712-0.963-0.543-1.642l-0.015-0.011c-0.454,0.408-1.25,0.707-2.017,0.188
			c-0.444-0.301-0.662-0.706-0.739-1.137c-0.085-0.584,0.156-1.27,0.726-2.113c0.311-0.46,0.581-0.791,0.762-0.993L132.937,130.037z
			 M127.894,127.596c-0.111,0.114-0.248,0.301-0.409,0.538c-0.467,0.69-0.644,1.498,0.106,2.006c0.706,0.477,1.407,0.068,1.9-0.66
			l0.373-0.552L127.894,127.596z M130.37,129.272l-0.41,0.606c-0.477,0.705-0.39,1.368,0.109,1.705
			c0.606,0.41,1.154,0.112,1.611-0.563c0.207-0.306,0.304-0.498,0.354-0.621L130.37,129.272z"/>
		<path fill="#191919" d="M127.867,136.778l-4.616-4.189l0.541-0.596l4.616,4.189L127.867,136.778z"/>
		<path fill="#191919" d="M122.437,133.543l4.152,4.644l-0.655,0.586l-3.588-1.02c-0.831-0.237-1.537-0.485-2.182-0.764l-0.008,0.02
			c0.61,0.571,1.129,1.123,1.776,1.847l1.737,1.943l-0.565,0.505l-4.152-4.644l0.607-0.542l3.581,1.039
			c0.786,0.227,1.57,0.481,2.254,0.774l0.014-0.025c-0.558-0.555-1.07-1.101-1.76-1.873l-1.774-1.984L122.437,133.543z"/>
		<path fill="#191919" d="M114.474,139.941c0.165-0.287,0.577-0.737,1.209-1.156c1.464-0.969,3.179-0.775,4.306,0.928
			c1.077,1.626,0.706,3.459-0.905,4.525c-0.647,0.428-1.147,0.561-1.386,0.586l-0.201-0.654c0.336-0.046,0.76-0.193,1.191-0.479
			c1.218-0.806,1.511-2.121,0.607-3.485c-0.841-1.272-2.115-1.604-3.378-0.767c-0.409,0.271-0.769,0.632-0.951,0.941
			L114.474,139.941z"/>
		<path fill="#191919" d="M113.98,140.452c0.161,0.301,0.07,0.623-0.215,0.776c-0.285,0.152-0.595,0.045-0.756-0.257
			c-0.157-0.294-0.087-0.615,0.215-0.776C113.509,140.042,113.822,140.158,113.98,140.452z"/>
		<path fill="#191919" d="M106.248,143.45c0.228-0.24,0.733-0.58,1.446-0.839c1.651-0.598,3.271-0.006,3.968,1.914
			c0.664,1.834-0.128,3.527-1.944,4.186c-0.73,0.265-1.247,0.275-1.485,0.243l-0.041-0.683c0.337,0.035,0.784-0.009,1.27-0.185
			c1.373-0.498,1.968-1.706,1.41-3.244c-0.52-1.434-1.679-2.056-3.104-1.539c-0.461,0.167-0.895,0.433-1.147,0.69L106.248,143.45z"
			/>
		<path fill="#191919" d="M101.03,147.612c-0.431-2.101,0.617-3.477,2.175-3.796c1.612-0.33,3.001,0.688,3.378,2.535
			c0.398,1.938-0.547,3.452-2.177,3.787C102.74,150.479,101.401,149.424,101.03,147.612z M105.746,146.542
			c-0.267-1.304-1.213-2.327-2.454-2.074c-1.249,0.256-1.72,1.552-1.436,2.937c0.249,1.214,1.143,2.352,2.456,2.083
			C105.615,149.22,106.02,147.882,105.746,146.542z"/>
		<path fill="#191919" d="M99.546,144.563l0.274,6.227l-0.877,0.04l-2.135-3.063c-0.494-0.71-0.884-1.35-1.207-1.975l-0.018,0.011
			c0.111,0.828,0.162,1.585,0.205,2.555l0.115,2.605l-0.758,0.033l-0.275-6.227l0.814-0.036l2.117,3.072
			c0.464,0.673,0.912,1.366,1.255,2.027l0.027-0.01c-0.08-0.784-0.132-1.531-0.177-2.566l-0.118-2.66L99.546,144.563z"/>
		<path fill="#191919" d="M92.007,150.111l1.888,0.17l-0.061,0.681l-4.596-0.414l0.061-0.681l1.897,0.17l0.499-5.526l0.81,0.073
			L92.007,150.111z"/>
		<path fill="#191919" d="M87.346,150.17l1.099-6.132l0.792,0.141l-1.1,6.132L87.346,150.17z"/>
		<path fill="#191919" d="M87.197,143.852l-1.744,5.98l-0.843-0.246l-1.034-3.585c-0.239-0.831-0.401-1.561-0.507-2.257
			l-0.021,0.005c-0.162,0.819-0.356,1.552-0.628,2.483l-0.729,2.503l-0.728-0.212l1.744-5.98l0.78,0.228l1.014,3.588
			c0.223,0.787,0.423,1.587,0.536,2.323l0.029-0.002c0.175-0.767,0.367-1.49,0.657-2.485l0.745-2.555L87.197,143.852z"/>
		<path fill="#191919" d="M77.457,143.429l2.211,0.987l0.915-2.05l-2.463-1.101l0.274-0.616l3.198,1.428l-2.54,5.687l-3.071-1.372
			l0.274-0.616l2.337,1.044l0.803-1.797l-2.21-0.987L77.457,143.429z"/>
		<path fill="#191919" d="M77.633,140.275l-3.288,5.298l-0.747-0.463l-0.034-3.735c-0.007-0.865,0.032-1.613,0.118-2.312
			l-0.021-0.002c-0.376,0.747-0.76,1.401-1.273,2.227l-1.376,2.217l-0.644-0.4l3.289-5.298l0.691,0.43l0.013,3.732
			c0.004,0.819-0.018,1.643-0.107,2.383l0.028,0.007c0.376-0.693,0.755-1.339,1.301-2.219l1.406-2.264L77.633,140.275z"/>
		<path fill="#191919" d="M68.262,140.576l1.459,1.208l-0.436,0.526l-3.55-2.94l0.436-0.526l1.465,1.214l3.535-4.269l0.626,0.518
			L68.262,140.576z"/>
		<path fill="#191919" d="M67.711,135.302l1.862-0.893l0.577,0.6l-5.961,2.795l-0.673-0.7l3.018-5.854l0.597,0.619l-0.951,1.84
			L67.711,135.302z M65.841,134.265l-0.87,1.684c-0.197,0.382-0.4,0.706-0.596,1.022l0.013,0.014c0.33-0.19,0.674-0.38,1.03-0.556
			l1.723-0.81L65.841,134.265z"/>
		<path fill="#191919" d="M61.123,134.381l-0.481-0.644l4.454-3.322l-1.592-2.134l0.542-0.404l2.072,2.779L61.123,134.381z"/>
		<path fill="#191919" d="M62.821,125.901l-0.445,0.228l-0.841-0.285c-2.001-0.699-3.008-0.961-3.819-0.556
			c-0.543,0.278-0.909,0.799-0.5,1.597c0.249,0.486,0.703,0.762,1.035,0.904l-0.392,0.491c-0.502-0.21-1.003-0.617-1.318-1.235
			c-0.591-1.152-0.05-2.042,0.715-2.434c0.987-0.506,2.153-0.2,3.816,0.371l0.615,0.225l0.016-0.008l-1.232-2.403l0.601-0.308
			L62.821,125.901z"/>
		<path fill="#191919" d="M56.511,119.13c1.918-0.706,3.238-0.383,3.698,0.866c0.405,1.102-0.353,2.228-2.212,2.932
			c-1.891,0.696-3.233,0.263-3.654-0.882C53.906,120.857,54.716,119.79,56.511,119.13z M57.725,122.161
			c1.466-0.54,2.133-1.298,1.877-1.992c-0.287-0.78-1.336-0.819-2.776-0.289c-1.388,0.511-2.168,1.201-1.877,1.992
			C55.195,122.54,56.19,122.725,57.725,122.161z"/>
		<path fill="#191919" d="M53.718,117l0.005,0.018l0.787,0.888l-0.567,0.294l-0.984-1.118l-0.158-0.675l5.85-1.371l0.179,0.765
			L53.718,117z"/>
		<path fill="#191919" d="M57.273,112.958c0.121-0.246,0.292-0.805,0.231-1.365c-0.114-1.039-0.813-1.289-1.308-1.225
			c-0.836,0.102-1.111,0.895-1.026,1.677l0.049,0.451l-0.607,0.067l-0.049-0.451c-0.065-0.589-0.451-1.3-1.158-1.222
			c-0.479,0.053-0.868,0.403-0.787,1.148c0.053,0.478,0.315,0.914,0.527,1.152l-0.565,0.276c-0.265-0.288-0.561-0.869-0.632-1.513
			c-0.13-1.177,0.51-1.787,1.237-1.867c0.616-0.068,1.182,0.242,1.529,0.949l0.018-0.002c0.067-0.752,0.553-1.411,1.39-1.503
			c0.956-0.105,1.876,0.547,2.033,1.982c0.074,0.671-0.073,1.283-0.233,1.599L57.273,112.958z"/>
	</g>
	<path fill="#191919" d="M95.539,142.12c-19.182,0-34.787-15.605-34.787-34.787s15.605-34.787,34.787-34.787
		s34.787,15.605,34.787,34.787S114.721,142.12,95.539,142.12z M95.539,73.546c-18.63,0-33.787,15.157-33.787,33.787
		s15.157,33.787,33.787,33.787s33.787-15.157,33.787-33.787S114.169,73.546,95.539,73.546z"/>
	<path fill="#191919" d="M95.539,154.833c-26.191,0-47.5-21.309-47.5-47.5s21.309-47.5,47.5-47.5s47.5,21.309,47.5,47.5
		S121.73,154.833,95.539,154.833z M95.539,60.833c-25.641,0-46.5,20.86-46.5,46.5c0,25.641,20.859,46.5,46.5,46.5
		s46.5-20.859,46.5-46.5C142.039,81.693,121.18,60.833,95.539,60.833z"/>
	<path fill="#191919" d="M22.311,96.346c-4.382,0-9.602-1.341-15.463-5.307c-17.402-11.774-31.925-0.146-32.069-0.028l-0.635-0.772
		c0.15-0.124,15.248-12.217,33.265-0.028c17.33,11.724,28.395,0.052,28.857-0.451c0.15-0.147,13.164-12.284,30.687-0.072
		c16.886,11.77,31.92,0.137,32.07,0.019l0.621,0.783c-0.155,0.125-15.771,12.209-33.264,0.019
		c-16.855-11.749-29.277-0.168-29.4-0.049C36.915,90.531,31.43,96.345,22.311,96.346z"/>
	<path fill="#191919" d="M22.311,107.404c-4.382,0-9.602-1.342-15.463-5.307c-17.402-11.773-31.925-0.146-32.069-0.027l-0.635-0.773
		c0.15-0.124,15.248-12.214,33.265-0.027c17.354,11.74,28.744-0.326,28.857-0.45c0.15-0.146,13.164-12.285,30.687-0.072
		c16.869,11.757,31.92,0.136,32.07,0.019l0.621,0.783c-0.155,0.123-15.771,12.208-33.264,0.019
		c-16.855-11.75-29.277-0.168-29.4-0.049C36.915,101.59,31.43,107.404,22.311,107.404z"/>
	<path fill="#191919" d="M77.569,116.517c-3.363-0.704-6.947-2.154-10.616-4.712c-17.522-12.213-30.536-0.074-30.687,0.072
		c-0.463,0.502-11.527,12.174-28.857,0.45c-18.017-12.19-33.114-0.097-33.265,0.027l0.635,0.773
		c0.145-0.119,14.667-11.746,32.069,0.027c5.861,3.966,11.081,5.308,15.463,5.308c9.119-0.001,14.604-5.815,14.669-5.887
		c0.123-0.12,12.545-11.698,29.4,0.049c3.856,2.687,7.62,4.192,11.147,4.908C77.529,117.193,77.543,116.854,77.569,116.517z"/>
	<path fill="#191919" d="M22.31,129.522c-4.381,0-9.601-1.342-15.462-5.307c-17.402-11.773-31.925-0.146-32.069-0.027l-0.635-0.773
		c0.149-0.123,15.248-12.217,33.265-0.027c17.354,11.741,28.744-0.328,28.857-0.451c0.15-0.147,13.164-12.285,30.687-0.072
		c16.869,11.757,31.92,0.136,32.07,0.019l0.621,0.783c-0.155,0.123-15.771,12.209-33.264,0.019
		c-16.832-11.732-28.896-0.532-29.4-0.049C36.915,123.707,31.429,129.521,22.31,129.522z"/>
	<g>
		<path fill="#191919" d="M82.979,116.62c0.351,0,0.702,0,1.052,0c11.067,0,22.134,0,33.201,0c1.184,0,1.185,0.002,1.186,1.462
			c0.001,1.799,0.007,3.599-0.002,5.398c-0.012,2.384-0.93,3.524-2.857,3.525c-11.457,0.005-22.915,0.012-34.372-0.003
			c-3.917-0.005-7.366-2.901-8.532-7.371c-1.028-3.941-0.155-7.731,2.889-10.764c1.61-1.605,3.578-2.131,5.495-2.809
			c3.764-1.33,7.536-2.632,11.305-3.941c3.69-1.281,7.38-2.556,11.071-3.833c1.257-0.435,2.515-0.864,3.77-1.307
			c0.088-0.031,0.155-0.154,0.402-0.413c-0.583-0.05-0.979-0.113-1.376-0.113c-10.844-0.005-21.688-0.004-32.532-0.005
			c-1.428,0-1.429-0.001-1.429-1.73c0-1.664-0.012-3.328,0.004-4.991c0.022-2.339,1.059-3.599,2.954-3.599
			c11.206-0.003,22.413-0.018,33.619,0.009c3.4,0.008,6.265,1.492,8.275,4.958c2.559,4.414,1.373,10.853-2.681,13.639
			c-1.689,1.161-3.647,1.792-5.527,2.481c-4.5,1.649-9.027,3.192-13.544,4.772c-4.035,1.411-8.071,2.813-12.107,4.221
			c-0.101,0.035-0.197,0.09-0.295,0.136C82.959,116.435,82.969,116.528,82.979,116.62z"/>
	</g>
</g>
</svg>
